ISO-10303-21;
HEADER;
/* Generated by software containing ST-Developer
 * from STEP Tools, Inc. (www.steptools.com) 
 */

FILE_DESCRIPTION(
/* description */ (''),
/* implementation_level */ '2;1');

FILE_NAME(
/* name */ 'Slider Cap.step',
/* time_stamp */ '2026-09-15T22:30:17+05:30',
/* author */ (''),
/* organization */ (''),
/* preprocessor_version */ 'ST-DEVELOPER v20.2',
/* originating_system */ 'Autodesk Translation Framework v15.15.0.0',
/* authorisation */ '');

FILE_SCHEMA (('AUTOMOTIVE_DESIGN { 1 0 10303 214 3 1 1 }'));
ENDSEC;

DATA;
#10=MECHANICAL_DESIGN_GEOMETRIC_PRESENTATION_REPRESENTATION('',(#13),#381);
#11=SHAPE_REPRESENTATION_RELATIONSHIP('SRR','None',#391,#12);
#12=ADVANCED_BREP_SHAPE_REPRESENTATION('',(#14),#380);
#13=STYLED_ITEM('',(#400),#14);
#14=MANIFOLD_SOLID_BREP('Body2',#233);
#15=FACE_OUTER_BOUND('',#27,.T.);
#16=FACE_OUTER_BOUND('',#28,.T.);
#17=FACE_OUTER_BOUND('',#29,.T.);
#18=FACE_OUTER_BOUND('',#30,.T.);
#19=FACE_OUTER_BOUND('',#31,.T.);
#20=FACE_OUTER_BOUND('',#32,.T.);
#21=FACE_OUTER_BOUND('',#33,.T.);
#22=FACE_OUTER_BOUND('',#34,.T.);
#23=FACE_OUTER_BOUND('',#35,.T.);
#24=FACE_OUTER_BOUND('',#36,.T.);
#25=FACE_OUTER_BOUND('',#37,.T.);
#26=FACE_OUTER_BOUND('',#38,.T.);
#27=EDGE_LOOP('',(#149,#150,#151,#152));
#28=EDGE_LOOP('',(#153,#154,#155,#156));
#29=EDGE_LOOP('',(#157,#158,#159,#160,#161,#162,#163,#164,#165,#166));
#30=EDGE_LOOP('',(#167,#168,#169,#170));
#31=EDGE_LOOP('',(#171,#172,#173,#174));
#32=EDGE_LOOP('',(#175,#176,#177,#178));
#33=EDGE_LOOP('',(#179,#180,#181,#182));
#34=EDGE_LOOP('',(#183,#184,#185,#186));
#35=EDGE_LOOP('',(#187,#188,#189,#190));
#36=EDGE_LOOP('',(#191,#192,#193,#194));
#37=EDGE_LOOP('',(#195,#196,#197,#198));
#38=EDGE_LOOP('',(#199,#200,#201,#202,#203,#204,#205,#206,#207,#208));
#39=LINE('',#319,#69);
#40=LINE('',#321,#70);
#41=LINE('',#323,#71);
#42=LINE('',#324,#72);
#43=LINE('',#327,#73);
#44=LINE('',#329,#74);
#45=LINE('',#330,#75);
#46=LINE('',#333,#76);
#47=LINE('',#335,#77);
#48=LINE('',#337,#78);
#49=LINE('',#339,#79);
#50=LINE('',#341,#80);
#51=LINE('',#343,#81);
#52=LINE('',#345,#82);
#53=LINE('',#346,#83);
#54=LINE('',#350,#84);
#55=LINE('',#351,#85);
#56=LINE('',#352,#86);
#57=LINE('',#355,#87);
#58=LINE('',#356,#88);
#59=LINE('',#359,#89);
#60=LINE('',#360,#90);
#61=LINE('',#363,#91);
#62=LINE('',#364,#92);
#63=LINE('',#367,#93);
#64=LINE('',#368,#94);
#65=LINE('',#370,#95);
#66=LINE('',#373,#96);
#67=LINE('',#374,#97);
#68=LINE('',#376,#98);
#69=VECTOR('',#263,0.393700787401575);
#70=VECTOR('',#264,0.393700787401575);
#71=VECTOR('',#265,0.393700787401575);
#72=VECTOR('',#266,0.393700787401575);
#73=VECTOR('',#269,0.393700787401575);
#74=VECTOR('',#270,0.393700787401575);
#75=VECTOR('',#271,0.393700787401575);
#76=VECTOR('',#274,0.393700787401575);
#77=VECTOR('',#275,0.393700787401575);
#78=VECTOR('',#276,0.393700787401575);
#79=VECTOR('',#277,0.393700787401575);
#80=VECTOR('',#278,0.393700787401575);
#81=VECTOR('',#279,0.393700787401575);
#82=VECTOR('',#280,0.393700787401575);
#83=VECTOR('',#281,0.393700787401575);
#84=VECTOR('',#284,0.393700787401575);
#85=VECTOR('',#285,0.393700787401575);
#86=VECTOR('',#286,0.393700787401575);
#87=VECTOR('',#289,0.393700787401575);
#88=VECTOR('',#290,0.393700787401575);
#89=VECTOR('',#293,0.393700787401575);
#90=VECTOR('',#294,0.393700787401575);
#91=VECTOR('',#297,0.393700787401575);
#92=VECTOR('',#298,0.393700787401575);
#93=VECTOR('',#301,0.393700787401575);
#94=VECTOR('',#302,0.393700787401575);
#95=VECTOR('',#305,0.393700787401575);
#96=VECTOR('',#308,0.393700787401575);
#97=VECTOR('',#309,0.393700787401575);
#98=VECTOR('',#312,0.393700787401575);
#99=VERTEX_POINT('',#317);
#100=VERTEX_POINT('',#318);
#101=VERTEX_POINT('',#320);
#102=VERTEX_POINT('',#322);
#103=VERTEX_POINT('',#326);
#104=VERTEX_POINT('',#328);
#105=VERTEX_POINT('',#332);
#106=VERTEX_POINT('',#334);
#107=VERTEX_POINT('',#336);
#108=VERTEX_POINT('',#338);
#109=VERTEX_POINT('',#340);
#110=VERTEX_POINT('',#342);
#111=VERTEX_POINT('',#344);
#112=VERTEX_POINT('',#348);
#113=VERTEX_POINT('',#349);
#114=VERTEX_POINT('',#354);
#115=VERTEX_POINT('',#358);
#116=VERTEX_POINT('',#362);
#117=VERTEX_POINT('',#366);
#118=VERTEX_POINT('',#372);
#119=EDGE_CURVE('',#99,#100,#39,.T.);
#120=EDGE_CURVE('',#101,#99,#40,.T.);
#121=EDGE_CURVE('',#102,#101,#41,.T.);
#122=EDGE_CURVE('',#100,#102,#42,.T.);
#123=EDGE_CURVE('',#103,#102,#43,.T.);
#124=EDGE_CURVE('',#104,#103,#44,.T.);
#125=EDGE_CURVE('',#100,#104,#45,.T.);
#126=EDGE_CURVE('',#105,#101,#46,.T.);
#127=EDGE_CURVE('',#105,#106,#47,.T.);
#128=EDGE_CURVE('',#106,#107,#48,.T.);
#129=EDGE_CURVE('',#107,#108,#49,.T.);
#130=EDGE_CURVE('',#108,#109,#50,.T.);
#131=EDGE_CURVE('',#109,#110,#51,.T.);
#132=EDGE_CURVE('',#110,#111,#52,.T.);
#133=EDGE_CURVE('',#111,#103,#53,.T.);
#134=EDGE_CURVE('',#112,#113,#54,.T.);
#135=EDGE_CURVE('',#112,#110,#55,.T.);
#136=EDGE_CURVE('',#113,#109,#56,.T.);
#137=EDGE_CURVE('',#113,#114,#57,.T.);
#138=EDGE_CURVE('',#114,#108,#58,.T.);
#139=EDGE_CURVE('',#115,#114,#59,.T.);
#140=EDGE_CURVE('',#115,#107,#60,.T.);
#141=EDGE_CURVE('',#116,#115,#61,.T.);
#142=EDGE_CURVE('',#116,#106,#62,.T.);
#143=EDGE_CURVE('',#116,#117,#63,.T.);
#144=EDGE_CURVE('',#117,#105,#64,.T.);
#145=EDGE_CURVE('',#117,#99,#65,.T.);
#146=EDGE_CURVE('',#104,#118,#66,.T.);
#147=EDGE_CURVE('',#118,#111,#67,.T.);
#148=EDGE_CURVE('',#112,#118,#68,.T.);
#149=ORIENTED_EDGE('',*,*,#119,.F.);
#150=ORIENTED_EDGE('',*,*,#120,.F.);
#151=ORIENTED_EDGE('',*,*,#121,.F.);
#152=ORIENTED_EDGE('',*,*,#122,.F.);
#153=ORIENTED_EDGE('',*,*,#122,.T.);
#154=ORIENTED_EDGE('',*,*,#123,.F.);
#155=ORIENTED_EDGE('',*,*,#124,.F.);
#156=ORIENTED_EDGE('',*,*,#125,.F.);
#157=ORIENTED_EDGE('',*,*,#121,.T.);
#158=ORIENTED_EDGE('',*,*,#126,.F.);
#159=ORIENTED_EDGE('',*,*,#127,.T.);
#160=ORIENTED_EDGE('',*,*,#128,.T.);
#161=ORIENTED_EDGE('',*,*,#129,.T.);
#162=ORIENTED_EDGE('',*,*,#130,.T.);
#163=ORIENTED_EDGE('',*,*,#131,.T.);
#164=ORIENTED_EDGE('',*,*,#132,.T.);
#165=ORIENTED_EDGE('',*,*,#133,.T.);
#166=ORIENTED_EDGE('',*,*,#123,.T.);
#167=ORIENTED_EDGE('',*,*,#134,.F.);
#168=ORIENTED_EDGE('',*,*,#135,.T.);
#169=ORIENTED_EDGE('',*,*,#131,.F.);
#170=ORIENTED_EDGE('',*,*,#136,.F.);
#171=ORIENTED_EDGE('',*,*,#137,.F.);
#172=ORIENTED_EDGE('',*,*,#136,.T.);
#173=ORIENTED_EDGE('',*,*,#130,.F.);
#174=ORIENTED_EDGE('',*,*,#138,.F.);
#175=ORIENTED_EDGE('',*,*,#139,.T.);
#176=ORIENTED_EDGE('',*,*,#138,.T.);
#177=ORIENTED_EDGE('',*,*,#129,.F.);
#178=ORIENTED_EDGE('',*,*,#140,.F.);
#179=ORIENTED_EDGE('',*,*,#141,.T.);
#180=ORIENTED_EDGE('',*,*,#140,.T.);
#181=ORIENTED_EDGE('',*,*,#128,.F.);
#182=ORIENTED_EDGE('',*,*,#142,.F.);
#183=ORIENTED_EDGE('',*,*,#143,.F.);
#184=ORIENTED_EDGE('',*,*,#142,.T.);
#185=ORIENTED_EDGE('',*,*,#127,.F.);
#186=ORIENTED_EDGE('',*,*,#144,.F.);
#187=ORIENTED_EDGE('',*,*,#120,.T.);
#188=ORIENTED_EDGE('',*,*,#145,.F.);
#189=ORIENTED_EDGE('',*,*,#144,.T.);
#190=ORIENTED_EDGE('',*,*,#126,.T.);
#191=ORIENTED_EDGE('',*,*,#146,.F.);
#192=ORIENTED_EDGE('',*,*,#124,.T.);
#193=ORIENTED_EDGE('',*,*,#133,.F.);
#194=ORIENTED_EDGE('',*,*,#147,.F.);
#195=ORIENTED_EDGE('',*,*,#148,.T.);
#196=ORIENTED_EDGE('',*,*,#147,.T.);
#197=ORIENTED_EDGE('',*,*,#132,.F.);
#198=ORIENTED_EDGE('',*,*,#135,.F.);
#199=ORIENTED_EDGE('',*,*,#119,.T.);
#200=ORIENTED_EDGE('',*,*,#125,.T.);
#201=ORIENTED_EDGE('',*,*,#146,.T.);
#202=ORIENTED_EDGE('',*,*,#148,.F.);
#203=ORIENTED_EDGE('',*,*,#134,.T.);
#204=ORIENTED_EDGE('',*,*,#137,.T.);
#205=ORIENTED_EDGE('',*,*,#139,.F.);
#206=ORIENTED_EDGE('',*,*,#141,.F.);
#207=ORIENTED_EDGE('',*,*,#143,.T.);
#208=ORIENTED_EDGE('',*,*,#145,.T.);
#209=PLANE('',#247);
#210=PLANE('',#248);
#211=PLANE('',#249);
#212=PLANE('',#250);
#213=PLANE('',#251);
#214=PLANE('',#252);
#215=PLANE('',#253);
#216=PLANE('',#254);
#217=PLANE('',#255);
#218=PLANE('',#256);
#219=PLANE('',#257);
#220=PLANE('',#258);
#221=ADVANCED_FACE('',(#15),#209,.F.);
#222=ADVANCED_FACE('',(#16),#210,.T.);
#223=ADVANCED_FACE('',(#17),#211,.T.);
#224=ADVANCED_FACE('',(#18),#212,.T.);
#225=ADVANCED_FACE('',(#19),#213,.T.);
#226=ADVANCED_FACE('',(#20),#214,.T.);
#227=ADVANCED_FACE('',(#21),#215,.T.);
#228=ADVANCED_FACE('',(#22),#216,.T.);
#229=ADVANCED_FACE('',(#23),#217,.T.);
#230=ADVANCED_FACE('',(#24),#218,.T.);
#231=ADVANCED_FACE('',(#25),#219,.T.);
#232=ADVANCED_FACE('',(#26),#220,.F.);
#233=CLOSED_SHELL('',(#221,#222,#223,#224,#225,#226,#227,#228,#229,#230,
#231,#232));
#234=DERIVED_UNIT_ELEMENT(#236,1.);
#235=DERIVED_UNIT_ELEMENT(#385,-3.);
#236=(
MASS_UNIT()
NAMED_UNIT(*)
SI_UNIT(.KILO.,.GRAM.)
);
#237=DERIVED_UNIT((#234,#235));
#238=MEASURE_REPRESENTATION_ITEM('density measure',
POSITIVE_RATIO_MEASURE(7850.),#237);
#239=PROPERTY_DEFINITION_REPRESENTATION(#244,#241);
#240=PROPERTY_DEFINITION_REPRESENTATION(#245,#242);
#241=REPRESENTATION('material name',(#243),#380);
#242=REPRESENTATION('density',(#238),#380);
#243=DESCRIPTIVE_REPRESENTATION_ITEM('Steel','Steel');
#244=PROPERTY_DEFINITION('material property','material name',#393);
#245=PROPERTY_DEFINITION('material property','density of part',#393);
#246=AXIS2_PLACEMENT_3D('',#315,#259,#260);
#247=AXIS2_PLACEMENT_3D('',#316,#261,#262);
#248=AXIS2_PLACEMENT_3D('',#325,#267,#268);
#249=AXIS2_PLACEMENT_3D('',#331,#272,#273);
#250=AXIS2_PLACEMENT_3D('',#347,#282,#283);
#251=AXIS2_PLACEMENT_3D('',#353,#287,#288);
#252=AXIS2_PLACEMENT_3D('',#357,#291,#292);
#253=AXIS2_PLACEMENT_3D('',#361,#295,#296);
#254=AXIS2_PLACEMENT_3D('',#365,#299,#300);
#255=AXIS2_PLACEMENT_3D('',#369,#303,#304);
#256=AXIS2_PLACEMENT_3D('',#371,#306,#307);
#257=AXIS2_PLACEMENT_3D('',#375,#310,#311);
#258=AXIS2_PLACEMENT_3D('',#377,#313,#314);
#259=DIRECTION('axis',(0.,0.,1.));
#260=DIRECTION('refdir',(1.,0.,0.));
#261=DIRECTION('center_axis',(0.,0.,-1.));
#262=DIRECTION('ref_axis',(-1.,0.,0.));
#263=DIRECTION('',(0.,-1.,0.));
#264=DIRECTION('',(1.,0.,0.));
#265=DIRECTION('',(0.,1.,0.));
#266=DIRECTION('',(-1.,0.,0.));
#267=DIRECTION('center_axis',(0.,-1.,0.));
#268=DIRECTION('ref_axis',(0.,0.,1.));
#269=DIRECTION('',(0.,0.,1.));
#270=DIRECTION('',(-1.,0.,0.));
#271=DIRECTION('',(0.,0.,-1.));
#272=DIRECTION('center_axis',(-1.,0.,0.));
#273=DIRECTION('ref_axis',(0.,0.,1.));
#274=DIRECTION('',(0.,0.,1.));
#275=DIRECTION('',(0.,-1.,0.));
#276=DIRECTION('',(0.,0.,1.));
#277=DIRECTION('',(0.,-1.,0.));
#278=DIRECTION('',(0.,0.,-1.));
#279=DIRECTION('',(0.,0.645255372948098,-0.763966951956439));
#280=DIRECTION('',(0.,0.,-1.));
#281=DIRECTION('',(0.,-1.,0.));
#282=DIRECTION('center_axis',(0.,0.763966951956439,0.645255372948098));
#283=DIRECTION('ref_axis',(0.,0.645255372948098,-0.763966951956439));
#284=DIRECTION('',(0.,-0.645255372948098,0.763966951956439));
#285=DIRECTION('',(-1.,0.,0.));
#286=DIRECTION('',(-1.,0.,0.));
#287=DIRECTION('center_axis',(0.,1.,0.));
#288=DIRECTION('ref_axis',(0.,0.,-1.));
#289=DIRECTION('',(0.,0.,1.));
#290=DIRECTION('',(-1.,0.,0.));
#291=DIRECTION('center_axis',(0.,0.,-1.));
#292=DIRECTION('ref_axis',(0.,-1.,0.));
#293=DIRECTION('',(0.,-1.,0.));
#294=DIRECTION('',(-1.,0.,0.));
#295=DIRECTION('center_axis',(0.,-1.,0.));
#296=DIRECTION('ref_axis',(0.,0.,1.));
#297=DIRECTION('',(0.,0.,1.));
#298=DIRECTION('',(-1.,0.,0.));
#299=DIRECTION('center_axis',(0.,0.,-1.));
#300=DIRECTION('ref_axis',(0.,-1.,0.));
#301=DIRECTION('',(0.,1.,0.));
#302=DIRECTION('',(-1.,0.,0.));
#303=DIRECTION('center_axis',(0.,1.,0.));
#304=DIRECTION('ref_axis',(0.,0.,-1.));
#305=DIRECTION('',(0.,0.,1.));
#306=DIRECTION('center_axis',(0.,0.,-1.));
#307=DIRECTION('ref_axis',(0.,-1.,0.));
#308=DIRECTION('',(0.,1.,0.));
#309=DIRECTION('',(-1.,0.,0.));
#310=DIRECTION('center_axis',(0.,1.,0.));
#311=DIRECTION('ref_axis',(0.,0.,-1.));
#312=DIRECTION('',(0.,0.,-1.));
#313=DIRECTION('center_axis',(-1.,0.,0.));
#314=DIRECTION('ref_axis',(0.,-1.,0.));
#315=CARTESIAN_POINT('',(0.,0.,0.));
#316=CARTESIAN_POINT('Origin',(-0.1673228346457,0.0531491453819126,1.07362204543132));
#317=CARTESIAN_POINT('',(-0.1673228346457,0.119999998549777,1.07362204543132));
#318=CARTESIAN_POINT('',(-0.1673228346457,0.0531491453819126,1.07362204543132));
#319=CARTESIAN_POINT('',(-0.1673228346457,0.0698618586738787,1.07362204543132));
#320=CARTESIAN_POINT('',(-0.2323228346457,0.119999998549777,1.07362204543132));
#321=CARTESIAN_POINT('',(-0.1673228346457,0.119999998549777,1.07362204543132));
#322=CARTESIAN_POINT('',(-0.2323228346457,0.0531491453819126,1.07362204543132));
#323=CARTESIAN_POINT('',(-0.2323228346457,0.0698618586738787,1.07362204543132));
#324=CARTESIAN_POINT('',(-0.1673228346457,0.0531491453819126,1.07362204543132));
#325=CARTESIAN_POINT('Origin',(-0.1673228346457,0.0531491453819126,0.0721139340614422));
#326=CARTESIAN_POINT('',(-0.2323228346457,0.0531491453819126,0.0721139340614422));
#327=CARTESIAN_POINT('',(-0.2323228346457,0.0531491453819126,0.149999998187221));
#328=CARTESIAN_POINT('',(-0.1673228346457,0.0531491453819126,0.0721139340614422));
#329=CARTESIAN_POINT('',(-0.1673228346457,0.0531491453819126,0.0721139340614422));
#330=CARTESIAN_POINT('',(-0.1673228346457,0.0531491453819126,0.149999998187221));
#331=CARTESIAN_POINT('Origin',(-0.2323228346457,0.0865745719658447,0.111056966124332));
#332=CARTESIAN_POINT('',(-0.2323228346457,0.119999998549777,0.0721139340614422));
#333=CARTESIAN_POINT('',(-0.2323228346457,0.119999998549777,0.149999998187221));
#334=CARTESIAN_POINT('',(-0.2323228346457,0.117304526337085,0.0721139340614422));
#335=CARTESIAN_POINT('',(-0.2323228346457,0.0531491453819126,0.0721139340614422));
#336=CARTESIAN_POINT('',(-0.2323228346457,0.117304526337085,0.14735069899978));
#337=CARTESIAN_POINT('',(-0.2323228346457,0.117304526337085,0.0721139340614422));
#338=CARTESIAN_POINT('',(-0.2323228346457,0.0581281238539765,0.14735069899978));
#339=CARTESIAN_POINT('',(-0.2323228346457,0.117304526337085,0.14735069899978));
#340=CARTESIAN_POINT('',(-0.2323228346457,0.0581281238539765,0.0999999987914806));
#341=CARTESIAN_POINT('',(-0.2323228346457,0.0581281238539765,0.0999999987914806));
#342=CARTESIAN_POINT('',(-0.2323228346457,0.0776448362920692,0.0768926773515717));
#343=CARTESIAN_POINT('',(-0.2323228346457,0.0776448362920692,0.0768926773515717));
#344=CARTESIAN_POINT('',(-0.2323228346457,0.0776448362920692,0.0721139340614422));
#345=CARTESIAN_POINT('',(-0.2323228346457,0.0776448362920692,0.0768926773515717));
#346=CARTESIAN_POINT('',(-0.2323228346457,0.0531491453819126,0.0721139340614422));
#347=CARTESIAN_POINT('Origin',(-0.1673228346457,0.0581281238539765,0.0999999987914806));
#348=CARTESIAN_POINT('',(-0.1673228346457,0.0776448362920692,0.0768926773515717));
#349=CARTESIAN_POINT('',(-0.1673228346457,0.0581281238539765,0.0999999987914806));
#350=CARTESIAN_POINT('',(-0.1673228346457,0.0776448362920692,0.0768926773515717));
#351=CARTESIAN_POINT('',(-0.1673228346457,0.0776448362920692,0.0768926773515717));
#352=CARTESIAN_POINT('',(-0.1673228346457,0.0581281238539765,0.0999999987914806));
#353=CARTESIAN_POINT('Origin',(-0.1673228346457,0.0581281238539765,0.14735069899978));
#354=CARTESIAN_POINT('',(-0.1673228346457,0.0581281238539765,0.14735069899978));
#355=CARTESIAN_POINT('',(-0.1673228346457,0.0581281238539765,0.0999999987914806));
#356=CARTESIAN_POINT('',(-0.1673228346457,0.0581281238539765,0.14735069899978));
#357=CARTESIAN_POINT('Origin',(-0.1673228346457,0.117304526337085,0.14735069899978));
#358=CARTESIAN_POINT('',(-0.1673228346457,0.117304526337085,0.14735069899978));
#359=CARTESIAN_POINT('',(-0.1673228346457,0.117304526337085,0.14735069899978));
#360=CARTESIAN_POINT('',(-0.1673228346457,0.117304526337085,0.14735069899978));
#361=CARTESIAN_POINT('Origin',(-0.1673228346457,0.117304526337085,0.0721139340614422));
#362=CARTESIAN_POINT('',(-0.1673228346457,0.117304526337085,0.0721139340614422));
#363=CARTESIAN_POINT('',(-0.1673228346457,0.117304526337085,0.0721139340614422));
#364=CARTESIAN_POINT('',(-0.1673228346457,0.117304526337085,0.0721139340614422));
#365=CARTESIAN_POINT('Origin',(-0.1673228346457,0.119999998549777,0.0721139340614422));
#366=CARTESIAN_POINT('',(-0.1673228346457,0.119999998549777,0.0721139340614422));
#367=CARTESIAN_POINT('',(-0.1673228346457,0.0531491453819126,0.0721139340614422));
#368=CARTESIAN_POINT('',(-0.1673228346457,0.119999998549777,0.0721139340614422));
#369=CARTESIAN_POINT('Origin',(-0.1673228346457,0.119999998549777,0.149999998187221));
#370=CARTESIAN_POINT('',(-0.1673228346457,0.119999998549777,0.149999998187221));
#371=CARTESIAN_POINT('Origin',(-0.1673228346457,0.0776448362920692,0.0721139340614422));
#372=CARTESIAN_POINT('',(-0.1673228346457,0.0776448362920692,0.0721139340614422));
#373=CARTESIAN_POINT('',(-0.1673228346457,0.0531491453819126,0.0721139340614422));
#374=CARTESIAN_POINT('',(-0.1673228346457,0.0776448362920692,0.0721139340614422));
#375=CARTESIAN_POINT('Origin',(-0.1673228346457,0.0776448362920692,0.0768926773515717));
#376=CARTESIAN_POINT('',(-0.1673228346457,0.0776448362920692,0.0768926773515717));
#377=CARTESIAN_POINT('Origin',(-0.1673228346457,0.0865745719658447,0.111056966124332));
#378=UNCERTAINTY_MEASURE_WITH_UNIT(LENGTH_MEASURE(0.000393700787401575),
#383,'DISTANCE_ACCURACY_VALUE',
'Maximum model space distance between geometric entities at asserted c
onnectivities');
#379=UNCERTAINTY_MEASURE_WITH_UNIT(LENGTH_MEASURE(0.000393700787401575),
#383,'DISTANCE_ACCURACY_VALUE',
'Maximum model space distance between geometric entities at asserted c
onnectivities');
#380=(
GEOMETRIC_REPRESENTATION_CONTEXT(3)
GLOBAL_UNCERTAINTY_ASSIGNED_CONTEXT((#378))
GLOBAL_UNIT_ASSIGNED_CONTEXT((#383,#387,#388))
REPRESENTATION_CONTEXT('','3D')
);
#381=(
GEOMETRIC_REPRESENTATION_CONTEXT(3)
GLOBAL_UNCERTAINTY_ASSIGNED_CONTEXT((#379))
GLOBAL_UNIT_ASSIGNED_CONTEXT((#383,#387,#388))
REPRESENTATION_CONTEXT('','3D')
);
#382=DIMENSIONAL_EXPONENTS(1.,0.,0.,0.,0.,0.,0.);
#383=(
CONVERSION_BASED_UNIT('inch',#386)
LENGTH_UNIT()
NAMED_UNIT(#382)
);
#384=(
LENGTH_UNIT()
NAMED_UNIT(*)
SI_UNIT(.MILLI.,.METRE.)
);
#385=(
LENGTH_UNIT()
NAMED_UNIT(*)
SI_UNIT($,.METRE.)
);
#386=LENGTH_MEASURE_WITH_UNIT(LENGTH_MEASURE(25.4),#384);
#387=(
NAMED_UNIT(*)
PLANE_ANGLE_UNIT()
SI_UNIT($,.RADIAN.)
);
#388=(
NAMED_UNIT(*)
SI_UNIT($,.STERADIAN.)
SOLID_ANGLE_UNIT()
);
#389=SHAPE_DEFINITION_REPRESENTATION(#390,#391);
#390=PRODUCT_DEFINITION_SHAPE('',$,#393);
#391=SHAPE_REPRESENTATION('',(#246),#380);
#392=PRODUCT_DEFINITION_CONTEXT('part definition',#397,'design');
#393=PRODUCT_DEFINITION('JS102011SAQN_SW0004_PRT','Slider Cap',#394,#392);
#394=PRODUCT_DEFINITION_FORMATION('',$,#399);
#395=PRODUCT_RELATED_PRODUCT_CATEGORY('Slider Cap','Slider Cap',(#399));
#396=APPLICATION_PROTOCOL_DEFINITION('international standard',
'automotive_design',2009,#397);
#397=APPLICATION_CONTEXT(
'Core Data for Automotive Mechanical Design Process');
#398=PRODUCT_CONTEXT('part definition',#397,'mechanical');
#399=PRODUCT('JS102011SAQN_SW0004_PRT','Slider Cap',$,(#398));
#400=PRESENTATION_STYLE_ASSIGNMENT((#401));
#401=SURFACE_STYLE_USAGE(.BOTH.,#402);
#402=SURFACE_SIDE_STYLE('',(#403));
#403=SURFACE_STYLE_FILL_AREA(#404);
#404=FILL_AREA_STYLE('Steel - Satin',(#405));
#405=FILL_AREA_STYLE_COLOUR('Steel - Satin',#406);
#406=COLOUR_RGB('Steel - Satin',0.627450980392157,0.627450980392157,0.627450980392157);
ENDSEC;
END-ISO-10303-21;
