ISO-10303-21;
HEADER;
/* Generated by software containing ST-Developer
 * from STEP Tools, Inc. (www.steptools.com) 
 */

FILE_DESCRIPTION(
/* description */ ('KiCad electronic assembly'),
/* implementation_level */ '2;1');

FILE_NAME(
/* name */ 'Libre_Base.step',
/* time_stamp */ '2026-09-15T21:33:51+05:30',
/* author */ (''),
/* organization */ (''),
/* preprocessor_version */ 'ST-DEVELOPER v20.2',
/* originating_system */ 'Autodesk Translation Framework v15.15.0.0',
/* authorisation */ '');

FILE_SCHEMA (('AUTOMOTIVE_DESIGN { 1 0 10303 214 3 1 1 }'));
ENDSEC;

DATA;
#10=MECHANICAL_DESIGN_GEOMETRIC_PRESENTATION_REPRESENTATION('',(#49,#50,
#51),#1693);
#11=SHAPE_REPRESENTATION_RELATIONSHIP('SRR','None',#1699,#12);
#12=ADVANCED_BREP_SHAPE_REPRESENTATION('',(#52,#53,#54),#1692);
#13=CYLINDRICAL_SURFACE('',#1079,2.5);
#14=CYLINDRICAL_SURFACE('',#1081,3.49999999999998);
#15=CYLINDRICAL_SURFACE('',#1085,2.5);
#16=CYLINDRICAL_SURFACE('',#1087,3.5);
#17=CYLINDRICAL_SURFACE('',#1091,2.5);
#18=CYLINDRICAL_SURFACE('',#1093,3.5);
#19=CYLINDRICAL_SURFACE('',#1097,2.5);
#20=CYLINDRICAL_SURFACE('',#1099,3.5);
#21=CYLINDRICAL_SURFACE('',#1108,3.5);
#22=CYLINDRICAL_SURFACE('',#1111,3.5);
#23=CYLINDRICAL_SURFACE('',#1114,3.5);
#24=CYLINDRICAL_SURFACE('',#1117,3.5);
#25=CIRCLE('',#1072,2.5);
#26=CIRCLE('',#1074,2.5);
#27=CIRCLE('',#1076,2.5);
#28=CIRCLE('',#1078,2.5);
#29=CIRCLE('',#1080,2.5);
#30=CIRCLE('',#1082,3.49999999999998);
#31=CIRCLE('',#1083,3.49999999999998);
#32=CIRCLE('',#1086,2.5);
#33=CIRCLE('',#1088,3.5);
#34=CIRCLE('',#1089,3.5);
#35=CIRCLE('',#1092,2.5);
#36=CIRCLE('',#1094,3.5);
#37=CIRCLE('',#1095,3.5);
#38=CIRCLE('',#1098,2.5);
#39=CIRCLE('',#1100,3.5);
#40=CIRCLE('',#1101,3.5);
#41=CIRCLE('',#1104,3.5);
#42=CIRCLE('',#1105,3.5);
#43=CIRCLE('',#1106,3.5);
#44=CIRCLE('',#1107,3.5);
#45=CIRCLE('',#1109,3.5);
#46=CIRCLE('',#1112,3.5);
#47=CIRCLE('',#1115,3.5);
#48=CIRCLE('',#1118,3.5);
#49=STYLED_ITEM('',(#1708),#52);
#50=STYLED_ITEM('',(#1708),#53);
#51=STYLED_ITEM('',(#1708),#54);
#52=MANIFOLD_SOLID_BREP('Body1',#1035);
#53=MANIFOLD_SOLID_BREP('Body2',#1036);
#54=MANIFOLD_SOLID_BREP('Body3',#1037);
#55=FACE_BOUND('',#152,.T.);
#56=FACE_BOUND('',#154,.T.);
#57=FACE_BOUND('',#156,.T.);
#58=FACE_BOUND('',#157,.T.);
#59=FACE_BOUND('',#161,.T.);
#60=FACE_BOUND('',#165,.T.);
#61=FACE_BOUND('',#166,.T.);
#62=FACE_BOUND('',#168,.T.);
#63=FACE_BOUND('',#178,.T.);
#64=FACE_BOUND('',#180,.T.);
#65=FACE_BOUND('',#188,.T.);
#66=FACE_BOUND('',#192,.T.);
#67=FACE_BOUND('',#196,.T.);
#68=FACE_BOUND('',#200,.T.);
#69=FACE_BOUND('',#202,.T.);
#70=FACE_BOUND('',#203,.T.);
#71=FACE_BOUND('',#204,.T.);
#72=FACE_BOUND('',#205,.T.);
#73=FACE_BOUND('',#206,.T.);
#74=FACE_BOUND('',#207,.T.);
#75=FACE_BOUND('',#208,.T.);
#76=FACE_BOUND('',#209,.T.);
#77=FACE_OUTER_BOUND('',#139,.T.);
#78=FACE_OUTER_BOUND('',#140,.T.);
#79=FACE_OUTER_BOUND('',#141,.T.);
#80=FACE_OUTER_BOUND('',#142,.T.);
#81=FACE_OUTER_BOUND('',#143,.T.);
#82=FACE_OUTER_BOUND('',#144,.T.);
#83=FACE_OUTER_BOUND('',#145,.T.);
#84=FACE_OUTER_BOUND('',#146,.T.);
#85=FACE_OUTER_BOUND('',#147,.T.);
#86=FACE_OUTER_BOUND('',#148,.T.);
#87=FACE_OUTER_BOUND('',#149,.T.);
#88=FACE_OUTER_BOUND('',#150,.T.);
#89=FACE_OUTER_BOUND('',#151,.T.);
#90=FACE_OUTER_BOUND('',#153,.T.);
#91=FACE_OUTER_BOUND('',#155,.T.);
#92=FACE_OUTER_BOUND('',#158,.T.);
#93=FACE_OUTER_BOUND('',#159,.T.);
#94=FACE_OUTER_BOUND('',#160,.T.);
#95=FACE_OUTER_BOUND('',#162,.T.);
#96=FACE_OUTER_BOUND('',#163,.T.);
#97=FACE_OUTER_BOUND('',#164,.T.);
#98=FACE_OUTER_BOUND('',#167,.T.);
#99=FACE_OUTER_BOUND('',#169,.T.);
#100=FACE_OUTER_BOUND('',#170,.T.);
#101=FACE_OUTER_BOUND('',#171,.T.);
#102=FACE_OUTER_BOUND('',#172,.T.);
#103=FACE_OUTER_BOUND('',#173,.T.);
#104=FACE_OUTER_BOUND('',#174,.T.);
#105=FACE_OUTER_BOUND('',#175,.T.);
#106=FACE_OUTER_BOUND('',#176,.T.);
#107=FACE_OUTER_BOUND('',#177,.T.);
#108=FACE_OUTER_BOUND('',#179,.T.);
#109=FACE_OUTER_BOUND('',#181,.T.);
#110=FACE_OUTER_BOUND('',#182,.T.);
#111=FACE_OUTER_BOUND('',#183,.T.);
#112=FACE_OUTER_BOUND('',#184,.T.);
#113=FACE_OUTER_BOUND('',#185,.T.);
#114=FACE_OUTER_BOUND('',#186,.T.);
#115=FACE_OUTER_BOUND('',#187,.T.);
#116=FACE_OUTER_BOUND('',#189,.T.);
#117=FACE_OUTER_BOUND('',#190,.T.);
#118=FACE_OUTER_BOUND('',#191,.T.);
#119=FACE_OUTER_BOUND('',#193,.T.);
#120=FACE_OUTER_BOUND('',#194,.T.);
#121=FACE_OUTER_BOUND('',#195,.T.);
#122=FACE_OUTER_BOUND('',#197,.T.);
#123=FACE_OUTER_BOUND('',#198,.T.);
#124=FACE_OUTER_BOUND('',#199,.T.);
#125=FACE_OUTER_BOUND('',#201,.T.);
#126=FACE_OUTER_BOUND('',#210,.T.);
#127=FACE_OUTER_BOUND('',#211,.T.);
#128=FACE_OUTER_BOUND('',#212,.T.);
#129=FACE_OUTER_BOUND('',#213,.T.);
#130=FACE_OUTER_BOUND('',#214,.T.);
#131=FACE_OUTER_BOUND('',#215,.T.);
#132=FACE_OUTER_BOUND('',#216,.T.);
#133=FACE_OUTER_BOUND('',#217,.T.);
#134=FACE_OUTER_BOUND('',#218,.T.);
#135=FACE_OUTER_BOUND('',#219,.T.);
#136=FACE_OUTER_BOUND('',#220,.T.);
#137=FACE_OUTER_BOUND('',#221,.T.);
#138=FACE_OUTER_BOUND('',#222,.T.);
#139=EDGE_LOOP('',(#659,#660,#661,#662));
#140=EDGE_LOOP('',(#663,#664,#665,#666));
#141=EDGE_LOOP('',(#667,#668,#669,#670));
#142=EDGE_LOOP('',(#671,#672,#673,#674));
#143=EDGE_LOOP('',(#675,#676,#677,#678));
#144=EDGE_LOOP('',(#679,#680,#681,#682));
#145=EDGE_LOOP('',(#683,#684,#685,#686));
#146=EDGE_LOOP('',(#687,#688,#689,#690));
#147=EDGE_LOOP('',(#691,#692,#693,#694));
#148=EDGE_LOOP('',(#695,#696,#697,#698));
#149=EDGE_LOOP('',(#699,#700,#701,#702));
#150=EDGE_LOOP('',(#703,#704,#705,#706));
#151=EDGE_LOOP('',(#707,#708,#709,#710));
#152=EDGE_LOOP('',(#711,#712,#713,#714));
#153=EDGE_LOOP('',(#715,#716,#717,#718));
#154=EDGE_LOOP('',(#719,#720,#721,#722));
#155=EDGE_LOOP('',(#723,#724,#725,#726));
#156=EDGE_LOOP('',(#727,#728,#729,#730));
#157=EDGE_LOOP('',(#731,#732,#733,#734));
#158=EDGE_LOOP('',(#735,#736,#737,#738));
#159=EDGE_LOOP('',(#739,#740,#741,#742));
#160=EDGE_LOOP('',(#743,#744,#745,#746));
#161=EDGE_LOOP('',(#747,#748,#749,#750));
#162=EDGE_LOOP('',(#751,#752,#753,#754));
#163=EDGE_LOOP('',(#755,#756,#757,#758));
#164=EDGE_LOOP('',(#759,#760,#761,#762));
#165=EDGE_LOOP('',(#763,#764,#765,#766));
#166=EDGE_LOOP('',(#767,#768,#769,#770));
#167=EDGE_LOOP('',(#771,#772,#773,#774));
#168=EDGE_LOOP('',(#775,#776,#777,#778));
#169=EDGE_LOOP('',(#779,#780,#781,#782));
#170=EDGE_LOOP('',(#783,#784,#785,#786));
#171=EDGE_LOOP('',(#787,#788,#789,#790));
#172=EDGE_LOOP('',(#791,#792,#793,#794));
#173=EDGE_LOOP('',(#795,#796,#797,#798));
#174=EDGE_LOOP('',(#799,#800,#801,#802));
#175=EDGE_LOOP('',(#803,#804,#805,#806));
#176=EDGE_LOOP('',(#807,#808,#809,#810));
#177=EDGE_LOOP('',(#811,#812,#813,#814));
#178=EDGE_LOOP('',(#815,#816,#817,#818));
#179=EDGE_LOOP('',(#819,#820,#821,#822));
#180=EDGE_LOOP('',(#823,#824,#825,#826));
#181=EDGE_LOOP('',(#827));
#182=EDGE_LOOP('',(#828));
#183=EDGE_LOOP('',(#829));
#184=EDGE_LOOP('',(#830));
#185=EDGE_LOOP('',(#831,#832,#833,#834));
#186=EDGE_LOOP('',(#835,#836,#837,#838));
#187=EDGE_LOOP('',(#839));
#188=EDGE_LOOP('',(#840));
#189=EDGE_LOOP('',(#841,#842,#843,#844));
#190=EDGE_LOOP('',(#845,#846,#847,#848));
#191=EDGE_LOOP('',(#849));
#192=EDGE_LOOP('',(#850));
#193=EDGE_LOOP('',(#851,#852,#853,#854));
#194=EDGE_LOOP('',(#855,#856,#857,#858));
#195=EDGE_LOOP('',(#859));
#196=EDGE_LOOP('',(#860));
#197=EDGE_LOOP('',(#861,#862,#863,#864));
#198=EDGE_LOOP('',(#865,#866,#867,#868));
#199=EDGE_LOOP('',(#869));
#200=EDGE_LOOP('',(#870));
#201=EDGE_LOOP('',(#871,#872,#873,#874));
#202=EDGE_LOOP('',(#875));
#203=EDGE_LOOP('',(#876));
#204=EDGE_LOOP('',(#877));
#205=EDGE_LOOP('',(#878));
#206=EDGE_LOOP('',(#879));
#207=EDGE_LOOP('',(#880));
#208=EDGE_LOOP('',(#881));
#209=EDGE_LOOP('',(#882));
#210=EDGE_LOOP('',(#883,#884,#885,#886));
#211=EDGE_LOOP('',(#887));
#212=EDGE_LOOP('',(#888,#889,#890,#891));
#213=EDGE_LOOP('',(#892));
#214=EDGE_LOOP('',(#893,#894,#895,#896));
#215=EDGE_LOOP('',(#897));
#216=EDGE_LOOP('',(#898,#899,#900,#901));
#217=EDGE_LOOP('',(#902));
#218=EDGE_LOOP('',(#903,#904,#905,#906));
#219=EDGE_LOOP('',(#907,#908,#909,#910));
#220=EDGE_LOOP('',(#911,#912,#913,#914));
#221=EDGE_LOOP('',(#915,#916,#917,#918));
#222=EDGE_LOOP('',(#919,#920,#921,#922));
#223=LINE('',#1411,#331);
#224=LINE('',#1413,#332);
#225=LINE('',#1415,#333);
#226=LINE('',#1416,#334);
#227=LINE('',#1419,#335);
#228=LINE('',#1421,#336);
#229=LINE('',#1422,#337);
#230=LINE('',#1425,#338);
#231=LINE('',#1427,#339);
#232=LINE('',#1428,#340);
#233=LINE('',#1430,#341);
#234=LINE('',#1431,#342);
#235=LINE('',#1435,#343);
#236=LINE('',#1437,#344);
#237=LINE('',#1439,#345);
#238=LINE('',#1440,#346);
#239=LINE('',#1443,#347);
#240=LINE('',#1445,#348);
#241=LINE('',#1446,#349);
#242=LINE('',#1449,#350);
#243=LINE('',#1451,#351);
#244=LINE('',#1452,#352);
#245=LINE('',#1454,#353);
#246=LINE('',#1455,#354);
#247=LINE('',#1459,#355);
#248=LINE('',#1461,#356);
#249=LINE('',#1463,#357);
#250=LINE('',#1464,#358);
#251=LINE('',#1467,#359);
#252=LINE('',#1469,#360);
#253=LINE('',#1470,#361);
#254=LINE('',#1473,#362);
#255=LINE('',#1475,#363);
#256=LINE('',#1476,#364);
#257=LINE('',#1478,#365);
#258=LINE('',#1479,#366);
#259=LINE('',#1483,#367);
#260=LINE('',#1485,#368);
#261=LINE('',#1487,#369);
#262=LINE('',#1488,#370);
#263=LINE('',#1491,#371);
#264=LINE('',#1493,#372);
#265=LINE('',#1495,#373);
#266=LINE('',#1496,#374);
#267=LINE('',#1499,#375);
#268=LINE('',#1501,#376);
#269=LINE('',#1502,#377);
#270=LINE('',#1505,#378);
#271=LINE('',#1506,#379);
#272=LINE('',#1509,#380);
#273=LINE('',#1510,#381);
#274=LINE('',#1512,#382);
#275=LINE('',#1515,#383);
#276=LINE('',#1517,#384);
#277=LINE('',#1518,#385);
#278=LINE('',#1521,#386);
#279=LINE('',#1522,#387);
#280=LINE('',#1525,#388);
#281=LINE('',#1526,#389);
#282=LINE('',#1528,#390);
#283=LINE('',#1533,#391);
#284=LINE('',#1535,#392);
#285=LINE('',#1537,#393);
#286=LINE('',#1538,#394);
#287=LINE('',#1541,#395);
#288=LINE('',#1543,#396);
#289=LINE('',#1544,#397);
#290=LINE('',#1547,#398);
#291=LINE('',#1549,#399);
#292=LINE('',#1550,#400);
#293=LINE('',#1552,#401);
#294=LINE('',#1553,#402);
#295=LINE('',#1557,#403);
#296=LINE('',#1559,#404);
#297=LINE('',#1561,#405);
#298=LINE('',#1562,#406);
#299=LINE('',#1565,#407);
#300=LINE('',#1567,#408);
#301=LINE('',#1568,#409);
#302=LINE('',#1571,#410);
#303=LINE('',#1573,#411);
#304=LINE('',#1574,#412);
#305=LINE('',#1576,#413);
#306=LINE('',#1577,#414);
#307=LINE('',#1595,#415);
#308=LINE('',#1600,#416);
#309=LINE('',#1606,#417);
#310=LINE('',#1611,#418);
#311=LINE('',#1617,#419);
#312=LINE('',#1622,#420);
#313=LINE('',#1628,#421);
#314=LINE('',#1633,#422);
#315=LINE('',#1639,#423);
#316=LINE('',#1641,#424);
#317=LINE('',#1643,#425);
#318=LINE('',#1644,#426);
#319=LINE('',#1656,#427);
#320=LINE('',#1661,#428);
#321=LINE('',#1666,#429);
#322=LINE('',#1671,#430);
#323=LINE('',#1675,#431);
#324=LINE('',#1677,#432);
#325=LINE('',#1678,#433);
#326=LINE('',#1681,#434);
#327=LINE('',#1683,#435);
#328=LINE('',#1684,#436);
#329=LINE('',#1686,#437);
#330=LINE('',#1687,#438);
#331=VECTOR('',#1129,10.);
#332=VECTOR('',#1130,10.);
#333=VECTOR('',#1131,10.);
#334=VECTOR('',#1132,10.);
#335=VECTOR('',#1135,10.);
#336=VECTOR('',#1136,10.);
#337=VECTOR('',#1137,10.);
#338=VECTOR('',#1140,10.);
#339=VECTOR('',#1141,10.);
#340=VECTOR('',#1142,10.);
#341=VECTOR('',#1145,10.);
#342=VECTOR('',#1146,10.);
#343=VECTOR('',#1149,10.);
#344=VECTOR('',#1150,10.);
#345=VECTOR('',#1151,10.);
#346=VECTOR('',#1152,10.);
#347=VECTOR('',#1155,10.);
#348=VECTOR('',#1156,10.);
#349=VECTOR('',#1157,10.);
#350=VECTOR('',#1160,10.);
#351=VECTOR('',#1161,10.);
#352=VECTOR('',#1162,10.);
#353=VECTOR('',#1165,10.);
#354=VECTOR('',#1166,10.);
#355=VECTOR('',#1169,10.);
#356=VECTOR('',#1170,10.);
#357=VECTOR('',#1171,10.);
#358=VECTOR('',#1172,10.);
#359=VECTOR('',#1175,10.);
#360=VECTOR('',#1176,10.);
#361=VECTOR('',#1177,10.);
#362=VECTOR('',#1180,10.);
#363=VECTOR('',#1181,10.);
#364=VECTOR('',#1182,10.);
#365=VECTOR('',#1185,10.);
#366=VECTOR('',#1186,10.);
#367=VECTOR('',#1189,10.);
#368=VECTOR('',#1190,10.);
#369=VECTOR('',#1191,10.);
#370=VECTOR('',#1192,10.);
#371=VECTOR('',#1193,10.);
#372=VECTOR('',#1194,10.);
#373=VECTOR('',#1195,10.);
#374=VECTOR('',#1196,10.);
#375=VECTOR('',#1199,10.);
#376=VECTOR('',#1200,10.);
#377=VECTOR('',#1201,10.);
#378=VECTOR('',#1204,10.);
#379=VECTOR('',#1205,10.);
#380=VECTOR('',#1208,10.);
#381=VECTOR('',#1209,10.);
#382=VECTOR('',#1212,10.);
#383=VECTOR('',#1215,10.);
#384=VECTOR('',#1216,10.);
#385=VECTOR('',#1217,10.);
#386=VECTOR('',#1220,10.);
#387=VECTOR('',#1221,10.);
#388=VECTOR('',#1224,10.);
#389=VECTOR('',#1225,10.);
#390=VECTOR('',#1228,10.);
#391=VECTOR('',#1233,10.);
#392=VECTOR('',#1234,10.);
#393=VECTOR('',#1235,10.);
#394=VECTOR('',#1236,10.);
#395=VECTOR('',#1239,10.);
#396=VECTOR('',#1240,10.);
#397=VECTOR('',#1241,10.);
#398=VECTOR('',#1244,10.);
#399=VECTOR('',#1245,10.);
#400=VECTOR('',#1246,10.);
#401=VECTOR('',#1249,10.);
#402=VECTOR('',#1250,10.);
#403=VECTOR('',#1253,10.);
#404=VECTOR('',#1254,10.);
#405=VECTOR('',#1255,10.);
#406=VECTOR('',#1256,10.);
#407=VECTOR('',#1259,10.);
#408=VECTOR('',#1260,10.);
#409=VECTOR('',#1261,10.);
#410=VECTOR('',#1264,10.);
#411=VECTOR('',#1265,10.);
#412=VECTOR('',#1266,10.);
#413=VECTOR('',#1269,10.);
#414=VECTOR('',#1270,10.);
#415=VECTOR('',#1295,2.5);
#416=VECTOR('',#1300,3.49999999999998);
#417=VECTOR('',#1309,2.5);
#418=VECTOR('',#1314,3.5);
#419=VECTOR('',#1323,2.5);
#420=VECTOR('',#1328,3.5);
#421=VECTOR('',#1337,2.5);
#422=VECTOR('',#1342,3.5);
#423=VECTOR('',#1349,10.);
#424=VECTOR('',#1350,10.);
#425=VECTOR('',#1351,10.);
#426=VECTOR('',#1352,10.);
#427=VECTOR('',#1365,3.5);
#428=VECTOR('',#1372,3.5);
#429=VECTOR('',#1379,3.5);
#430=VECTOR('',#1386,3.5);
#431=VECTOR('',#1391,10.);
#432=VECTOR('',#1392,10.);
#433=VECTOR('',#1393,10.);
#434=VECTOR('',#1396,10.);
#435=VECTOR('',#1397,10.);
#436=VECTOR('',#1398,10.);
#437=VECTOR('',#1401,10.);
#438=VECTOR('',#1402,10.);
#439=VERTEX_POINT('',#1409);
#440=VERTEX_POINT('',#1410);
#441=VERTEX_POINT('',#1412);
#442=VERTEX_POINT('',#1414);
#443=VERTEX_POINT('',#1418);
#444=VERTEX_POINT('',#1420);
#445=VERTEX_POINT('',#1424);
#446=VERTEX_POINT('',#1426);
#447=VERTEX_POINT('',#1433);
#448=VERTEX_POINT('',#1434);
#449=VERTEX_POINT('',#1436);
#450=VERTEX_POINT('',#1438);
#451=VERTEX_POINT('',#1442);
#452=VERTEX_POINT('',#1444);
#453=VERTEX_POINT('',#1448);
#454=VERTEX_POINT('',#1450);
#455=VERTEX_POINT('',#1457);
#456=VERTEX_POINT('',#1458);
#457=VERTEX_POINT('',#1460);
#458=VERTEX_POINT('',#1462);
#459=VERTEX_POINT('',#1466);
#460=VERTEX_POINT('',#1468);
#461=VERTEX_POINT('',#1472);
#462=VERTEX_POINT('',#1474);
#463=VERTEX_POINT('',#1481);
#464=VERTEX_POINT('',#1482);
#465=VERTEX_POINT('',#1484);
#466=VERTEX_POINT('',#1486);
#467=VERTEX_POINT('',#1489);
#468=VERTEX_POINT('',#1490);
#469=VERTEX_POINT('',#1492);
#470=VERTEX_POINT('',#1494);
#471=VERTEX_POINT('',#1498);
#472=VERTEX_POINT('',#1500);
#473=VERTEX_POINT('',#1504);
#474=VERTEX_POINT('',#1508);
#475=VERTEX_POINT('',#1514);
#476=VERTEX_POINT('',#1516);
#477=VERTEX_POINT('',#1520);
#478=VERTEX_POINT('',#1524);
#479=VERTEX_POINT('',#1531);
#480=VERTEX_POINT('',#1532);
#481=VERTEX_POINT('',#1534);
#482=VERTEX_POINT('',#1536);
#483=VERTEX_POINT('',#1540);
#484=VERTEX_POINT('',#1542);
#485=VERTEX_POINT('',#1546);
#486=VERTEX_POINT('',#1548);
#487=VERTEX_POINT('',#1555);
#488=VERTEX_POINT('',#1556);
#489=VERTEX_POINT('',#1558);
#490=VERTEX_POINT('',#1560);
#491=VERTEX_POINT('',#1564);
#492=VERTEX_POINT('',#1566);
#493=VERTEX_POINT('',#1570);
#494=VERTEX_POINT('',#1572);
#495=VERTEX_POINT('',#1581);
#496=VERTEX_POINT('',#1584);
#497=VERTEX_POINT('',#1587);
#498=VERTEX_POINT('',#1590);
#499=VERTEX_POINT('',#1593);
#500=VERTEX_POINT('',#1597);
#501=VERTEX_POINT('',#1599);
#502=VERTEX_POINT('',#1604);
#503=VERTEX_POINT('',#1608);
#504=VERTEX_POINT('',#1610);
#505=VERTEX_POINT('',#1615);
#506=VERTEX_POINT('',#1619);
#507=VERTEX_POINT('',#1621);
#508=VERTEX_POINT('',#1626);
#509=VERTEX_POINT('',#1630);
#510=VERTEX_POINT('',#1632);
#511=VERTEX_POINT('',#1637);
#512=VERTEX_POINT('',#1638);
#513=VERTEX_POINT('',#1640);
#514=VERTEX_POINT('',#1642);
#515=VERTEX_POINT('',#1645);
#516=VERTEX_POINT('',#1647);
#517=VERTEX_POINT('',#1649);
#518=VERTEX_POINT('',#1651);
#519=VERTEX_POINT('',#1654);
#520=VERTEX_POINT('',#1659);
#521=VERTEX_POINT('',#1664);
#522=VERTEX_POINT('',#1669);
#523=VERTEX_POINT('',#1674);
#524=VERTEX_POINT('',#1676);
#525=VERTEX_POINT('',#1680);
#526=VERTEX_POINT('',#1682);
#527=EDGE_CURVE('',#439,#440,#223,.T.);
#528=EDGE_CURVE('',#441,#439,#224,.T.);
#529=EDGE_CURVE('',#442,#441,#225,.T.);
#530=EDGE_CURVE('',#442,#440,#226,.T.);
#531=EDGE_CURVE('',#440,#443,#227,.T.);
#532=EDGE_CURVE('',#444,#442,#228,.T.);
#533=EDGE_CURVE('',#444,#443,#229,.T.);
#534=EDGE_CURVE('',#443,#445,#230,.T.);
#535=EDGE_CURVE('',#446,#444,#231,.T.);
#536=EDGE_CURVE('',#446,#445,#232,.T.);
#537=EDGE_CURVE('',#445,#439,#233,.T.);
#538=EDGE_CURVE('',#441,#446,#234,.T.);
#539=EDGE_CURVE('',#447,#448,#235,.T.);
#540=EDGE_CURVE('',#449,#447,#236,.T.);
#541=EDGE_CURVE('',#450,#449,#237,.T.);
#542=EDGE_CURVE('',#450,#448,#238,.T.);
#543=EDGE_CURVE('',#448,#451,#239,.T.);
#544=EDGE_CURVE('',#452,#450,#240,.T.);
#545=EDGE_CURVE('',#452,#451,#241,.T.);
#546=EDGE_CURVE('',#451,#453,#242,.T.);
#547=EDGE_CURVE('',#454,#452,#243,.T.);
#548=EDGE_CURVE('',#454,#453,#244,.T.);
#549=EDGE_CURVE('',#453,#447,#245,.T.);
#550=EDGE_CURVE('',#449,#454,#246,.T.);
#551=EDGE_CURVE('',#455,#456,#247,.T.);
#552=EDGE_CURVE('',#457,#455,#248,.T.);
#553=EDGE_CURVE('',#458,#457,#249,.T.);
#554=EDGE_CURVE('',#458,#456,#250,.T.);
#555=EDGE_CURVE('',#456,#459,#251,.T.);
#556=EDGE_CURVE('',#460,#458,#252,.T.);
#557=EDGE_CURVE('',#460,#459,#253,.T.);
#558=EDGE_CURVE('',#459,#461,#254,.T.);
#559=EDGE_CURVE('',#462,#460,#255,.T.);
#560=EDGE_CURVE('',#462,#461,#256,.T.);
#561=EDGE_CURVE('',#461,#455,#257,.T.);
#562=EDGE_CURVE('',#457,#462,#258,.T.);
#563=EDGE_CURVE('',#463,#464,#259,.T.);
#564=EDGE_CURVE('',#464,#465,#260,.T.);
#565=EDGE_CURVE('',#465,#466,#261,.T.);
#566=EDGE_CURVE('',#466,#463,#262,.T.);
#567=EDGE_CURVE('',#467,#468,#263,.T.);
#568=EDGE_CURVE('',#468,#469,#264,.T.);
#569=EDGE_CURVE('',#469,#470,#265,.T.);
#570=EDGE_CURVE('',#470,#467,#266,.T.);
#571=EDGE_CURVE('',#471,#468,#267,.T.);
#572=EDGE_CURVE('',#472,#471,#268,.T.);
#573=EDGE_CURVE('',#472,#469,#269,.T.);
#574=EDGE_CURVE('',#473,#472,#270,.T.);
#575=EDGE_CURVE('',#473,#470,#271,.T.);
#576=EDGE_CURVE('',#474,#473,#272,.T.);
#577=EDGE_CURVE('',#467,#474,#273,.T.);
#578=EDGE_CURVE('',#471,#474,#274,.T.);
#579=EDGE_CURVE('',#475,#464,#275,.T.);
#580=EDGE_CURVE('',#476,#475,#276,.T.);
#581=EDGE_CURVE('',#476,#465,#277,.T.);
#582=EDGE_CURVE('',#477,#476,#278,.T.);
#583=EDGE_CURVE('',#477,#466,#279,.T.);
#584=EDGE_CURVE('',#478,#477,#280,.T.);
#585=EDGE_CURVE('',#463,#478,#281,.T.);
#586=EDGE_CURVE('',#475,#478,#282,.T.);
#587=EDGE_CURVE('',#479,#480,#283,.T.);
#588=EDGE_CURVE('',#480,#481,#284,.T.);
#589=EDGE_CURVE('',#482,#481,#285,.T.);
#590=EDGE_CURVE('',#479,#482,#286,.T.);
#591=EDGE_CURVE('',#483,#479,#287,.T.);
#592=EDGE_CURVE('',#484,#482,#288,.T.);
#593=EDGE_CURVE('',#483,#484,#289,.T.);
#594=EDGE_CURVE('',#485,#483,#290,.T.);
#595=EDGE_CURVE('',#486,#484,#291,.T.);
#596=EDGE_CURVE('',#485,#486,#292,.T.);
#597=EDGE_CURVE('',#480,#485,#293,.T.);
#598=EDGE_CURVE('',#481,#486,#294,.T.);
#599=EDGE_CURVE('',#487,#488,#295,.T.);
#600=EDGE_CURVE('',#488,#489,#296,.T.);
#601=EDGE_CURVE('',#490,#489,#297,.T.);
#602=EDGE_CURVE('',#487,#490,#298,.T.);
#603=EDGE_CURVE('',#491,#487,#299,.T.);
#604=EDGE_CURVE('',#492,#490,#300,.T.);
#605=EDGE_CURVE('',#491,#492,#301,.T.);
#606=EDGE_CURVE('',#493,#491,#302,.T.);
#607=EDGE_CURVE('',#494,#492,#303,.T.);
#608=EDGE_CURVE('',#493,#494,#304,.T.);
#609=EDGE_CURVE('',#488,#493,#305,.T.);
#610=EDGE_CURVE('',#489,#494,#306,.T.);
#611=EDGE_CURVE('',#495,#495,#25,.T.);
#612=EDGE_CURVE('',#496,#496,#26,.T.);
#613=EDGE_CURVE('',#497,#497,#27,.T.);
#614=EDGE_CURVE('',#498,#498,#28,.T.);
#615=EDGE_CURVE('',#499,#499,#29,.T.);
#616=EDGE_CURVE('',#499,#497,#307,.T.);
#617=EDGE_CURVE('',#500,#500,#30,.T.);
#618=EDGE_CURVE('',#500,#501,#308,.T.);
#619=EDGE_CURVE('',#501,#501,#31,.T.);
#620=EDGE_CURVE('',#502,#502,#32,.T.);
#621=EDGE_CURVE('',#502,#495,#309,.T.);
#622=EDGE_CURVE('',#503,#503,#33,.T.);
#623=EDGE_CURVE('',#503,#504,#310,.T.);
#624=EDGE_CURVE('',#504,#504,#34,.T.);
#625=EDGE_CURVE('',#505,#505,#35,.T.);
#626=EDGE_CURVE('',#505,#496,#311,.T.);
#627=EDGE_CURVE('',#506,#506,#36,.T.);
#628=EDGE_CURVE('',#506,#507,#312,.T.);
#629=EDGE_CURVE('',#507,#507,#37,.T.);
#630=EDGE_CURVE('',#508,#508,#38,.T.);
#631=EDGE_CURVE('',#508,#498,#313,.T.);
#632=EDGE_CURVE('',#509,#509,#39,.T.);
#633=EDGE_CURVE('',#509,#510,#314,.T.);
#634=EDGE_CURVE('',#510,#510,#40,.T.);
#635=EDGE_CURVE('',#511,#512,#315,.T.);
#636=EDGE_CURVE('',#512,#513,#316,.T.);
#637=EDGE_CURVE('',#514,#513,#317,.T.);
#638=EDGE_CURVE('',#511,#514,#318,.T.);
#639=EDGE_CURVE('',#515,#515,#41,.T.);
#640=EDGE_CURVE('',#516,#516,#42,.T.);
#641=EDGE_CURVE('',#517,#517,#43,.T.);
#642=EDGE_CURVE('',#518,#518,#44,.T.);
#643=EDGE_CURVE('',#519,#519,#45,.T.);
#644=EDGE_CURVE('',#519,#515,#319,.T.);
#645=EDGE_CURVE('',#520,#520,#46,.T.);
#646=EDGE_CURVE('',#520,#516,#320,.T.);
#647=EDGE_CURVE('',#521,#521,#47,.T.);
#648=EDGE_CURVE('',#521,#517,#321,.T.);
#649=EDGE_CURVE('',#522,#522,#48,.T.);
#650=EDGE_CURVE('',#522,#518,#322,.T.);
#651=EDGE_CURVE('',#511,#523,#323,.T.);
#652=EDGE_CURVE('',#524,#514,#324,.T.);
#653=EDGE_CURVE('',#523,#524,#325,.T.);
#654=EDGE_CURVE('',#523,#525,#326,.T.);
#655=EDGE_CURVE('',#526,#524,#327,.T.);
#656=EDGE_CURVE('',#525,#526,#328,.T.);
#657=EDGE_CURVE('',#512,#525,#329,.T.);
#658=EDGE_CURVE('',#513,#526,#330,.T.);
#659=ORIENTED_EDGE('',*,*,#527,.F.);
#660=ORIENTED_EDGE('',*,*,#528,.F.);
#661=ORIENTED_EDGE('',*,*,#529,.F.);
#662=ORIENTED_EDGE('',*,*,#530,.T.);
#663=ORIENTED_EDGE('',*,*,#531,.F.);
#664=ORIENTED_EDGE('',*,*,#530,.F.);
#665=ORIENTED_EDGE('',*,*,#532,.F.);
#666=ORIENTED_EDGE('',*,*,#533,.T.);
#667=ORIENTED_EDGE('',*,*,#534,.F.);
#668=ORIENTED_EDGE('',*,*,#533,.F.);
#669=ORIENTED_EDGE('',*,*,#535,.F.);
#670=ORIENTED_EDGE('',*,*,#536,.T.);
#671=ORIENTED_EDGE('',*,*,#537,.F.);
#672=ORIENTED_EDGE('',*,*,#536,.F.);
#673=ORIENTED_EDGE('',*,*,#538,.F.);
#674=ORIENTED_EDGE('',*,*,#528,.T.);
#675=ORIENTED_EDGE('',*,*,#539,.F.);
#676=ORIENTED_EDGE('',*,*,#540,.F.);
#677=ORIENTED_EDGE('',*,*,#541,.F.);
#678=ORIENTED_EDGE('',*,*,#542,.T.);
#679=ORIENTED_EDGE('',*,*,#543,.F.);
#680=ORIENTED_EDGE('',*,*,#542,.F.);
#681=ORIENTED_EDGE('',*,*,#544,.F.);
#682=ORIENTED_EDGE('',*,*,#545,.T.);
#683=ORIENTED_EDGE('',*,*,#546,.F.);
#684=ORIENTED_EDGE('',*,*,#545,.F.);
#685=ORIENTED_EDGE('',*,*,#547,.F.);
#686=ORIENTED_EDGE('',*,*,#548,.T.);
#687=ORIENTED_EDGE('',*,*,#549,.F.);
#688=ORIENTED_EDGE('',*,*,#548,.F.);
#689=ORIENTED_EDGE('',*,*,#550,.F.);
#690=ORIENTED_EDGE('',*,*,#540,.T.);
#691=ORIENTED_EDGE('',*,*,#551,.F.);
#692=ORIENTED_EDGE('',*,*,#552,.F.);
#693=ORIENTED_EDGE('',*,*,#553,.F.);
#694=ORIENTED_EDGE('',*,*,#554,.T.);
#695=ORIENTED_EDGE('',*,*,#555,.F.);
#696=ORIENTED_EDGE('',*,*,#554,.F.);
#697=ORIENTED_EDGE('',*,*,#556,.F.);
#698=ORIENTED_EDGE('',*,*,#557,.T.);
#699=ORIENTED_EDGE('',*,*,#558,.F.);
#700=ORIENTED_EDGE('',*,*,#557,.F.);
#701=ORIENTED_EDGE('',*,*,#559,.F.);
#702=ORIENTED_EDGE('',*,*,#560,.T.);
#703=ORIENTED_EDGE('',*,*,#561,.F.);
#704=ORIENTED_EDGE('',*,*,#560,.F.);
#705=ORIENTED_EDGE('',*,*,#562,.F.);
#706=ORIENTED_EDGE('',*,*,#552,.T.);
#707=ORIENTED_EDGE('',*,*,#563,.T.);
#708=ORIENTED_EDGE('',*,*,#564,.T.);
#709=ORIENTED_EDGE('',*,*,#565,.T.);
#710=ORIENTED_EDGE('',*,*,#566,.T.);
#711=ORIENTED_EDGE('',*,*,#567,.T.);
#712=ORIENTED_EDGE('',*,*,#568,.T.);
#713=ORIENTED_EDGE('',*,*,#569,.T.);
#714=ORIENTED_EDGE('',*,*,#570,.T.);
#715=ORIENTED_EDGE('',*,*,#571,.F.);
#716=ORIENTED_EDGE('',*,*,#572,.F.);
#717=ORIENTED_EDGE('',*,*,#573,.T.);
#718=ORIENTED_EDGE('',*,*,#568,.F.);
#719=ORIENTED_EDGE('',*,*,#534,.T.);
#720=ORIENTED_EDGE('',*,*,#537,.T.);
#721=ORIENTED_EDGE('',*,*,#527,.T.);
#722=ORIENTED_EDGE('',*,*,#531,.T.);
#723=ORIENTED_EDGE('',*,*,#573,.F.);
#724=ORIENTED_EDGE('',*,*,#574,.F.);
#725=ORIENTED_EDGE('',*,*,#575,.T.);
#726=ORIENTED_EDGE('',*,*,#569,.F.);
#727=ORIENTED_EDGE('',*,*,#546,.T.);
#728=ORIENTED_EDGE('',*,*,#549,.T.);
#729=ORIENTED_EDGE('',*,*,#539,.T.);
#730=ORIENTED_EDGE('',*,*,#543,.T.);
#731=ORIENTED_EDGE('',*,*,#558,.T.);
#732=ORIENTED_EDGE('',*,*,#561,.T.);
#733=ORIENTED_EDGE('',*,*,#551,.T.);
#734=ORIENTED_EDGE('',*,*,#555,.T.);
#735=ORIENTED_EDGE('',*,*,#575,.F.);
#736=ORIENTED_EDGE('',*,*,#576,.F.);
#737=ORIENTED_EDGE('',*,*,#577,.F.);
#738=ORIENTED_EDGE('',*,*,#570,.F.);
#739=ORIENTED_EDGE('',*,*,#577,.T.);
#740=ORIENTED_EDGE('',*,*,#578,.F.);
#741=ORIENTED_EDGE('',*,*,#571,.T.);
#742=ORIENTED_EDGE('',*,*,#567,.F.);
#743=ORIENTED_EDGE('',*,*,#579,.F.);
#744=ORIENTED_EDGE('',*,*,#580,.F.);
#745=ORIENTED_EDGE('',*,*,#581,.T.);
#746=ORIENTED_EDGE('',*,*,#564,.F.);
#747=ORIENTED_EDGE('',*,*,#535,.T.);
#748=ORIENTED_EDGE('',*,*,#532,.T.);
#749=ORIENTED_EDGE('',*,*,#529,.T.);
#750=ORIENTED_EDGE('',*,*,#538,.T.);
#751=ORIENTED_EDGE('',*,*,#581,.F.);
#752=ORIENTED_EDGE('',*,*,#582,.F.);
#753=ORIENTED_EDGE('',*,*,#583,.T.);
#754=ORIENTED_EDGE('',*,*,#565,.F.);
#755=ORIENTED_EDGE('',*,*,#583,.F.);
#756=ORIENTED_EDGE('',*,*,#584,.F.);
#757=ORIENTED_EDGE('',*,*,#585,.F.);
#758=ORIENTED_EDGE('',*,*,#566,.F.);
#759=ORIENTED_EDGE('',*,*,#585,.T.);
#760=ORIENTED_EDGE('',*,*,#586,.F.);
#761=ORIENTED_EDGE('',*,*,#579,.T.);
#762=ORIENTED_EDGE('',*,*,#563,.F.);
#763=ORIENTED_EDGE('',*,*,#547,.T.);
#764=ORIENTED_EDGE('',*,*,#544,.T.);
#765=ORIENTED_EDGE('',*,*,#541,.T.);
#766=ORIENTED_EDGE('',*,*,#550,.T.);
#767=ORIENTED_EDGE('',*,*,#559,.T.);
#768=ORIENTED_EDGE('',*,*,#556,.T.);
#769=ORIENTED_EDGE('',*,*,#553,.T.);
#770=ORIENTED_EDGE('',*,*,#562,.T.);
#771=ORIENTED_EDGE('',*,*,#586,.T.);
#772=ORIENTED_EDGE('',*,*,#584,.T.);
#773=ORIENTED_EDGE('',*,*,#582,.T.);
#774=ORIENTED_EDGE('',*,*,#580,.T.);
#775=ORIENTED_EDGE('',*,*,#578,.T.);
#776=ORIENTED_EDGE('',*,*,#576,.T.);
#777=ORIENTED_EDGE('',*,*,#574,.T.);
#778=ORIENTED_EDGE('',*,*,#572,.T.);
#779=ORIENTED_EDGE('',*,*,#587,.T.);
#780=ORIENTED_EDGE('',*,*,#588,.T.);
#781=ORIENTED_EDGE('',*,*,#589,.F.);
#782=ORIENTED_EDGE('',*,*,#590,.F.);
#783=ORIENTED_EDGE('',*,*,#591,.T.);
#784=ORIENTED_EDGE('',*,*,#590,.T.);
#785=ORIENTED_EDGE('',*,*,#592,.F.);
#786=ORIENTED_EDGE('',*,*,#593,.F.);
#787=ORIENTED_EDGE('',*,*,#594,.T.);
#788=ORIENTED_EDGE('',*,*,#593,.T.);
#789=ORIENTED_EDGE('',*,*,#595,.F.);
#790=ORIENTED_EDGE('',*,*,#596,.F.);
#791=ORIENTED_EDGE('',*,*,#597,.T.);
#792=ORIENTED_EDGE('',*,*,#596,.T.);
#793=ORIENTED_EDGE('',*,*,#598,.F.);
#794=ORIENTED_EDGE('',*,*,#588,.F.);
#795=ORIENTED_EDGE('',*,*,#599,.T.);
#796=ORIENTED_EDGE('',*,*,#600,.T.);
#797=ORIENTED_EDGE('',*,*,#601,.F.);
#798=ORIENTED_EDGE('',*,*,#602,.F.);
#799=ORIENTED_EDGE('',*,*,#603,.T.);
#800=ORIENTED_EDGE('',*,*,#602,.T.);
#801=ORIENTED_EDGE('',*,*,#604,.F.);
#802=ORIENTED_EDGE('',*,*,#605,.F.);
#803=ORIENTED_EDGE('',*,*,#606,.T.);
#804=ORIENTED_EDGE('',*,*,#605,.T.);
#805=ORIENTED_EDGE('',*,*,#607,.F.);
#806=ORIENTED_EDGE('',*,*,#608,.F.);
#807=ORIENTED_EDGE('',*,*,#609,.T.);
#808=ORIENTED_EDGE('',*,*,#608,.T.);
#809=ORIENTED_EDGE('',*,*,#610,.F.);
#810=ORIENTED_EDGE('',*,*,#600,.F.);
#811=ORIENTED_EDGE('',*,*,#610,.T.);
#812=ORIENTED_EDGE('',*,*,#607,.T.);
#813=ORIENTED_EDGE('',*,*,#604,.T.);
#814=ORIENTED_EDGE('',*,*,#601,.T.);
#815=ORIENTED_EDGE('',*,*,#598,.T.);
#816=ORIENTED_EDGE('',*,*,#595,.T.);
#817=ORIENTED_EDGE('',*,*,#592,.T.);
#818=ORIENTED_EDGE('',*,*,#589,.T.);
#819=ORIENTED_EDGE('',*,*,#609,.F.);
#820=ORIENTED_EDGE('',*,*,#599,.F.);
#821=ORIENTED_EDGE('',*,*,#603,.F.);
#822=ORIENTED_EDGE('',*,*,#606,.F.);
#823=ORIENTED_EDGE('',*,*,#597,.F.);
#824=ORIENTED_EDGE('',*,*,#587,.F.);
#825=ORIENTED_EDGE('',*,*,#591,.F.);
#826=ORIENTED_EDGE('',*,*,#594,.F.);
#827=ORIENTED_EDGE('',*,*,#611,.F.);
#828=ORIENTED_EDGE('',*,*,#612,.F.);
#829=ORIENTED_EDGE('',*,*,#613,.F.);
#830=ORIENTED_EDGE('',*,*,#614,.F.);
#831=ORIENTED_EDGE('',*,*,#615,.F.);
#832=ORIENTED_EDGE('',*,*,#616,.T.);
#833=ORIENTED_EDGE('',*,*,#613,.T.);
#834=ORIENTED_EDGE('',*,*,#616,.F.);
#835=ORIENTED_EDGE('',*,*,#617,.F.);
#836=ORIENTED_EDGE('',*,*,#618,.T.);
#837=ORIENTED_EDGE('',*,*,#619,.F.);
#838=ORIENTED_EDGE('',*,*,#618,.F.);
#839=ORIENTED_EDGE('',*,*,#617,.T.);
#840=ORIENTED_EDGE('',*,*,#615,.T.);
#841=ORIENTED_EDGE('',*,*,#620,.F.);
#842=ORIENTED_EDGE('',*,*,#621,.T.);
#843=ORIENTED_EDGE('',*,*,#611,.T.);
#844=ORIENTED_EDGE('',*,*,#621,.F.);
#845=ORIENTED_EDGE('',*,*,#622,.F.);
#846=ORIENTED_EDGE('',*,*,#623,.T.);
#847=ORIENTED_EDGE('',*,*,#624,.F.);
#848=ORIENTED_EDGE('',*,*,#623,.F.);
#849=ORIENTED_EDGE('',*,*,#622,.T.);
#850=ORIENTED_EDGE('',*,*,#620,.T.);
#851=ORIENTED_EDGE('',*,*,#625,.F.);
#852=ORIENTED_EDGE('',*,*,#626,.T.);
#853=ORIENTED_EDGE('',*,*,#612,.T.);
#854=ORIENTED_EDGE('',*,*,#626,.F.);
#855=ORIENTED_EDGE('',*,*,#627,.F.);
#856=ORIENTED_EDGE('',*,*,#628,.T.);
#857=ORIENTED_EDGE('',*,*,#629,.F.);
#858=ORIENTED_EDGE('',*,*,#628,.F.);
#859=ORIENTED_EDGE('',*,*,#627,.T.);
#860=ORIENTED_EDGE('',*,*,#625,.T.);
#861=ORIENTED_EDGE('',*,*,#630,.F.);
#862=ORIENTED_EDGE('',*,*,#631,.T.);
#863=ORIENTED_EDGE('',*,*,#614,.T.);
#864=ORIENTED_EDGE('',*,*,#631,.F.);
#865=ORIENTED_EDGE('',*,*,#632,.F.);
#866=ORIENTED_EDGE('',*,*,#633,.T.);
#867=ORIENTED_EDGE('',*,*,#634,.F.);
#868=ORIENTED_EDGE('',*,*,#633,.F.);
#869=ORIENTED_EDGE('',*,*,#632,.T.);
#870=ORIENTED_EDGE('',*,*,#630,.T.);
#871=ORIENTED_EDGE('',*,*,#635,.T.);
#872=ORIENTED_EDGE('',*,*,#636,.T.);
#873=ORIENTED_EDGE('',*,*,#637,.F.);
#874=ORIENTED_EDGE('',*,*,#638,.F.);
#875=ORIENTED_EDGE('',*,*,#624,.T.);
#876=ORIENTED_EDGE('',*,*,#634,.T.);
#877=ORIENTED_EDGE('',*,*,#639,.T.);
#878=ORIENTED_EDGE('',*,*,#640,.T.);
#879=ORIENTED_EDGE('',*,*,#641,.T.);
#880=ORIENTED_EDGE('',*,*,#642,.T.);
#881=ORIENTED_EDGE('',*,*,#629,.T.);
#882=ORIENTED_EDGE('',*,*,#619,.T.);
#883=ORIENTED_EDGE('',*,*,#643,.F.);
#884=ORIENTED_EDGE('',*,*,#644,.T.);
#885=ORIENTED_EDGE('',*,*,#639,.F.);
#886=ORIENTED_EDGE('',*,*,#644,.F.);
#887=ORIENTED_EDGE('',*,*,#643,.T.);
#888=ORIENTED_EDGE('',*,*,#645,.F.);
#889=ORIENTED_EDGE('',*,*,#646,.T.);
#890=ORIENTED_EDGE('',*,*,#640,.F.);
#891=ORIENTED_EDGE('',*,*,#646,.F.);
#892=ORIENTED_EDGE('',*,*,#645,.T.);
#893=ORIENTED_EDGE('',*,*,#647,.F.);
#894=ORIENTED_EDGE('',*,*,#648,.T.);
#895=ORIENTED_EDGE('',*,*,#641,.F.);
#896=ORIENTED_EDGE('',*,*,#648,.F.);
#897=ORIENTED_EDGE('',*,*,#647,.T.);
#898=ORIENTED_EDGE('',*,*,#649,.F.);
#899=ORIENTED_EDGE('',*,*,#650,.T.);
#900=ORIENTED_EDGE('',*,*,#642,.F.);
#901=ORIENTED_EDGE('',*,*,#650,.F.);
#902=ORIENTED_EDGE('',*,*,#649,.T.);
#903=ORIENTED_EDGE('',*,*,#651,.F.);
#904=ORIENTED_EDGE('',*,*,#638,.T.);
#905=ORIENTED_EDGE('',*,*,#652,.F.);
#906=ORIENTED_EDGE('',*,*,#653,.F.);
#907=ORIENTED_EDGE('',*,*,#654,.F.);
#908=ORIENTED_EDGE('',*,*,#653,.T.);
#909=ORIENTED_EDGE('',*,*,#655,.F.);
#910=ORIENTED_EDGE('',*,*,#656,.F.);
#911=ORIENTED_EDGE('',*,*,#657,.T.);
#912=ORIENTED_EDGE('',*,*,#656,.T.);
#913=ORIENTED_EDGE('',*,*,#658,.F.);
#914=ORIENTED_EDGE('',*,*,#636,.F.);
#915=ORIENTED_EDGE('',*,*,#637,.T.);
#916=ORIENTED_EDGE('',*,*,#658,.T.);
#917=ORIENTED_EDGE('',*,*,#655,.T.);
#918=ORIENTED_EDGE('',*,*,#652,.T.);
#919=ORIENTED_EDGE('',*,*,#635,.F.);
#920=ORIENTED_EDGE('',*,*,#651,.T.);
#921=ORIENTED_EDGE('',*,*,#654,.T.);
#922=ORIENTED_EDGE('',*,*,#657,.F.);
#923=PLANE('',#1039);
#924=PLANE('',#1040);
#925=PLANE('',#1041);
#926=PLANE('',#1042);
#927=PLANE('',#1043);
#928=PLANE('',#1044);
#929=PLANE('',#1045);
#930=PLANE('',#1046);
#931=PLANE('',#1047);
#932=PLANE('',#1048);
#933=PLANE('',#1049);
#934=PLANE('',#1050);
#935=PLANE('',#1051);
#936=PLANE('',#1052);
#937=PLANE('',#1053);
#938=PLANE('',#1054);
#939=PLANE('',#1055);
#940=PLANE('',#1056);
#941=PLANE('',#1057);
#942=PLANE('',#1058);
#943=PLANE('',#1059);
#944=PLANE('',#1060);
#945=PLANE('',#1061);
#946=PLANE('',#1062);
#947=PLANE('',#1063);
#948=PLANE('',#1064);
#949=PLANE('',#1065);
#950=PLANE('',#1066);
#951=PLANE('',#1067);
#952=PLANE('',#1068);
#953=PLANE('',#1069);
#954=PLANE('',#1070);
#955=PLANE('',#1071);
#956=PLANE('',#1073);
#957=PLANE('',#1075);
#958=PLANE('',#1077);
#959=PLANE('',#1084);
#960=PLANE('',#1090);
#961=PLANE('',#1096);
#962=PLANE('',#1102);
#963=PLANE('',#1103);
#964=PLANE('',#1110);
#965=PLANE('',#1113);
#966=PLANE('',#1116);
#967=PLANE('',#1119);
#968=PLANE('',#1120);
#969=PLANE('',#1121);
#970=PLANE('',#1122);
#971=PLANE('',#1123);
#972=PLANE('',#1124);
#973=ADVANCED_FACE('',(#77),#923,.F.);
#974=ADVANCED_FACE('',(#78),#924,.F.);
#975=ADVANCED_FACE('',(#79),#925,.F.);
#976=ADVANCED_FACE('',(#80),#926,.F.);
#977=ADVANCED_FACE('',(#81),#927,.F.);
#978=ADVANCED_FACE('',(#82),#928,.F.);
#979=ADVANCED_FACE('',(#83),#929,.F.);
#980=ADVANCED_FACE('',(#84),#930,.F.);
#981=ADVANCED_FACE('',(#85),#931,.F.);
#982=ADVANCED_FACE('',(#86),#932,.F.);
#983=ADVANCED_FACE('',(#87),#933,.F.);
#984=ADVANCED_FACE('',(#88),#934,.F.);
#985=ADVANCED_FACE('',(#89,#55),#935,.T.);
#986=ADVANCED_FACE('',(#90,#56),#936,.T.);
#987=ADVANCED_FACE('',(#91,#57,#58),#937,.T.);
#988=ADVANCED_FACE('',(#92),#938,.T.);
#989=ADVANCED_FACE('',(#93),#939,.T.);
#990=ADVANCED_FACE('',(#94,#59),#940,.T.);
#991=ADVANCED_FACE('',(#95),#941,.T.);
#992=ADVANCED_FACE('',(#96),#942,.T.);
#993=ADVANCED_FACE('',(#97,#60,#61),#943,.T.);
#994=ADVANCED_FACE('',(#98,#62),#944,.T.);
#995=ADVANCED_FACE('',(#99),#945,.T.);
#996=ADVANCED_FACE('',(#100),#946,.T.);
#997=ADVANCED_FACE('',(#101),#947,.T.);
#998=ADVANCED_FACE('',(#102),#948,.T.);
#999=ADVANCED_FACE('',(#103),#949,.T.);
#1000=ADVANCED_FACE('',(#104),#950,.T.);
#1001=ADVANCED_FACE('',(#105),#951,.T.);
#1002=ADVANCED_FACE('',(#106),#952,.T.);
#1003=ADVANCED_FACE('',(#107,#63),#953,.T.);
#1004=ADVANCED_FACE('',(#108,#64),#954,.F.);
#1005=ADVANCED_FACE('',(#109),#955,.T.);
#1006=ADVANCED_FACE('',(#110),#956,.T.);
#1007=ADVANCED_FACE('',(#111),#957,.T.);
#1008=ADVANCED_FACE('',(#112),#958,.T.);
#1009=ADVANCED_FACE('',(#113),#13,.F.);
#1010=ADVANCED_FACE('',(#114),#14,.T.);
#1011=ADVANCED_FACE('',(#115,#65),#959,.T.);
#1012=ADVANCED_FACE('',(#116),#15,.F.);
#1013=ADVANCED_FACE('',(#117),#16,.T.);
#1014=ADVANCED_FACE('',(#118,#66),#960,.T.);
#1015=ADVANCED_FACE('',(#119),#17,.F.);
#1016=ADVANCED_FACE('',(#120),#18,.T.);
#1017=ADVANCED_FACE('',(#121,#67),#961,.T.);
#1018=ADVANCED_FACE('',(#122),#19,.F.);
#1019=ADVANCED_FACE('',(#123),#20,.T.);
#1020=ADVANCED_FACE('',(#124,#68),#962,.T.);
#1021=ADVANCED_FACE('',(#125,#69,#70,#71,#72,#73,#74,#75,#76),#963,.T.);
#1022=ADVANCED_FACE('',(#126),#21,.T.);
#1023=ADVANCED_FACE('',(#127),#964,.T.);
#1024=ADVANCED_FACE('',(#128),#22,.T.);
#1025=ADVANCED_FACE('',(#129),#965,.T.);
#1026=ADVANCED_FACE('',(#130),#23,.T.);
#1027=ADVANCED_FACE('',(#131),#966,.T.);
#1028=ADVANCED_FACE('',(#132),#24,.T.);
#1029=ADVANCED_FACE('',(#133),#967,.T.);
#1030=ADVANCED_FACE('',(#134),#968,.T.);
#1031=ADVANCED_FACE('',(#135),#969,.T.);
#1032=ADVANCED_FACE('',(#136),#970,.T.);
#1033=ADVANCED_FACE('',(#137),#971,.T.);
#1034=ADVANCED_FACE('',(#138),#972,.F.);
#1035=CLOSED_SHELL('',(#973,#974,#975,#976,#977,#978,#979,#980,#981,#982,
#983,#984,#985,#986,#987,#988,#989,#990,#991,#992,#993,#994));
#1036=CLOSED_SHELL('',(#995,#996,#997,#998,#999,#1000,#1001,#1002,#1003,
#1004));
#1037=CLOSED_SHELL('',(#1005,#1006,#1007,#1008,#1009,#1010,#1011,#1012,
#1013,#1014,#1015,#1016,#1017,#1018,#1019,#1020,#1021,#1022,#1023,#1024,
#1025,#1026,#1027,#1028,#1029,#1030,#1031,#1032,#1033,#1034));
#1038=AXIS2_PLACEMENT_3D('',#1407,#1125,#1126);
#1039=AXIS2_PLACEMENT_3D('',#1408,#1127,#1128);
#1040=AXIS2_PLACEMENT_3D('',#1417,#1133,#1134);
#1041=AXIS2_PLACEMENT_3D('',#1423,#1138,#1139);
#1042=AXIS2_PLACEMENT_3D('',#1429,#1143,#1144);
#1043=AXIS2_PLACEMENT_3D('',#1432,#1147,#1148);
#1044=AXIS2_PLACEMENT_3D('',#1441,#1153,#1154);
#1045=AXIS2_PLACEMENT_3D('',#1447,#1158,#1159);
#1046=AXIS2_PLACEMENT_3D('',#1453,#1163,#1164);
#1047=AXIS2_PLACEMENT_3D('',#1456,#1167,#1168);
#1048=AXIS2_PLACEMENT_3D('',#1465,#1173,#1174);
#1049=AXIS2_PLACEMENT_3D('',#1471,#1178,#1179);
#1050=AXIS2_PLACEMENT_3D('',#1477,#1183,#1184);
#1051=AXIS2_PLACEMENT_3D('',#1480,#1187,#1188);
#1052=AXIS2_PLACEMENT_3D('',#1497,#1197,#1198);
#1053=AXIS2_PLACEMENT_3D('',#1503,#1202,#1203);
#1054=AXIS2_PLACEMENT_3D('',#1507,#1206,#1207);
#1055=AXIS2_PLACEMENT_3D('',#1511,#1210,#1211);
#1056=AXIS2_PLACEMENT_3D('',#1513,#1213,#1214);
#1057=AXIS2_PLACEMENT_3D('',#1519,#1218,#1219);
#1058=AXIS2_PLACEMENT_3D('',#1523,#1222,#1223);
#1059=AXIS2_PLACEMENT_3D('',#1527,#1226,#1227);
#1060=AXIS2_PLACEMENT_3D('',#1529,#1229,#1230);
#1061=AXIS2_PLACEMENT_3D('',#1530,#1231,#1232);
#1062=AXIS2_PLACEMENT_3D('',#1539,#1237,#1238);
#1063=AXIS2_PLACEMENT_3D('',#1545,#1242,#1243);
#1064=AXIS2_PLACEMENT_3D('',#1551,#1247,#1248);
#1065=AXIS2_PLACEMENT_3D('',#1554,#1251,#1252);
#1066=AXIS2_PLACEMENT_3D('',#1563,#1257,#1258);
#1067=AXIS2_PLACEMENT_3D('',#1569,#1262,#1263);
#1068=AXIS2_PLACEMENT_3D('',#1575,#1267,#1268);
#1069=AXIS2_PLACEMENT_3D('',#1578,#1271,#1272);
#1070=AXIS2_PLACEMENT_3D('',#1579,#1273,#1274);
#1071=AXIS2_PLACEMENT_3D('',#1580,#1275,#1276);
#1072=AXIS2_PLACEMENT_3D('',#1582,#1277,#1278);
#1073=AXIS2_PLACEMENT_3D('',#1583,#1279,#1280);
#1074=AXIS2_PLACEMENT_3D('',#1585,#1281,#1282);
#1075=AXIS2_PLACEMENT_3D('',#1586,#1283,#1284);
#1076=AXIS2_PLACEMENT_3D('',#1588,#1285,#1286);
#1077=AXIS2_PLACEMENT_3D('',#1589,#1287,#1288);
#1078=AXIS2_PLACEMENT_3D('',#1591,#1289,#1290);
#1079=AXIS2_PLACEMENT_3D('',#1592,#1291,#1292);
#1080=AXIS2_PLACEMENT_3D('',#1594,#1293,#1294);
#1081=AXIS2_PLACEMENT_3D('',#1596,#1296,#1297);
#1082=AXIS2_PLACEMENT_3D('',#1598,#1298,#1299);
#1083=AXIS2_PLACEMENT_3D('',#1601,#1301,#1302);
#1084=AXIS2_PLACEMENT_3D('',#1602,#1303,#1304);
#1085=AXIS2_PLACEMENT_3D('',#1603,#1305,#1306);
#1086=AXIS2_PLACEMENT_3D('',#1605,#1307,#1308);
#1087=AXIS2_PLACEMENT_3D('',#1607,#1310,#1311);
#1088=AXIS2_PLACEMENT_3D('',#1609,#1312,#1313);
#1089=AXIS2_PLACEMENT_3D('',#1612,#1315,#1316);
#1090=AXIS2_PLACEMENT_3D('',#1613,#1317,#1318);
#1091=AXIS2_PLACEMENT_3D('',#1614,#1319,#1320);
#1092=AXIS2_PLACEMENT_3D('',#1616,#1321,#1322);
#1093=AXIS2_PLACEMENT_3D('',#1618,#1324,#1325);
#1094=AXIS2_PLACEMENT_3D('',#1620,#1326,#1327);
#1095=AXIS2_PLACEMENT_3D('',#1623,#1329,#1330);
#1096=AXIS2_PLACEMENT_3D('',#1624,#1331,#1332);
#1097=AXIS2_PLACEMENT_3D('',#1625,#1333,#1334);
#1098=AXIS2_PLACEMENT_3D('',#1627,#1335,#1336);
#1099=AXIS2_PLACEMENT_3D('',#1629,#1338,#1339);
#1100=AXIS2_PLACEMENT_3D('',#1631,#1340,#1341);
#1101=AXIS2_PLACEMENT_3D('',#1634,#1343,#1344);
#1102=AXIS2_PLACEMENT_3D('',#1635,#1345,#1346);
#1103=AXIS2_PLACEMENT_3D('',#1636,#1347,#1348);
#1104=AXIS2_PLACEMENT_3D('',#1646,#1353,#1354);
#1105=AXIS2_PLACEMENT_3D('',#1648,#1355,#1356);
#1106=AXIS2_PLACEMENT_3D('',#1650,#1357,#1358);
#1107=AXIS2_PLACEMENT_3D('',#1652,#1359,#1360);
#1108=AXIS2_PLACEMENT_3D('',#1653,#1361,#1362);
#1109=AXIS2_PLACEMENT_3D('',#1655,#1363,#1364);
#1110=AXIS2_PLACEMENT_3D('',#1657,#1366,#1367);
#1111=AXIS2_PLACEMENT_3D('',#1658,#1368,#1369);
#1112=AXIS2_PLACEMENT_3D('',#1660,#1370,#1371);
#1113=AXIS2_PLACEMENT_3D('',#1662,#1373,#1374);
#1114=AXIS2_PLACEMENT_3D('',#1663,#1375,#1376);
#1115=AXIS2_PLACEMENT_3D('',#1665,#1377,#1378);
#1116=AXIS2_PLACEMENT_3D('',#1667,#1380,#1381);
#1117=AXIS2_PLACEMENT_3D('',#1668,#1382,#1383);
#1118=AXIS2_PLACEMENT_3D('',#1670,#1384,#1385);
#1119=AXIS2_PLACEMENT_3D('',#1672,#1387,#1388);
#1120=AXIS2_PLACEMENT_3D('',#1673,#1389,#1390);
#1121=AXIS2_PLACEMENT_3D('',#1679,#1394,#1395);
#1122=AXIS2_PLACEMENT_3D('',#1685,#1399,#1400);
#1123=AXIS2_PLACEMENT_3D('',#1688,#1403,#1404);
#1124=AXIS2_PLACEMENT_3D('',#1689,#1405,#1406);
#1125=DIRECTION('axis',(0.,0.,1.));
#1126=DIRECTION('refdir',(1.,0.,0.));
#1127=DIRECTION('center_axis',(0.,0.,1.));
#1128=DIRECTION('ref_axis',(0.,1.,0.));
#1129=DIRECTION('',(0.,-1.,0.));
#1130=DIRECTION('',(-1.,0.,0.));
#1131=DIRECTION('',(0.,1.,0.));
#1132=DIRECTION('',(-1.,0.,0.));
#1133=DIRECTION('center_axis',(0.,-1.,0.));
#1134=DIRECTION('ref_axis',(0.,0.,1.));
#1135=DIRECTION('',(0.,0.,-1.));
#1136=DIRECTION('',(0.,0.,1.));
#1137=DIRECTION('',(-1.,0.,0.));
#1138=DIRECTION('center_axis',(0.,0.,-1.));
#1139=DIRECTION('ref_axis',(0.,-1.,0.));
#1140=DIRECTION('',(0.,1.,0.));
#1141=DIRECTION('',(0.,-1.,0.));
#1142=DIRECTION('',(-1.,0.,0.));
#1143=DIRECTION('center_axis',(0.,1.,0.));
#1144=DIRECTION('ref_axis',(0.,0.,-1.));
#1145=DIRECTION('',(0.,0.,1.));
#1146=DIRECTION('',(0.,0.,-1.));
#1147=DIRECTION('center_axis',(0.,0.,1.));
#1148=DIRECTION('ref_axis',(1.,0.,0.));
#1149=DIRECTION('',(-1.,0.,0.));
#1150=DIRECTION('',(0.,1.,0.));
#1151=DIRECTION('',(1.,0.,0.));
#1152=DIRECTION('',(0.,1.,0.));
#1153=DIRECTION('center_axis',(-1.,0.,0.));
#1154=DIRECTION('ref_axis',(0.,0.,1.));
#1155=DIRECTION('',(0.,0.,-1.));
#1156=DIRECTION('',(0.,0.,1.));
#1157=DIRECTION('',(0.,1.,0.));
#1158=DIRECTION('center_axis',(0.,0.,-1.));
#1159=DIRECTION('ref_axis',(-1.,0.,0.));
#1160=DIRECTION('',(1.,0.,0.));
#1161=DIRECTION('',(-1.,0.,0.));
#1162=DIRECTION('',(0.,1.,0.));
#1163=DIRECTION('center_axis',(1.,0.,0.));
#1164=DIRECTION('ref_axis',(0.,0.,-1.));
#1165=DIRECTION('',(0.,0.,1.));
#1166=DIRECTION('',(0.,0.,-1.));
#1167=DIRECTION('center_axis',(0.,0.,-1.));
#1168=DIRECTION('ref_axis',(-1.,0.,0.));
#1169=DIRECTION('',(1.,0.,0.));
#1170=DIRECTION('',(0.,1.,0.));
#1171=DIRECTION('',(-1.,0.,0.));
#1172=DIRECTION('',(0.,1.,0.));
#1173=DIRECTION('center_axis',(1.,0.,0.));
#1174=DIRECTION('ref_axis',(0.,0.,-1.));
#1175=DIRECTION('',(0.,0.,1.));
#1176=DIRECTION('',(0.,0.,-1.));
#1177=DIRECTION('',(0.,1.,0.));
#1178=DIRECTION('center_axis',(0.,0.,1.));
#1179=DIRECTION('ref_axis',(1.,0.,0.));
#1180=DIRECTION('',(-1.,0.,0.));
#1181=DIRECTION('',(1.,0.,0.));
#1182=DIRECTION('',(0.,1.,0.));
#1183=DIRECTION('center_axis',(-1.,0.,0.));
#1184=DIRECTION('ref_axis',(0.,0.,1.));
#1185=DIRECTION('',(0.,0.,-1.));
#1186=DIRECTION('',(0.,0.,1.));
#1187=DIRECTION('center_axis',(0.,0.,1.));
#1188=DIRECTION('ref_axis',(1.,0.,0.));
#1189=DIRECTION('',(1.,0.,0.));
#1190=DIRECTION('',(0.,1.,0.));
#1191=DIRECTION('',(-1.,0.,0.));
#1192=DIRECTION('',(0.,-1.,0.));
#1193=DIRECTION('',(1.,0.,0.));
#1194=DIRECTION('',(0.,-1.,0.));
#1195=DIRECTION('',(-1.,0.,0.));
#1196=DIRECTION('',(0.,1.,0.));
#1197=DIRECTION('center_axis',(-1.,0.,0.));
#1198=DIRECTION('ref_axis',(0.,1.,0.));
#1199=DIRECTION('',(0.,0.,1.));
#1200=DIRECTION('',(0.,1.,0.));
#1201=DIRECTION('',(0.,0.,1.));
#1202=DIRECTION('center_axis',(0.,1.,0.));
#1203=DIRECTION('ref_axis',(1.,0.,0.));
#1204=DIRECTION('',(1.,0.,0.));
#1205=DIRECTION('',(0.,0.,1.));
#1206=DIRECTION('center_axis',(1.,0.,0.));
#1207=DIRECTION('ref_axis',(0.,-1.,0.));
#1208=DIRECTION('',(0.,-1.,0.));
#1209=DIRECTION('',(0.,0.,-1.));
#1210=DIRECTION('center_axis',(0.,-1.,0.));
#1211=DIRECTION('ref_axis',(-1.,0.,0.));
#1212=DIRECTION('',(-1.,0.,0.));
#1213=DIRECTION('center_axis',(1.,0.,0.));
#1214=DIRECTION('ref_axis',(0.,-1.,0.));
#1215=DIRECTION('',(0.,0.,1.));
#1216=DIRECTION('',(0.,-1.,0.));
#1217=DIRECTION('',(0.,0.,1.));
#1218=DIRECTION('center_axis',(0.,1.,0.));
#1219=DIRECTION('ref_axis',(1.,0.,0.));
#1220=DIRECTION('',(1.,0.,0.));
#1221=DIRECTION('',(0.,0.,1.));
#1222=DIRECTION('center_axis',(-1.,0.,0.));
#1223=DIRECTION('ref_axis',(0.,1.,0.));
#1224=DIRECTION('',(0.,1.,0.));
#1225=DIRECTION('',(0.,0.,-1.));
#1226=DIRECTION('center_axis',(0.,-1.,0.));
#1227=DIRECTION('ref_axis',(-1.,0.,0.));
#1228=DIRECTION('',(-1.,0.,0.));
#1229=DIRECTION('center_axis',(0.,0.,-1.));
#1230=DIRECTION('ref_axis',(-1.,0.,0.));
#1231=DIRECTION('center_axis',(-1.,0.,0.));
#1232=DIRECTION('ref_axis',(0.,1.,0.));
#1233=DIRECTION('',(0.,1.,0.));
#1234=DIRECTION('',(0.,0.,-1.));
#1235=DIRECTION('',(0.,1.,0.));
#1236=DIRECTION('',(0.,0.,-1.));
#1237=DIRECTION('center_axis',(0.,1.,0.));
#1238=DIRECTION('ref_axis',(1.,0.,0.));
#1239=DIRECTION('',(1.,0.,0.));
#1240=DIRECTION('',(1.,0.,0.));
#1241=DIRECTION('',(0.,0.,-1.));
#1242=DIRECTION('center_axis',(1.,0.,0.));
#1243=DIRECTION('ref_axis',(0.,-1.,0.));
#1244=DIRECTION('',(0.,-1.,0.));
#1245=DIRECTION('',(0.,-1.,0.));
#1246=DIRECTION('',(0.,0.,-1.));
#1247=DIRECTION('center_axis',(0.,-1.,0.));
#1248=DIRECTION('ref_axis',(-1.,0.,0.));
#1249=DIRECTION('',(-1.,0.,0.));
#1250=DIRECTION('',(-1.,0.,0.));
#1251=DIRECTION('center_axis',(1.,0.,0.));
#1252=DIRECTION('ref_axis',(0.,-1.,0.));
#1253=DIRECTION('',(0.,-1.,0.));
#1254=DIRECTION('',(0.,0.,-1.));
#1255=DIRECTION('',(0.,-1.,0.));
#1256=DIRECTION('',(0.,0.,-1.));
#1257=DIRECTION('center_axis',(0.,1.,0.));
#1258=DIRECTION('ref_axis',(1.,0.,0.));
#1259=DIRECTION('',(1.,0.,0.));
#1260=DIRECTION('',(1.,0.,0.));
#1261=DIRECTION('',(0.,0.,-1.));
#1262=DIRECTION('center_axis',(-1.,0.,0.));
#1263=DIRECTION('ref_axis',(0.,1.,0.));
#1264=DIRECTION('',(0.,1.,0.));
#1265=DIRECTION('',(0.,1.,0.));
#1266=DIRECTION('',(0.,0.,-1.));
#1267=DIRECTION('center_axis',(0.,-1.,0.));
#1268=DIRECTION('ref_axis',(-1.,0.,0.));
#1269=DIRECTION('',(-1.,0.,0.));
#1270=DIRECTION('',(-1.,0.,0.));
#1271=DIRECTION('center_axis',(0.,0.,-1.));
#1272=DIRECTION('ref_axis',(-1.,0.,0.));
#1273=DIRECTION('center_axis',(0.,0.,-1.));
#1274=DIRECTION('ref_axis',(-1.,0.,0.));
#1275=DIRECTION('center_axis',(0.,0.,1.));
#1276=DIRECTION('ref_axis',(0.,1.,0.));
#1277=DIRECTION('center_axis',(0.,0.,-1.));
#1278=DIRECTION('ref_axis',(-1.,0.,0.));
#1279=DIRECTION('center_axis',(0.,0.,1.));
#1280=DIRECTION('ref_axis',(0.,1.,0.));
#1281=DIRECTION('center_axis',(0.,0.,-1.));
#1282=DIRECTION('ref_axis',(-1.,0.,0.));
#1283=DIRECTION('center_axis',(0.,0.,1.));
#1284=DIRECTION('ref_axis',(0.,1.,0.));
#1285=DIRECTION('center_axis',(0.,0.,-1.));
#1286=DIRECTION('ref_axis',(-1.,0.,0.));
#1287=DIRECTION('center_axis',(0.,0.,1.));
#1288=DIRECTION('ref_axis',(0.,1.,0.));
#1289=DIRECTION('center_axis',(0.,0.,-1.));
#1290=DIRECTION('ref_axis',(-1.,0.,0.));
#1291=DIRECTION('center_axis',(0.,0.,1.));
#1292=DIRECTION('ref_axis',(-1.,0.,0.));
#1293=DIRECTION('center_axis',(0.,0.,-1.));
#1294=DIRECTION('ref_axis',(-1.,0.,0.));
#1295=DIRECTION('',(0.,0.,-1.));
#1296=DIRECTION('center_axis',(0.,0.,1.));
#1297=DIRECTION('ref_axis',(-1.,0.,0.));
#1298=DIRECTION('center_axis',(0.,0.,1.));
#1299=DIRECTION('ref_axis',(-1.,0.,0.));
#1300=DIRECTION('',(0.,0.,-1.));
#1301=DIRECTION('center_axis',(0.,0.,-1.));
#1302=DIRECTION('ref_axis',(-1.,0.,0.));
#1303=DIRECTION('center_axis',(0.,0.,1.));
#1304=DIRECTION('ref_axis',(-1.,0.,0.));
#1305=DIRECTION('center_axis',(0.,0.,1.));
#1306=DIRECTION('ref_axis',(-1.,0.,0.));
#1307=DIRECTION('center_axis',(0.,0.,-1.));
#1308=DIRECTION('ref_axis',(-1.,0.,0.));
#1309=DIRECTION('',(0.,0.,-1.));
#1310=DIRECTION('center_axis',(0.,0.,1.));
#1311=DIRECTION('ref_axis',(-1.,0.,0.));
#1312=DIRECTION('center_axis',(0.,0.,1.));
#1313=DIRECTION('ref_axis',(-1.,0.,0.));
#1314=DIRECTION('',(0.,0.,-1.));
#1315=DIRECTION('center_axis',(0.,0.,-1.));
#1316=DIRECTION('ref_axis',(-1.,0.,0.));
#1317=DIRECTION('center_axis',(0.,0.,1.));
#1318=DIRECTION('ref_axis',(-1.,0.,0.));
#1319=DIRECTION('center_axis',(0.,0.,1.));
#1320=DIRECTION('ref_axis',(-1.,0.,0.));
#1321=DIRECTION('center_axis',(0.,0.,-1.));
#1322=DIRECTION('ref_axis',(-1.,0.,0.));
#1323=DIRECTION('',(0.,0.,-1.));
#1324=DIRECTION('center_axis',(0.,0.,1.));
#1325=DIRECTION('ref_axis',(-1.,0.,0.));
#1326=DIRECTION('center_axis',(0.,0.,1.));
#1327=DIRECTION('ref_axis',(-1.,0.,0.));
#1328=DIRECTION('',(0.,0.,-1.));
#1329=DIRECTION('center_axis',(0.,0.,-1.));
#1330=DIRECTION('ref_axis',(-1.,0.,0.));
#1331=DIRECTION('center_axis',(0.,0.,1.));
#1332=DIRECTION('ref_axis',(-1.,0.,0.));
#1333=DIRECTION('center_axis',(0.,0.,1.));
#1334=DIRECTION('ref_axis',(-1.,0.,0.));
#1335=DIRECTION('center_axis',(0.,0.,-1.));
#1336=DIRECTION('ref_axis',(-1.,0.,0.));
#1337=DIRECTION('',(0.,0.,-1.));
#1338=DIRECTION('center_axis',(0.,0.,1.));
#1339=DIRECTION('ref_axis',(-1.,0.,0.));
#1340=DIRECTION('center_axis',(0.,0.,1.));
#1341=DIRECTION('ref_axis',(-1.,0.,0.));
#1342=DIRECTION('',(0.,0.,-1.));
#1343=DIRECTION('center_axis',(0.,0.,-1.));
#1344=DIRECTION('ref_axis',(-1.,0.,0.));
#1345=DIRECTION('center_axis',(0.,0.,1.));
#1346=DIRECTION('ref_axis',(-1.,0.,0.));
#1347=DIRECTION('center_axis',(0.,0.,1.));
#1348=DIRECTION('ref_axis',(0.,1.,0.));
#1349=DIRECTION('',(0.,1.,0.));
#1350=DIRECTION('',(-1.,0.,0.));
#1351=DIRECTION('',(0.,1.,0.));
#1352=DIRECTION('',(-1.,0.,0.));
#1353=DIRECTION('center_axis',(0.,0.,-1.));
#1354=DIRECTION('ref_axis',(-1.,0.,0.));
#1355=DIRECTION('center_axis',(0.,0.,-1.));
#1356=DIRECTION('ref_axis',(-1.,0.,0.));
#1357=DIRECTION('center_axis',(0.,0.,-1.));
#1358=DIRECTION('ref_axis',(-1.,0.,0.));
#1359=DIRECTION('center_axis',(0.,0.,-1.));
#1360=DIRECTION('ref_axis',(-1.,0.,0.));
#1361=DIRECTION('center_axis',(0.,0.,1.));
#1362=DIRECTION('ref_axis',(-1.,0.,0.));
#1363=DIRECTION('center_axis',(0.,0.,1.));
#1364=DIRECTION('ref_axis',(-1.,0.,0.));
#1365=DIRECTION('',(0.,0.,-1.));
#1366=DIRECTION('center_axis',(0.,0.,1.));
#1367=DIRECTION('ref_axis',(-1.,0.,0.));
#1368=DIRECTION('center_axis',(0.,0.,1.));
#1369=DIRECTION('ref_axis',(-1.,0.,0.));
#1370=DIRECTION('center_axis',(0.,0.,1.));
#1371=DIRECTION('ref_axis',(-1.,0.,0.));
#1372=DIRECTION('',(0.,0.,-1.));
#1373=DIRECTION('center_axis',(0.,0.,1.));
#1374=DIRECTION('ref_axis',(-1.,0.,0.));
#1375=DIRECTION('center_axis',(0.,0.,1.));
#1376=DIRECTION('ref_axis',(-1.,0.,0.));
#1377=DIRECTION('center_axis',(0.,0.,1.));
#1378=DIRECTION('ref_axis',(-1.,0.,0.));
#1379=DIRECTION('',(0.,0.,-1.));
#1380=DIRECTION('center_axis',(0.,0.,1.));
#1381=DIRECTION('ref_axis',(-1.,0.,0.));
#1382=DIRECTION('center_axis',(0.,0.,1.));
#1383=DIRECTION('ref_axis',(-1.,0.,0.));
#1384=DIRECTION('center_axis',(0.,0.,1.));
#1385=DIRECTION('ref_axis',(-1.,0.,0.));
#1386=DIRECTION('',(0.,0.,-1.));
#1387=DIRECTION('center_axis',(0.,0.,1.));
#1388=DIRECTION('ref_axis',(-1.,0.,0.));
#1389=DIRECTION('center_axis',(0.,-1.,0.));
#1390=DIRECTION('ref_axis',(0.,0.,1.));
#1391=DIRECTION('',(0.,0.,-1.));
#1392=DIRECTION('',(0.,0.,1.));
#1393=DIRECTION('',(-1.,0.,0.));
#1394=DIRECTION('center_axis',(0.,0.,-1.));
#1395=DIRECTION('ref_axis',(0.,-1.,0.));
#1396=DIRECTION('',(0.,1.,0.));
#1397=DIRECTION('',(0.,-1.,0.));
#1398=DIRECTION('',(-1.,0.,0.));
#1399=DIRECTION('center_axis',(0.,1.,0.));
#1400=DIRECTION('ref_axis',(0.,0.,-1.));
#1401=DIRECTION('',(0.,0.,-1.));
#1402=DIRECTION('',(0.,0.,-1.));
#1403=DIRECTION('center_axis',(-1.,0.,0.));
#1404=DIRECTION('ref_axis',(0.,0.,1.));
#1405=DIRECTION('center_axis',(-1.,0.,0.));
#1406=DIRECTION('ref_axis',(0.,1.,0.));
#1407=CARTESIAN_POINT('',(0.,0.,0.));
#1408=CARTESIAN_POINT('Origin',(164.5351,-88.034117522812,5.35333012946991));
#1409=CARTESIAN_POINT('',(162.0351,-77.9383062038431,5.35333012946991));
#1410=CARTESIAN_POINT('',(162.0351,-88.034117522812,5.35333012946991));
#1411=CARTESIAN_POINT('',(162.0351,-133.517058761406,5.35333012946991));
#1412=CARTESIAN_POINT('',(164.5351,-77.9383062038431,5.35333012946991));
#1413=CARTESIAN_POINT('',(164.5351,-77.9383062038431,5.35333012946991));
#1414=CARTESIAN_POINT('',(164.5351,-88.034117522812,5.35333012946991));
#1415=CARTESIAN_POINT('',(164.5351,-68.517058761406,5.35333012946991));
#1416=CARTESIAN_POINT('',(164.5351,-88.034117522812,5.35333012946991));
#1417=CARTESIAN_POINT('Origin',(164.5351,-88.034117522812,1.45605002472088));
#1418=CARTESIAN_POINT('',(162.0351,-88.034117522812,1.45605002472088));
#1419=CARTESIAN_POINT('',(162.0351,-88.034117522812,0.728025012360438));
#1420=CARTESIAN_POINT('',(164.5351,-88.034117522812,1.45605002472088));
#1421=CARTESIAN_POINT('',(164.5351,-88.034117522812,0.728025012360438));
#1422=CARTESIAN_POINT('',(164.5351,-88.034117522812,1.45605002472088));
#1423=CARTESIAN_POINT('Origin',(164.5351,-77.9383062038431,1.45605002472088));
#1424=CARTESIAN_POINT('',(162.0351,-77.9383062038431,1.45605002472088));
#1425=CARTESIAN_POINT('',(162.0351,-128.469153101922,1.45605002472088));
#1426=CARTESIAN_POINT('',(164.5351,-77.9383062038431,1.45605002472088));
#1427=CARTESIAN_POINT('',(164.5351,-63.4691531019216,1.45605002472088));
#1428=CARTESIAN_POINT('',(164.5351,-77.9383062038431,1.45605002472088));
#1429=CARTESIAN_POINT('Origin',(164.5351,-77.9383062038431,5.35333012946991));
#1430=CARTESIAN_POINT('',(162.0351,-77.9383062038431,2.67666506473496));
#1431=CARTESIAN_POINT('',(164.5351,-77.9383062038431,2.67666506473496));
#1432=CARTESIAN_POINT('Origin',(120.415351238009,-181.5,-3.60500395514887));
#1433=CARTESIAN_POINT('',(129.792558770098,-179.,-3.60500395514887));
#1434=CARTESIAN_POINT('',(120.415351238009,-179.,-3.60500395514887));
#1435=CARTESIAN_POINT('',(99.8326756190044,-179.,-3.60500395514887));
#1436=CARTESIAN_POINT('',(129.792558770098,-181.5,-3.60500395514887));
#1437=CARTESIAN_POINT('',(129.792558770098,-181.5,-3.60500395514887));
#1438=CARTESIAN_POINT('',(120.415351238009,-181.5,-3.60500395514887));
#1439=CARTESIAN_POINT('',(142.475225619005,-181.5,-3.60500395514887));
#1440=CARTESIAN_POINT('',(120.415351238009,-181.5,-3.60500395514887));
#1441=CARTESIAN_POINT('Origin',(120.415351238009,-181.5,-7.59754049542199));
#1442=CARTESIAN_POINT('',(120.415351238009,-179.,-7.59754049542199));
#1443=CARTESIAN_POINT('',(120.415351238009,-179.,-3.79877024771099));
#1444=CARTESIAN_POINT('',(120.415351238009,-181.5,-7.59754049542199));
#1445=CARTESIAN_POINT('',(120.415351238009,-181.5,-3.79877024771099));
#1446=CARTESIAN_POINT('',(120.415351238009,-181.5,-7.59754049542199));
#1447=CARTESIAN_POINT('Origin',(129.792558770098,-181.5,-7.59754049542199));
#1448=CARTESIAN_POINT('',(129.792558770098,-179.,-7.59754049542199));
#1449=CARTESIAN_POINT('',(104.521279385049,-179.,-7.59754049542199));
#1450=CARTESIAN_POINT('',(129.792558770098,-181.5,-7.59754049542199));
#1451=CARTESIAN_POINT('',(147.163829385049,-181.5,-7.59754049542199));
#1452=CARTESIAN_POINT('',(129.792558770098,-181.5,-7.59754049542199));
#1453=CARTESIAN_POINT('Origin',(129.792558770098,-181.5,-3.60500395514887));
#1454=CARTESIAN_POINT('',(129.792558770098,-179.,-1.80250197757444));
#1455=CARTESIAN_POINT('',(129.792558770098,-181.5,-1.80250197757444));
#1456=CARTESIAN_POINT('Origin',(116.291481258911,-181.5,-7.59754049542199));
#1457=CARTESIAN_POINT('',(106.494006722583,-179.,-7.59754049542199));
#1458=CARTESIAN_POINT('',(116.291481258911,-179.,-7.59754049542199));
#1459=CARTESIAN_POINT('',(97.7707406294554,-179.,-7.59754049542199));
#1460=CARTESIAN_POINT('',(106.494006722583,-181.5,-7.59754049542199));
#1461=CARTESIAN_POINT('',(106.494006722583,-181.5,-7.59754049542199));
#1462=CARTESIAN_POINT('',(116.291481258911,-181.5,-7.59754049542199));
#1463=CARTESIAN_POINT('',(140.413290629456,-181.5,-7.59754049542199));
#1464=CARTESIAN_POINT('',(116.291481258911,-181.5,-7.59754049542199));
#1465=CARTESIAN_POINT('Origin',(116.291481258911,-181.5,-3.60500395514887));
#1466=CARTESIAN_POINT('',(116.291481258911,-179.,-3.60500395514887));
#1467=CARTESIAN_POINT('',(116.291481258911,-179.,-1.80250197757444));
#1468=CARTESIAN_POINT('',(116.291481258911,-181.5,-3.60500395514887));
#1469=CARTESIAN_POINT('',(116.291481258911,-181.5,-1.80250197757444));
#1470=CARTESIAN_POINT('',(116.291481258911,-181.5,-3.60500395514887));
#1471=CARTESIAN_POINT('Origin',(106.494006722583,-181.5,-3.60500395514887));
#1472=CARTESIAN_POINT('',(106.494006722583,-179.,-3.60500395514887));
#1473=CARTESIAN_POINT('',(92.8720033612914,-179.,-3.60500395514887));
#1474=CARTESIAN_POINT('',(106.494006722583,-181.5,-3.60500395514887));
#1475=CARTESIAN_POINT('',(135.514553361292,-181.5,-3.60500395514887));
#1476=CARTESIAN_POINT('',(106.494006722583,-181.5,-3.60500395514887));
#1477=CARTESIAN_POINT('Origin',(106.494006722583,-181.5,-7.59754049542199));
#1478=CARTESIAN_POINT('',(106.494006722583,-179.,-3.79877024771099));
#1479=CARTESIAN_POINT('',(106.494006722583,-181.5,-3.79877024771099));
#1480=CARTESIAN_POINT('Origin',(120.64255,-115.25,20.));
#1481=CARTESIAN_POINT('',(76.7499999999998,-181.5,20.));
#1482=CARTESIAN_POINT('',(164.5351,-181.5,20.));
#1483=CARTESIAN_POINT('',(164.5351,-181.5,20.));
#1484=CARTESIAN_POINT('',(164.5351,-49.,20.));
#1485=CARTESIAN_POINT('',(164.5351,-49.,20.));
#1486=CARTESIAN_POINT('',(76.7499999999998,-49.,20.));
#1487=CARTESIAN_POINT('',(76.7499999999998,-49.,20.));
#1488=CARTESIAN_POINT('',(76.7499999999998,-181.5,20.));
#1489=CARTESIAN_POINT('',(79.2499999999998,-51.5,20.));
#1490=CARTESIAN_POINT('',(162.0351,-51.5,20.));
#1491=CARTESIAN_POINT('',(79.2499999999998,-51.5,20.));
#1492=CARTESIAN_POINT('',(162.0351,-179.,20.));
#1493=CARTESIAN_POINT('',(162.0351,-51.5,20.));
#1494=CARTESIAN_POINT('',(79.2499999999998,-179.,20.));
#1495=CARTESIAN_POINT('',(162.0351,-179.,20.));
#1496=CARTESIAN_POINT('',(79.2499999999998,-179.,20.));
#1497=CARTESIAN_POINT('Origin',(162.0351,-179.,0.));
#1498=CARTESIAN_POINT('',(162.0351,-51.5,-8.));
#1499=CARTESIAN_POINT('',(162.0351,-51.5,0.));
#1500=CARTESIAN_POINT('',(162.0351,-179.,-8.));
#1501=CARTESIAN_POINT('',(162.0351,-51.5,-8.));
#1502=CARTESIAN_POINT('',(162.0351,-179.,0.));
#1503=CARTESIAN_POINT('Origin',(79.2499999999998,-179.,0.));
#1504=CARTESIAN_POINT('',(79.2499999999998,-179.,-8.));
#1505=CARTESIAN_POINT('',(162.0351,-179.,-8.));
#1506=CARTESIAN_POINT('',(79.2499999999998,-179.,0.));
#1507=CARTESIAN_POINT('Origin',(79.2499999999998,-51.5,0.));
#1508=CARTESIAN_POINT('',(79.2499999999998,-51.5,-8.));
#1509=CARTESIAN_POINT('',(79.2499999999998,-179.,-8.));
#1510=CARTESIAN_POINT('',(79.2499999999998,-51.5,0.));
#1511=CARTESIAN_POINT('Origin',(162.0351,-51.5,0.));
#1512=CARTESIAN_POINT('',(79.2499999999998,-51.5,-8.));
#1513=CARTESIAN_POINT('Origin',(164.5351,-49.,0.));
#1514=CARTESIAN_POINT('',(164.5351,-181.5,-8.));
#1515=CARTESIAN_POINT('',(164.5351,-181.5,0.));
#1516=CARTESIAN_POINT('',(164.5351,-49.,-8.));
#1517=CARTESIAN_POINT('',(164.5351,-49.,-8.));
#1518=CARTESIAN_POINT('',(164.5351,-49.,0.));
#1519=CARTESIAN_POINT('Origin',(76.7499999999998,-49.,0.));
#1520=CARTESIAN_POINT('',(76.7499999999998,-49.,-8.));
#1521=CARTESIAN_POINT('',(76.7499999999998,-49.,-8.));
#1522=CARTESIAN_POINT('',(76.7499999999998,-49.,0.));
#1523=CARTESIAN_POINT('Origin',(76.7499999999998,-181.5,0.));
#1524=CARTESIAN_POINT('',(76.7499999999998,-181.5,-8.));
#1525=CARTESIAN_POINT('',(76.7499999999998,-181.5,-8.));
#1526=CARTESIAN_POINT('',(76.7499999999998,-181.5,0.));
#1527=CARTESIAN_POINT('Origin',(164.5351,-181.5,0.));
#1528=CARTESIAN_POINT('',(164.5351,-181.5,-8.));
#1529=CARTESIAN_POINT('Origin',(120.64255,-115.25,-8.));
#1530=CARTESIAN_POINT('Origin',(162.0351,-179.,-8.));
#1531=CARTESIAN_POINT('',(162.0351,-179.,-8.));
#1532=CARTESIAN_POINT('',(162.0351,-51.5,-8.));
#1533=CARTESIAN_POINT('',(162.0351,-51.5,-8.));
#1534=CARTESIAN_POINT('',(162.0351,-51.5,-10.));
#1535=CARTESIAN_POINT('',(162.0351,-51.5,-8.));
#1536=CARTESIAN_POINT('',(162.0351,-179.,-10.));
#1537=CARTESIAN_POINT('',(162.0351,-51.5,-10.));
#1538=CARTESIAN_POINT('',(162.0351,-179.,-8.));
#1539=CARTESIAN_POINT('Origin',(79.2499999999998,-179.,-8.));
#1540=CARTESIAN_POINT('',(79.2499999999998,-179.,-8.));
#1541=CARTESIAN_POINT('',(162.0351,-179.,-8.));
#1542=CARTESIAN_POINT('',(79.2499999999998,-179.,-10.));
#1543=CARTESIAN_POINT('',(162.0351,-179.,-10.));
#1544=CARTESIAN_POINT('',(79.2499999999998,-179.,-8.));
#1545=CARTESIAN_POINT('Origin',(79.2499999999998,-51.5,-8.));
#1546=CARTESIAN_POINT('',(79.2499999999998,-51.5,-8.));
#1547=CARTESIAN_POINT('',(79.2499999999998,-179.,-8.));
#1548=CARTESIAN_POINT('',(79.2499999999998,-51.5,-10.));
#1549=CARTESIAN_POINT('',(79.2499999999998,-179.,-10.));
#1550=CARTESIAN_POINT('',(79.2499999999998,-51.5,-8.));
#1551=CARTESIAN_POINT('Origin',(162.0351,-51.5,-8.));
#1552=CARTESIAN_POINT('',(79.2499999999998,-51.5,-8.));
#1553=CARTESIAN_POINT('',(79.2499999999998,-51.5,-10.));
#1554=CARTESIAN_POINT('Origin',(164.5351,-49.,-8.));
#1555=CARTESIAN_POINT('',(164.5351,-49.,-8.));
#1556=CARTESIAN_POINT('',(164.5351,-181.5,-8.));
#1557=CARTESIAN_POINT('',(164.5351,-49.,-8.));
#1558=CARTESIAN_POINT('',(164.5351,-181.5,-10.));
#1559=CARTESIAN_POINT('',(164.5351,-181.5,-8.));
#1560=CARTESIAN_POINT('',(164.5351,-49.,-10.));
#1561=CARTESIAN_POINT('',(164.5351,-49.,-10.));
#1562=CARTESIAN_POINT('',(164.5351,-49.,-8.));
#1563=CARTESIAN_POINT('Origin',(76.7499999999998,-49.,-8.));
#1564=CARTESIAN_POINT('',(76.7499999999998,-49.,-8.));
#1565=CARTESIAN_POINT('',(76.7499999999998,-49.,-8.));
#1566=CARTESIAN_POINT('',(76.7499999999998,-49.,-10.));
#1567=CARTESIAN_POINT('',(76.7499999999998,-49.,-10.));
#1568=CARTESIAN_POINT('',(76.7499999999998,-49.,-8.));
#1569=CARTESIAN_POINT('Origin',(76.7499999999998,-181.5,-8.));
#1570=CARTESIAN_POINT('',(76.7499999999998,-181.5,-8.));
#1571=CARTESIAN_POINT('',(76.7499999999998,-181.5,-8.));
#1572=CARTESIAN_POINT('',(76.7499999999998,-181.5,-10.));
#1573=CARTESIAN_POINT('',(76.7499999999998,-181.5,-10.));
#1574=CARTESIAN_POINT('',(76.7499999999998,-181.5,-8.));
#1575=CARTESIAN_POINT('Origin',(164.5351,-181.5,-8.));
#1576=CARTESIAN_POINT('',(164.5351,-181.5,-8.));
#1577=CARTESIAN_POINT('',(164.5351,-181.5,-10.));
#1578=CARTESIAN_POINT('Origin',(120.64255,-115.25,-10.));
#1579=CARTESIAN_POINT('Origin',(120.64255,-115.25,-8.));
#1580=CARTESIAN_POINT('Origin',(162.0351,-179.,15.));
#1581=CARTESIAN_POINT('',(87.4373204384619,-76.6423351537438,15.));
#1582=CARTESIAN_POINT('Origin',(84.9373204384619,-76.6423351537438,15.));
#1583=CARTESIAN_POINT('Origin',(162.0351,-179.,15.));
#1584=CARTESIAN_POINT('',(159.695835063373,-173.378404953544,15.));
#1585=CARTESIAN_POINT('Origin',(157.195835063373,-173.378404953544,15.));
#1586=CARTESIAN_POINT('Origin',(162.0351,-179.,15.));
#1587=CARTESIAN_POINT('',(87.2651461334621,-173.365357648801,15.));
#1588=CARTESIAN_POINT('Origin',(84.7651461334621,-173.365357648801,15.));
#1589=CARTESIAN_POINT('Origin',(162.0351,-179.,15.));
#1590=CARTESIAN_POINT('',(159.647888469936,-76.5551434036101,15.));
#1591=CARTESIAN_POINT('Origin',(157.147888469936,-76.5551434036101,15.));
#1592=CARTESIAN_POINT('Origin',(84.7651461334621,-173.365357648801,-8.));
#1593=CARTESIAN_POINT('',(87.2651461334621,-173.365357648801,19.15));
#1594=CARTESIAN_POINT('Origin',(84.7651461334621,-173.365357648801,19.15));
#1595=CARTESIAN_POINT('',(87.2651461334621,-173.365357648801,-8.));
#1596=CARTESIAN_POINT('Origin',(84.7651461334621,-173.365357648801,-8.));
#1597=CARTESIAN_POINT('',(88.265146133462,-173.365357648801,19.15));
#1598=CARTESIAN_POINT('Origin',(84.7651461334621,-173.365357648801,19.15));
#1599=CARTESIAN_POINT('',(88.265146133462,-173.365357648801,-8.));
#1600=CARTESIAN_POINT('',(88.265146133462,-173.365357648801,-8.));
#1601=CARTESIAN_POINT('Origin',(84.7651461334621,-173.365357648801,-8.));
#1602=CARTESIAN_POINT('Origin',(84.7651461334621,-173.365357648801,19.15));
#1603=CARTESIAN_POINT('Origin',(84.9373204384619,-76.6423351537438,-8.));
#1604=CARTESIAN_POINT('',(87.4373204384619,-76.6423351537438,19.15));
#1605=CARTESIAN_POINT('Origin',(84.9373204384619,-76.6423351537438,19.15));
#1606=CARTESIAN_POINT('',(87.4373204384619,-76.6423351537438,-8.));
#1607=CARTESIAN_POINT('Origin',(84.9373204384619,-76.6423351537438,-8.));
#1608=CARTESIAN_POINT('',(88.4373204384619,-76.6423351537438,19.15));
#1609=CARTESIAN_POINT('Origin',(84.9373204384619,-76.6423351537438,19.15));
#1610=CARTESIAN_POINT('',(88.4373204384619,-76.6423351537438,-8.));
#1611=CARTESIAN_POINT('',(88.4373204384619,-76.6423351537438,-8.));
#1612=CARTESIAN_POINT('Origin',(84.9373204384619,-76.6423351537438,-8.));
#1613=CARTESIAN_POINT('Origin',(84.9373204384619,-76.6423351537438,19.15));
#1614=CARTESIAN_POINT('Origin',(157.195835063373,-173.378404953544,-8.));
#1615=CARTESIAN_POINT('',(159.695835063373,-173.378404953544,19.15));
#1616=CARTESIAN_POINT('Origin',(157.195835063373,-173.378404953544,19.15));
#1617=CARTESIAN_POINT('',(159.695835063373,-173.378404953544,-8.));
#1618=CARTESIAN_POINT('Origin',(157.195835063373,-173.378404953544,-8.));
#1619=CARTESIAN_POINT('',(160.695835063373,-173.378404953544,19.15));
#1620=CARTESIAN_POINT('Origin',(157.195835063373,-173.378404953544,19.15));
#1621=CARTESIAN_POINT('',(160.695835063373,-173.378404953544,-8.));
#1622=CARTESIAN_POINT('',(160.695835063373,-173.378404953544,-8.));
#1623=CARTESIAN_POINT('Origin',(157.195835063373,-173.378404953544,-8.));
#1624=CARTESIAN_POINT('Origin',(157.195835063373,-173.378404953544,19.15));
#1625=CARTESIAN_POINT('Origin',(157.147888469936,-76.5551434036101,-8.));
#1626=CARTESIAN_POINT('',(159.647888469936,-76.5551434036101,19.15));
#1627=CARTESIAN_POINT('Origin',(157.147888469936,-76.5551434036101,19.15));
#1628=CARTESIAN_POINT('',(159.647888469936,-76.5551434036101,-8.));
#1629=CARTESIAN_POINT('Origin',(157.147888469936,-76.5551434036101,-8.));
#1630=CARTESIAN_POINT('',(160.647888469936,-76.5551434036101,19.15));
#1631=CARTESIAN_POINT('Origin',(157.147888469936,-76.5551434036101,19.15));
#1632=CARTESIAN_POINT('',(160.647888469936,-76.5551434036101,-8.));
#1633=CARTESIAN_POINT('',(160.647888469936,-76.5551434036101,-8.));
#1634=CARTESIAN_POINT('Origin',(157.147888469936,-76.5551434036101,-8.));
#1635=CARTESIAN_POINT('Origin',(157.147888469936,-76.5551434036101,19.15));
#1636=CARTESIAN_POINT('Origin',(162.0351,-179.,-8.));
#1637=CARTESIAN_POINT('',(162.0351,-179.,-8.));
#1638=CARTESIAN_POINT('',(162.0351,-51.5,-8.));
#1639=CARTESIAN_POINT('',(162.0351,-51.5,-8.));
#1640=CARTESIAN_POINT('',(79.2501000000001,-51.5,-8.));
#1641=CARTESIAN_POINT('',(162.0351,-51.5,-8.));
#1642=CARTESIAN_POINT('',(79.2501000000001,-179.,-8.));
#1643=CARTESIAN_POINT('',(79.2501000000001,-51.5,-8.));
#1644=CARTESIAN_POINT('',(162.0351,-179.,-8.));
#1645=CARTESIAN_POINT('',(147.500002145767,-56.000000834465,-8.));
#1646=CARTESIAN_POINT('Origin',(144.000002145767,-56.000000834465,-8.));
#1647=CARTESIAN_POINT('',(147.500002145767,-145.000002160668,-8.));
#1648=CARTESIAN_POINT('Origin',(144.000002145767,-145.000002160668,-8.));
#1649=CARTESIAN_POINT('',(106.50000153482,-56.000000834465,-8.));
#1650=CARTESIAN_POINT('Origin',(103.00000153482,-56.000000834465,-8.));
#1651=CARTESIAN_POINT('',(105.687135122161,-143.562015532921,-8.));
#1652=CARTESIAN_POINT('Origin',(102.187135122161,-143.562015532921,-8.));
#1653=CARTESIAN_POINT('Origin',(144.000002145767,-56.000000834465,-8.));
#1654=CARTESIAN_POINT('',(147.500002145767,-56.000000834465,0.));
#1655=CARTESIAN_POINT('Origin',(144.000002145767,-56.000000834465,0.));
#1656=CARTESIAN_POINT('',(147.500002145767,-56.000000834465,-8.));
#1657=CARTESIAN_POINT('Origin',(144.000002145767,-56.000000834465,0.));
#1658=CARTESIAN_POINT('Origin',(144.000002145767,-145.000002160668,-8.));
#1659=CARTESIAN_POINT('',(147.500002145767,-145.000002160668,0.));
#1660=CARTESIAN_POINT('Origin',(144.000002145767,-145.000002160668,0.));
#1661=CARTESIAN_POINT('',(147.500002145767,-145.000002160668,-8.));
#1662=CARTESIAN_POINT('Origin',(144.000002145767,-145.000002160668,0.));
#1663=CARTESIAN_POINT('Origin',(103.00000153482,-56.000000834465,-8.));
#1664=CARTESIAN_POINT('',(106.50000153482,-56.000000834465,0.));
#1665=CARTESIAN_POINT('Origin',(103.00000153482,-56.000000834465,0.));
#1666=CARTESIAN_POINT('',(106.50000153482,-56.000000834465,-8.));
#1667=CARTESIAN_POINT('Origin',(103.00000153482,-56.000000834465,0.));
#1668=CARTESIAN_POINT('Origin',(102.187135122161,-143.562015532921,-8.));
#1669=CARTESIAN_POINT('',(105.687135122161,-143.562015532921,0.));
#1670=CARTESIAN_POINT('Origin',(102.187135122161,-143.562015532921,0.));
#1671=CARTESIAN_POINT('',(105.687135122161,-143.562015532921,-8.));
#1672=CARTESIAN_POINT('Origin',(102.187135122161,-143.562015532921,0.));
#1673=CARTESIAN_POINT('Origin',(162.0351,-179.,-10.));
#1674=CARTESIAN_POINT('',(162.0351,-179.,-10.));
#1675=CARTESIAN_POINT('',(162.0351,-179.,-8.));
#1676=CARTESIAN_POINT('',(79.2501000000001,-179.,-10.));
#1677=CARTESIAN_POINT('',(79.2501000000001,-179.,-8.));
#1678=CARTESIAN_POINT('',(162.0351,-179.,-10.));
#1679=CARTESIAN_POINT('Origin',(162.0351,-51.5,-10.));
#1680=CARTESIAN_POINT('',(162.0351,-51.5,-10.));
#1681=CARTESIAN_POINT('',(162.0351,-51.5,-10.));
#1682=CARTESIAN_POINT('',(79.2501000000001,-51.5,-10.));
#1683=CARTESIAN_POINT('',(79.2501000000001,-51.5,-10.));
#1684=CARTESIAN_POINT('',(162.0351,-51.5,-10.));
#1685=CARTESIAN_POINT('Origin',(162.0351,-51.5,-8.));
#1686=CARTESIAN_POINT('',(162.0351,-51.5,-8.));
#1687=CARTESIAN_POINT('',(79.2501000000001,-51.5,-8.));
#1688=CARTESIAN_POINT('Origin',(79.2501000000001,-179.,-8.));
#1689=CARTESIAN_POINT('Origin',(162.0351,-179.,-8.));
#1690=UNCERTAINTY_MEASURE_WITH_UNIT(LENGTH_MEASURE(0.01),#1694,
'DISTANCE_ACCURACY_VALUE',
'Maximum model space distance between geometric entities at asserted c
onnectivities');
#1691=UNCERTAINTY_MEASURE_WITH_UNIT(LENGTH_MEASURE(0.01),#1694,
'DISTANCE_ACCURACY_VALUE',
'Maximum model space distance between geometric entities at asserted c
onnectivities');
#1692=(
GEOMETRIC_REPRESENTATION_CONTEXT(3)
GLOBAL_UNCERTAINTY_ASSIGNED_CONTEXT((#1690))
GLOBAL_UNIT_ASSIGNED_CONTEXT((#1694,#1695,#1696))
REPRESENTATION_CONTEXT('','3D')
);
#1693=(
GEOMETRIC_REPRESENTATION_CONTEXT(3)
GLOBAL_UNCERTAINTY_ASSIGNED_CONTEXT((#1691))
GLOBAL_UNIT_ASSIGNED_CONTEXT((#1694,#1695,#1696))
REPRESENTATION_CONTEXT('','3D')
);
#1694=(
LENGTH_UNIT()
NAMED_UNIT(*)
SI_UNIT(.MILLI.,.METRE.)
);
#1695=(
NAMED_UNIT(*)
PLANE_ANGLE_UNIT()
SI_UNIT($,.RADIAN.)
);
#1696=(
NAMED_UNIT(*)
SI_UNIT($,.STERADIAN.)
SOLID_ANGLE_UNIT()
);
#1697=SHAPE_DEFINITION_REPRESENTATION(#1698,#1699);
#1698=PRODUCT_DEFINITION_SHAPE('',$,#1701);
#1699=SHAPE_REPRESENTATION('',(#1038),#1692);
#1700=PRODUCT_DEFINITION_CONTEXT('part definition',#1705,'design');
#1701=PRODUCT_DEFINITION('Libre 1','Libre_PCB',#1702,#1700);
#1702=PRODUCT_DEFINITION_FORMATION('',$,#1707);
#1703=PRODUCT_RELATED_PRODUCT_CATEGORY('Libre_PCB','Libre_PCB',(#1707));
#1704=APPLICATION_PROTOCOL_DEFINITION('international standard',
'automotive_design',2009,#1705);
#1705=APPLICATION_CONTEXT(
'Core Data for Automotive Mechanical Design Process');
#1706=PRODUCT_CONTEXT('part definition',#1705,'mechanical');
#1707=PRODUCT('Libre 1','Libre_PCB','KiCad electronic assembly',(#1706));
#1708=PRESENTATION_STYLE_ASSIGNMENT((#1709));
#1709=SURFACE_STYLE_USAGE(.BOTH.,#1710);
#1710=SURFACE_SIDE_STYLE('',(#1711));
#1711=SURFACE_STYLE_FILL_AREA(#1712);
#1712=FILL_AREA_STYLE('Steel - Satin',(#1713));
#1713=FILL_AREA_STYLE_COLOUR('Steel - Satin',#1714);
#1714=COLOUR_RGB('Steel - Satin',0.627450980392157,0.627450980392157,0.627450980392157);
ENDSEC;
END-ISO-10303-21;
