ISO-10303-21;
HEADER;
/* Generated by software containing ST-Developer
 * from STEP Tools, Inc. (www.steptools.com) 
 */

FILE_DESCRIPTION(
/* description */ ('KiCad electronic assembly'),
/* implementation_level */ '2;1');

FILE_NAME(
/* name */ 'Libre_PCB_Lid.step',
/* time_stamp */ '2026-09-18T10:46:09+05:30',
/* author */ (''),
/* organization */ (''),
/* preprocessor_version */ 'ST-DEVELOPER v20.2',
/* originating_system */ 'Autodesk Translation Framework v15.15.0.0',
/* authorisation */ '');

FILE_SCHEMA (('AUTOMOTIVE_DESIGN { 1 0 10303 214 3 1 1 }'));
ENDSEC;

DATA;
#10=MECHANICAL_DESIGN_GEOMETRIC_PRESENTATION_REPRESENTATION('',(#13,#14),
#994);
#11=SHAPE_REPRESENTATION_RELATIONSHIP('SRR','None',#1000,#12);
#12=ADVANCED_BREP_SHAPE_REPRESENTATION('',(#15,#16),#993);
#13=STYLED_ITEM('',(#1009),#15);
#14=STYLED_ITEM('',(#1009),#16);
#15=MANIFOLD_SOLID_BREP('Body3',#633);
#16=MANIFOLD_SOLID_BREP('Body4',#634);
#17=FACE_BOUND('',#64,.T.);
#18=FACE_BOUND('',#66,.T.);
#19=FACE_BOUND('',#85,.T.);
#20=FACE_BOUND('',#86,.T.);
#21=FACE_BOUND('',#89,.T.);
#22=FACE_BOUND('',#90,.T.);
#23=FACE_OUTER_BOUND('',#55,.T.);
#24=FACE_OUTER_BOUND('',#56,.T.);
#25=FACE_OUTER_BOUND('',#57,.T.);
#26=FACE_OUTER_BOUND('',#58,.T.);
#27=FACE_OUTER_BOUND('',#59,.T.);
#28=FACE_OUTER_BOUND('',#60,.T.);
#29=FACE_OUTER_BOUND('',#61,.T.);
#30=FACE_OUTER_BOUND('',#62,.T.);
#31=FACE_OUTER_BOUND('',#63,.T.);
#32=FACE_OUTER_BOUND('',#65,.T.);
#33=FACE_OUTER_BOUND('',#67,.T.);
#34=FACE_OUTER_BOUND('',#68,.T.);
#35=FACE_OUTER_BOUND('',#69,.T.);
#36=FACE_OUTER_BOUND('',#70,.T.);
#37=FACE_OUTER_BOUND('',#71,.T.);
#38=FACE_OUTER_BOUND('',#72,.T.);
#39=FACE_OUTER_BOUND('',#73,.T.);
#40=FACE_OUTER_BOUND('',#74,.T.);
#41=FACE_OUTER_BOUND('',#75,.T.);
#42=FACE_OUTER_BOUND('',#76,.T.);
#43=FACE_OUTER_BOUND('',#77,.T.);
#44=FACE_OUTER_BOUND('',#78,.T.);
#45=FACE_OUTER_BOUND('',#79,.T.);
#46=FACE_OUTER_BOUND('',#80,.T.);
#47=FACE_OUTER_BOUND('',#81,.T.);
#48=FACE_OUTER_BOUND('',#82,.T.);
#49=FACE_OUTER_BOUND('',#83,.T.);
#50=FACE_OUTER_BOUND('',#84,.T.);
#51=FACE_OUTER_BOUND('',#87,.T.);
#52=FACE_OUTER_BOUND('',#88,.T.);
#53=FACE_OUTER_BOUND('',#91,.T.);
#54=FACE_OUTER_BOUND('',#92,.T.);
#55=EDGE_LOOP('',(#401,#402,#403,#404));
#56=EDGE_LOOP('',(#405,#406,#407,#408));
#57=EDGE_LOOP('',(#409,#410,#411,#412));
#58=EDGE_LOOP('',(#413,#414,#415,#416));
#59=EDGE_LOOP('',(#417,#418,#419,#420));
#60=EDGE_LOOP('',(#421,#422,#423,#424));
#61=EDGE_LOOP('',(#425,#426,#427,#428));
#62=EDGE_LOOP('',(#429,#430,#431,#432));
#63=EDGE_LOOP('',(#433,#434,#435,#436));
#64=EDGE_LOOP('',(#437,#438,#439,#440));
#65=EDGE_LOOP('',(#441,#442,#443,#444));
#66=EDGE_LOOP('',(#445,#446,#447,#448));
#67=EDGE_LOOP('',(#449,#450,#451,#452));
#68=EDGE_LOOP('',(#453,#454,#455,#456));
#69=EDGE_LOOP('',(#457,#458,#459,#460));
#70=EDGE_LOOP('',(#461,#462,#463,#464));
#71=EDGE_LOOP('',(#465,#466,#467,#468));
#72=EDGE_LOOP('',(#469,#470,#471,#472));
#73=EDGE_LOOP('',(#473,#474,#475,#476));
#74=EDGE_LOOP('',(#477,#478,#479,#480));
#75=EDGE_LOOP('',(#481,#482,#483,#484));
#76=EDGE_LOOP('',(#485,#486,#487,#488));
#77=EDGE_LOOP('',(#489,#490,#491,#492));
#78=EDGE_LOOP('',(#493,#494,#495,#496));
#79=EDGE_LOOP('',(#497,#498,#499,#500));
#80=EDGE_LOOP('',(#501,#502,#503,#504));
#81=EDGE_LOOP('',(#505,#506,#507,#508));
#82=EDGE_LOOP('',(#509,#510,#511,#512));
#83=EDGE_LOOP('',(#513,#514,#515,#516));
#84=EDGE_LOOP('',(#517,#518,#519,#520));
#85=EDGE_LOOP('',(#521,#522,#523,#524,#525,#526,#527,#528,#529,#530,#531,
#532));
#86=EDGE_LOOP('',(#533,#534,#535,#536));
#87=EDGE_LOOP('',(#537,#538,#539,#540));
#88=EDGE_LOOP('',(#541,#542,#543,#544));
#89=EDGE_LOOP('',(#545,#546,#547,#548,#549,#550,#551,#552,#553,#554,#555,
#556));
#90=EDGE_LOOP('',(#557,#558,#559,#560));
#91=EDGE_LOOP('',(#561,#562,#563,#564));
#92=EDGE_LOOP('',(#565,#566,#567,#568));
#93=LINE('',#822,#177);
#94=LINE('',#824,#178);
#95=LINE('',#826,#179);
#96=LINE('',#827,#180);
#97=LINE('',#830,#181);
#98=LINE('',#832,#182);
#99=LINE('',#833,#183);
#100=LINE('',#836,#184);
#101=LINE('',#838,#185);
#102=LINE('',#839,#186);
#103=LINE('',#841,#187);
#104=LINE('',#842,#188);
#105=LINE('',#846,#189);
#106=LINE('',#848,#190);
#107=LINE('',#850,#191);
#108=LINE('',#851,#192);
#109=LINE('',#854,#193);
#110=LINE('',#856,#194);
#111=LINE('',#857,#195);
#112=LINE('',#860,#196);
#113=LINE('',#862,#197);
#114=LINE('',#863,#198);
#115=LINE('',#865,#199);
#116=LINE('',#866,#200);
#117=LINE('',#872,#201);
#118=LINE('',#874,#202);
#119=LINE('',#876,#203);
#120=LINE('',#877,#204);
#121=LINE('',#880,#205);
#122=LINE('',#882,#206);
#123=LINE('',#883,#207);
#124=LINE('',#886,#208);
#125=LINE('',#888,#209);
#126=LINE('',#889,#210);
#127=LINE('',#892,#211);
#128=LINE('',#894,#212);
#129=LINE('',#895,#213);
#130=LINE('',#898,#214);
#131=LINE('',#900,#215);
#132=LINE('',#901,#216);
#133=LINE('',#904,#217);
#134=LINE('',#906,#218);
#135=LINE('',#907,#219);
#136=LINE('',#910,#220);
#137=LINE('',#912,#221);
#138=LINE('',#913,#222);
#139=LINE('',#916,#223);
#140=LINE('',#918,#224);
#141=LINE('',#919,#225);
#142=LINE('',#922,#226);
#143=LINE('',#924,#227);
#144=LINE('',#925,#228);
#145=LINE('',#928,#229);
#146=LINE('',#930,#230);
#147=LINE('',#931,#231);
#148=LINE('',#934,#232);
#149=LINE('',#936,#233);
#150=LINE('',#937,#234);
#151=LINE('',#939,#235);
#152=LINE('',#940,#236);
#153=LINE('',#944,#237);
#154=LINE('',#946,#238);
#155=LINE('',#948,#239);
#156=LINE('',#949,#240);
#157=LINE('',#952,#241);
#158=LINE('',#954,#242);
#159=LINE('',#955,#243);
#160=LINE('',#958,#244);
#161=LINE('',#960,#245);
#162=LINE('',#961,#246);
#163=LINE('',#963,#247);
#164=LINE('',#964,#248);
#165=LINE('',#968,#249);
#166=LINE('',#970,#250);
#167=LINE('',#972,#251);
#168=LINE('',#973,#252);
#169=LINE('',#976,#253);
#170=LINE('',#978,#254);
#171=LINE('',#979,#255);
#172=LINE('',#982,#256);
#173=LINE('',#984,#257);
#174=LINE('',#985,#258);
#175=LINE('',#987,#259);
#176=LINE('',#988,#260);
#177=VECTOR('',#672,10.);
#178=VECTOR('',#673,10.);
#179=VECTOR('',#674,10.);
#180=VECTOR('',#675,10.);
#181=VECTOR('',#678,10.);
#182=VECTOR('',#679,10.);
#183=VECTOR('',#680,10.);
#184=VECTOR('',#683,10.);
#185=VECTOR('',#684,10.);
#186=VECTOR('',#685,10.);
#187=VECTOR('',#688,10.);
#188=VECTOR('',#689,10.);
#189=VECTOR('',#692,10.);
#190=VECTOR('',#693,10.);
#191=VECTOR('',#694,10.);
#192=VECTOR('',#695,10.);
#193=VECTOR('',#698,10.);
#194=VECTOR('',#699,10.);
#195=VECTOR('',#700,10.);
#196=VECTOR('',#703,10.);
#197=VECTOR('',#704,10.);
#198=VECTOR('',#705,10.);
#199=VECTOR('',#708,10.);
#200=VECTOR('',#709,10.);
#201=VECTOR('',#716,10.);
#202=VECTOR('',#717,10.);
#203=VECTOR('',#718,10.);
#204=VECTOR('',#719,10.);
#205=VECTOR('',#722,10.);
#206=VECTOR('',#723,10.);
#207=VECTOR('',#724,10.);
#208=VECTOR('',#727,10.);
#209=VECTOR('',#728,10.);
#210=VECTOR('',#729,10.);
#211=VECTOR('',#732,10.);
#212=VECTOR('',#733,10.);
#213=VECTOR('',#734,10.);
#214=VECTOR('',#737,10.);
#215=VECTOR('',#738,10.);
#216=VECTOR('',#739,10.);
#217=VECTOR('',#742,10.);
#218=VECTOR('',#743,10.);
#219=VECTOR('',#744,10.);
#220=VECTOR('',#747,10.);
#221=VECTOR('',#748,10.);
#222=VECTOR('',#749,10.);
#223=VECTOR('',#752,10.);
#224=VECTOR('',#753,10.);
#225=VECTOR('',#754,10.);
#226=VECTOR('',#757,10.);
#227=VECTOR('',#758,10.);
#228=VECTOR('',#759,10.);
#229=VECTOR('',#762,10.);
#230=VECTOR('',#763,10.);
#231=VECTOR('',#764,10.);
#232=VECTOR('',#767,10.);
#233=VECTOR('',#768,10.);
#234=VECTOR('',#769,10.);
#235=VECTOR('',#772,10.);
#236=VECTOR('',#773,10.);
#237=VECTOR('',#776,10.);
#238=VECTOR('',#777,10.);
#239=VECTOR('',#778,10.);
#240=VECTOR('',#779,10.);
#241=VECTOR('',#782,10.);
#242=VECTOR('',#783,10.);
#243=VECTOR('',#784,10.);
#244=VECTOR('',#787,10.);
#245=VECTOR('',#788,10.);
#246=VECTOR('',#789,10.);
#247=VECTOR('',#792,10.);
#248=VECTOR('',#793,10.);
#249=VECTOR('',#796,10.);
#250=VECTOR('',#797,10.);
#251=VECTOR('',#798,10.);
#252=VECTOR('',#799,10.);
#253=VECTOR('',#802,10.);
#254=VECTOR('',#803,10.);
#255=VECTOR('',#804,10.);
#256=VECTOR('',#807,10.);
#257=VECTOR('',#808,10.);
#258=VECTOR('',#809,10.);
#259=VECTOR('',#812,10.);
#260=VECTOR('',#813,10.);
#261=VERTEX_POINT('',#820);
#262=VERTEX_POINT('',#821);
#263=VERTEX_POINT('',#823);
#264=VERTEX_POINT('',#825);
#265=VERTEX_POINT('',#829);
#266=VERTEX_POINT('',#831);
#267=VERTEX_POINT('',#835);
#268=VERTEX_POINT('',#837);
#269=VERTEX_POINT('',#844);
#270=VERTEX_POINT('',#845);
#271=VERTEX_POINT('',#847);
#272=VERTEX_POINT('',#849);
#273=VERTEX_POINT('',#853);
#274=VERTEX_POINT('',#855);
#275=VERTEX_POINT('',#859);
#276=VERTEX_POINT('',#861);
#277=VERTEX_POINT('',#870);
#278=VERTEX_POINT('',#871);
#279=VERTEX_POINT('',#873);
#280=VERTEX_POINT('',#875);
#281=VERTEX_POINT('',#879);
#282=VERTEX_POINT('',#881);
#283=VERTEX_POINT('',#885);
#284=VERTEX_POINT('',#887);
#285=VERTEX_POINT('',#891);
#286=VERTEX_POINT('',#893);
#287=VERTEX_POINT('',#897);
#288=VERTEX_POINT('',#899);
#289=VERTEX_POINT('',#903);
#290=VERTEX_POINT('',#905);
#291=VERTEX_POINT('',#909);
#292=VERTEX_POINT('',#911);
#293=VERTEX_POINT('',#915);
#294=VERTEX_POINT('',#917);
#295=VERTEX_POINT('',#921);
#296=VERTEX_POINT('',#923);
#297=VERTEX_POINT('',#927);
#298=VERTEX_POINT('',#929);
#299=VERTEX_POINT('',#933);
#300=VERTEX_POINT('',#935);
#301=VERTEX_POINT('',#942);
#302=VERTEX_POINT('',#943);
#303=VERTEX_POINT('',#945);
#304=VERTEX_POINT('',#947);
#305=VERTEX_POINT('',#951);
#306=VERTEX_POINT('',#953);
#307=VERTEX_POINT('',#957);
#308=VERTEX_POINT('',#959);
#309=VERTEX_POINT('',#966);
#310=VERTEX_POINT('',#967);
#311=VERTEX_POINT('',#969);
#312=VERTEX_POINT('',#971);
#313=VERTEX_POINT('',#975);
#314=VERTEX_POINT('',#977);
#315=VERTEX_POINT('',#981);
#316=VERTEX_POINT('',#983);
#317=EDGE_CURVE('',#261,#262,#93,.T.);
#318=EDGE_CURVE('',#262,#263,#94,.T.);
#319=EDGE_CURVE('',#264,#263,#95,.T.);
#320=EDGE_CURVE('',#261,#264,#96,.T.);
#321=EDGE_CURVE('',#265,#261,#97,.T.);
#322=EDGE_CURVE('',#266,#264,#98,.T.);
#323=EDGE_CURVE('',#265,#266,#99,.T.);
#324=EDGE_CURVE('',#267,#265,#100,.T.);
#325=EDGE_CURVE('',#268,#266,#101,.T.);
#326=EDGE_CURVE('',#267,#268,#102,.T.);
#327=EDGE_CURVE('',#262,#267,#103,.T.);
#328=EDGE_CURVE('',#263,#268,#104,.T.);
#329=EDGE_CURVE('',#269,#270,#105,.T.);
#330=EDGE_CURVE('',#270,#271,#106,.T.);
#331=EDGE_CURVE('',#272,#271,#107,.T.);
#332=EDGE_CURVE('',#269,#272,#108,.T.);
#333=EDGE_CURVE('',#273,#269,#109,.T.);
#334=EDGE_CURVE('',#274,#272,#110,.T.);
#335=EDGE_CURVE('',#273,#274,#111,.T.);
#336=EDGE_CURVE('',#275,#273,#112,.T.);
#337=EDGE_CURVE('',#276,#274,#113,.T.);
#338=EDGE_CURVE('',#275,#276,#114,.T.);
#339=EDGE_CURVE('',#270,#275,#115,.T.);
#340=EDGE_CURVE('',#271,#276,#116,.T.);
#341=EDGE_CURVE('',#277,#278,#117,.T.);
#342=EDGE_CURVE('',#279,#277,#118,.T.);
#343=EDGE_CURVE('',#280,#279,#119,.T.);
#344=EDGE_CURVE('',#280,#278,#120,.T.);
#345=EDGE_CURVE('',#278,#281,#121,.T.);
#346=EDGE_CURVE('',#282,#280,#122,.T.);
#347=EDGE_CURVE('',#282,#281,#123,.T.);
#348=EDGE_CURVE('',#281,#283,#124,.T.);
#349=EDGE_CURVE('',#284,#282,#125,.T.);
#350=EDGE_CURVE('',#284,#283,#126,.T.);
#351=EDGE_CURVE('',#283,#285,#127,.T.);
#352=EDGE_CURVE('',#286,#284,#128,.T.);
#353=EDGE_CURVE('',#286,#285,#129,.T.);
#354=EDGE_CURVE('',#285,#287,#130,.T.);
#355=EDGE_CURVE('',#288,#286,#131,.T.);
#356=EDGE_CURVE('',#288,#287,#132,.T.);
#357=EDGE_CURVE('',#287,#289,#133,.T.);
#358=EDGE_CURVE('',#290,#288,#134,.T.);
#359=EDGE_CURVE('',#290,#289,#135,.T.);
#360=EDGE_CURVE('',#289,#291,#136,.T.);
#361=EDGE_CURVE('',#292,#290,#137,.T.);
#362=EDGE_CURVE('',#292,#291,#138,.T.);
#363=EDGE_CURVE('',#291,#293,#139,.T.);
#364=EDGE_CURVE('',#294,#292,#140,.T.);
#365=EDGE_CURVE('',#294,#293,#141,.T.);
#366=EDGE_CURVE('',#293,#295,#142,.T.);
#367=EDGE_CURVE('',#296,#294,#143,.T.);
#368=EDGE_CURVE('',#296,#295,#144,.T.);
#369=EDGE_CURVE('',#295,#297,#145,.T.);
#370=EDGE_CURVE('',#298,#296,#146,.T.);
#371=EDGE_CURVE('',#298,#297,#147,.T.);
#372=EDGE_CURVE('',#297,#299,#148,.T.);
#373=EDGE_CURVE('',#300,#298,#149,.T.);
#374=EDGE_CURVE('',#300,#299,#150,.T.);
#375=EDGE_CURVE('',#299,#277,#151,.T.);
#376=EDGE_CURVE('',#279,#300,#152,.T.);
#377=EDGE_CURVE('',#301,#302,#153,.T.);
#378=EDGE_CURVE('',#303,#301,#154,.T.);
#379=EDGE_CURVE('',#304,#303,#155,.T.);
#380=EDGE_CURVE('',#304,#302,#156,.T.);
#381=EDGE_CURVE('',#302,#305,#157,.T.);
#382=EDGE_CURVE('',#306,#304,#158,.T.);
#383=EDGE_CURVE('',#306,#305,#159,.T.);
#384=EDGE_CURVE('',#305,#307,#160,.T.);
#385=EDGE_CURVE('',#308,#306,#161,.T.);
#386=EDGE_CURVE('',#308,#307,#162,.T.);
#387=EDGE_CURVE('',#307,#301,#163,.T.);
#388=EDGE_CURVE('',#303,#308,#164,.T.);
#389=EDGE_CURVE('',#309,#310,#165,.T.);
#390=EDGE_CURVE('',#309,#311,#166,.T.);
#391=EDGE_CURVE('',#312,#311,#167,.T.);
#392=EDGE_CURVE('',#310,#312,#168,.T.);
#393=EDGE_CURVE('',#310,#313,#169,.T.);
#394=EDGE_CURVE('',#314,#312,#170,.T.);
#395=EDGE_CURVE('',#313,#314,#171,.T.);
#396=EDGE_CURVE('',#315,#313,#172,.T.);
#397=EDGE_CURVE('',#316,#314,#173,.T.);
#398=EDGE_CURVE('',#315,#316,#174,.T.);
#399=EDGE_CURVE('',#309,#315,#175,.T.);
#400=EDGE_CURVE('',#311,#316,#176,.T.);
#401=ORIENTED_EDGE('',*,*,#317,.T.);
#402=ORIENTED_EDGE('',*,*,#318,.T.);
#403=ORIENTED_EDGE('',*,*,#319,.F.);
#404=ORIENTED_EDGE('',*,*,#320,.F.);
#405=ORIENTED_EDGE('',*,*,#321,.T.);
#406=ORIENTED_EDGE('',*,*,#320,.T.);
#407=ORIENTED_EDGE('',*,*,#322,.F.);
#408=ORIENTED_EDGE('',*,*,#323,.F.);
#409=ORIENTED_EDGE('',*,*,#324,.T.);
#410=ORIENTED_EDGE('',*,*,#323,.T.);
#411=ORIENTED_EDGE('',*,*,#325,.F.);
#412=ORIENTED_EDGE('',*,*,#326,.F.);
#413=ORIENTED_EDGE('',*,*,#327,.T.);
#414=ORIENTED_EDGE('',*,*,#326,.T.);
#415=ORIENTED_EDGE('',*,*,#328,.F.);
#416=ORIENTED_EDGE('',*,*,#318,.F.);
#417=ORIENTED_EDGE('',*,*,#329,.T.);
#418=ORIENTED_EDGE('',*,*,#330,.T.);
#419=ORIENTED_EDGE('',*,*,#331,.F.);
#420=ORIENTED_EDGE('',*,*,#332,.F.);
#421=ORIENTED_EDGE('',*,*,#333,.T.);
#422=ORIENTED_EDGE('',*,*,#332,.T.);
#423=ORIENTED_EDGE('',*,*,#334,.F.);
#424=ORIENTED_EDGE('',*,*,#335,.F.);
#425=ORIENTED_EDGE('',*,*,#336,.T.);
#426=ORIENTED_EDGE('',*,*,#335,.T.);
#427=ORIENTED_EDGE('',*,*,#337,.F.);
#428=ORIENTED_EDGE('',*,*,#338,.F.);
#429=ORIENTED_EDGE('',*,*,#339,.T.);
#430=ORIENTED_EDGE('',*,*,#338,.T.);
#431=ORIENTED_EDGE('',*,*,#340,.F.);
#432=ORIENTED_EDGE('',*,*,#330,.F.);
#433=ORIENTED_EDGE('',*,*,#340,.T.);
#434=ORIENTED_EDGE('',*,*,#337,.T.);
#435=ORIENTED_EDGE('',*,*,#334,.T.);
#436=ORIENTED_EDGE('',*,*,#331,.T.);
#437=ORIENTED_EDGE('',*,*,#328,.T.);
#438=ORIENTED_EDGE('',*,*,#325,.T.);
#439=ORIENTED_EDGE('',*,*,#322,.T.);
#440=ORIENTED_EDGE('',*,*,#319,.T.);
#441=ORIENTED_EDGE('',*,*,#339,.F.);
#442=ORIENTED_EDGE('',*,*,#329,.F.);
#443=ORIENTED_EDGE('',*,*,#333,.F.);
#444=ORIENTED_EDGE('',*,*,#336,.F.);
#445=ORIENTED_EDGE('',*,*,#327,.F.);
#446=ORIENTED_EDGE('',*,*,#317,.F.);
#447=ORIENTED_EDGE('',*,*,#321,.F.);
#448=ORIENTED_EDGE('',*,*,#324,.F.);
#449=ORIENTED_EDGE('',*,*,#341,.F.);
#450=ORIENTED_EDGE('',*,*,#342,.F.);
#451=ORIENTED_EDGE('',*,*,#343,.F.);
#452=ORIENTED_EDGE('',*,*,#344,.T.);
#453=ORIENTED_EDGE('',*,*,#345,.F.);
#454=ORIENTED_EDGE('',*,*,#344,.F.);
#455=ORIENTED_EDGE('',*,*,#346,.F.);
#456=ORIENTED_EDGE('',*,*,#347,.T.);
#457=ORIENTED_EDGE('',*,*,#348,.F.);
#458=ORIENTED_EDGE('',*,*,#347,.F.);
#459=ORIENTED_EDGE('',*,*,#349,.F.);
#460=ORIENTED_EDGE('',*,*,#350,.T.);
#461=ORIENTED_EDGE('',*,*,#351,.F.);
#462=ORIENTED_EDGE('',*,*,#350,.F.);
#463=ORIENTED_EDGE('',*,*,#352,.F.);
#464=ORIENTED_EDGE('',*,*,#353,.T.);
#465=ORIENTED_EDGE('',*,*,#354,.F.);
#466=ORIENTED_EDGE('',*,*,#353,.F.);
#467=ORIENTED_EDGE('',*,*,#355,.F.);
#468=ORIENTED_EDGE('',*,*,#356,.T.);
#469=ORIENTED_EDGE('',*,*,#357,.F.);
#470=ORIENTED_EDGE('',*,*,#356,.F.);
#471=ORIENTED_EDGE('',*,*,#358,.F.);
#472=ORIENTED_EDGE('',*,*,#359,.T.);
#473=ORIENTED_EDGE('',*,*,#360,.F.);
#474=ORIENTED_EDGE('',*,*,#359,.F.);
#475=ORIENTED_EDGE('',*,*,#361,.F.);
#476=ORIENTED_EDGE('',*,*,#362,.T.);
#477=ORIENTED_EDGE('',*,*,#363,.F.);
#478=ORIENTED_EDGE('',*,*,#362,.F.);
#479=ORIENTED_EDGE('',*,*,#364,.F.);
#480=ORIENTED_EDGE('',*,*,#365,.T.);
#481=ORIENTED_EDGE('',*,*,#366,.F.);
#482=ORIENTED_EDGE('',*,*,#365,.F.);
#483=ORIENTED_EDGE('',*,*,#367,.F.);
#484=ORIENTED_EDGE('',*,*,#368,.T.);
#485=ORIENTED_EDGE('',*,*,#369,.F.);
#486=ORIENTED_EDGE('',*,*,#368,.F.);
#487=ORIENTED_EDGE('',*,*,#370,.F.);
#488=ORIENTED_EDGE('',*,*,#371,.T.);
#489=ORIENTED_EDGE('',*,*,#372,.F.);
#490=ORIENTED_EDGE('',*,*,#371,.F.);
#491=ORIENTED_EDGE('',*,*,#373,.F.);
#492=ORIENTED_EDGE('',*,*,#374,.T.);
#493=ORIENTED_EDGE('',*,*,#375,.F.);
#494=ORIENTED_EDGE('',*,*,#374,.F.);
#495=ORIENTED_EDGE('',*,*,#376,.F.);
#496=ORIENTED_EDGE('',*,*,#342,.T.);
#497=ORIENTED_EDGE('',*,*,#377,.F.);
#498=ORIENTED_EDGE('',*,*,#378,.F.);
#499=ORIENTED_EDGE('',*,*,#379,.F.);
#500=ORIENTED_EDGE('',*,*,#380,.T.);
#501=ORIENTED_EDGE('',*,*,#381,.F.);
#502=ORIENTED_EDGE('',*,*,#380,.F.);
#503=ORIENTED_EDGE('',*,*,#382,.F.);
#504=ORIENTED_EDGE('',*,*,#383,.T.);
#505=ORIENTED_EDGE('',*,*,#384,.F.);
#506=ORIENTED_EDGE('',*,*,#383,.F.);
#507=ORIENTED_EDGE('',*,*,#385,.F.);
#508=ORIENTED_EDGE('',*,*,#386,.T.);
#509=ORIENTED_EDGE('',*,*,#387,.F.);
#510=ORIENTED_EDGE('',*,*,#386,.F.);
#511=ORIENTED_EDGE('',*,*,#388,.F.);
#512=ORIENTED_EDGE('',*,*,#378,.T.);
#513=ORIENTED_EDGE('',*,*,#389,.F.);
#514=ORIENTED_EDGE('',*,*,#390,.T.);
#515=ORIENTED_EDGE('',*,*,#391,.F.);
#516=ORIENTED_EDGE('',*,*,#392,.F.);
#517=ORIENTED_EDGE('',*,*,#393,.F.);
#518=ORIENTED_EDGE('',*,*,#392,.T.);
#519=ORIENTED_EDGE('',*,*,#394,.F.);
#520=ORIENTED_EDGE('',*,*,#395,.F.);
#521=ORIENTED_EDGE('',*,*,#361,.T.);
#522=ORIENTED_EDGE('',*,*,#358,.T.);
#523=ORIENTED_EDGE('',*,*,#355,.T.);
#524=ORIENTED_EDGE('',*,*,#352,.T.);
#525=ORIENTED_EDGE('',*,*,#349,.T.);
#526=ORIENTED_EDGE('',*,*,#346,.T.);
#527=ORIENTED_EDGE('',*,*,#343,.T.);
#528=ORIENTED_EDGE('',*,*,#376,.T.);
#529=ORIENTED_EDGE('',*,*,#373,.T.);
#530=ORIENTED_EDGE('',*,*,#370,.T.);
#531=ORIENTED_EDGE('',*,*,#367,.T.);
#532=ORIENTED_EDGE('',*,*,#364,.T.);
#533=ORIENTED_EDGE('',*,*,#385,.T.);
#534=ORIENTED_EDGE('',*,*,#382,.T.);
#535=ORIENTED_EDGE('',*,*,#379,.T.);
#536=ORIENTED_EDGE('',*,*,#388,.T.);
#537=ORIENTED_EDGE('',*,*,#396,.T.);
#538=ORIENTED_EDGE('',*,*,#395,.T.);
#539=ORIENTED_EDGE('',*,*,#397,.F.);
#540=ORIENTED_EDGE('',*,*,#398,.F.);
#541=ORIENTED_EDGE('',*,*,#399,.T.);
#542=ORIENTED_EDGE('',*,*,#398,.T.);
#543=ORIENTED_EDGE('',*,*,#400,.F.);
#544=ORIENTED_EDGE('',*,*,#390,.F.);
#545=ORIENTED_EDGE('',*,*,#360,.T.);
#546=ORIENTED_EDGE('',*,*,#363,.T.);
#547=ORIENTED_EDGE('',*,*,#366,.T.);
#548=ORIENTED_EDGE('',*,*,#369,.T.);
#549=ORIENTED_EDGE('',*,*,#372,.T.);
#550=ORIENTED_EDGE('',*,*,#375,.T.);
#551=ORIENTED_EDGE('',*,*,#341,.T.);
#552=ORIENTED_EDGE('',*,*,#345,.T.);
#553=ORIENTED_EDGE('',*,*,#348,.T.);
#554=ORIENTED_EDGE('',*,*,#351,.T.);
#555=ORIENTED_EDGE('',*,*,#354,.T.);
#556=ORIENTED_EDGE('',*,*,#357,.T.);
#557=ORIENTED_EDGE('',*,*,#384,.T.);
#558=ORIENTED_EDGE('',*,*,#387,.T.);
#559=ORIENTED_EDGE('',*,*,#377,.T.);
#560=ORIENTED_EDGE('',*,*,#381,.T.);
#561=ORIENTED_EDGE('',*,*,#400,.T.);
#562=ORIENTED_EDGE('',*,*,#397,.T.);
#563=ORIENTED_EDGE('',*,*,#394,.T.);
#564=ORIENTED_EDGE('',*,*,#391,.T.);
#565=ORIENTED_EDGE('',*,*,#399,.F.);
#566=ORIENTED_EDGE('',*,*,#389,.T.);
#567=ORIENTED_EDGE('',*,*,#393,.T.);
#568=ORIENTED_EDGE('',*,*,#396,.F.);
#569=PLANE('',#636);
#570=PLANE('',#637);
#571=PLANE('',#638);
#572=PLANE('',#639);
#573=PLANE('',#640);
#574=PLANE('',#641);
#575=PLANE('',#642);
#576=PLANE('',#643);
#577=PLANE('',#644);
#578=PLANE('',#645);
#579=PLANE('',#646);
#580=PLANE('',#647);
#581=PLANE('',#648);
#582=PLANE('',#649);
#583=PLANE('',#650);
#584=PLANE('',#651);
#585=PLANE('',#652);
#586=PLANE('',#653);
#587=PLANE('',#654);
#588=PLANE('',#655);
#589=PLANE('',#656);
#590=PLANE('',#657);
#591=PLANE('',#658);
#592=PLANE('',#659);
#593=PLANE('',#660);
#594=PLANE('',#661);
#595=PLANE('',#662);
#596=PLANE('',#663);
#597=PLANE('',#664);
#598=PLANE('',#665);
#599=PLANE('',#666);
#600=PLANE('',#667);
#601=ADVANCED_FACE('',(#23),#569,.T.);
#602=ADVANCED_FACE('',(#24),#570,.T.);
#603=ADVANCED_FACE('',(#25),#571,.T.);
#604=ADVANCED_FACE('',(#26),#572,.T.);
#605=ADVANCED_FACE('',(#27),#573,.T.);
#606=ADVANCED_FACE('',(#28),#574,.T.);
#607=ADVANCED_FACE('',(#29),#575,.T.);
#608=ADVANCED_FACE('',(#30),#576,.T.);
#609=ADVANCED_FACE('',(#31,#17),#577,.T.);
#610=ADVANCED_FACE('',(#32,#18),#578,.F.);
#611=ADVANCED_FACE('',(#33),#579,.F.);
#612=ADVANCED_FACE('',(#34),#580,.F.);
#613=ADVANCED_FACE('',(#35),#581,.F.);
#614=ADVANCED_FACE('',(#36),#582,.F.);
#615=ADVANCED_FACE('',(#37),#583,.F.);
#616=ADVANCED_FACE('',(#38),#584,.F.);
#617=ADVANCED_FACE('',(#39),#585,.F.);
#618=ADVANCED_FACE('',(#40),#586,.F.);
#619=ADVANCED_FACE('',(#41),#587,.F.);
#620=ADVANCED_FACE('',(#42),#588,.F.);
#621=ADVANCED_FACE('',(#43),#589,.F.);
#622=ADVANCED_FACE('',(#44),#590,.F.);
#623=ADVANCED_FACE('',(#45),#591,.F.);
#624=ADVANCED_FACE('',(#46),#592,.F.);
#625=ADVANCED_FACE('',(#47),#593,.F.);
#626=ADVANCED_FACE('',(#48),#594,.F.);
#627=ADVANCED_FACE('',(#49),#595,.T.);
#628=ADVANCED_FACE('',(#50,#19,#20),#596,.T.);
#629=ADVANCED_FACE('',(#51),#597,.T.);
#630=ADVANCED_FACE('',(#52,#21,#22),#598,.T.);
#631=ADVANCED_FACE('',(#53),#599,.T.);
#632=ADVANCED_FACE('',(#54),#600,.F.);
#633=CLOSED_SHELL('',(#601,#602,#603,#604,#605,#606,#607,#608,#609,#610));
#634=CLOSED_SHELL('',(#611,#612,#613,#614,#615,#616,#617,#618,#619,#620,
#621,#622,#623,#624,#625,#626,#627,#628,#629,#630,#631,#632));
#635=AXIS2_PLACEMENT_3D('',#818,#668,#669);
#636=AXIS2_PLACEMENT_3D('',#819,#670,#671);
#637=AXIS2_PLACEMENT_3D('',#828,#676,#677);
#638=AXIS2_PLACEMENT_3D('',#834,#681,#682);
#639=AXIS2_PLACEMENT_3D('',#840,#686,#687);
#640=AXIS2_PLACEMENT_3D('',#843,#690,#691);
#641=AXIS2_PLACEMENT_3D('',#852,#696,#697);
#642=AXIS2_PLACEMENT_3D('',#858,#701,#702);
#643=AXIS2_PLACEMENT_3D('',#864,#706,#707);
#644=AXIS2_PLACEMENT_3D('',#867,#710,#711);
#645=AXIS2_PLACEMENT_3D('',#868,#712,#713);
#646=AXIS2_PLACEMENT_3D('',#869,#714,#715);
#647=AXIS2_PLACEMENT_3D('',#878,#720,#721);
#648=AXIS2_PLACEMENT_3D('',#884,#725,#726);
#649=AXIS2_PLACEMENT_3D('',#890,#730,#731);
#650=AXIS2_PLACEMENT_3D('',#896,#735,#736);
#651=AXIS2_PLACEMENT_3D('',#902,#740,#741);
#652=AXIS2_PLACEMENT_3D('',#908,#745,#746);
#653=AXIS2_PLACEMENT_3D('',#914,#750,#751);
#654=AXIS2_PLACEMENT_3D('',#920,#755,#756);
#655=AXIS2_PLACEMENT_3D('',#926,#760,#761);
#656=AXIS2_PLACEMENT_3D('',#932,#765,#766);
#657=AXIS2_PLACEMENT_3D('',#938,#770,#771);
#658=AXIS2_PLACEMENT_3D('',#941,#774,#775);
#659=AXIS2_PLACEMENT_3D('',#950,#780,#781);
#660=AXIS2_PLACEMENT_3D('',#956,#785,#786);
#661=AXIS2_PLACEMENT_3D('',#962,#790,#791);
#662=AXIS2_PLACEMENT_3D('',#965,#794,#795);
#663=AXIS2_PLACEMENT_3D('',#974,#800,#801);
#664=AXIS2_PLACEMENT_3D('',#980,#805,#806);
#665=AXIS2_PLACEMENT_3D('',#986,#810,#811);
#666=AXIS2_PLACEMENT_3D('',#989,#814,#815);
#667=AXIS2_PLACEMENT_3D('',#990,#816,#817);
#668=DIRECTION('axis',(0.,0.,1.));
#669=DIRECTION('refdir',(1.,0.,0.));
#670=DIRECTION('center_axis',(-7.69481764532826E-15,1.,0.));
#671=DIRECTION('ref_axis',(-1.,-7.69481764532826E-15,2.04485833726642E-33));
#672=DIRECTION('',(-1.,-7.69481764532826E-15,2.04485833726642E-33));
#673=DIRECTION('',(0.,0.,1.));
#674=DIRECTION('',(-1.,-7.69481764532826E-15,2.04485833726642E-33));
#675=DIRECTION('',(0.,0.,1.));
#676=DIRECTION('center_axis',(-1.,-7.61394670739163E-15,0.));
#677=DIRECTION('ref_axis',(7.61394670739163E-15,-1.,3.46944695195361E-18));
#678=DIRECTION('',(7.61394670739163E-15,-1.,3.46944695195361E-18));
#679=DIRECTION('',(7.61394670739163E-15,-1.,3.46944695195361E-18));
#680=DIRECTION('',(0.,0.,1.));
#681=DIRECTION('center_axis',(7.71528258587435E-15,-1.,0.));
#682=DIRECTION('ref_axis',(1.,7.71528258587435E-15,-2.11586036286595E-33));
#683=DIRECTION('',(1.,7.71528258587435E-15,-2.11586036286595E-33));
#684=DIRECTION('',(1.,7.71528258587435E-15,-2.11586036286595E-33));
#685=DIRECTION('',(0.,0.,1.));
#686=DIRECTION('center_axis',(1.,7.61394670739163E-15,0.));
#687=DIRECTION('ref_axis',(-7.61394670739163E-15,1.,-3.46944695195361E-18));
#688=DIRECTION('',(-7.61394670739163E-15,1.,-3.46944695195361E-18));
#689=DIRECTION('',(-7.61394670739163E-15,1.,-3.46944695195361E-18));
#690=DIRECTION('center_axis',(-7.7079801181024E-15,1.,0.));
#691=DIRECTION('ref_axis',(-1.,-7.7079801181024E-15,2.09052483831282E-33));
#692=DIRECTION('',(-1.,-7.7079801181024E-15,2.09052483831282E-33));
#693=DIRECTION('',(0.,0.,1.));
#694=DIRECTION('',(-1.,-7.7079801181024E-15,2.09052483831282E-33));
#695=DIRECTION('',(0.,0.,1.));
#696=DIRECTION('center_axis',(1.,7.82142274235862E-15,0.));
#697=DIRECTION('ref_axis',(-7.82142274235862E-15,1.,-3.46944695195361E-18));
#698=DIRECTION('',(-7.82142274235862E-15,1.,-3.46944695195361E-18));
#699=DIRECTION('',(-7.82142274235862E-15,1.,-3.46944695195361E-18));
#700=DIRECTION('',(0.,0.,1.));
#701=DIRECTION('center_axis',(7.66885331547243E-15,-1.,0.));
#702=DIRECTION('ref_axis',(1.,7.66885331547243E-15,-1.9547764721886E-33));
#703=DIRECTION('',(1.,7.66885331547243E-15,-1.9547764721886E-33));
#704=DIRECTION('',(1.,7.66885331547243E-15,-1.9547764721886E-33));
#705=DIRECTION('',(0.,0.,1.));
#706=DIRECTION('center_axis',(-1.,-7.59795352114837E-15,0.));
#707=DIRECTION('ref_axis',(7.59795352114837E-15,-1.,3.46944695195361E-18));
#708=DIRECTION('',(7.59795352114837E-15,-1.,3.46944695195361E-18));
#709=DIRECTION('',(7.59795352114837E-15,-1.,3.46944695195361E-18));
#710=DIRECTION('center_axis',(0.,0.,1.));
#711=DIRECTION('ref_axis',(1.,0.,0.));
#712=DIRECTION('center_axis',(0.,0.,1.));
#713=DIRECTION('ref_axis',(1.,0.,0.));
#714=DIRECTION('center_axis',(0.,-1.,0.));
#715=DIRECTION('ref_axis',(-1.,0.,0.));
#716=DIRECTION('',(1.,0.,2.64127535230249E-32));
#717=DIRECTION('',(0.,0.,-1.));
#718=DIRECTION('',(-1.,0.,-2.64127535230249E-32));
#719=DIRECTION('',(0.,0.,-1.));
#720=DIRECTION('center_axis',(1.,0.,0.));
#721=DIRECTION('ref_axis',(0.,-1.,0.));
#722=DIRECTION('',(0.,1.,-3.46944695195361E-18));
#723=DIRECTION('',(0.,-1.,3.46944695195361E-18));
#724=DIRECTION('',(0.,0.,-1.));
#725=DIRECTION('center_axis',(0.,1.,0.));
#726=DIRECTION('ref_axis',(1.,0.,0.));
#727=DIRECTION('',(-1.,0.,-2.64127535230249E-32));
#728=DIRECTION('',(1.,0.,2.64127535230249E-32));
#729=DIRECTION('',(0.,0.,-1.));
#730=DIRECTION('center_axis',(1.,0.,0.));
#731=DIRECTION('ref_axis',(0.,-1.,0.));
#732=DIRECTION('',(0.,1.,-3.46944695195361E-18));
#733=DIRECTION('',(0.,-1.,3.46944695195361E-18));
#734=DIRECTION('',(0.,0.,-1.));
#735=DIRECTION('center_axis',(0.,1.,0.));
#736=DIRECTION('ref_axis',(1.,0.,0.));
#737=DIRECTION('',(-1.,0.,-2.64127535230249E-32));
#738=DIRECTION('',(1.,0.,2.64127535230249E-32));
#739=DIRECTION('',(0.,0.,-1.));
#740=DIRECTION('center_axis',(-1.,0.,0.));
#741=DIRECTION('ref_axis',(0.,1.,0.));
#742=DIRECTION('',(0.,-1.,3.46944695195361E-18));
#743=DIRECTION('',(0.,1.,-3.46944695195361E-18));
#744=DIRECTION('',(0.,0.,-1.));
#745=DIRECTION('center_axis',(0.,1.,0.));
#746=DIRECTION('ref_axis',(1.,0.,0.));
#747=DIRECTION('',(-1.,0.,-2.64127535230249E-32));
#748=DIRECTION('',(1.,0.,2.64127535230249E-32));
#749=DIRECTION('',(0.,0.,-1.));
#750=DIRECTION('center_axis',(-1.,0.,0.));
#751=DIRECTION('ref_axis',(0.,1.,0.));
#752=DIRECTION('',(0.,-1.,3.46944695195361E-18));
#753=DIRECTION('',(0.,1.,-3.46944695195361E-18));
#754=DIRECTION('',(0.,0.,-1.));
#755=DIRECTION('center_axis',(0.,-1.,0.));
#756=DIRECTION('ref_axis',(-1.,0.,0.));
#757=DIRECTION('',(1.,0.,2.64127535230249E-32));
#758=DIRECTION('',(-1.,0.,-2.64127535230249E-32));
#759=DIRECTION('',(0.,0.,-1.));
#760=DIRECTION('center_axis',(-1.,0.,0.));
#761=DIRECTION('ref_axis',(0.,1.,0.));
#762=DIRECTION('',(0.,-1.,3.46944695195361E-18));
#763=DIRECTION('',(0.,1.,-3.46944695195361E-18));
#764=DIRECTION('',(0.,0.,-1.));
#765=DIRECTION('center_axis',(0.,-1.,0.));
#766=DIRECTION('ref_axis',(-1.,0.,0.));
#767=DIRECTION('',(1.,0.,2.64127535230249E-32));
#768=DIRECTION('',(-1.,0.,-2.64127535230249E-32));
#769=DIRECTION('',(0.,0.,-1.));
#770=DIRECTION('center_axis',(1.,0.,0.));
#771=DIRECTION('ref_axis',(0.,-1.,0.));
#772=DIRECTION('',(0.,1.,-3.46944695195361E-18));
#773=DIRECTION('',(0.,-1.,3.46944695195361E-18));
#774=DIRECTION('center_axis',(1.,0.,0.));
#775=DIRECTION('ref_axis',(0.,-1.,0.));
#776=DIRECTION('',(0.,1.,-3.46944695195361E-18));
#777=DIRECTION('',(0.,0.,-1.));
#778=DIRECTION('',(0.,-1.,3.46944695195361E-18));
#779=DIRECTION('',(0.,0.,-1.));
#780=DIRECTION('center_axis',(0.,1.,0.));
#781=DIRECTION('ref_axis',(1.,0.,0.));
#782=DIRECTION('',(-1.,0.,-2.64127535230249E-32));
#783=DIRECTION('',(1.,0.,2.64127535230249E-32));
#784=DIRECTION('',(0.,0.,-1.));
#785=DIRECTION('center_axis',(-1.,0.,0.));
#786=DIRECTION('ref_axis',(0.,1.,0.));
#787=DIRECTION('',(0.,-1.,3.46944695195361E-18));
#788=DIRECTION('',(0.,1.,-3.46944695195361E-18));
#789=DIRECTION('',(0.,0.,-1.));
#790=DIRECTION('center_axis',(0.,-1.,0.));
#791=DIRECTION('ref_axis',(-1.,0.,0.));
#792=DIRECTION('',(1.,0.,2.64127535230249E-32));
#793=DIRECTION('',(-1.,0.,-2.64127535230249E-32));
#794=DIRECTION('center_axis',(-7.61295788314393E-15,1.,0.));
#795=DIRECTION('ref_axis',(0.,0.,-1.));
#796=DIRECTION('',(0.,0.,1.));
#797=DIRECTION('',(-1.,-7.61295788314393E-15,0.));
#798=DIRECTION('',(0.,0.,-1.));
#799=DIRECTION('',(-1.,-7.61295788314393E-15,0.));
#800=DIRECTION('center_axis',(-2.64127535230249E-32,3.46944695195361E-18,
1.));
#801=DIRECTION('ref_axis',(-7.61394670739163E-15,1.,-3.46944695195361E-18));
#802=DIRECTION('',(7.61394670739163E-15,-1.,3.46944695195361E-18));
#803=DIRECTION('',(-7.61394670739163E-15,1.,-3.46944695195361E-18));
#804=DIRECTION('',(-1.,-7.61295788314393E-15,0.));
#805=DIRECTION('center_axis',(7.61295788314393E-15,-1.,0.));
#806=DIRECTION('ref_axis',(0.,0.,1.));
#807=DIRECTION('',(0.,0.,1.));
#808=DIRECTION('',(0.,0.,1.));
#809=DIRECTION('',(-1.,-7.61295788314393E-15,0.));
#810=DIRECTION('center_axis',(2.64127535230249E-32,-3.46944695195361E-18,
-1.));
#811=DIRECTION('ref_axis',(7.61394670739163E-15,-1.,3.46944695195361E-18));
#812=DIRECTION('',(7.61394670739163E-15,-1.,3.46944695195361E-18));
#813=DIRECTION('',(7.61394670739163E-15,-1.,3.46944695195361E-18));
#814=DIRECTION('center_axis',(-1.,-7.61295788314393E-15,0.));
#815=DIRECTION('ref_axis',(0.,0.,1.));
#816=DIRECTION('center_axis',(-1.,-7.61394670739163E-15,0.));
#817=DIRECTION('ref_axis',(7.61394670739163E-15,-1.,3.46944695195361E-18));
#818=CARTESIAN_POINT('',(0.,0.,0.));
#819=CARTESIAN_POINT('Origin',(198.855360000001,-140.749999999999,19.51));
#820=CARTESIAN_POINT('',(198.855360000001,-140.749999999999,19.51));
#821=CARTESIAN_POINT('',(90.3553600000005,-140.75,19.51));
#822=CARTESIAN_POINT('',(90.3553600000005,-140.75,19.51));
#823=CARTESIAN_POINT('',(90.3553600000005,-140.75,22.01));
#824=CARTESIAN_POINT('',(90.3553600000005,-140.75,19.51));
#825=CARTESIAN_POINT('',(198.855360000001,-140.749999999999,22.01));
#826=CARTESIAN_POINT('',(90.3553600000005,-140.75,22.01));
#827=CARTESIAN_POINT('',(198.855360000001,-140.749999999999,19.51));
#828=CARTESIAN_POINT('Origin',(198.855359999999,13.2300000000007,19.51));
#829=CARTESIAN_POINT('',(198.855359999999,13.2300000000007,19.51));
#830=CARTESIAN_POINT('',(198.855360000001,-140.749999999999,19.51));
#831=CARTESIAN_POINT('',(198.855359999999,13.2300000000007,22.01));
#832=CARTESIAN_POINT('',(198.855360000001,-140.749999999999,22.01));
#833=CARTESIAN_POINT('',(198.855359999999,13.2300000000007,19.51));
#834=CARTESIAN_POINT('Origin',(90.3553599999993,13.2299999999999,19.51));
#835=CARTESIAN_POINT('',(90.3553599999993,13.2299999999999,19.51));
#836=CARTESIAN_POINT('',(198.855359999999,13.2300000000007,19.51));
#837=CARTESIAN_POINT('',(90.3553599999993,13.2299999999999,22.01));
#838=CARTESIAN_POINT('',(198.855359999999,13.2300000000007,22.01));
#839=CARTESIAN_POINT('',(90.3553599999993,13.2299999999999,19.51));
#840=CARTESIAN_POINT('Origin',(90.3553600000005,-140.75,19.51));
#841=CARTESIAN_POINT('',(90.3553599999993,13.2299999999999,19.51));
#842=CARTESIAN_POINT('',(90.3553599999993,13.2299999999999,22.01));
#843=CARTESIAN_POINT('Origin',(201.355359999999,15.7300000000007,19.51));
#844=CARTESIAN_POINT('',(201.355359999999,15.7300000000007,19.51));
#845=CARTESIAN_POINT('',(87.8553599999993,15.7299999999998,19.51));
#846=CARTESIAN_POINT('',(201.355359999999,15.7300000000007,19.51));
#847=CARTESIAN_POINT('',(87.8553599999993,15.7299999999998,22.01));
#848=CARTESIAN_POINT('',(87.8553599999993,15.7299999999998,19.51));
#849=CARTESIAN_POINT('',(201.355359999999,15.7300000000007,22.01));
#850=CARTESIAN_POINT('',(201.355359999999,15.7300000000007,22.01));
#851=CARTESIAN_POINT('',(201.355359999999,15.7300000000007,19.51));
#852=CARTESIAN_POINT('Origin',(201.355360000001,-143.249999999999,19.51));
#853=CARTESIAN_POINT('',(201.355360000001,-143.249999999999,19.51));
#854=CARTESIAN_POINT('',(201.355360000001,-143.249999999999,19.51));
#855=CARTESIAN_POINT('',(201.355360000001,-143.249999999999,22.01));
#856=CARTESIAN_POINT('',(201.355360000001,-143.249999999999,22.01));
#857=CARTESIAN_POINT('',(201.355360000001,-143.249999999999,19.51));
#858=CARTESIAN_POINT('Origin',(87.8553600000005,-143.25,19.51));
#859=CARTESIAN_POINT('',(87.8553600000005,-143.25,19.51));
#860=CARTESIAN_POINT('',(87.8553600000005,-143.25,19.51));
#861=CARTESIAN_POINT('',(87.8553600000005,-143.25,22.01));
#862=CARTESIAN_POINT('',(87.8553600000005,-143.25,22.01));
#863=CARTESIAN_POINT('',(87.8553600000005,-143.25,19.51));
#864=CARTESIAN_POINT('Origin',(87.8553599999993,15.7299999999998,19.51));
#865=CARTESIAN_POINT('',(87.8553599999993,15.7299999999998,19.51));
#866=CARTESIAN_POINT('',(87.8553599999993,15.7299999999998,22.01));
#867=CARTESIAN_POINT('Origin',(144.60536,-63.7599999999997,22.01));
#868=CARTESIAN_POINT('Origin',(144.60536,-63.7599999999997,19.51));
#869=CARTESIAN_POINT('Origin',(160.000002384186,-126.000001877546,22.01));
#870=CARTESIAN_POINT('',(152.000002264977,-126.000001877546,19.51));
#871=CARTESIAN_POINT('',(160.000002384186,-126.000001877546,19.51));
#872=CARTESIAN_POINT('',(179.427681192093,-126.000001877546,19.51));
#873=CARTESIAN_POINT('',(152.000002264977,-126.000001877546,22.01));
#874=CARTESIAN_POINT('',(152.000002264977,-126.000001877546,22.01));
#875=CARTESIAN_POINT('',(160.000002384186,-126.000001877546,22.01));
#876=CARTESIAN_POINT('',(179.427681192093,-126.000001877546,22.01));
#877=CARTESIAN_POINT('',(160.000002384186,-126.000001877546,22.01));
#878=CARTESIAN_POINT('Origin',(160.000002384186,-118.000001758337,22.01));
#879=CARTESIAN_POINT('',(160.000002384186,-118.000001758337,19.51));
#880=CARTESIAN_POINT('',(160.000002384186,-52.3850008791682,19.51));
#881=CARTESIAN_POINT('',(160.000002384186,-118.000001758337,22.01));
#882=CARTESIAN_POINT('',(160.000002384186,-129.375000879168,22.01));
#883=CARTESIAN_POINT('',(160.000002384186,-118.000001758337,22.01));
#884=CARTESIAN_POINT('Origin',(152.000002264977,-118.000001758337,22.01));
#885=CARTESIAN_POINT('',(152.000002264977,-118.000001758337,19.51));
#886=CARTESIAN_POINT('',(175.427681132488,-118.000001758337,19.51));
#887=CARTESIAN_POINT('',(152.000002264977,-118.000001758337,22.01));
#888=CARTESIAN_POINT('',(175.427681132489,-118.000001758337,22.01));
#889=CARTESIAN_POINT('',(152.000002264977,-118.000001758337,22.01));
#890=CARTESIAN_POINT('Origin',(152.000002264977,-113.000001683831,22.01));
#891=CARTESIAN_POINT('',(152.000002264977,-113.000001683831,19.51));
#892=CARTESIAN_POINT('',(152.000002264976,-49.8850008419153,19.51));
#893=CARTESIAN_POINT('',(152.000002264977,-113.000001683831,22.01));
#894=CARTESIAN_POINT('',(152.000002264977,-126.875000841915,22.01));
#895=CARTESIAN_POINT('',(152.000002264977,-113.000001683831,22.01));
#896=CARTESIAN_POINT('Origin',(140.000002086163,-113.000001683831,22.01));
#897=CARTESIAN_POINT('',(140.000002086163,-113.000001683831,19.51));
#898=CARTESIAN_POINT('',(169.427681043081,-113.000001683831,19.51));
#899=CARTESIAN_POINT('',(140.000002086163,-113.000001683831,22.01));
#900=CARTESIAN_POINT('',(169.427681043082,-113.000001683831,22.01));
#901=CARTESIAN_POINT('',(140.000002086163,-113.000001683831,22.01));
#902=CARTESIAN_POINT('Origin',(140.000002086163,-118.000001758337,22.01));
#903=CARTESIAN_POINT('',(140.000002086163,-118.000001758337,19.51));
#904=CARTESIAN_POINT('',(140.000002086163,-52.3850008791682,19.51));
#905=CARTESIAN_POINT('',(140.000002086163,-118.000001758337,22.01));
#906=CARTESIAN_POINT('',(140.000002086163,-129.375000879168,22.01));
#907=CARTESIAN_POINT('',(140.000002086163,-118.000001758337,22.01));
#908=CARTESIAN_POINT('Origin',(132.000001966953,-118.000001758337,22.01));
#909=CARTESIAN_POINT('',(132.000001966953,-118.000001758337,19.51));
#910=CARTESIAN_POINT('',(165.427680983476,-118.000001758337,19.51));
#911=CARTESIAN_POINT('',(132.000001966953,-118.000001758337,22.01));
#912=CARTESIAN_POINT('',(165.427680983477,-118.000001758337,22.01));
#913=CARTESIAN_POINT('',(132.000001966953,-118.000001758337,22.01));
#914=CARTESIAN_POINT('Origin',(132.000001966953,-126.000001877546,22.01));
#915=CARTESIAN_POINT('',(132.000001966953,-126.000001877546,19.51));
#916=CARTESIAN_POINT('',(132.000001966953,-56.3850009387728,19.51));
#917=CARTESIAN_POINT('',(132.000001966953,-126.000001877546,22.01));
#918=CARTESIAN_POINT('',(132.000001966953,-133.375000938773,22.01));
#919=CARTESIAN_POINT('',(132.000001966953,-126.000001877546,22.01));
#920=CARTESIAN_POINT('Origin',(141.000002101064,-126.000001877546,22.01));
#921=CARTESIAN_POINT('',(141.000002101064,-126.000001877546,19.51));
#922=CARTESIAN_POINT('',(169.927681050532,-126.000001877546,19.51));
#923=CARTESIAN_POINT('',(141.000002101064,-126.000001877546,22.01));
#924=CARTESIAN_POINT('',(169.927681050532,-126.000001877546,22.01));
#925=CARTESIAN_POINT('',(141.000002101064,-126.000001877546,22.01));
#926=CARTESIAN_POINT('Origin',(141.000002101064,-130.000001937151,22.01));
#927=CARTESIAN_POINT('',(141.000002101064,-130.000001937151,19.51));
#928=CARTESIAN_POINT('',(141.000002101064,-58.3850009685751,19.51));
#929=CARTESIAN_POINT('',(141.000002101064,-130.000001937151,22.01));
#930=CARTESIAN_POINT('',(141.000002101064,-135.375000968575,22.01));
#931=CARTESIAN_POINT('',(141.000002101064,-130.000001937151,22.01));
#932=CARTESIAN_POINT('Origin',(152.000002264977,-130.000001937151,22.01));
#933=CARTESIAN_POINT('',(152.000002264977,-130.000001937151,19.51));
#934=CARTESIAN_POINT('',(175.427681132488,-130.000001937151,19.51));
#935=CARTESIAN_POINT('',(152.000002264977,-130.000001937151,22.01));
#936=CARTESIAN_POINT('',(175.427681132489,-130.000001937151,22.01));
#937=CARTESIAN_POINT('',(152.000002264977,-130.000001937151,22.01));
#938=CARTESIAN_POINT('Origin',(152.000002264977,-126.000001877546,22.01));
#939=CARTESIAN_POINT('',(152.000002264976,-56.3850009387728,19.51));
#940=CARTESIAN_POINT('',(152.000002264977,-133.375000938773,22.01));
#941=CARTESIAN_POINT('Origin',(184.856039543548,1.84015337890411,22.01));
#942=CARTESIAN_POINT('',(184.856039543548,-102.460713534742,19.51));
#943=CARTESIAN_POINT('',(184.856039543548,1.84015337890411,19.51));
#944=CARTESIAN_POINT('',(184.856039543548,7.5350766894524,19.51));
#945=CARTESIAN_POINT('',(184.856039543548,-102.460713534742,22.01));
#946=CARTESIAN_POINT('',(184.856039543548,-102.460713534742,22.01));
#947=CARTESIAN_POINT('',(184.856039543548,1.84015337890411,22.01));
#948=CARTESIAN_POINT('',(184.856039543548,-69.4549233105476,22.01));
#949=CARTESIAN_POINT('',(184.856039543548,1.84015337890411,22.01));
#950=CARTESIAN_POINT('Origin',(105.474840254742,1.84015337890411,22.01));
#951=CARTESIAN_POINT('',(105.474840254742,1.84015337890411,19.51));
#952=CARTESIAN_POINT('',(152.165100127371,1.84015337890411,19.51));
#953=CARTESIAN_POINT('',(105.474840254742,1.84015337890411,22.01));
#954=CARTESIAN_POINT('',(152.165100127371,1.84015337890411,22.01));
#955=CARTESIAN_POINT('',(105.474840254742,1.84015337890411,22.01));
#956=CARTESIAN_POINT('Origin',(105.474840254742,-102.460713534742,22.01));
#957=CARTESIAN_POINT('',(105.474840254742,-102.460713534742,19.51));
#958=CARTESIAN_POINT('',(105.474840254742,-44.6153567673708,19.51));
#959=CARTESIAN_POINT('',(105.474840254742,-102.460713534742,22.01));
#960=CARTESIAN_POINT('',(105.474840254742,-121.605356767371,22.01));
#961=CARTESIAN_POINT('',(105.474840254742,-102.460713534742,22.01));
#962=CARTESIAN_POINT('Origin',(184.856039543548,-102.460713534742,22.01));
#963=CARTESIAN_POINT('',(191.855699771774,-102.460713534742,19.51));
#964=CARTESIAN_POINT('',(191.855699771774,-102.460713534742,22.01));
#965=CARTESIAN_POINT('Origin',(198.855359999999,13.2300000000007,22.01));
#966=CARTESIAN_POINT('',(198.855359999999,13.2300000000007,19.51));
#967=CARTESIAN_POINT('',(198.855359999999,13.2300000000007,22.01));
#968=CARTESIAN_POINT('',(198.855359999999,13.2300000000007,19.51));
#969=CARTESIAN_POINT('',(90.3553599999993,13.2299999999999,19.51));
#970=CARTESIAN_POINT('',(198.855359999999,13.2300000000007,19.51));
#971=CARTESIAN_POINT('',(90.3553599999993,13.2299999999999,22.01));
#972=CARTESIAN_POINT('',(90.3553599999993,13.2299999999999,19.51));
#973=CARTESIAN_POINT('',(198.855359999999,13.2300000000007,22.01));
#974=CARTESIAN_POINT('Origin',(198.855360000001,-140.749999999999,22.01));
#975=CARTESIAN_POINT('',(198.855360000001,-140.749999999999,22.01));
#976=CARTESIAN_POINT('',(198.855360000001,-140.749999999999,22.01));
#977=CARTESIAN_POINT('',(90.3553600000005,-140.75,22.01));
#978=CARTESIAN_POINT('',(90.3553600000005,-140.75,22.01));
#979=CARTESIAN_POINT('',(198.855360000001,-140.749999999999,22.01));
#980=CARTESIAN_POINT('Origin',(198.855360000001,-140.749999999999,19.51));
#981=CARTESIAN_POINT('',(198.855360000001,-140.749999999999,19.51));
#982=CARTESIAN_POINT('',(198.855360000001,-140.749999999999,19.51));
#983=CARTESIAN_POINT('',(90.3553600000005,-140.75,19.51));
#984=CARTESIAN_POINT('',(90.3553600000005,-140.75,19.51));
#985=CARTESIAN_POINT('',(198.855360000001,-140.749999999999,19.51));
#986=CARTESIAN_POINT('Origin',(198.855359999999,13.2300000000007,19.51));
#987=CARTESIAN_POINT('',(198.855360000001,-140.749999999999,19.51));
#988=CARTESIAN_POINT('',(90.3553600000005,-140.75,19.51));
#989=CARTESIAN_POINT('Origin',(90.3553599999993,13.2299999999999,19.51));
#990=CARTESIAN_POINT('Origin',(198.855359999999,13.2300000000007,19.51));
#991=UNCERTAINTY_MEASURE_WITH_UNIT(LENGTH_MEASURE(0.01),#995,
'DISTANCE_ACCURACY_VALUE',
'Maximum model space distance between geometric entities at asserted c
onnectivities');
#992=UNCERTAINTY_MEASURE_WITH_UNIT(LENGTH_MEASURE(0.01),#995,
'DISTANCE_ACCURACY_VALUE',
'Maximum model space distance between geometric entities at asserted c
onnectivities');
#993=(
GEOMETRIC_REPRESENTATION_CONTEXT(3)
GLOBAL_UNCERTAINTY_ASSIGNED_CONTEXT((#991))
GLOBAL_UNIT_ASSIGNED_CONTEXT((#995,#996,#997))
REPRESENTATION_CONTEXT('','3D')
);
#994=(
GEOMETRIC_REPRESENTATION_CONTEXT(3)
GLOBAL_UNCERTAINTY_ASSIGNED_CONTEXT((#992))
GLOBAL_UNIT_ASSIGNED_CONTEXT((#995,#996,#997))
REPRESENTATION_CONTEXT('','3D')
);
#995=(
LENGTH_UNIT()
NAMED_UNIT(*)
SI_UNIT(.MILLI.,.METRE.)
);
#996=(
NAMED_UNIT(*)
PLANE_ANGLE_UNIT()
SI_UNIT($,.RADIAN.)
);
#997=(
NAMED_UNIT(*)
SI_UNIT($,.STERADIAN.)
SOLID_ANGLE_UNIT()
);
#998=SHAPE_DEFINITION_REPRESENTATION(#999,#1000);
#999=PRODUCT_DEFINITION_SHAPE('',$,#1002);
#1000=SHAPE_REPRESENTATION('',(#635),#993);
#1001=PRODUCT_DEFINITION_CONTEXT('part definition',#1006,'design');
#1002=PRODUCT_DEFINITION('Libre 1','Libre_PCB (1)',#1003,#1001);
#1003=PRODUCT_DEFINITION_FORMATION('',$,#1008);
#1004=PRODUCT_RELATED_PRODUCT_CATEGORY('Libre_PCB (1)','Libre_PCB (1)',
(#1008));
#1005=APPLICATION_PROTOCOL_DEFINITION('international standard',
'automotive_design',2009,#1006);
#1006=APPLICATION_CONTEXT(
'Core Data for Automotive Mechanical Design Process');
#1007=PRODUCT_CONTEXT('part definition',#1006,'mechanical');
#1008=PRODUCT('Libre 1','Libre_PCB (1)','KiCad electronic assembly',(#1007));
#1009=PRESENTATION_STYLE_ASSIGNMENT((#1010));
#1010=SURFACE_STYLE_USAGE(.BOTH.,#1011);
#1011=SURFACE_SIDE_STYLE('',(#1012));
#1012=SURFACE_STYLE_FILL_AREA(#1013);
#1013=FILL_AREA_STYLE('Steel - Satin',(#1014));
#1014=FILL_AREA_STYLE_COLOUR('Steel - Satin',#1015);
#1015=COLOUR_RGB('Steel - Satin',0.627450980392157,0.627450980392157,0.627450980392157);
ENDSEC;
END-ISO-10303-21;
