ISO-10303-21;
HEADER;
/* Generated by software containing ST-Developer
 * from STEP Tools, Inc. (www.steptools.com) 
 */

FILE_DESCRIPTION(
/* description */ ('KiCad electronic assembly'),
/* implementation_level */ '2;1');

FILE_NAME(
/* name */ 'Libre_PCB_Base.step',
/* time_stamp */ '2026-09-18T10:45:51+05:30',
/* author */ (''),
/* organization */ (''),
/* preprocessor_version */ 'ST-DEVELOPER v20.2',
/* originating_system */ 'Autodesk Translation Framework v15.15.0.0',
/* authorisation */ '');

FILE_SCHEMA (('AUTOMOTIVE_DESIGN { 1 0 10303 214 3 1 1 }','PROCESS_PLANNING_SCHEMA'));
ENDSEC;

DATA;
#10=MECHANICAL_DESIGN_GEOMETRIC_PRESENTATION_REPRESENTATION('',(#34,#35,
#36,#37,#38),#918);
#11=SHAPE_REPRESENTATION_RELATIONSHIP('SRR','None',#924,#12);
#12=ADVANCED_BREP_SHAPE_REPRESENTATION('',(#39,#40,#41,#42,#43),#917);
#13=CIRCLE('',#584,1.25);
#14=CIRCLE('',#585,1.25);
#15=CIRCLE('',#587,1.99999999999999);
#16=CIRCLE('',#588,1.99999999999999);
#17=CIRCLE('',#592,1.25);
#18=CIRCLE('',#593,1.25);
#19=CIRCLE('',#595,1.99999999999999);
#20=CIRCLE('',#596,1.99999999999999);
#21=CIRCLE('',#600,1.25);
#22=CIRCLE('',#601,1.25);
#23=CIRCLE('',#603,2.00000000000001);
#24=CIRCLE('',#604,2.00000000000001);
#25=CIRCLE('',#608,1.99999999999999);
#26=CIRCLE('',#609,1.99999999999999);
#27=CYLINDRICAL_SURFACE('',#583,1.25);
#28=CYLINDRICAL_SURFACE('',#586,1.99999999999999);
#29=CYLINDRICAL_SURFACE('',#591,1.25);
#30=CYLINDRICAL_SURFACE('',#594,1.99999999999999);
#31=CYLINDRICAL_SURFACE('',#599,1.25);
#32=CYLINDRICAL_SURFACE('',#602,2.00000000000001);
#33=CYLINDRICAL_SURFACE('',#607,1.99999999999999);
#34=STYLED_ITEM('',(#933),#39);
#35=STYLED_ITEM('',(#933),#40);
#36=STYLED_ITEM('',(#933),#41);
#37=STYLED_ITEM('',(#933),#42);
#38=STYLED_ITEM('',(#933),#43);
#39=MANIFOLD_SOLID_BREP('Body1',#558);
#40=MANIFOLD_SOLID_BREP('Body5',#559);
#41=MANIFOLD_SOLID_BREP('Body6',#560);
#42=MANIFOLD_SOLID_BREP('Body7',#561);
#43=MANIFOLD_SOLID_BREP('Body8',#562);
#44=FACE_BOUND('',#98,.T.);
#45=FACE_BOUND('',#104,.T.);
#46=FACE_BOUND('',#106,.T.);
#47=FACE_BOUND('',#109,.T.);
#48=FACE_BOUND('',#111,.T.);
#49=FACE_BOUND('',#116,.T.);
#50=FACE_BOUND('',#118,.T.);
#51=FACE_BOUND('',#122,.T.);
#52=FACE_BOUND('',#124,.T.);
#53=FACE_BOUND('',#128,.T.);
#54=FACE_BOUND('',#130,.T.);
#55=FACE_OUTER_BOUND('',#89,.T.);
#56=FACE_OUTER_BOUND('',#90,.T.);
#57=FACE_OUTER_BOUND('',#91,.T.);
#58=FACE_OUTER_BOUND('',#92,.T.);
#59=FACE_OUTER_BOUND('',#93,.T.);
#60=FACE_OUTER_BOUND('',#94,.T.);
#61=FACE_OUTER_BOUND('',#95,.T.);
#62=FACE_OUTER_BOUND('',#96,.T.);
#63=FACE_OUTER_BOUND('',#97,.T.);
#64=FACE_OUTER_BOUND('',#99,.T.);
#65=FACE_OUTER_BOUND('',#100,.T.);
#66=FACE_OUTER_BOUND('',#101,.T.);
#67=FACE_OUTER_BOUND('',#102,.T.);
#68=FACE_OUTER_BOUND('',#103,.T.);
#69=FACE_OUTER_BOUND('',#105,.T.);
#70=FACE_OUTER_BOUND('',#107,.T.);
#71=FACE_OUTER_BOUND('',#108,.T.);
#72=FACE_OUTER_BOUND('',#110,.T.);
#73=FACE_OUTER_BOUND('',#112,.T.);
#74=FACE_OUTER_BOUND('',#113,.T.);
#75=FACE_OUTER_BOUND('',#114,.T.);
#76=FACE_OUTER_BOUND('',#115,.T.);
#77=FACE_OUTER_BOUND('',#117,.T.);
#78=FACE_OUTER_BOUND('',#119,.T.);
#79=FACE_OUTER_BOUND('',#120,.T.);
#80=FACE_OUTER_BOUND('',#121,.T.);
#81=FACE_OUTER_BOUND('',#123,.T.);
#82=FACE_OUTER_BOUND('',#125,.T.);
#83=FACE_OUTER_BOUND('',#126,.T.);
#84=FACE_OUTER_BOUND('',#127,.T.);
#85=FACE_OUTER_BOUND('',#129,.T.);
#86=FACE_OUTER_BOUND('',#131,.T.);
#87=FACE_OUTER_BOUND('',#132,.T.);
#88=FACE_OUTER_BOUND('',#133,.T.);
#89=EDGE_LOOP('',(#359,#360,#361,#362));
#90=EDGE_LOOP('',(#363,#364,#365,#366));
#91=EDGE_LOOP('',(#367,#368,#369,#370));
#92=EDGE_LOOP('',(#371,#372,#373,#374));
#93=EDGE_LOOP('',(#375,#376,#377,#378));
#94=EDGE_LOOP('',(#379,#380,#381,#382));
#95=EDGE_LOOP('',(#383,#384,#385,#386));
#96=EDGE_LOOP('',(#387,#388,#389,#390));
#97=EDGE_LOOP('',(#391,#392,#393,#394));
#98=EDGE_LOOP('',(#395,#396,#397,#398));
#99=EDGE_LOOP('',(#399,#400,#401,#402));
#100=EDGE_LOOP('',(#403,#404,#405,#406));
#101=EDGE_LOOP('',(#407,#408,#409,#410));
#102=EDGE_LOOP('',(#411,#412,#413,#414));
#103=EDGE_LOOP('',(#415,#416,#417,#418));
#104=EDGE_LOOP('',(#419,#420,#421,#422));
#105=EDGE_LOOP('',(#423,#424,#425,#426));
#106=EDGE_LOOP('',(#427,#428,#429,#430));
#107=EDGE_LOOP('',(#431,#432,#433,#434));
#108=EDGE_LOOP('',(#435,#436,#437,#438));
#109=EDGE_LOOP('',(#439,#440,#441,#442));
#110=EDGE_LOOP('',(#443,#444,#445,#446));
#111=EDGE_LOOP('',(#447,#448,#449,#450));
#112=EDGE_LOOP('',(#451,#452,#453,#454));
#113=EDGE_LOOP('',(#455,#456,#457,#458));
#114=EDGE_LOOP('',(#459,#460,#461,#462));
#115=EDGE_LOOP('',(#463));
#116=EDGE_LOOP('',(#464));
#117=EDGE_LOOP('',(#465));
#118=EDGE_LOOP('',(#466));
#119=EDGE_LOOP('',(#467,#468,#469,#470));
#120=EDGE_LOOP('',(#471,#472,#473,#474));
#121=EDGE_LOOP('',(#475));
#122=EDGE_LOOP('',(#476));
#123=EDGE_LOOP('',(#477));
#124=EDGE_LOOP('',(#478));
#125=EDGE_LOOP('',(#479,#480,#481,#482));
#126=EDGE_LOOP('',(#483,#484,#485,#486));
#127=EDGE_LOOP('',(#487));
#128=EDGE_LOOP('',(#488));
#129=EDGE_LOOP('',(#489));
#130=EDGE_LOOP('',(#490));
#131=EDGE_LOOP('',(#491,#492,#493,#494));
#132=EDGE_LOOP('',(#495));
#133=EDGE_LOOP('',(#496));
#134=LINE('',#769,#189);
#135=LINE('',#771,#190);
#136=LINE('',#773,#191);
#137=LINE('',#774,#192);
#138=LINE('',#777,#193);
#139=LINE('',#779,#194);
#140=LINE('',#780,#195);
#141=LINE('',#783,#196);
#142=LINE('',#785,#197);
#143=LINE('',#786,#198);
#144=LINE('',#788,#199);
#145=LINE('',#789,#200);
#146=LINE('',#793,#201);
#147=LINE('',#795,#202);
#148=LINE('',#797,#203);
#149=LINE('',#798,#204);
#150=LINE('',#801,#205);
#151=LINE('',#803,#206);
#152=LINE('',#804,#207);
#153=LINE('',#807,#208);
#154=LINE('',#809,#209);
#155=LINE('',#810,#210);
#156=LINE('',#812,#211);
#157=LINE('',#813,#212);
#158=LINE('',#817,#213);
#159=LINE('',#819,#214);
#160=LINE('',#821,#215);
#161=LINE('',#822,#216);
#162=LINE('',#825,#217);
#163=LINE('',#827,#218);
#164=LINE('',#829,#219);
#165=LINE('',#830,#220);
#166=LINE('',#834,#221);
#167=LINE('',#836,#222);
#168=LINE('',#838,#223);
#169=LINE('',#839,#224);
#170=LINE('',#841,#225);
#171=LINE('',#842,#226);
#172=LINE('',#844,#227);
#173=LINE('',#848,#228);
#174=LINE('',#850,#229);
#175=LINE('',#852,#230);
#176=LINE('',#853,#231);
#177=LINE('',#855,#232);
#178=LINE('',#858,#233);
#179=LINE('',#859,#234);
#180=LINE('',#861,#235);
#181=LINE('',#863,#236);
#182=LINE('',#869,#237);
#183=LINE('',#875,#238);
#184=LINE('',#883,#239);
#185=LINE('',#889,#240);
#186=LINE('',#897,#241);
#187=LINE('',#903,#242);
#188=LINE('',#911,#243);
#189=VECTOR('',#616,10.);
#190=VECTOR('',#617,10.);
#191=VECTOR('',#618,10.);
#192=VECTOR('',#619,10.);
#193=VECTOR('',#622,10.);
#194=VECTOR('',#623,10.);
#195=VECTOR('',#624,10.);
#196=VECTOR('',#627,10.);
#197=VECTOR('',#628,10.);
#198=VECTOR('',#629,10.);
#199=VECTOR('',#632,10.);
#200=VECTOR('',#633,10.);
#201=VECTOR('',#636,10.);
#202=VECTOR('',#637,10.);
#203=VECTOR('',#638,10.);
#204=VECTOR('',#639,10.);
#205=VECTOR('',#642,10.);
#206=VECTOR('',#643,10.);
#207=VECTOR('',#644,10.);
#208=VECTOR('',#647,10.);
#209=VECTOR('',#648,10.);
#210=VECTOR('',#649,10.);
#211=VECTOR('',#652,10.);
#212=VECTOR('',#653,10.);
#213=VECTOR('',#656,10.);
#214=VECTOR('',#657,10.);
#215=VECTOR('',#658,10.);
#216=VECTOR('',#659,10.);
#217=VECTOR('',#660,10.);
#218=VECTOR('',#661,10.);
#219=VECTOR('',#662,10.);
#220=VECTOR('',#663,10.);
#221=VECTOR('',#666,10.);
#222=VECTOR('',#667,10.);
#223=VECTOR('',#668,10.);
#224=VECTOR('',#669,10.);
#225=VECTOR('',#672,10.);
#226=VECTOR('',#673,10.);
#227=VECTOR('',#676,10.);
#228=VECTOR('',#679,10.);
#229=VECTOR('',#680,10.);
#230=VECTOR('',#681,10.);
#231=VECTOR('',#682,10.);
#232=VECTOR('',#685,10.);
#233=VECTOR('',#690,10.);
#234=VECTOR('',#691,10.);
#235=VECTOR('',#694,10.);
#236=VECTOR('',#697,10.);
#237=VECTOR('',#704,1.25);
#238=VECTOR('',#711,1.99999999999999);
#239=VECTOR('',#722,1.25);
#240=VECTOR('',#729,1.99999999999999);
#241=VECTOR('',#740,1.25);
#242=VECTOR('',#747,2.00000000000001);
#243=VECTOR('',#758,1.99999999999999);
#244=VERTEX_POINT('',#767);
#245=VERTEX_POINT('',#768);
#246=VERTEX_POINT('',#770);
#247=VERTEX_POINT('',#772);
#248=VERTEX_POINT('',#776);
#249=VERTEX_POINT('',#778);
#250=VERTEX_POINT('',#782);
#251=VERTEX_POINT('',#784);
#252=VERTEX_POINT('',#791);
#253=VERTEX_POINT('',#792);
#254=VERTEX_POINT('',#794);
#255=VERTEX_POINT('',#796);
#256=VERTEX_POINT('',#800);
#257=VERTEX_POINT('',#802);
#258=VERTEX_POINT('',#806);
#259=VERTEX_POINT('',#808);
#260=VERTEX_POINT('',#815);
#261=VERTEX_POINT('',#816);
#262=VERTEX_POINT('',#818);
#263=VERTEX_POINT('',#820);
#264=VERTEX_POINT('',#823);
#265=VERTEX_POINT('',#824);
#266=VERTEX_POINT('',#826);
#267=VERTEX_POINT('',#828);
#268=VERTEX_POINT('',#832);
#269=VERTEX_POINT('',#833);
#270=VERTEX_POINT('',#835);
#271=VERTEX_POINT('',#837);
#272=VERTEX_POINT('',#846);
#273=VERTEX_POINT('',#847);
#274=VERTEX_POINT('',#849);
#275=VERTEX_POINT('',#851);
#276=VERTEX_POINT('',#866);
#277=VERTEX_POINT('',#868);
#278=VERTEX_POINT('',#872);
#279=VERTEX_POINT('',#874);
#280=VERTEX_POINT('',#880);
#281=VERTEX_POINT('',#882);
#282=VERTEX_POINT('',#886);
#283=VERTEX_POINT('',#888);
#284=VERTEX_POINT('',#894);
#285=VERTEX_POINT('',#896);
#286=VERTEX_POINT('',#900);
#287=VERTEX_POINT('',#902);
#288=VERTEX_POINT('',#908);
#289=VERTEX_POINT('',#910);
#290=EDGE_CURVE('',#244,#245,#134,.T.);
#291=EDGE_CURVE('',#246,#244,#135,.T.);
#292=EDGE_CURVE('',#247,#246,#136,.T.);
#293=EDGE_CURVE('',#247,#245,#137,.T.);
#294=EDGE_CURVE('',#245,#248,#138,.T.);
#295=EDGE_CURVE('',#249,#247,#139,.T.);
#296=EDGE_CURVE('',#249,#248,#140,.T.);
#297=EDGE_CURVE('',#248,#250,#141,.T.);
#298=EDGE_CURVE('',#251,#249,#142,.T.);
#299=EDGE_CURVE('',#251,#250,#143,.T.);
#300=EDGE_CURVE('',#250,#244,#144,.T.);
#301=EDGE_CURVE('',#246,#251,#145,.T.);
#302=EDGE_CURVE('',#252,#253,#146,.T.);
#303=EDGE_CURVE('',#254,#252,#147,.T.);
#304=EDGE_CURVE('',#255,#254,#148,.T.);
#305=EDGE_CURVE('',#255,#253,#149,.T.);
#306=EDGE_CURVE('',#253,#256,#150,.T.);
#307=EDGE_CURVE('',#257,#255,#151,.T.);
#308=EDGE_CURVE('',#257,#256,#152,.T.);
#309=EDGE_CURVE('',#256,#258,#153,.T.);
#310=EDGE_CURVE('',#259,#257,#154,.T.);
#311=EDGE_CURVE('',#259,#258,#155,.T.);
#312=EDGE_CURVE('',#258,#252,#156,.T.);
#313=EDGE_CURVE('',#254,#259,#157,.T.);
#314=EDGE_CURVE('',#260,#261,#158,.T.);
#315=EDGE_CURVE('',#261,#262,#159,.T.);
#316=EDGE_CURVE('',#262,#263,#160,.T.);
#317=EDGE_CURVE('',#263,#260,#161,.T.);
#318=EDGE_CURVE('',#264,#265,#162,.T.);
#319=EDGE_CURVE('',#265,#266,#163,.T.);
#320=EDGE_CURVE('',#266,#267,#164,.T.);
#321=EDGE_CURVE('',#267,#264,#165,.T.);
#322=EDGE_CURVE('',#268,#269,#166,.T.);
#323=EDGE_CURVE('',#270,#268,#167,.T.);
#324=EDGE_CURVE('',#271,#270,#168,.T.);
#325=EDGE_CURVE('',#269,#271,#169,.T.);
#326=EDGE_CURVE('',#264,#268,#170,.T.);
#327=EDGE_CURVE('',#270,#267,#171,.T.);
#328=EDGE_CURVE('',#269,#265,#172,.T.);
#329=EDGE_CURVE('',#272,#273,#173,.T.);
#330=EDGE_CURVE('',#273,#274,#174,.T.);
#331=EDGE_CURVE('',#274,#275,#175,.T.);
#332=EDGE_CURVE('',#275,#272,#176,.T.);
#333=EDGE_CURVE('',#271,#266,#177,.T.);
#334=EDGE_CURVE('',#272,#261,#178,.T.);
#335=EDGE_CURVE('',#275,#262,#179,.T.);
#336=EDGE_CURVE('',#274,#263,#180,.T.);
#337=EDGE_CURVE('',#260,#273,#181,.T.);
#338=EDGE_CURVE('',#276,#276,#13,.T.);
#339=EDGE_CURVE('',#276,#277,#182,.T.);
#340=EDGE_CURVE('',#277,#277,#14,.T.);
#341=EDGE_CURVE('',#278,#278,#15,.T.);
#342=EDGE_CURVE('',#278,#279,#183,.T.);
#343=EDGE_CURVE('',#279,#279,#16,.T.);
#344=EDGE_CURVE('',#280,#280,#17,.T.);
#345=EDGE_CURVE('',#280,#281,#184,.T.);
#346=EDGE_CURVE('',#281,#281,#18,.T.);
#347=EDGE_CURVE('',#282,#282,#19,.T.);
#348=EDGE_CURVE('',#282,#283,#185,.T.);
#349=EDGE_CURVE('',#283,#283,#20,.T.);
#350=EDGE_CURVE('',#284,#284,#21,.T.);
#351=EDGE_CURVE('',#284,#285,#186,.T.);
#352=EDGE_CURVE('',#285,#285,#22,.T.);
#353=EDGE_CURVE('',#286,#286,#23,.T.);
#354=EDGE_CURVE('',#286,#287,#187,.T.);
#355=EDGE_CURVE('',#287,#287,#24,.T.);
#356=EDGE_CURVE('',#288,#288,#25,.T.);
#357=EDGE_CURVE('',#288,#289,#188,.T.);
#358=EDGE_CURVE('',#289,#289,#26,.T.);
#359=ORIENTED_EDGE('',*,*,#290,.F.);
#360=ORIENTED_EDGE('',*,*,#291,.F.);
#361=ORIENTED_EDGE('',*,*,#292,.F.);
#362=ORIENTED_EDGE('',*,*,#293,.T.);
#363=ORIENTED_EDGE('',*,*,#294,.F.);
#364=ORIENTED_EDGE('',*,*,#293,.F.);
#365=ORIENTED_EDGE('',*,*,#295,.F.);
#366=ORIENTED_EDGE('',*,*,#296,.T.);
#367=ORIENTED_EDGE('',*,*,#297,.F.);
#368=ORIENTED_EDGE('',*,*,#296,.F.);
#369=ORIENTED_EDGE('',*,*,#298,.F.);
#370=ORIENTED_EDGE('',*,*,#299,.T.);
#371=ORIENTED_EDGE('',*,*,#300,.F.);
#372=ORIENTED_EDGE('',*,*,#299,.F.);
#373=ORIENTED_EDGE('',*,*,#301,.F.);
#374=ORIENTED_EDGE('',*,*,#291,.T.);
#375=ORIENTED_EDGE('',*,*,#302,.F.);
#376=ORIENTED_EDGE('',*,*,#303,.F.);
#377=ORIENTED_EDGE('',*,*,#304,.F.);
#378=ORIENTED_EDGE('',*,*,#305,.T.);
#379=ORIENTED_EDGE('',*,*,#306,.F.);
#380=ORIENTED_EDGE('',*,*,#305,.F.);
#381=ORIENTED_EDGE('',*,*,#307,.F.);
#382=ORIENTED_EDGE('',*,*,#308,.T.);
#383=ORIENTED_EDGE('',*,*,#309,.F.);
#384=ORIENTED_EDGE('',*,*,#308,.F.);
#385=ORIENTED_EDGE('',*,*,#310,.F.);
#386=ORIENTED_EDGE('',*,*,#311,.T.);
#387=ORIENTED_EDGE('',*,*,#312,.F.);
#388=ORIENTED_EDGE('',*,*,#311,.F.);
#389=ORIENTED_EDGE('',*,*,#313,.F.);
#390=ORIENTED_EDGE('',*,*,#303,.T.);
#391=ORIENTED_EDGE('',*,*,#314,.T.);
#392=ORIENTED_EDGE('',*,*,#315,.T.);
#393=ORIENTED_EDGE('',*,*,#316,.T.);
#394=ORIENTED_EDGE('',*,*,#317,.T.);
#395=ORIENTED_EDGE('',*,*,#318,.T.);
#396=ORIENTED_EDGE('',*,*,#319,.T.);
#397=ORIENTED_EDGE('',*,*,#320,.T.);
#398=ORIENTED_EDGE('',*,*,#321,.T.);
#399=ORIENTED_EDGE('',*,*,#322,.F.);
#400=ORIENTED_EDGE('',*,*,#323,.F.);
#401=ORIENTED_EDGE('',*,*,#324,.F.);
#402=ORIENTED_EDGE('',*,*,#325,.F.);
#403=ORIENTED_EDGE('',*,*,#323,.T.);
#404=ORIENTED_EDGE('',*,*,#326,.F.);
#405=ORIENTED_EDGE('',*,*,#321,.F.);
#406=ORIENTED_EDGE('',*,*,#327,.F.);
#407=ORIENTED_EDGE('',*,*,#322,.T.);
#408=ORIENTED_EDGE('',*,*,#328,.T.);
#409=ORIENTED_EDGE('',*,*,#318,.F.);
#410=ORIENTED_EDGE('',*,*,#326,.T.);
#411=ORIENTED_EDGE('',*,*,#329,.T.);
#412=ORIENTED_EDGE('',*,*,#330,.T.);
#413=ORIENTED_EDGE('',*,*,#331,.T.);
#414=ORIENTED_EDGE('',*,*,#332,.T.);
#415=ORIENTED_EDGE('',*,*,#325,.T.);
#416=ORIENTED_EDGE('',*,*,#333,.T.);
#417=ORIENTED_EDGE('',*,*,#319,.F.);
#418=ORIENTED_EDGE('',*,*,#328,.F.);
#419=ORIENTED_EDGE('',*,*,#297,.T.);
#420=ORIENTED_EDGE('',*,*,#300,.T.);
#421=ORIENTED_EDGE('',*,*,#290,.T.);
#422=ORIENTED_EDGE('',*,*,#294,.T.);
#423=ORIENTED_EDGE('',*,*,#324,.T.);
#424=ORIENTED_EDGE('',*,*,#327,.T.);
#425=ORIENTED_EDGE('',*,*,#320,.F.);
#426=ORIENTED_EDGE('',*,*,#333,.F.);
#427=ORIENTED_EDGE('',*,*,#309,.T.);
#428=ORIENTED_EDGE('',*,*,#312,.T.);
#429=ORIENTED_EDGE('',*,*,#302,.T.);
#430=ORIENTED_EDGE('',*,*,#306,.T.);
#431=ORIENTED_EDGE('',*,*,#334,.F.);
#432=ORIENTED_EDGE('',*,*,#332,.F.);
#433=ORIENTED_EDGE('',*,*,#335,.T.);
#434=ORIENTED_EDGE('',*,*,#315,.F.);
#435=ORIENTED_EDGE('',*,*,#335,.F.);
#436=ORIENTED_EDGE('',*,*,#331,.F.);
#437=ORIENTED_EDGE('',*,*,#336,.T.);
#438=ORIENTED_EDGE('',*,*,#316,.F.);
#439=ORIENTED_EDGE('',*,*,#310,.T.);
#440=ORIENTED_EDGE('',*,*,#307,.T.);
#441=ORIENTED_EDGE('',*,*,#304,.T.);
#442=ORIENTED_EDGE('',*,*,#313,.T.);
#443=ORIENTED_EDGE('',*,*,#336,.F.);
#444=ORIENTED_EDGE('',*,*,#330,.F.);
#445=ORIENTED_EDGE('',*,*,#337,.F.);
#446=ORIENTED_EDGE('',*,*,#317,.F.);
#447=ORIENTED_EDGE('',*,*,#298,.T.);
#448=ORIENTED_EDGE('',*,*,#295,.T.);
#449=ORIENTED_EDGE('',*,*,#292,.T.);
#450=ORIENTED_EDGE('',*,*,#301,.T.);
#451=ORIENTED_EDGE('',*,*,#337,.T.);
#452=ORIENTED_EDGE('',*,*,#329,.F.);
#453=ORIENTED_EDGE('',*,*,#334,.T.);
#454=ORIENTED_EDGE('',*,*,#314,.F.);
#455=ORIENTED_EDGE('',*,*,#338,.F.);
#456=ORIENTED_EDGE('',*,*,#339,.T.);
#457=ORIENTED_EDGE('',*,*,#340,.F.);
#458=ORIENTED_EDGE('',*,*,#339,.F.);
#459=ORIENTED_EDGE('',*,*,#341,.F.);
#460=ORIENTED_EDGE('',*,*,#342,.T.);
#461=ORIENTED_EDGE('',*,*,#343,.F.);
#462=ORIENTED_EDGE('',*,*,#342,.F.);
#463=ORIENTED_EDGE('',*,*,#343,.T.);
#464=ORIENTED_EDGE('',*,*,#340,.T.);
#465=ORIENTED_EDGE('',*,*,#341,.T.);
#466=ORIENTED_EDGE('',*,*,#338,.T.);
#467=ORIENTED_EDGE('',*,*,#344,.F.);
#468=ORIENTED_EDGE('',*,*,#345,.T.);
#469=ORIENTED_EDGE('',*,*,#346,.F.);
#470=ORIENTED_EDGE('',*,*,#345,.F.);
#471=ORIENTED_EDGE('',*,*,#347,.F.);
#472=ORIENTED_EDGE('',*,*,#348,.T.);
#473=ORIENTED_EDGE('',*,*,#349,.F.);
#474=ORIENTED_EDGE('',*,*,#348,.F.);
#475=ORIENTED_EDGE('',*,*,#349,.T.);
#476=ORIENTED_EDGE('',*,*,#346,.T.);
#477=ORIENTED_EDGE('',*,*,#347,.T.);
#478=ORIENTED_EDGE('',*,*,#344,.T.);
#479=ORIENTED_EDGE('',*,*,#350,.F.);
#480=ORIENTED_EDGE('',*,*,#351,.T.);
#481=ORIENTED_EDGE('',*,*,#352,.F.);
#482=ORIENTED_EDGE('',*,*,#351,.F.);
#483=ORIENTED_EDGE('',*,*,#353,.F.);
#484=ORIENTED_EDGE('',*,*,#354,.T.);
#485=ORIENTED_EDGE('',*,*,#355,.F.);
#486=ORIENTED_EDGE('',*,*,#354,.F.);
#487=ORIENTED_EDGE('',*,*,#355,.T.);
#488=ORIENTED_EDGE('',*,*,#352,.T.);
#489=ORIENTED_EDGE('',*,*,#353,.T.);
#490=ORIENTED_EDGE('',*,*,#350,.T.);
#491=ORIENTED_EDGE('',*,*,#356,.F.);
#492=ORIENTED_EDGE('',*,*,#357,.T.);
#493=ORIENTED_EDGE('',*,*,#358,.T.);
#494=ORIENTED_EDGE('',*,*,#357,.F.);
#495=ORIENTED_EDGE('',*,*,#356,.T.);
#496=ORIENTED_EDGE('',*,*,#358,.F.);
#497=PLANE('',#564);
#498=PLANE('',#565);
#499=PLANE('',#566);
#500=PLANE('',#567);
#501=PLANE('',#568);
#502=PLANE('',#569);
#503=PLANE('',#570);
#504=PLANE('',#571);
#505=PLANE('',#572);
#506=PLANE('',#573);
#507=PLANE('',#574);
#508=PLANE('',#575);
#509=PLANE('',#576);
#510=PLANE('',#577);
#511=PLANE('',#578);
#512=PLANE('',#579);
#513=PLANE('',#580);
#514=PLANE('',#581);
#515=PLANE('',#582);
#516=PLANE('',#589);
#517=PLANE('',#590);
#518=PLANE('',#597);
#519=PLANE('',#598);
#520=PLANE('',#605);
#521=PLANE('',#606);
#522=PLANE('',#610);
#523=PLANE('',#611);
#524=ADVANCED_FACE('',(#55),#497,.F.);
#525=ADVANCED_FACE('',(#56),#498,.F.);
#526=ADVANCED_FACE('',(#57),#499,.F.);
#527=ADVANCED_FACE('',(#58),#500,.F.);
#528=ADVANCED_FACE('',(#59),#501,.F.);
#529=ADVANCED_FACE('',(#60),#502,.F.);
#530=ADVANCED_FACE('',(#61),#503,.F.);
#531=ADVANCED_FACE('',(#62),#504,.F.);
#532=ADVANCED_FACE('',(#63,#44),#505,.T.);
#533=ADVANCED_FACE('',(#64),#506,.T.);
#534=ADVANCED_FACE('',(#65),#507,.T.);
#535=ADVANCED_FACE('',(#66),#508,.T.);
#536=ADVANCED_FACE('',(#67),#509,.T.);
#537=ADVANCED_FACE('',(#68,#45),#510,.T.);
#538=ADVANCED_FACE('',(#69,#46),#511,.T.);
#539=ADVANCED_FACE('',(#70),#512,.T.);
#540=ADVANCED_FACE('',(#71,#47),#513,.T.);
#541=ADVANCED_FACE('',(#72,#48),#514,.T.);
#542=ADVANCED_FACE('',(#73),#515,.T.);
#543=ADVANCED_FACE('',(#74),#27,.F.);
#544=ADVANCED_FACE('',(#75),#28,.T.);
#545=ADVANCED_FACE('',(#76,#49),#516,.T.);
#546=ADVANCED_FACE('',(#77,#50),#517,.F.);
#547=ADVANCED_FACE('',(#78),#29,.F.);
#548=ADVANCED_FACE('',(#79),#30,.T.);
#549=ADVANCED_FACE('',(#80,#51),#518,.T.);
#550=ADVANCED_FACE('',(#81,#52),#519,.F.);
#551=ADVANCED_FACE('',(#82),#31,.F.);
#552=ADVANCED_FACE('',(#83),#32,.T.);
#553=ADVANCED_FACE('',(#84,#53),#520,.T.);
#554=ADVANCED_FACE('',(#85,#54),#521,.F.);
#555=ADVANCED_FACE('',(#86),#33,.T.);
#556=ADVANCED_FACE('',(#87),#522,.T.);
#557=ADVANCED_FACE('',(#88),#523,.F.);
#558=CLOSED_SHELL('',(#524,#525,#526,#527,#528,#529,#530,#531,#532,#533,
#534,#535,#536,#537,#538,#539,#540,#541,#542));
#559=CLOSED_SHELL('',(#543,#544,#545,#546));
#560=CLOSED_SHELL('',(#547,#548,#549,#550));
#561=CLOSED_SHELL('',(#551,#552,#553,#554));
#562=CLOSED_SHELL('',(#555,#556,#557));
#563=AXIS2_PLACEMENT_3D('',#765,#612,#613);
#564=AXIS2_PLACEMENT_3D('',#766,#614,#615);
#565=AXIS2_PLACEMENT_3D('',#775,#620,#621);
#566=AXIS2_PLACEMENT_3D('',#781,#625,#626);
#567=AXIS2_PLACEMENT_3D('',#787,#630,#631);
#568=AXIS2_PLACEMENT_3D('',#790,#634,#635);
#569=AXIS2_PLACEMENT_3D('',#799,#640,#641);
#570=AXIS2_PLACEMENT_3D('',#805,#645,#646);
#571=AXIS2_PLACEMENT_3D('',#811,#650,#651);
#572=AXIS2_PLACEMENT_3D('',#814,#654,#655);
#573=AXIS2_PLACEMENT_3D('',#831,#664,#665);
#574=AXIS2_PLACEMENT_3D('',#840,#670,#671);
#575=AXIS2_PLACEMENT_3D('',#843,#674,#675);
#576=AXIS2_PLACEMENT_3D('',#845,#677,#678);
#577=AXIS2_PLACEMENT_3D('',#854,#683,#684);
#578=AXIS2_PLACEMENT_3D('',#856,#686,#687);
#579=AXIS2_PLACEMENT_3D('',#857,#688,#689);
#580=AXIS2_PLACEMENT_3D('',#860,#692,#693);
#581=AXIS2_PLACEMENT_3D('',#862,#695,#696);
#582=AXIS2_PLACEMENT_3D('',#864,#698,#699);
#583=AXIS2_PLACEMENT_3D('',#865,#700,#701);
#584=AXIS2_PLACEMENT_3D('',#867,#702,#703);
#585=AXIS2_PLACEMENT_3D('',#870,#705,#706);
#586=AXIS2_PLACEMENT_3D('',#871,#707,#708);
#587=AXIS2_PLACEMENT_3D('',#873,#709,#710);
#588=AXIS2_PLACEMENT_3D('',#876,#712,#713);
#589=AXIS2_PLACEMENT_3D('',#877,#714,#715);
#590=AXIS2_PLACEMENT_3D('',#878,#716,#717);
#591=AXIS2_PLACEMENT_3D('',#879,#718,#719);
#592=AXIS2_PLACEMENT_3D('',#881,#720,#721);
#593=AXIS2_PLACEMENT_3D('',#884,#723,#724);
#594=AXIS2_PLACEMENT_3D('',#885,#725,#726);
#595=AXIS2_PLACEMENT_3D('',#887,#727,#728);
#596=AXIS2_PLACEMENT_3D('',#890,#730,#731);
#597=AXIS2_PLACEMENT_3D('',#891,#732,#733);
#598=AXIS2_PLACEMENT_3D('',#892,#734,#735);
#599=AXIS2_PLACEMENT_3D('',#893,#736,#737);
#600=AXIS2_PLACEMENT_3D('',#895,#738,#739);
#601=AXIS2_PLACEMENT_3D('',#898,#741,#742);
#602=AXIS2_PLACEMENT_3D('',#899,#743,#744);
#603=AXIS2_PLACEMENT_3D('',#901,#745,#746);
#604=AXIS2_PLACEMENT_3D('',#904,#748,#749);
#605=AXIS2_PLACEMENT_3D('',#905,#750,#751);
#606=AXIS2_PLACEMENT_3D('',#906,#752,#753);
#607=AXIS2_PLACEMENT_3D('',#907,#754,#755);
#608=AXIS2_PLACEMENT_3D('',#909,#756,#757);
#609=AXIS2_PLACEMENT_3D('',#912,#759,#760);
#610=AXIS2_PLACEMENT_3D('',#913,#761,#762);
#611=AXIS2_PLACEMENT_3D('',#914,#763,#764);
#612=DIRECTION('axis',(0.,0.,1.));
#613=DIRECTION('refdir',(1.,0.,0.));
#614=DIRECTION('center_axis',(1.,0.,0.));
#615=DIRECTION('ref_axis',(0.,0.,1.));
#616=DIRECTION('',(0.,0.,-1.));
#617=DIRECTION('',(0.,-1.,0.));
#618=DIRECTION('',(0.,0.,1.));
#619=DIRECTION('',(0.,-1.,0.));
#620=DIRECTION('center_axis',(0.,0.,-1.));
#621=DIRECTION('ref_axis',(1.,0.,0.));
#622=DIRECTION('',(-1.,-7.71528258587435E-15,0.));
#623=DIRECTION('',(1.,7.7079801181024E-15,0.));
#624=DIRECTION('',(0.,-1.,0.));
#625=DIRECTION('center_axis',(-1.,0.,0.));
#626=DIRECTION('ref_axis',(0.,0.,-1.));
#627=DIRECTION('',(0.,0.,1.));
#628=DIRECTION('',(0.,0.,-1.));
#629=DIRECTION('',(0.,-1.,0.));
#630=DIRECTION('center_axis',(0.,0.,1.));
#631=DIRECTION('ref_axis',(-1.,0.,0.));
#632=DIRECTION('',(1.,7.71528258587435E-15,0.));
#633=DIRECTION('',(-1.,-7.7079801181024E-15,0.));
#634=DIRECTION('center_axis',(0.,-1.,0.));
#635=DIRECTION('ref_axis',(0.,0.,1.));
#636=DIRECTION('',(0.,0.,-1.));
#637=DIRECTION('',(-1.,0.,0.));
#638=DIRECTION('',(0.,0.,1.));
#639=DIRECTION('',(-1.,0.,0.));
#640=DIRECTION('center_axis',(0.,0.,-1.));
#641=DIRECTION('ref_axis',(0.,-1.,0.));
#642=DIRECTION('',(-7.61394670739163E-15,1.,0.));
#643=DIRECTION('',(7.82142274235862E-15,-1.,0.));
#644=DIRECTION('',(-1.,0.,0.));
#645=DIRECTION('center_axis',(0.,1.,0.));
#646=DIRECTION('ref_axis',(0.,0.,-1.));
#647=DIRECTION('',(0.,0.,1.));
#648=DIRECTION('',(0.,0.,-1.));
#649=DIRECTION('',(-1.,0.,0.));
#650=DIRECTION('center_axis',(0.,0.,1.));
#651=DIRECTION('ref_axis',(0.,1.,0.));
#652=DIRECTION('',(7.61394670739163E-15,-1.,0.));
#653=DIRECTION('',(-7.82142274235862E-15,1.,0.));
#654=DIRECTION('center_axis',(0.,0.,1.));
#655=DIRECTION('ref_axis',(1.,0.,0.));
#656=DIRECTION('',(7.59795352114837E-15,-1.,3.46944695195361E-18));
#657=DIRECTION('',(1.,7.66885331547243E-15,-1.9547764721886E-33));
#658=DIRECTION('',(-7.82142274235862E-15,1.,-3.46944695195361E-18));
#659=DIRECTION('',(-1.,-7.7079801181024E-15,2.09052483831282E-33));
#660=DIRECTION('',(-7.61394670739163E-15,1.,-3.46944695195361E-18));
#661=DIRECTION('',(1.,7.71528258587435E-15,-2.11586036286595E-33));
#662=DIRECTION('',(7.61394670739163E-15,-1.,3.46944695195361E-18));
#663=DIRECTION('',(-1.,-7.69481764532826E-15,2.04485833726642E-33));
#664=DIRECTION('center_axis',(-2.64127535230249E-32,3.46944695195361E-18,
1.));
#665=DIRECTION('ref_axis',(7.61394670739163E-15,-1.,3.46944695195361E-18));
#666=DIRECTION('',(-7.61394670739163E-15,1.,-3.46944695195361E-18));
#667=DIRECTION('',(-1.,-7.69481764532826E-15,2.84008102398066E-34));
#668=DIRECTION('',(7.61394670739163E-15,-1.,3.46944695195361E-18));
#669=DIRECTION('',(1.,7.71528258587435E-15,-3.55010127997599E-34));
#670=DIRECTION('center_axis',(-7.69481764532826E-15,1.,0.));
#671=DIRECTION('ref_axis',(1.,7.69481764532826E-15,-2.04485833726642E-33));
#672=DIRECTION('',(0.,0.,-1.));
#673=DIRECTION('',(0.,0.,1.));
#674=DIRECTION('center_axis',(1.,7.61394670739163E-15,0.));
#675=DIRECTION('ref_axis',(7.61394670739163E-15,-1.,3.46944695195361E-18));
#676=DIRECTION('',(0.,0.,1.));
#677=DIRECTION('center_axis',(0.,0.,-1.));
#678=DIRECTION('ref_axis',(-1.,0.,0.));
#679=DIRECTION('',(-7.59795352114837E-15,1.,-3.46944695195361E-18));
#680=DIRECTION('',(1.,7.7079801181024E-15,-2.09052483831282E-33));
#681=DIRECTION('',(7.82142274235862E-15,-1.,3.46944695195361E-18));
#682=DIRECTION('',(-1.,-7.66885331547243E-15,1.9547764721886E-33));
#683=DIRECTION('center_axis',(7.71528258587435E-15,-1.,0.));
#684=DIRECTION('ref_axis',(-1.,-7.71528258587435E-15,2.11586036286595E-33));
#685=DIRECTION('',(0.,0.,1.));
#686=DIRECTION('center_axis',(-1.,-7.61394670739163E-15,0.));
#687=DIRECTION('ref_axis',(-7.61394670739163E-15,1.,-3.46944695195361E-18));
#688=DIRECTION('center_axis',(7.66885331547243E-15,-1.,0.));
#689=DIRECTION('ref_axis',(-1.,-7.66885331547243E-15,1.9547764721886E-33));
#690=DIRECTION('',(0.,0.,1.));
#691=DIRECTION('',(0.,0.,1.));
#692=DIRECTION('center_axis',(1.,7.82142274235862E-15,0.));
#693=DIRECTION('ref_axis',(7.82142274235862E-15,-1.,3.46944695195361E-18));
#694=DIRECTION('',(0.,0.,1.));
#695=DIRECTION('center_axis',(-7.7079801181024E-15,1.,0.));
#696=DIRECTION('ref_axis',(1.,7.7079801181024E-15,-2.09052483831282E-33));
#697=DIRECTION('',(0.,0.,-1.));
#698=DIRECTION('center_axis',(-1.,-7.59795352114837E-15,0.));
#699=DIRECTION('ref_axis',(-7.59795352114837E-15,1.,-3.46944695195361E-18));
#700=DIRECTION('center_axis',(0.,0.,1.));
#701=DIRECTION('ref_axis',(1.,-1.10440526730942E-29,0.));
#702=DIRECTION('center_axis',(2.46519032881566E-32,-3.46944695195361E-18,
-1.));
#703=DIRECTION('ref_axis',(1.,-1.10440526730942E-29,2.46519032881566E-32));
#704=DIRECTION('',(0.,0.,-1.));
#705=DIRECTION('center_axis',(-2.46519032881566E-32,3.46944695195361E-18,
1.));
#706=DIRECTION('ref_axis',(1.,-1.10440526730942E-29,2.46519032881566E-32));
#707=DIRECTION('center_axis',(0.,0.,1.));
#708=DIRECTION('ref_axis',(1.,-1.10440526730942E-29,0.));
#709=DIRECTION('center_axis',(-2.46519032881566E-32,3.46944695195361E-18,
1.));
#710=DIRECTION('ref_axis',(1.,-1.10440526730942E-29,2.46519032881566E-32));
#711=DIRECTION('',(0.,0.,-1.));
#712=DIRECTION('center_axis',(2.46519032881566E-32,-3.46944695195361E-18,
-1.));
#713=DIRECTION('ref_axis',(1.,-1.10440526730942E-29,2.46519032881566E-32));
#714=DIRECTION('center_axis',(2.46519032881566E-32,-3.46944695195361E-18,
-1.));
#715=DIRECTION('ref_axis',(1.,-1.10440526730942E-29,2.46519032881566E-32));
#716=DIRECTION('center_axis',(2.46519032881566E-32,-3.46944695195361E-18,
-1.));
#717=DIRECTION('ref_axis',(1.,-1.10440526730942E-29,2.46519032881566E-32));
#718=DIRECTION('center_axis',(0.,0.,1.));
#719=DIRECTION('ref_axis',(1.,-1.10440526730942E-29,0.));
#720=DIRECTION('center_axis',(2.46519032881566E-32,-3.46944695195361E-18,
-1.));
#721=DIRECTION('ref_axis',(1.,-1.10440526730942E-29,2.46519032881566E-32));
#722=DIRECTION('',(0.,0.,-1.));
#723=DIRECTION('center_axis',(-2.46519032881566E-32,3.46944695195361E-18,
1.));
#724=DIRECTION('ref_axis',(1.,-1.10440526730942E-29,2.46519032881566E-32));
#725=DIRECTION('center_axis',(0.,0.,1.));
#726=DIRECTION('ref_axis',(1.,-1.10440526730942E-29,0.));
#727=DIRECTION('center_axis',(-2.46519032881566E-32,3.46944695195361E-18,
1.));
#728=DIRECTION('ref_axis',(1.,-1.10440526730942E-29,2.46519032881566E-32));
#729=DIRECTION('',(0.,0.,-1.));
#730=DIRECTION('center_axis',(2.46519032881566E-32,-3.46944695195361E-18,
-1.));
#731=DIRECTION('ref_axis',(1.,-1.10440526730942E-29,2.46519032881566E-32));
#732=DIRECTION('center_axis',(2.46519032881566E-32,-3.46944695195361E-18,
-1.));
#733=DIRECTION('ref_axis',(1.,-1.10440526730942E-29,2.46519032881566E-32));
#734=DIRECTION('center_axis',(2.46519032881566E-32,-3.46944695195361E-18,
-1.));
#735=DIRECTION('ref_axis',(1.,-1.10440526730942E-29,2.46519032881566E-32));
#736=DIRECTION('center_axis',(0.,0.,1.));
#737=DIRECTION('ref_axis',(1.,-1.10440526730942E-29,0.));
#738=DIRECTION('center_axis',(2.46519032881566E-32,-3.46944695195361E-18,
-1.));
#739=DIRECTION('ref_axis',(1.,-1.10440526730942E-29,2.46519032881566E-32));
#740=DIRECTION('',(0.,0.,-1.));
#741=DIRECTION('center_axis',(-2.46519032881566E-32,3.46944695195361E-18,
1.));
#742=DIRECTION('ref_axis',(1.,-1.10440526730942E-29,2.46519032881566E-32));
#743=DIRECTION('center_axis',(0.,0.,1.));
#744=DIRECTION('ref_axis',(1.,-1.10440526730942E-29,0.));
#745=DIRECTION('center_axis',(-2.46519032881566E-32,3.46944695195361E-18,
1.));
#746=DIRECTION('ref_axis',(1.,-1.10440526730942E-29,2.46519032881566E-32));
#747=DIRECTION('',(0.,0.,-1.));
#748=DIRECTION('center_axis',(2.46519032881566E-32,-3.46944695195361E-18,
-1.));
#749=DIRECTION('ref_axis',(1.,-1.10440526730942E-29,2.46519032881566E-32));
#750=DIRECTION('center_axis',(2.46519032881566E-32,-3.46944695195361E-18,
-1.));
#751=DIRECTION('ref_axis',(1.,-1.10440526730942E-29,2.46519032881566E-32));
#752=DIRECTION('center_axis',(2.46519032881566E-32,-3.46944695195361E-18,
-1.));
#753=DIRECTION('ref_axis',(1.,-1.10440526730942E-29,2.46519032881566E-32));
#754=DIRECTION('center_axis',(0.,0.,1.));
#755=DIRECTION('ref_axis',(-1.,0.,0.));
#756=DIRECTION('center_axis',(0.,0.,1.));
#757=DIRECTION('ref_axis',(-1.,0.,0.));
#758=DIRECTION('',(0.,0.,-1.));
#759=DIRECTION('center_axis',(0.,0.,1.));
#760=DIRECTION('ref_axis',(-1.,0.,0.));
#761=DIRECTION('center_axis',(0.,0.,1.));
#762=DIRECTION('ref_axis',(-1.,0.,0.));
#763=DIRECTION('center_axis',(0.,0.,1.));
#764=DIRECTION('ref_axis',(-1.,0.,0.));
#765=CARTESIAN_POINT('',(0.,0.,0.));
#766=CARTESIAN_POINT('Origin',(156.510388675998,15.7300000000003,-7.9538443302904));
#767=CARTESIAN_POINT('',(156.510388675998,13.2300000000004,-3.49189911807335));
#768=CARTESIAN_POINT('',(156.510388675998,13.2300000000004,-7.9538443302904));
#769=CARTESIAN_POINT('',(156.510388675998,13.2300000000004,-3.2219221651452));
#770=CARTESIAN_POINT('',(156.510388675998,15.7300000000003,-3.49189911807335));
#771=CARTESIAN_POINT('',(156.510388675998,15.7300000000003,-3.49189911807335));
#772=CARTESIAN_POINT('',(156.510388675998,15.7300000000003,-7.9538443302904));
#773=CARTESIAN_POINT('',(156.510388675998,15.7300000000004,-3.2219221651452));
#774=CARTESIAN_POINT('',(156.510388675998,15.7300000000003,-7.9538443302904));
#775=CARTESIAN_POINT('Origin',(134.510519921317,15.7300000000003,-7.9538443302904));
#776=CARTESIAN_POINT('',(134.510519921317,13.2300000000002,-7.9538443302904));
#777=CARTESIAN_POINT('',(166.682939960658,13.2300000000004,-7.9538443302904));
#778=CARTESIAN_POINT('',(134.510519921317,15.7300000000003,-7.9538443302904));
#779=CARTESIAN_POINT('',(111.182939960658,15.73,-7.9538443302904));
#780=CARTESIAN_POINT('',(134.510519921317,15.7300000000003,-7.9538443302904));
#781=CARTESIAN_POINT('Origin',(134.510519921317,15.7300000000003,-3.49189911807335));
#782=CARTESIAN_POINT('',(134.510519921317,13.2300000000002,-3.49189911807335));
#783=CARTESIAN_POINT('',(134.510519921317,13.2300000000002,-0.990949559036675));
#784=CARTESIAN_POINT('',(134.510519921317,15.7300000000003,-3.49189911807335));
#785=CARTESIAN_POINT('',(134.510519921317,15.7300000000002,-0.990949559036675));
#786=CARTESIAN_POINT('',(134.510519921317,15.7300000000003,-3.49189911807335));
#787=CARTESIAN_POINT('Origin',(156.510388675998,15.7300000000003,-3.49189911807335));
#788=CARTESIAN_POINT('',(177.682874337999,13.2300000000005,-3.49189911807335));
#789=CARTESIAN_POINT('',(122.182874337999,15.7300000000001,-3.49189911807335));
#790=CARTESIAN_POINT('Origin',(201.35536,-43.0000006407499,1.50736386467399));
#791=CARTESIAN_POINT('',(198.85536,-43.0000006407499,5.00000007450581));
#792=CARTESIAN_POINT('',(198.85536,-43.0000006407499,1.50736386467399));
#793=CARTESIAN_POINT('',(198.85536,-43.0000006407499,1.50868193233699));
#794=CARTESIAN_POINT('',(201.35536,-43.0000006407499,5.00000007450581));
#795=CARTESIAN_POINT('',(201.35536,-43.0000006407499,5.00000007450581));
#796=CARTESIAN_POINT('',(201.35536,-43.0000006407499,1.50736386467399));
#797=CARTESIAN_POINT('',(201.35536,-43.0000006407499,1.50868193233699));
#798=CARTESIAN_POINT('',(201.35536,-43.0000006407499,1.50736386467399));
#799=CARTESIAN_POINT('Origin',(201.35536,-18.0814333904495,1.50736386467399));
#800=CARTESIAN_POINT('',(198.85536,-18.0814333904495,1.50736386467399));
#801=CARTESIAN_POINT('',(198.85536,-79.4157166952244,1.50736386467399));
#802=CARTESIAN_POINT('',(201.35536,-18.0814333904495,1.50736386467399));
#803=CARTESIAN_POINT('',(201.355359999999,-1.1757166952244,1.50736386467399));
#804=CARTESIAN_POINT('',(201.35536,-18.0814333904495,1.50736386467399));
#805=CARTESIAN_POINT('Origin',(201.35536,-18.0814333904495,5.00000007450581));
#806=CARTESIAN_POINT('',(198.85536,-18.0814333904495,5.00000007450581));
#807=CARTESIAN_POINT('',(198.85536,-18.0814333904495,3.2550000372529));
#808=CARTESIAN_POINT('',(201.35536,-18.0814333904495,5.00000007450581));
#809=CARTESIAN_POINT('',(201.35536,-18.0814333904495,3.2550000372529));
#810=CARTESIAN_POINT('',(201.35536,-18.0814333904495,5.00000007450581));
#811=CARTESIAN_POINT('Origin',(201.35536,-43.0000006407499,5.00000007450581));
#812=CARTESIAN_POINT('',(198.85536,-91.8750003203747,5.00000007450581));
#813=CARTESIAN_POINT('',(201.35536,-13.6350003203746,5.00000007450581));
#814=CARTESIAN_POINT('Origin',(144.60536,-63.7599999999997,19.51));
#815=CARTESIAN_POINT('',(87.8553599999993,15.7299999999998,19.51));
#816=CARTESIAN_POINT('',(87.8553600000005,-143.25,19.51));
#817=CARTESIAN_POINT('',(87.8553599999993,15.7299999999998,19.51));
#818=CARTESIAN_POINT('',(201.355360000001,-143.249999999999,19.51));
#819=CARTESIAN_POINT('',(87.8553600000005,-143.25,19.51));
#820=CARTESIAN_POINT('',(201.355359999999,15.7300000000007,19.51));
#821=CARTESIAN_POINT('',(201.355360000001,-143.249999999999,19.51));
#822=CARTESIAN_POINT('',(201.355359999999,15.7300000000007,19.51));
#823=CARTESIAN_POINT('',(90.3553600000005,-140.75,19.51));
#824=CARTESIAN_POINT('',(90.3553599999993,13.2299999999999,19.51));
#825=CARTESIAN_POINT('',(90.3553599999993,13.2299999999999,19.51));
#826=CARTESIAN_POINT('',(198.855359999999,13.2300000000007,19.51));
#827=CARTESIAN_POINT('',(198.855359999999,13.2300000000007,19.51));
#828=CARTESIAN_POINT('',(198.855360000001,-140.749999999999,19.51));
#829=CARTESIAN_POINT('',(198.855360000001,-140.749999999999,19.51));
#830=CARTESIAN_POINT('',(90.3553600000005,-140.75,19.51));
#831=CARTESIAN_POINT('Origin',(90.3553599999993,13.2299999999999,-11.49));
#832=CARTESIAN_POINT('',(90.3553600000005,-140.75,-11.49));
#833=CARTESIAN_POINT('',(90.3553599999993,13.2299999999999,-11.49));
#834=CARTESIAN_POINT('',(90.3553599999993,13.2299999999999,-11.49));
#835=CARTESIAN_POINT('',(198.85536,-140.749999999999,-11.49));
#836=CARTESIAN_POINT('',(90.3553600000005,-140.75,-11.49));
#837=CARTESIAN_POINT('',(198.855359999999,13.2300000000007,-11.49));
#838=CARTESIAN_POINT('',(198.85536,-63.7599999999993,-11.49));
#839=CARTESIAN_POINT('',(144.605359999999,13.2300000000003,-11.49));
#840=CARTESIAN_POINT('Origin',(90.3553600000005,-140.75,1.51));
#841=CARTESIAN_POINT('',(90.3553600000005,-140.75,1.51));
#842=CARTESIAN_POINT('',(198.855360000001,-140.749999999999,1.51));
#843=CARTESIAN_POINT('Origin',(90.3553599999993,13.2299999999999,1.51));
#844=CARTESIAN_POINT('',(90.3553599999993,13.2299999999999,1.51));
#845=CARTESIAN_POINT('Origin',(144.60536,-63.7599999999997,-18.49));
#846=CARTESIAN_POINT('',(87.8553600000005,-143.25,-18.49));
#847=CARTESIAN_POINT('',(87.8553599999993,15.7299999999998,-18.49));
#848=CARTESIAN_POINT('',(87.8553599999993,15.7299999999998,-18.49));
#849=CARTESIAN_POINT('',(201.355359999999,15.7300000000007,-18.49));
#850=CARTESIAN_POINT('',(201.355359999999,15.7300000000007,-18.49));
#851=CARTESIAN_POINT('',(201.355360000001,-143.249999999999,-18.49));
#852=CARTESIAN_POINT('',(201.355360000001,-143.249999999999,-18.49));
#853=CARTESIAN_POINT('',(87.8553600000005,-143.25,-18.49));
#854=CARTESIAN_POINT('Origin',(198.855359999999,13.2300000000007,1.51));
#855=CARTESIAN_POINT('',(198.855359999999,13.2300000000007,1.51));
#856=CARTESIAN_POINT('Origin',(198.855360000001,-140.749999999999,1.51));
#857=CARTESIAN_POINT('Origin',(201.355360000001,-143.249999999999,1.51));
#858=CARTESIAN_POINT('',(87.8553600000005,-143.25,1.51));
#859=CARTESIAN_POINT('',(201.355360000001,-143.249999999999,1.51));
#860=CARTESIAN_POINT('Origin',(201.355359999999,15.7300000000007,1.51));
#861=CARTESIAN_POINT('',(201.355359999999,15.7300000000007,1.51));
#862=CARTESIAN_POINT('Origin',(87.8553599999993,15.7299999999998,1.51));
#863=CARTESIAN_POINT('',(87.8553599999993,15.7299999999998,1.51));
#864=CARTESIAN_POINT('Origin',(87.8553600000005,-143.25,1.51));
#865=CARTESIAN_POINT('Origin',(95.8499999999993,7.72999999999993,-2.68188249386024E-17));
#866=CARTESIAN_POINT('',(94.5999999999993,7.72999999999993,16.));
#867=CARTESIAN_POINT('Origin',(95.8499999999993,7.72999999999993,16.));
#868=CARTESIAN_POINT('',(94.5999999999993,7.72999999999993,-2.68188249386024E-17));
#869=CARTESIAN_POINT('',(94.5999999999993,7.72999999999993,-2.68188249386024E-17));
#870=CARTESIAN_POINT('Origin',(95.8499999999993,7.72999999999993,-2.68188249386024E-17));
#871=CARTESIAN_POINT('Origin',(95.8499999999993,7.72999999999993,-2.68188249386024E-17));
#872=CARTESIAN_POINT('',(93.8499999999993,7.72999999999993,16.));
#873=CARTESIAN_POINT('Origin',(95.8499999999993,7.72999999999993,16.));
#874=CARTESIAN_POINT('',(93.8499999999993,7.72999999999993,-2.68188249386024E-17));
#875=CARTESIAN_POINT('',(93.8499999999993,7.72999999999993,-2.68188249386024E-17));
#876=CARTESIAN_POINT('Origin',(95.8499999999993,7.72999999999993,-2.68188249386024E-17));
#877=CARTESIAN_POINT('Origin',(95.8499999999993,7.72999999999993,-2.68188249386024E-17));
#878=CARTESIAN_POINT('Origin',(95.8499999999993,7.72999999999993,16.));
#879=CARTESIAN_POINT('Origin',(193.350000000001,-135.269999999999,4.69312089190764E-16));
#880=CARTESIAN_POINT('',(192.100000000001,-135.269999999999,16.));
#881=CARTESIAN_POINT('Origin',(193.350000000001,-135.269999999999,16.));
#882=CARTESIAN_POINT('',(192.100000000001,-135.269999999999,4.69312089190764E-16));
#883=CARTESIAN_POINT('',(192.100000000001,-135.269999999999,4.69312089190764E-16));
#884=CARTESIAN_POINT('Origin',(193.350000000001,-135.269999999999,4.69312089190764E-16));
#885=CARTESIAN_POINT('Origin',(193.350000000001,-135.269999999999,4.69312089190764E-16));
#886=CARTESIAN_POINT('',(191.350000000001,-135.269999999999,16.));
#887=CARTESIAN_POINT('Origin',(193.350000000001,-135.269999999999,16.));
#888=CARTESIAN_POINT('',(191.350000000001,-135.269999999999,4.69312089190764E-16));
#889=CARTESIAN_POINT('',(191.350000000001,-135.269999999999,4.69312089190764E-16));
#890=CARTESIAN_POINT('Origin',(193.350000000001,-135.269999999999,4.69312089190764E-16));
#891=CARTESIAN_POINT('Origin',(193.350000000001,-135.269999999999,4.69312089190764E-16));
#892=CARTESIAN_POINT('Origin',(193.350000000001,-135.269999999999,16.));
#893=CARTESIAN_POINT('Origin',(95.6000000000004,-134.77,4.67577365714788E-16));
#894=CARTESIAN_POINT('',(94.3500000000004,-134.77,16.));
#895=CARTESIAN_POINT('Origin',(95.6000000000004,-134.77,16.));
#896=CARTESIAN_POINT('',(94.3500000000004,-134.77,4.67577365714788E-16));
#897=CARTESIAN_POINT('',(94.3500000000004,-134.77,4.67577365714788E-16));
#898=CARTESIAN_POINT('Origin',(95.6000000000004,-134.77,4.67577365714788E-16));
#899=CARTESIAN_POINT('Origin',(95.6000000000004,-134.77,4.67577365714788E-16));
#900=CARTESIAN_POINT('',(93.6000000000004,-134.77,16.));
#901=CARTESIAN_POINT('Origin',(95.6000000000004,-134.77,16.));
#902=CARTESIAN_POINT('',(93.6000000000004,-134.77,4.67577365714788E-16));
#903=CARTESIAN_POINT('',(93.6000000000004,-134.77,4.67577365714788E-16));
#904=CARTESIAN_POINT('Origin',(95.6000000000004,-134.77,4.67577365714788E-16));
#905=CARTESIAN_POINT('Origin',(95.6000000000004,-134.77,4.67577365714788E-16));
#906=CARTESIAN_POINT('Origin',(95.6000000000004,-134.77,16.));
#907=CARTESIAN_POINT('Origin',(193.364332253069,7.47068220170093,8.88178419700125E-15));
#908=CARTESIAN_POINT('',(195.364332253069,7.47068220170093,16.));
#909=CARTESIAN_POINT('Origin',(193.364332253069,7.47068220170093,16.));
#910=CARTESIAN_POINT('',(195.364332253069,7.47068220170093,8.88178419700125E-15));
#911=CARTESIAN_POINT('',(195.364332253069,7.47068220170093,8.88178419700125E-15));
#912=CARTESIAN_POINT('Origin',(193.364332253069,7.47068220170093,8.88178419700125E-15));
#913=CARTESIAN_POINT('Origin',(193.364332253069,7.47068220170093,16.));
#914=CARTESIAN_POINT('Origin',(193.364332253069,7.47068220170093,8.88178419700125E-15));
#915=UNCERTAINTY_MEASURE_WITH_UNIT(LENGTH_MEASURE(0.01),#919,
'DISTANCE_ACCURACY_VALUE',
'Maximum model space distance between geometric entities at asserted c
onnectivities');
#916=UNCERTAINTY_MEASURE_WITH_UNIT(LENGTH_MEASURE(0.01),#919,
'DISTANCE_ACCURACY_VALUE',
'Maximum model space distance between geometric entities at asserted c
onnectivities');
#917=(
GEOMETRIC_REPRESENTATION_CONTEXT(3)
GLOBAL_UNCERTAINTY_ASSIGNED_CONTEXT((#915))
GLOBAL_UNIT_ASSIGNED_CONTEXT((#919,#920,#921))
REPRESENTATION_CONTEXT('','3D')
);
#918=(
GEOMETRIC_REPRESENTATION_CONTEXT(3)
GLOBAL_UNCERTAINTY_ASSIGNED_CONTEXT((#916))
GLOBAL_UNIT_ASSIGNED_CONTEXT((#919,#920,#921))
REPRESENTATION_CONTEXT('','3D')
);
#919=(
LENGTH_UNIT()
NAMED_UNIT(*)
SI_UNIT(.MILLI.,.METRE.)
);
#920=(
NAMED_UNIT(*)
PLANE_ANGLE_UNIT()
SI_UNIT($,.RADIAN.)
);
#921=(
NAMED_UNIT(*)
SI_UNIT($,.STERADIAN.)
SOLID_ANGLE_UNIT()
);
#922=SHAPE_DEFINITION_REPRESENTATION(#923,#924);
#923=PRODUCT_DEFINITION_SHAPE('',$,#926);
#924=SHAPE_REPRESENTATION('',(#563),#917);
#925=PRODUCT_DEFINITION_CONTEXT('part definition',#930,'design');
#926=PRODUCT_DEFINITION('Libre 1','Libre_PCB (1)',#927,#925);
#927=PRODUCT_DEFINITION_FORMATION('',$,#932);
#928=PRODUCT_RELATED_PRODUCT_CATEGORY('Libre_PCB (1)','Libre_PCB (1)',(#932));
#929=APPLICATION_PROTOCOL_DEFINITION('international standard',
'automotive_design',2009,#930);
#930=APPLICATION_CONTEXT(
'Core Data for Automotive Mechanical Design Process');
#931=PRODUCT_CONTEXT('part definition',#930,'mechanical');
#932=PRODUCT('Libre 1','Libre_PCB (1)','KiCad electronic assembly',(#931));
#933=PRESENTATION_STYLE_ASSIGNMENT((#934));
#934=SURFACE_STYLE_USAGE(.BOTH.,#935);
#935=SURFACE_SIDE_STYLE('',(#936));
#936=SURFACE_STYLE_FILL_AREA(#937);
#937=FILL_AREA_STYLE('Steel - Satin',(#938));
#938=FILL_AREA_STYLE_COLOUR('Steel - Satin',#939);
#939=COLOUR_RGB('Steel - Satin',0.627450980392157,0.627450980392157,0.627450980392157);
ENDSEC;
END-ISO-10303-21;
