ISO-10303-21;
HEADER;
/* Generated by software containing ST-Developer
 * from STEP Tools, Inc. (www.steptools.com) 
 */

FILE_DESCRIPTION(
/* description */ ('KiCad electronic assembly'),
/* implementation_level */ '2;1');

FILE_NAME(
/* name */ 'Libre_PCB_Assembly.step',
/* time_stamp */ '2026-09-18T10:46:30+05:30',
/* author */ (''),
/* organization */ (''),
/* preprocessor_version */ 'ST-DEVELOPER v20.2',
/* originating_system */ 'Autodesk Translation Framework v15.15.0.0',
/* authorisation */ '');

FILE_SCHEMA (('AUTOMOTIVE_DESIGN { 1 0 10303 214 3 1 1 }'));
ENDSEC;

DATA;
#10=MECHANICAL_DESIGN_GEOMETRIC_PRESENTATION_REPRESENTATION('',(#34,#35,
#36,#37,#38,#39,#40),#1892);
#11=SHAPE_REPRESENTATION_RELATIONSHIP('SRR','None',#1898,#12);
#12=ADVANCED_BREP_SHAPE_REPRESENTATION('',(#41,#42,#43,#44,#45,#46,#47),
#1891);
#13=CIRCLE('',#1238,1.25);
#14=CIRCLE('',#1239,1.25);
#15=CIRCLE('',#1241,1.99999999999999);
#16=CIRCLE('',#1242,1.99999999999999);
#17=CIRCLE('',#1246,1.25);
#18=CIRCLE('',#1247,1.25);
#19=CIRCLE('',#1249,1.99999999999999);
#20=CIRCLE('',#1250,1.99999999999999);
#21=CIRCLE('',#1254,1.25);
#22=CIRCLE('',#1255,1.25);
#23=CIRCLE('',#1257,2.00000000000001);
#24=CIRCLE('',#1258,2.00000000000001);
#25=CIRCLE('',#1262,1.99999999999999);
#26=CIRCLE('',#1263,1.99999999999999);
#27=CYLINDRICAL_SURFACE('',#1237,1.25);
#28=CYLINDRICAL_SURFACE('',#1240,1.99999999999999);
#29=CYLINDRICAL_SURFACE('',#1245,1.25);
#30=CYLINDRICAL_SURFACE('',#1248,1.99999999999999);
#31=CYLINDRICAL_SURFACE('',#1253,1.25);
#32=CYLINDRICAL_SURFACE('',#1256,2.00000000000001);
#33=CYLINDRICAL_SURFACE('',#1261,1.99999999999999);
#34=STYLED_ITEM('',(#1907),#41);
#35=STYLED_ITEM('',(#1907),#42);
#36=STYLED_ITEM('',(#1907),#43);
#37=STYLED_ITEM('',(#1907),#44);
#38=STYLED_ITEM('',(#1907),#45);
#39=STYLED_ITEM('',(#1907),#46);
#40=STYLED_ITEM('',(#1907),#47);
#41=MANIFOLD_SOLID_BREP('Body1',#1178);
#42=MANIFOLD_SOLID_BREP('Body3',#1179);
#43=MANIFOLD_SOLID_BREP('Body4',#1180);
#44=MANIFOLD_SOLID_BREP('Body5',#1181);
#45=MANIFOLD_SOLID_BREP('Body6',#1182);
#46=MANIFOLD_SOLID_BREP('Body7',#1183);
#47=MANIFOLD_SOLID_BREP('Body8',#1184);
#48=FACE_BOUND('',#140,.T.);
#49=FACE_BOUND('',#146,.T.);
#50=FACE_BOUND('',#148,.T.);
#51=FACE_BOUND('',#151,.T.);
#52=FACE_BOUND('',#153,.T.);
#53=FACE_BOUND('',#164,.T.);
#54=FACE_BOUND('',#166,.T.);
#55=FACE_BOUND('',#185,.T.);
#56=FACE_BOUND('',#186,.T.);
#57=FACE_BOUND('',#189,.T.);
#58=FACE_BOUND('',#190,.T.);
#59=FACE_BOUND('',#196,.T.);
#60=FACE_BOUND('',#198,.T.);
#61=FACE_BOUND('',#202,.T.);
#62=FACE_BOUND('',#204,.T.);
#63=FACE_BOUND('',#208,.T.);
#64=FACE_BOUND('',#210,.T.);
#65=FACE_OUTER_BOUND('',#131,.T.);
#66=FACE_OUTER_BOUND('',#132,.T.);
#67=FACE_OUTER_BOUND('',#133,.T.);
#68=FACE_OUTER_BOUND('',#134,.T.);
#69=FACE_OUTER_BOUND('',#135,.T.);
#70=FACE_OUTER_BOUND('',#136,.T.);
#71=FACE_OUTER_BOUND('',#137,.T.);
#72=FACE_OUTER_BOUND('',#138,.T.);
#73=FACE_OUTER_BOUND('',#139,.T.);
#74=FACE_OUTER_BOUND('',#141,.T.);
#75=FACE_OUTER_BOUND('',#142,.T.);
#76=FACE_OUTER_BOUND('',#143,.T.);
#77=FACE_OUTER_BOUND('',#144,.T.);
#78=FACE_OUTER_BOUND('',#145,.T.);
#79=FACE_OUTER_BOUND('',#147,.T.);
#80=FACE_OUTER_BOUND('',#149,.T.);
#81=FACE_OUTER_BOUND('',#150,.T.);
#82=FACE_OUTER_BOUND('',#152,.T.);
#83=FACE_OUTER_BOUND('',#154,.T.);
#84=FACE_OUTER_BOUND('',#155,.T.);
#85=FACE_OUTER_BOUND('',#156,.T.);
#86=FACE_OUTER_BOUND('',#157,.T.);
#87=FACE_OUTER_BOUND('',#158,.T.);
#88=FACE_OUTER_BOUND('',#159,.T.);
#89=FACE_OUTER_BOUND('',#160,.T.);
#90=FACE_OUTER_BOUND('',#161,.T.);
#91=FACE_OUTER_BOUND('',#162,.T.);
#92=FACE_OUTER_BOUND('',#163,.T.);
#93=FACE_OUTER_BOUND('',#165,.T.);
#94=FACE_OUTER_BOUND('',#167,.T.);
#95=FACE_OUTER_BOUND('',#168,.T.);
#96=FACE_OUTER_BOUND('',#169,.T.);
#97=FACE_OUTER_BOUND('',#170,.T.);
#98=FACE_OUTER_BOUND('',#171,.T.);
#99=FACE_OUTER_BOUND('',#172,.T.);
#100=FACE_OUTER_BOUND('',#173,.T.);
#101=FACE_OUTER_BOUND('',#174,.T.);
#102=FACE_OUTER_BOUND('',#175,.T.);
#103=FACE_OUTER_BOUND('',#176,.T.);
#104=FACE_OUTER_BOUND('',#177,.T.);
#105=FACE_OUTER_BOUND('',#178,.T.);
#106=FACE_OUTER_BOUND('',#179,.T.);
#107=FACE_OUTER_BOUND('',#180,.T.);
#108=FACE_OUTER_BOUND('',#181,.T.);
#109=FACE_OUTER_BOUND('',#182,.T.);
#110=FACE_OUTER_BOUND('',#183,.T.);
#111=FACE_OUTER_BOUND('',#184,.T.);
#112=FACE_OUTER_BOUND('',#187,.T.);
#113=FACE_OUTER_BOUND('',#188,.T.);
#114=FACE_OUTER_BOUND('',#191,.T.);
#115=FACE_OUTER_BOUND('',#192,.T.);
#116=FACE_OUTER_BOUND('',#193,.T.);
#117=FACE_OUTER_BOUND('',#194,.T.);
#118=FACE_OUTER_BOUND('',#195,.T.);
#119=FACE_OUTER_BOUND('',#197,.T.);
#120=FACE_OUTER_BOUND('',#199,.T.);
#121=FACE_OUTER_BOUND('',#200,.T.);
#122=FACE_OUTER_BOUND('',#201,.T.);
#123=FACE_OUTER_BOUND('',#203,.T.);
#124=FACE_OUTER_BOUND('',#205,.T.);
#125=FACE_OUTER_BOUND('',#206,.T.);
#126=FACE_OUTER_BOUND('',#207,.T.);
#127=FACE_OUTER_BOUND('',#209,.T.);
#128=FACE_OUTER_BOUND('',#211,.T.);
#129=FACE_OUTER_BOUND('',#212,.T.);
#130=FACE_OUTER_BOUND('',#213,.T.);
#131=EDGE_LOOP('',(#747,#748,#749,#750));
#132=EDGE_LOOP('',(#751,#752,#753,#754));
#133=EDGE_LOOP('',(#755,#756,#757,#758));
#134=EDGE_LOOP('',(#759,#760,#761,#762));
#135=EDGE_LOOP('',(#763,#764,#765,#766));
#136=EDGE_LOOP('',(#767,#768,#769,#770));
#137=EDGE_LOOP('',(#771,#772,#773,#774));
#138=EDGE_LOOP('',(#775,#776,#777,#778));
#139=EDGE_LOOP('',(#779,#780,#781,#782));
#140=EDGE_LOOP('',(#783,#784,#785,#786));
#141=EDGE_LOOP('',(#787,#788,#789,#790));
#142=EDGE_LOOP('',(#791,#792,#793,#794));
#143=EDGE_LOOP('',(#795,#796,#797,#798));
#144=EDGE_LOOP('',(#799,#800,#801,#802));
#145=EDGE_LOOP('',(#803,#804,#805,#806));
#146=EDGE_LOOP('',(#807,#808,#809,#810));
#147=EDGE_LOOP('',(#811,#812,#813,#814));
#148=EDGE_LOOP('',(#815,#816,#817,#818));
#149=EDGE_LOOP('',(#819,#820,#821,#822));
#150=EDGE_LOOP('',(#823,#824,#825,#826));
#151=EDGE_LOOP('',(#827,#828,#829,#830));
#152=EDGE_LOOP('',(#831,#832,#833,#834));
#153=EDGE_LOOP('',(#835,#836,#837,#838));
#154=EDGE_LOOP('',(#839,#840,#841,#842));
#155=EDGE_LOOP('',(#843,#844,#845,#846));
#156=EDGE_LOOP('',(#847,#848,#849,#850));
#157=EDGE_LOOP('',(#851,#852,#853,#854));
#158=EDGE_LOOP('',(#855,#856,#857,#858));
#159=EDGE_LOOP('',(#859,#860,#861,#862));
#160=EDGE_LOOP('',(#863,#864,#865,#866));
#161=EDGE_LOOP('',(#867,#868,#869,#870));
#162=EDGE_LOOP('',(#871,#872,#873,#874));
#163=EDGE_LOOP('',(#875,#876,#877,#878));
#164=EDGE_LOOP('',(#879,#880,#881,#882));
#165=EDGE_LOOP('',(#883,#884,#885,#886));
#166=EDGE_LOOP('',(#887,#888,#889,#890));
#167=EDGE_LOOP('',(#891,#892,#893,#894));
#168=EDGE_LOOP('',(#895,#896,#897,#898));
#169=EDGE_LOOP('',(#899,#900,#901,#902));
#170=EDGE_LOOP('',(#903,#904,#905,#906));
#171=EDGE_LOOP('',(#907,#908,#909,#910));
#172=EDGE_LOOP('',(#911,#912,#913,#914));
#173=EDGE_LOOP('',(#915,#916,#917,#918));
#174=EDGE_LOOP('',(#919,#920,#921,#922));
#175=EDGE_LOOP('',(#923,#924,#925,#926));
#176=EDGE_LOOP('',(#927,#928,#929,#930));
#177=EDGE_LOOP('',(#931,#932,#933,#934));
#178=EDGE_LOOP('',(#935,#936,#937,#938));
#179=EDGE_LOOP('',(#939,#940,#941,#942));
#180=EDGE_LOOP('',(#943,#944,#945,#946));
#181=EDGE_LOOP('',(#947,#948,#949,#950));
#182=EDGE_LOOP('',(#951,#952,#953,#954));
#183=EDGE_LOOP('',(#955,#956,#957,#958));
#184=EDGE_LOOP('',(#959,#960,#961,#962));
#185=EDGE_LOOP('',(#963,#964,#965,#966,#967,#968,#969,#970,#971,#972,#973,
#974));
#186=EDGE_LOOP('',(#975,#976,#977,#978));
#187=EDGE_LOOP('',(#979,#980,#981,#982));
#188=EDGE_LOOP('',(#983,#984,#985,#986));
#189=EDGE_LOOP('',(#987,#988,#989,#990,#991,#992,#993,#994,#995,#996,#997,
#998));
#190=EDGE_LOOP('',(#999,#1000,#1001,#1002));
#191=EDGE_LOOP('',(#1003,#1004,#1005,#1006));
#192=EDGE_LOOP('',(#1007,#1008,#1009,#1010));
#193=EDGE_LOOP('',(#1011,#1012,#1013,#1014));
#194=EDGE_LOOP('',(#1015,#1016,#1017,#1018));
#195=EDGE_LOOP('',(#1019));
#196=EDGE_LOOP('',(#1020));
#197=EDGE_LOOP('',(#1021));
#198=EDGE_LOOP('',(#1022));
#199=EDGE_LOOP('',(#1023,#1024,#1025,#1026));
#200=EDGE_LOOP('',(#1027,#1028,#1029,#1030));
#201=EDGE_LOOP('',(#1031));
#202=EDGE_LOOP('',(#1032));
#203=EDGE_LOOP('',(#1033));
#204=EDGE_LOOP('',(#1034));
#205=EDGE_LOOP('',(#1035,#1036,#1037,#1038));
#206=EDGE_LOOP('',(#1039,#1040,#1041,#1042));
#207=EDGE_LOOP('',(#1043));
#208=EDGE_LOOP('',(#1044));
#209=EDGE_LOOP('',(#1045));
#210=EDGE_LOOP('',(#1046));
#211=EDGE_LOOP('',(#1047,#1048,#1049,#1050));
#212=EDGE_LOOP('',(#1051));
#213=EDGE_LOOP('',(#1052));
#214=LINE('',#1571,#353);
#215=LINE('',#1573,#354);
#216=LINE('',#1575,#355);
#217=LINE('',#1576,#356);
#218=LINE('',#1579,#357);
#219=LINE('',#1581,#358);
#220=LINE('',#1582,#359);
#221=LINE('',#1585,#360);
#222=LINE('',#1587,#361);
#223=LINE('',#1588,#362);
#224=LINE('',#1590,#363);
#225=LINE('',#1591,#364);
#226=LINE('',#1595,#365);
#227=LINE('',#1597,#366);
#228=LINE('',#1599,#367);
#229=LINE('',#1600,#368);
#230=LINE('',#1603,#369);
#231=LINE('',#1605,#370);
#232=LINE('',#1606,#371);
#233=LINE('',#1609,#372);
#234=LINE('',#1611,#373);
#235=LINE('',#1612,#374);
#236=LINE('',#1614,#375);
#237=LINE('',#1615,#376);
#238=LINE('',#1619,#377);
#239=LINE('',#1621,#378);
#240=LINE('',#1623,#379);
#241=LINE('',#1624,#380);
#242=LINE('',#1627,#381);
#243=LINE('',#1629,#382);
#244=LINE('',#1631,#383);
#245=LINE('',#1632,#384);
#246=LINE('',#1636,#385);
#247=LINE('',#1638,#386);
#248=LINE('',#1640,#387);
#249=LINE('',#1641,#388);
#250=LINE('',#1643,#389);
#251=LINE('',#1644,#390);
#252=LINE('',#1646,#391);
#253=LINE('',#1650,#392);
#254=LINE('',#1652,#393);
#255=LINE('',#1654,#394);
#256=LINE('',#1655,#395);
#257=LINE('',#1657,#396);
#258=LINE('',#1660,#397);
#259=LINE('',#1661,#398);
#260=LINE('',#1663,#399);
#261=LINE('',#1665,#400);
#262=LINE('',#1670,#401);
#263=LINE('',#1672,#402);
#264=LINE('',#1674,#403);
#265=LINE('',#1675,#404);
#266=LINE('',#1678,#405);
#267=LINE('',#1680,#406);
#268=LINE('',#1681,#407);
#269=LINE('',#1684,#408);
#270=LINE('',#1686,#409);
#271=LINE('',#1687,#410);
#272=LINE('',#1689,#411);
#273=LINE('',#1690,#412);
#274=LINE('',#1694,#413);
#275=LINE('',#1696,#414);
#276=LINE('',#1698,#415);
#277=LINE('',#1699,#416);
#278=LINE('',#1702,#417);
#279=LINE('',#1704,#418);
#280=LINE('',#1705,#419);
#281=LINE('',#1708,#420);
#282=LINE('',#1710,#421);
#283=LINE('',#1711,#422);
#284=LINE('',#1713,#423);
#285=LINE('',#1714,#424);
#286=LINE('',#1720,#425);
#287=LINE('',#1722,#426);
#288=LINE('',#1724,#427);
#289=LINE('',#1725,#428);
#290=LINE('',#1728,#429);
#291=LINE('',#1730,#430);
#292=LINE('',#1731,#431);
#293=LINE('',#1734,#432);
#294=LINE('',#1736,#433);
#295=LINE('',#1737,#434);
#296=LINE('',#1740,#435);
#297=LINE('',#1742,#436);
#298=LINE('',#1743,#437);
#299=LINE('',#1746,#438);
#300=LINE('',#1748,#439);
#301=LINE('',#1749,#440);
#302=LINE('',#1752,#441);
#303=LINE('',#1754,#442);
#304=LINE('',#1755,#443);
#305=LINE('',#1758,#444);
#306=LINE('',#1760,#445);
#307=LINE('',#1761,#446);
#308=LINE('',#1764,#447);
#309=LINE('',#1766,#448);
#310=LINE('',#1767,#449);
#311=LINE('',#1770,#450);
#312=LINE('',#1772,#451);
#313=LINE('',#1773,#452);
#314=LINE('',#1776,#453);
#315=LINE('',#1778,#454);
#316=LINE('',#1779,#455);
#317=LINE('',#1782,#456);
#318=LINE('',#1784,#457);
#319=LINE('',#1785,#458);
#320=LINE('',#1787,#459);
#321=LINE('',#1788,#460);
#322=LINE('',#1792,#461);
#323=LINE('',#1794,#462);
#324=LINE('',#1796,#463);
#325=LINE('',#1797,#464);
#326=LINE('',#1800,#465);
#327=LINE('',#1802,#466);
#328=LINE('',#1803,#467);
#329=LINE('',#1806,#468);
#330=LINE('',#1808,#469);
#331=LINE('',#1809,#470);
#332=LINE('',#1811,#471);
#333=LINE('',#1812,#472);
#334=LINE('',#1816,#473);
#335=LINE('',#1818,#474);
#336=LINE('',#1820,#475);
#337=LINE('',#1821,#476);
#338=LINE('',#1824,#477);
#339=LINE('',#1826,#478);
#340=LINE('',#1827,#479);
#341=LINE('',#1830,#480);
#342=LINE('',#1832,#481);
#343=LINE('',#1833,#482);
#344=LINE('',#1835,#483);
#345=LINE('',#1836,#484);
#346=LINE('',#1843,#485);
#347=LINE('',#1849,#486);
#348=LINE('',#1857,#487);
#349=LINE('',#1863,#488);
#350=LINE('',#1871,#489);
#351=LINE('',#1877,#490);
#352=LINE('',#1885,#491);
#353=VECTOR('',#1270,10.);
#354=VECTOR('',#1271,10.);
#355=VECTOR('',#1272,10.);
#356=VECTOR('',#1273,10.);
#357=VECTOR('',#1276,10.);
#358=VECTOR('',#1277,10.);
#359=VECTOR('',#1278,10.);
#360=VECTOR('',#1281,10.);
#361=VECTOR('',#1282,10.);
#362=VECTOR('',#1283,10.);
#363=VECTOR('',#1286,10.);
#364=VECTOR('',#1287,10.);
#365=VECTOR('',#1290,10.);
#366=VECTOR('',#1291,10.);
#367=VECTOR('',#1292,10.);
#368=VECTOR('',#1293,10.);
#369=VECTOR('',#1296,10.);
#370=VECTOR('',#1297,10.);
#371=VECTOR('',#1298,10.);
#372=VECTOR('',#1301,10.);
#373=VECTOR('',#1302,10.);
#374=VECTOR('',#1303,10.);
#375=VECTOR('',#1306,10.);
#376=VECTOR('',#1307,10.);
#377=VECTOR('',#1310,10.);
#378=VECTOR('',#1311,10.);
#379=VECTOR('',#1312,10.);
#380=VECTOR('',#1313,10.);
#381=VECTOR('',#1314,10.);
#382=VECTOR('',#1315,10.);
#383=VECTOR('',#1316,10.);
#384=VECTOR('',#1317,10.);
#385=VECTOR('',#1320,10.);
#386=VECTOR('',#1321,10.);
#387=VECTOR('',#1322,10.);
#388=VECTOR('',#1323,10.);
#389=VECTOR('',#1326,10.);
#390=VECTOR('',#1327,10.);
#391=VECTOR('',#1330,10.);
#392=VECTOR('',#1333,10.);
#393=VECTOR('',#1334,10.);
#394=VECTOR('',#1335,10.);
#395=VECTOR('',#1336,10.);
#396=VECTOR('',#1339,10.);
#397=VECTOR('',#1344,10.);
#398=VECTOR('',#1345,10.);
#399=VECTOR('',#1348,10.);
#400=VECTOR('',#1351,10.);
#401=VECTOR('',#1356,10.);
#402=VECTOR('',#1357,10.);
#403=VECTOR('',#1358,10.);
#404=VECTOR('',#1359,10.);
#405=VECTOR('',#1362,10.);
#406=VECTOR('',#1363,10.);
#407=VECTOR('',#1364,10.);
#408=VECTOR('',#1367,10.);
#409=VECTOR('',#1368,10.);
#410=VECTOR('',#1369,10.);
#411=VECTOR('',#1372,10.);
#412=VECTOR('',#1373,10.);
#413=VECTOR('',#1376,10.);
#414=VECTOR('',#1377,10.);
#415=VECTOR('',#1378,10.);
#416=VECTOR('',#1379,10.);
#417=VECTOR('',#1382,10.);
#418=VECTOR('',#1383,10.);
#419=VECTOR('',#1384,10.);
#420=VECTOR('',#1387,10.);
#421=VECTOR('',#1388,10.);
#422=VECTOR('',#1389,10.);
#423=VECTOR('',#1392,10.);
#424=VECTOR('',#1393,10.);
#425=VECTOR('',#1400,10.);
#426=VECTOR('',#1401,10.);
#427=VECTOR('',#1402,10.);
#428=VECTOR('',#1403,10.);
#429=VECTOR('',#1406,10.);
#430=VECTOR('',#1407,10.);
#431=VECTOR('',#1408,10.);
#432=VECTOR('',#1411,10.);
#433=VECTOR('',#1412,10.);
#434=VECTOR('',#1413,10.);
#435=VECTOR('',#1416,10.);
#436=VECTOR('',#1417,10.);
#437=VECTOR('',#1418,10.);
#438=VECTOR('',#1421,10.);
#439=VECTOR('',#1422,10.);
#440=VECTOR('',#1423,10.);
#441=VECTOR('',#1426,10.);
#442=VECTOR('',#1427,10.);
#443=VECTOR('',#1428,10.);
#444=VECTOR('',#1431,10.);
#445=VECTOR('',#1432,10.);
#446=VECTOR('',#1433,10.);
#447=VECTOR('',#1436,10.);
#448=VECTOR('',#1437,10.);
#449=VECTOR('',#1438,10.);
#450=VECTOR('',#1441,10.);
#451=VECTOR('',#1442,10.);
#452=VECTOR('',#1443,10.);
#453=VECTOR('',#1446,10.);
#454=VECTOR('',#1447,10.);
#455=VECTOR('',#1448,10.);
#456=VECTOR('',#1451,10.);
#457=VECTOR('',#1452,10.);
#458=VECTOR('',#1453,10.);
#459=VECTOR('',#1456,10.);
#460=VECTOR('',#1457,10.);
#461=VECTOR('',#1460,10.);
#462=VECTOR('',#1461,10.);
#463=VECTOR('',#1462,10.);
#464=VECTOR('',#1463,10.);
#465=VECTOR('',#1466,10.);
#466=VECTOR('',#1467,10.);
#467=VECTOR('',#1468,10.);
#468=VECTOR('',#1471,10.);
#469=VECTOR('',#1472,10.);
#470=VECTOR('',#1473,10.);
#471=VECTOR('',#1476,10.);
#472=VECTOR('',#1477,10.);
#473=VECTOR('',#1480,10.);
#474=VECTOR('',#1481,10.);
#475=VECTOR('',#1482,10.);
#476=VECTOR('',#1483,10.);
#477=VECTOR('',#1486,10.);
#478=VECTOR('',#1487,10.);
#479=VECTOR('',#1488,10.);
#480=VECTOR('',#1491,10.);
#481=VECTOR('',#1492,10.);
#482=VECTOR('',#1493,10.);
#483=VECTOR('',#1496,10.);
#484=VECTOR('',#1497,10.);
#485=VECTOR('',#1506,1.25);
#486=VECTOR('',#1513,1.99999999999999);
#487=VECTOR('',#1524,1.25);
#488=VECTOR('',#1531,1.99999999999999);
#489=VECTOR('',#1542,1.25);
#490=VECTOR('',#1549,2.00000000000001);
#491=VECTOR('',#1560,1.99999999999999);
#492=VERTEX_POINT('',#1569);
#493=VERTEX_POINT('',#1570);
#494=VERTEX_POINT('',#1572);
#495=VERTEX_POINT('',#1574);
#496=VERTEX_POINT('',#1578);
#497=VERTEX_POINT('',#1580);
#498=VERTEX_POINT('',#1584);
#499=VERTEX_POINT('',#1586);
#500=VERTEX_POINT('',#1593);
#501=VERTEX_POINT('',#1594);
#502=VERTEX_POINT('',#1596);
#503=VERTEX_POINT('',#1598);
#504=VERTEX_POINT('',#1602);
#505=VERTEX_POINT('',#1604);
#506=VERTEX_POINT('',#1608);
#507=VERTEX_POINT('',#1610);
#508=VERTEX_POINT('',#1617);
#509=VERTEX_POINT('',#1618);
#510=VERTEX_POINT('',#1620);
#511=VERTEX_POINT('',#1622);
#512=VERTEX_POINT('',#1625);
#513=VERTEX_POINT('',#1626);
#514=VERTEX_POINT('',#1628);
#515=VERTEX_POINT('',#1630);
#516=VERTEX_POINT('',#1634);
#517=VERTEX_POINT('',#1635);
#518=VERTEX_POINT('',#1637);
#519=VERTEX_POINT('',#1639);
#520=VERTEX_POINT('',#1648);
#521=VERTEX_POINT('',#1649);
#522=VERTEX_POINT('',#1651);
#523=VERTEX_POINT('',#1653);
#524=VERTEX_POINT('',#1668);
#525=VERTEX_POINT('',#1669);
#526=VERTEX_POINT('',#1671);
#527=VERTEX_POINT('',#1673);
#528=VERTEX_POINT('',#1677);
#529=VERTEX_POINT('',#1679);
#530=VERTEX_POINT('',#1683);
#531=VERTEX_POINT('',#1685);
#532=VERTEX_POINT('',#1692);
#533=VERTEX_POINT('',#1693);
#534=VERTEX_POINT('',#1695);
#535=VERTEX_POINT('',#1697);
#536=VERTEX_POINT('',#1701);
#537=VERTEX_POINT('',#1703);
#538=VERTEX_POINT('',#1707);
#539=VERTEX_POINT('',#1709);
#540=VERTEX_POINT('',#1718);
#541=VERTEX_POINT('',#1719);
#542=VERTEX_POINT('',#1721);
#543=VERTEX_POINT('',#1723);
#544=VERTEX_POINT('',#1727);
#545=VERTEX_POINT('',#1729);
#546=VERTEX_POINT('',#1733);
#547=VERTEX_POINT('',#1735);
#548=VERTEX_POINT('',#1739);
#549=VERTEX_POINT('',#1741);
#550=VERTEX_POINT('',#1745);
#551=VERTEX_POINT('',#1747);
#552=VERTEX_POINT('',#1751);
#553=VERTEX_POINT('',#1753);
#554=VERTEX_POINT('',#1757);
#555=VERTEX_POINT('',#1759);
#556=VERTEX_POINT('',#1763);
#557=VERTEX_POINT('',#1765);
#558=VERTEX_POINT('',#1769);
#559=VERTEX_POINT('',#1771);
#560=VERTEX_POINT('',#1775);
#561=VERTEX_POINT('',#1777);
#562=VERTEX_POINT('',#1781);
#563=VERTEX_POINT('',#1783);
#564=VERTEX_POINT('',#1790);
#565=VERTEX_POINT('',#1791);
#566=VERTEX_POINT('',#1793);
#567=VERTEX_POINT('',#1795);
#568=VERTEX_POINT('',#1799);
#569=VERTEX_POINT('',#1801);
#570=VERTEX_POINT('',#1805);
#571=VERTEX_POINT('',#1807);
#572=VERTEX_POINT('',#1814);
#573=VERTEX_POINT('',#1815);
#574=VERTEX_POINT('',#1817);
#575=VERTEX_POINT('',#1819);
#576=VERTEX_POINT('',#1823);
#577=VERTEX_POINT('',#1825);
#578=VERTEX_POINT('',#1829);
#579=VERTEX_POINT('',#1831);
#580=VERTEX_POINT('',#1840);
#581=VERTEX_POINT('',#1842);
#582=VERTEX_POINT('',#1846);
#583=VERTEX_POINT('',#1848);
#584=VERTEX_POINT('',#1854);
#585=VERTEX_POINT('',#1856);
#586=VERTEX_POINT('',#1860);
#587=VERTEX_POINT('',#1862);
#588=VERTEX_POINT('',#1868);
#589=VERTEX_POINT('',#1870);
#590=VERTEX_POINT('',#1874);
#591=VERTEX_POINT('',#1876);
#592=VERTEX_POINT('',#1882);
#593=VERTEX_POINT('',#1884);
#594=EDGE_CURVE('',#492,#493,#214,.T.);
#595=EDGE_CURVE('',#494,#492,#215,.T.);
#596=EDGE_CURVE('',#495,#494,#216,.T.);
#597=EDGE_CURVE('',#495,#493,#217,.T.);
#598=EDGE_CURVE('',#493,#496,#218,.T.);
#599=EDGE_CURVE('',#497,#495,#219,.T.);
#600=EDGE_CURVE('',#497,#496,#220,.T.);
#601=EDGE_CURVE('',#496,#498,#221,.T.);
#602=EDGE_CURVE('',#499,#497,#222,.T.);
#603=EDGE_CURVE('',#499,#498,#223,.T.);
#604=EDGE_CURVE('',#498,#492,#224,.T.);
#605=EDGE_CURVE('',#494,#499,#225,.T.);
#606=EDGE_CURVE('',#500,#501,#226,.T.);
#607=EDGE_CURVE('',#502,#500,#227,.T.);
#608=EDGE_CURVE('',#503,#502,#228,.T.);
#609=EDGE_CURVE('',#503,#501,#229,.T.);
#610=EDGE_CURVE('',#501,#504,#230,.T.);
#611=EDGE_CURVE('',#505,#503,#231,.T.);
#612=EDGE_CURVE('',#505,#504,#232,.T.);
#613=EDGE_CURVE('',#504,#506,#233,.T.);
#614=EDGE_CURVE('',#507,#505,#234,.T.);
#615=EDGE_CURVE('',#507,#506,#235,.T.);
#616=EDGE_CURVE('',#506,#500,#236,.T.);
#617=EDGE_CURVE('',#502,#507,#237,.T.);
#618=EDGE_CURVE('',#508,#509,#238,.T.);
#619=EDGE_CURVE('',#509,#510,#239,.T.);
#620=EDGE_CURVE('',#510,#511,#240,.T.);
#621=EDGE_CURVE('',#511,#508,#241,.T.);
#622=EDGE_CURVE('',#512,#513,#242,.T.);
#623=EDGE_CURVE('',#513,#514,#243,.T.);
#624=EDGE_CURVE('',#514,#515,#244,.T.);
#625=EDGE_CURVE('',#515,#512,#245,.T.);
#626=EDGE_CURVE('',#516,#517,#246,.T.);
#627=EDGE_CURVE('',#518,#516,#247,.T.);
#628=EDGE_CURVE('',#519,#518,#248,.T.);
#629=EDGE_CURVE('',#517,#519,#249,.T.);
#630=EDGE_CURVE('',#512,#516,#250,.T.);
#631=EDGE_CURVE('',#518,#515,#251,.T.);
#632=EDGE_CURVE('',#517,#513,#252,.T.);
#633=EDGE_CURVE('',#520,#521,#253,.T.);
#634=EDGE_CURVE('',#521,#522,#254,.T.);
#635=EDGE_CURVE('',#522,#523,#255,.T.);
#636=EDGE_CURVE('',#523,#520,#256,.T.);
#637=EDGE_CURVE('',#519,#514,#257,.T.);
#638=EDGE_CURVE('',#520,#509,#258,.T.);
#639=EDGE_CURVE('',#523,#510,#259,.T.);
#640=EDGE_CURVE('',#522,#511,#260,.T.);
#641=EDGE_CURVE('',#508,#521,#261,.T.);
#642=EDGE_CURVE('',#524,#525,#262,.T.);
#643=EDGE_CURVE('',#525,#526,#263,.T.);
#644=EDGE_CURVE('',#527,#526,#264,.T.);
#645=EDGE_CURVE('',#524,#527,#265,.T.);
#646=EDGE_CURVE('',#528,#524,#266,.T.);
#647=EDGE_CURVE('',#529,#527,#267,.T.);
#648=EDGE_CURVE('',#528,#529,#268,.T.);
#649=EDGE_CURVE('',#530,#528,#269,.T.);
#650=EDGE_CURVE('',#531,#529,#270,.T.);
#651=EDGE_CURVE('',#530,#531,#271,.T.);
#652=EDGE_CURVE('',#525,#530,#272,.T.);
#653=EDGE_CURVE('',#526,#531,#273,.T.);
#654=EDGE_CURVE('',#532,#533,#274,.T.);
#655=EDGE_CURVE('',#533,#534,#275,.T.);
#656=EDGE_CURVE('',#535,#534,#276,.T.);
#657=EDGE_CURVE('',#532,#535,#277,.T.);
#658=EDGE_CURVE('',#536,#532,#278,.T.);
#659=EDGE_CURVE('',#537,#535,#279,.T.);
#660=EDGE_CURVE('',#536,#537,#280,.T.);
#661=EDGE_CURVE('',#538,#536,#281,.T.);
#662=EDGE_CURVE('',#539,#537,#282,.T.);
#663=EDGE_CURVE('',#538,#539,#283,.T.);
#664=EDGE_CURVE('',#533,#538,#284,.T.);
#665=EDGE_CURVE('',#534,#539,#285,.T.);
#666=EDGE_CURVE('',#540,#541,#286,.T.);
#667=EDGE_CURVE('',#542,#540,#287,.T.);
#668=EDGE_CURVE('',#543,#542,#288,.T.);
#669=EDGE_CURVE('',#543,#541,#289,.T.);
#670=EDGE_CURVE('',#541,#544,#290,.T.);
#671=EDGE_CURVE('',#545,#543,#291,.T.);
#672=EDGE_CURVE('',#545,#544,#292,.T.);
#673=EDGE_CURVE('',#544,#546,#293,.T.);
#674=EDGE_CURVE('',#547,#545,#294,.T.);
#675=EDGE_CURVE('',#547,#546,#295,.T.);
#676=EDGE_CURVE('',#546,#548,#296,.T.);
#677=EDGE_CURVE('',#549,#547,#297,.T.);
#678=EDGE_CURVE('',#549,#548,#298,.T.);
#679=EDGE_CURVE('',#548,#550,#299,.T.);
#680=EDGE_CURVE('',#551,#549,#300,.T.);
#681=EDGE_CURVE('',#551,#550,#301,.T.);
#682=EDGE_CURVE('',#550,#552,#302,.T.);
#683=EDGE_CURVE('',#553,#551,#303,.T.);
#684=EDGE_CURVE('',#553,#552,#304,.T.);
#685=EDGE_CURVE('',#552,#554,#305,.T.);
#686=EDGE_CURVE('',#555,#553,#306,.T.);
#687=EDGE_CURVE('',#555,#554,#307,.T.);
#688=EDGE_CURVE('',#554,#556,#308,.T.);
#689=EDGE_CURVE('',#557,#555,#309,.T.);
#690=EDGE_CURVE('',#557,#556,#310,.T.);
#691=EDGE_CURVE('',#556,#558,#311,.T.);
#692=EDGE_CURVE('',#559,#557,#312,.T.);
#693=EDGE_CURVE('',#559,#558,#313,.T.);
#694=EDGE_CURVE('',#558,#560,#314,.T.);
#695=EDGE_CURVE('',#561,#559,#315,.T.);
#696=EDGE_CURVE('',#561,#560,#316,.T.);
#697=EDGE_CURVE('',#560,#562,#317,.T.);
#698=EDGE_CURVE('',#563,#561,#318,.T.);
#699=EDGE_CURVE('',#563,#562,#319,.T.);
#700=EDGE_CURVE('',#562,#540,#320,.T.);
#701=EDGE_CURVE('',#542,#563,#321,.T.);
#702=EDGE_CURVE('',#564,#565,#322,.T.);
#703=EDGE_CURVE('',#566,#564,#323,.T.);
#704=EDGE_CURVE('',#567,#566,#324,.T.);
#705=EDGE_CURVE('',#567,#565,#325,.T.);
#706=EDGE_CURVE('',#565,#568,#326,.T.);
#707=EDGE_CURVE('',#569,#567,#327,.T.);
#708=EDGE_CURVE('',#569,#568,#328,.T.);
#709=EDGE_CURVE('',#568,#570,#329,.T.);
#710=EDGE_CURVE('',#571,#569,#330,.T.);
#711=EDGE_CURVE('',#571,#570,#331,.T.);
#712=EDGE_CURVE('',#570,#564,#332,.T.);
#713=EDGE_CURVE('',#566,#571,#333,.T.);
#714=EDGE_CURVE('',#572,#573,#334,.T.);
#715=EDGE_CURVE('',#572,#574,#335,.T.);
#716=EDGE_CURVE('',#575,#574,#336,.T.);
#717=EDGE_CURVE('',#573,#575,#337,.T.);
#718=EDGE_CURVE('',#573,#576,#338,.T.);
#719=EDGE_CURVE('',#577,#575,#339,.T.);
#720=EDGE_CURVE('',#576,#577,#340,.T.);
#721=EDGE_CURVE('',#578,#576,#341,.T.);
#722=EDGE_CURVE('',#579,#577,#342,.T.);
#723=EDGE_CURVE('',#578,#579,#343,.T.);
#724=EDGE_CURVE('',#572,#578,#344,.T.);
#725=EDGE_CURVE('',#574,#579,#345,.T.);
#726=EDGE_CURVE('',#580,#580,#13,.T.);
#727=EDGE_CURVE('',#580,#581,#346,.T.);
#728=EDGE_CURVE('',#581,#581,#14,.T.);
#729=EDGE_CURVE('',#582,#582,#15,.T.);
#730=EDGE_CURVE('',#582,#583,#347,.T.);
#731=EDGE_CURVE('',#583,#583,#16,.T.);
#732=EDGE_CURVE('',#584,#584,#17,.T.);
#733=EDGE_CURVE('',#584,#585,#348,.T.);
#734=EDGE_CURVE('',#585,#585,#18,.T.);
#735=EDGE_CURVE('',#586,#586,#19,.T.);
#736=EDGE_CURVE('',#586,#587,#349,.T.);
#737=EDGE_CURVE('',#587,#587,#20,.T.);
#738=EDGE_CURVE('',#588,#588,#21,.T.);
#739=EDGE_CURVE('',#588,#589,#350,.T.);
#740=EDGE_CURVE('',#589,#589,#22,.T.);
#741=EDGE_CURVE('',#590,#590,#23,.T.);
#742=EDGE_CURVE('',#590,#591,#351,.T.);
#743=EDGE_CURVE('',#591,#591,#24,.T.);
#744=EDGE_CURVE('',#592,#592,#25,.T.);
#745=EDGE_CURVE('',#592,#593,#352,.T.);
#746=EDGE_CURVE('',#593,#593,#26,.T.);
#747=ORIENTED_EDGE('',*,*,#594,.F.);
#748=ORIENTED_EDGE('',*,*,#595,.F.);
#749=ORIENTED_EDGE('',*,*,#596,.F.);
#750=ORIENTED_EDGE('',*,*,#597,.T.);
#751=ORIENTED_EDGE('',*,*,#598,.F.);
#752=ORIENTED_EDGE('',*,*,#597,.F.);
#753=ORIENTED_EDGE('',*,*,#599,.F.);
#754=ORIENTED_EDGE('',*,*,#600,.T.);
#755=ORIENTED_EDGE('',*,*,#601,.F.);
#756=ORIENTED_EDGE('',*,*,#600,.F.);
#757=ORIENTED_EDGE('',*,*,#602,.F.);
#758=ORIENTED_EDGE('',*,*,#603,.T.);
#759=ORIENTED_EDGE('',*,*,#604,.F.);
#760=ORIENTED_EDGE('',*,*,#603,.F.);
#761=ORIENTED_EDGE('',*,*,#605,.F.);
#762=ORIENTED_EDGE('',*,*,#595,.T.);
#763=ORIENTED_EDGE('',*,*,#606,.F.);
#764=ORIENTED_EDGE('',*,*,#607,.F.);
#765=ORIENTED_EDGE('',*,*,#608,.F.);
#766=ORIENTED_EDGE('',*,*,#609,.T.);
#767=ORIENTED_EDGE('',*,*,#610,.F.);
#768=ORIENTED_EDGE('',*,*,#609,.F.);
#769=ORIENTED_EDGE('',*,*,#611,.F.);
#770=ORIENTED_EDGE('',*,*,#612,.T.);
#771=ORIENTED_EDGE('',*,*,#613,.F.);
#772=ORIENTED_EDGE('',*,*,#612,.F.);
#773=ORIENTED_EDGE('',*,*,#614,.F.);
#774=ORIENTED_EDGE('',*,*,#615,.T.);
#775=ORIENTED_EDGE('',*,*,#616,.F.);
#776=ORIENTED_EDGE('',*,*,#615,.F.);
#777=ORIENTED_EDGE('',*,*,#617,.F.);
#778=ORIENTED_EDGE('',*,*,#607,.T.);
#779=ORIENTED_EDGE('',*,*,#618,.T.);
#780=ORIENTED_EDGE('',*,*,#619,.T.);
#781=ORIENTED_EDGE('',*,*,#620,.T.);
#782=ORIENTED_EDGE('',*,*,#621,.T.);
#783=ORIENTED_EDGE('',*,*,#622,.T.);
#784=ORIENTED_EDGE('',*,*,#623,.T.);
#785=ORIENTED_EDGE('',*,*,#624,.T.);
#786=ORIENTED_EDGE('',*,*,#625,.T.);
#787=ORIENTED_EDGE('',*,*,#626,.F.);
#788=ORIENTED_EDGE('',*,*,#627,.F.);
#789=ORIENTED_EDGE('',*,*,#628,.F.);
#790=ORIENTED_EDGE('',*,*,#629,.F.);
#791=ORIENTED_EDGE('',*,*,#627,.T.);
#792=ORIENTED_EDGE('',*,*,#630,.F.);
#793=ORIENTED_EDGE('',*,*,#625,.F.);
#794=ORIENTED_EDGE('',*,*,#631,.F.);
#795=ORIENTED_EDGE('',*,*,#626,.T.);
#796=ORIENTED_EDGE('',*,*,#632,.T.);
#797=ORIENTED_EDGE('',*,*,#622,.F.);
#798=ORIENTED_EDGE('',*,*,#630,.T.);
#799=ORIENTED_EDGE('',*,*,#633,.T.);
#800=ORIENTED_EDGE('',*,*,#634,.T.);
#801=ORIENTED_EDGE('',*,*,#635,.T.);
#802=ORIENTED_EDGE('',*,*,#636,.T.);
#803=ORIENTED_EDGE('',*,*,#629,.T.);
#804=ORIENTED_EDGE('',*,*,#637,.T.);
#805=ORIENTED_EDGE('',*,*,#623,.F.);
#806=ORIENTED_EDGE('',*,*,#632,.F.);
#807=ORIENTED_EDGE('',*,*,#601,.T.);
#808=ORIENTED_EDGE('',*,*,#604,.T.);
#809=ORIENTED_EDGE('',*,*,#594,.T.);
#810=ORIENTED_EDGE('',*,*,#598,.T.);
#811=ORIENTED_EDGE('',*,*,#628,.T.);
#812=ORIENTED_EDGE('',*,*,#631,.T.);
#813=ORIENTED_EDGE('',*,*,#624,.F.);
#814=ORIENTED_EDGE('',*,*,#637,.F.);
#815=ORIENTED_EDGE('',*,*,#613,.T.);
#816=ORIENTED_EDGE('',*,*,#616,.T.);
#817=ORIENTED_EDGE('',*,*,#606,.T.);
#818=ORIENTED_EDGE('',*,*,#610,.T.);
#819=ORIENTED_EDGE('',*,*,#638,.F.);
#820=ORIENTED_EDGE('',*,*,#636,.F.);
#821=ORIENTED_EDGE('',*,*,#639,.T.);
#822=ORIENTED_EDGE('',*,*,#619,.F.);
#823=ORIENTED_EDGE('',*,*,#639,.F.);
#824=ORIENTED_EDGE('',*,*,#635,.F.);
#825=ORIENTED_EDGE('',*,*,#640,.T.);
#826=ORIENTED_EDGE('',*,*,#620,.F.);
#827=ORIENTED_EDGE('',*,*,#614,.T.);
#828=ORIENTED_EDGE('',*,*,#611,.T.);
#829=ORIENTED_EDGE('',*,*,#608,.T.);
#830=ORIENTED_EDGE('',*,*,#617,.T.);
#831=ORIENTED_EDGE('',*,*,#640,.F.);
#832=ORIENTED_EDGE('',*,*,#634,.F.);
#833=ORIENTED_EDGE('',*,*,#641,.F.);
#834=ORIENTED_EDGE('',*,*,#621,.F.);
#835=ORIENTED_EDGE('',*,*,#602,.T.);
#836=ORIENTED_EDGE('',*,*,#599,.T.);
#837=ORIENTED_EDGE('',*,*,#596,.T.);
#838=ORIENTED_EDGE('',*,*,#605,.T.);
#839=ORIENTED_EDGE('',*,*,#641,.T.);
#840=ORIENTED_EDGE('',*,*,#633,.F.);
#841=ORIENTED_EDGE('',*,*,#638,.T.);
#842=ORIENTED_EDGE('',*,*,#618,.F.);
#843=ORIENTED_EDGE('',*,*,#642,.T.);
#844=ORIENTED_EDGE('',*,*,#643,.T.);
#845=ORIENTED_EDGE('',*,*,#644,.F.);
#846=ORIENTED_EDGE('',*,*,#645,.F.);
#847=ORIENTED_EDGE('',*,*,#646,.T.);
#848=ORIENTED_EDGE('',*,*,#645,.T.);
#849=ORIENTED_EDGE('',*,*,#647,.F.);
#850=ORIENTED_EDGE('',*,*,#648,.F.);
#851=ORIENTED_EDGE('',*,*,#649,.T.);
#852=ORIENTED_EDGE('',*,*,#648,.T.);
#853=ORIENTED_EDGE('',*,*,#650,.F.);
#854=ORIENTED_EDGE('',*,*,#651,.F.);
#855=ORIENTED_EDGE('',*,*,#652,.T.);
#856=ORIENTED_EDGE('',*,*,#651,.T.);
#857=ORIENTED_EDGE('',*,*,#653,.F.);
#858=ORIENTED_EDGE('',*,*,#643,.F.);
#859=ORIENTED_EDGE('',*,*,#654,.T.);
#860=ORIENTED_EDGE('',*,*,#655,.T.);
#861=ORIENTED_EDGE('',*,*,#656,.F.);
#862=ORIENTED_EDGE('',*,*,#657,.F.);
#863=ORIENTED_EDGE('',*,*,#658,.T.);
#864=ORIENTED_EDGE('',*,*,#657,.T.);
#865=ORIENTED_EDGE('',*,*,#659,.F.);
#866=ORIENTED_EDGE('',*,*,#660,.F.);
#867=ORIENTED_EDGE('',*,*,#661,.T.);
#868=ORIENTED_EDGE('',*,*,#660,.T.);
#869=ORIENTED_EDGE('',*,*,#662,.F.);
#870=ORIENTED_EDGE('',*,*,#663,.F.);
#871=ORIENTED_EDGE('',*,*,#664,.T.);
#872=ORIENTED_EDGE('',*,*,#663,.T.);
#873=ORIENTED_EDGE('',*,*,#665,.F.);
#874=ORIENTED_EDGE('',*,*,#655,.F.);
#875=ORIENTED_EDGE('',*,*,#665,.T.);
#876=ORIENTED_EDGE('',*,*,#662,.T.);
#877=ORIENTED_EDGE('',*,*,#659,.T.);
#878=ORIENTED_EDGE('',*,*,#656,.T.);
#879=ORIENTED_EDGE('',*,*,#653,.T.);
#880=ORIENTED_EDGE('',*,*,#650,.T.);
#881=ORIENTED_EDGE('',*,*,#647,.T.);
#882=ORIENTED_EDGE('',*,*,#644,.T.);
#883=ORIENTED_EDGE('',*,*,#664,.F.);
#884=ORIENTED_EDGE('',*,*,#654,.F.);
#885=ORIENTED_EDGE('',*,*,#658,.F.);
#886=ORIENTED_EDGE('',*,*,#661,.F.);
#887=ORIENTED_EDGE('',*,*,#652,.F.);
#888=ORIENTED_EDGE('',*,*,#642,.F.);
#889=ORIENTED_EDGE('',*,*,#646,.F.);
#890=ORIENTED_EDGE('',*,*,#649,.F.);
#891=ORIENTED_EDGE('',*,*,#666,.F.);
#892=ORIENTED_EDGE('',*,*,#667,.F.);
#893=ORIENTED_EDGE('',*,*,#668,.F.);
#894=ORIENTED_EDGE('',*,*,#669,.T.);
#895=ORIENTED_EDGE('',*,*,#670,.F.);
#896=ORIENTED_EDGE('',*,*,#669,.F.);
#897=ORIENTED_EDGE('',*,*,#671,.F.);
#898=ORIENTED_EDGE('',*,*,#672,.T.);
#899=ORIENTED_EDGE('',*,*,#673,.F.);
#900=ORIENTED_EDGE('',*,*,#672,.F.);
#901=ORIENTED_EDGE('',*,*,#674,.F.);
#902=ORIENTED_EDGE('',*,*,#675,.T.);
#903=ORIENTED_EDGE('',*,*,#676,.F.);
#904=ORIENTED_EDGE('',*,*,#675,.F.);
#905=ORIENTED_EDGE('',*,*,#677,.F.);
#906=ORIENTED_EDGE('',*,*,#678,.T.);
#907=ORIENTED_EDGE('',*,*,#679,.F.);
#908=ORIENTED_EDGE('',*,*,#678,.F.);
#909=ORIENTED_EDGE('',*,*,#680,.F.);
#910=ORIENTED_EDGE('',*,*,#681,.T.);
#911=ORIENTED_EDGE('',*,*,#682,.F.);
#912=ORIENTED_EDGE('',*,*,#681,.F.);
#913=ORIENTED_EDGE('',*,*,#683,.F.);
#914=ORIENTED_EDGE('',*,*,#684,.T.);
#915=ORIENTED_EDGE('',*,*,#685,.F.);
#916=ORIENTED_EDGE('',*,*,#684,.F.);
#917=ORIENTED_EDGE('',*,*,#686,.F.);
#918=ORIENTED_EDGE('',*,*,#687,.T.);
#919=ORIENTED_EDGE('',*,*,#688,.F.);
#920=ORIENTED_EDGE('',*,*,#687,.F.);
#921=ORIENTED_EDGE('',*,*,#689,.F.);
#922=ORIENTED_EDGE('',*,*,#690,.T.);
#923=ORIENTED_EDGE('',*,*,#691,.F.);
#924=ORIENTED_EDGE('',*,*,#690,.F.);
#925=ORIENTED_EDGE('',*,*,#692,.F.);
#926=ORIENTED_EDGE('',*,*,#693,.T.);
#927=ORIENTED_EDGE('',*,*,#694,.F.);
#928=ORIENTED_EDGE('',*,*,#693,.F.);
#929=ORIENTED_EDGE('',*,*,#695,.F.);
#930=ORIENTED_EDGE('',*,*,#696,.T.);
#931=ORIENTED_EDGE('',*,*,#697,.F.);
#932=ORIENTED_EDGE('',*,*,#696,.F.);
#933=ORIENTED_EDGE('',*,*,#698,.F.);
#934=ORIENTED_EDGE('',*,*,#699,.T.);
#935=ORIENTED_EDGE('',*,*,#700,.F.);
#936=ORIENTED_EDGE('',*,*,#699,.F.);
#937=ORIENTED_EDGE('',*,*,#701,.F.);
#938=ORIENTED_EDGE('',*,*,#667,.T.);
#939=ORIENTED_EDGE('',*,*,#702,.F.);
#940=ORIENTED_EDGE('',*,*,#703,.F.);
#941=ORIENTED_EDGE('',*,*,#704,.F.);
#942=ORIENTED_EDGE('',*,*,#705,.T.);
#943=ORIENTED_EDGE('',*,*,#706,.F.);
#944=ORIENTED_EDGE('',*,*,#705,.F.);
#945=ORIENTED_EDGE('',*,*,#707,.F.);
#946=ORIENTED_EDGE('',*,*,#708,.T.);
#947=ORIENTED_EDGE('',*,*,#709,.F.);
#948=ORIENTED_EDGE('',*,*,#708,.F.);
#949=ORIENTED_EDGE('',*,*,#710,.F.);
#950=ORIENTED_EDGE('',*,*,#711,.T.);
#951=ORIENTED_EDGE('',*,*,#712,.F.);
#952=ORIENTED_EDGE('',*,*,#711,.F.);
#953=ORIENTED_EDGE('',*,*,#713,.F.);
#954=ORIENTED_EDGE('',*,*,#703,.T.);
#955=ORIENTED_EDGE('',*,*,#714,.F.);
#956=ORIENTED_EDGE('',*,*,#715,.T.);
#957=ORIENTED_EDGE('',*,*,#716,.F.);
#958=ORIENTED_EDGE('',*,*,#717,.F.);
#959=ORIENTED_EDGE('',*,*,#718,.F.);
#960=ORIENTED_EDGE('',*,*,#717,.T.);
#961=ORIENTED_EDGE('',*,*,#719,.F.);
#962=ORIENTED_EDGE('',*,*,#720,.F.);
#963=ORIENTED_EDGE('',*,*,#686,.T.);
#964=ORIENTED_EDGE('',*,*,#683,.T.);
#965=ORIENTED_EDGE('',*,*,#680,.T.);
#966=ORIENTED_EDGE('',*,*,#677,.T.);
#967=ORIENTED_EDGE('',*,*,#674,.T.);
#968=ORIENTED_EDGE('',*,*,#671,.T.);
#969=ORIENTED_EDGE('',*,*,#668,.T.);
#970=ORIENTED_EDGE('',*,*,#701,.T.);
#971=ORIENTED_EDGE('',*,*,#698,.T.);
#972=ORIENTED_EDGE('',*,*,#695,.T.);
#973=ORIENTED_EDGE('',*,*,#692,.T.);
#974=ORIENTED_EDGE('',*,*,#689,.T.);
#975=ORIENTED_EDGE('',*,*,#710,.T.);
#976=ORIENTED_EDGE('',*,*,#707,.T.);
#977=ORIENTED_EDGE('',*,*,#704,.T.);
#978=ORIENTED_EDGE('',*,*,#713,.T.);
#979=ORIENTED_EDGE('',*,*,#721,.T.);
#980=ORIENTED_EDGE('',*,*,#720,.T.);
#981=ORIENTED_EDGE('',*,*,#722,.F.);
#982=ORIENTED_EDGE('',*,*,#723,.F.);
#983=ORIENTED_EDGE('',*,*,#724,.T.);
#984=ORIENTED_EDGE('',*,*,#723,.T.);
#985=ORIENTED_EDGE('',*,*,#725,.F.);
#986=ORIENTED_EDGE('',*,*,#715,.F.);
#987=ORIENTED_EDGE('',*,*,#685,.T.);
#988=ORIENTED_EDGE('',*,*,#688,.T.);
#989=ORIENTED_EDGE('',*,*,#691,.T.);
#990=ORIENTED_EDGE('',*,*,#694,.T.);
#991=ORIENTED_EDGE('',*,*,#697,.T.);
#992=ORIENTED_EDGE('',*,*,#700,.T.);
#993=ORIENTED_EDGE('',*,*,#666,.T.);
#994=ORIENTED_EDGE('',*,*,#670,.T.);
#995=ORIENTED_EDGE('',*,*,#673,.T.);
#996=ORIENTED_EDGE('',*,*,#676,.T.);
#997=ORIENTED_EDGE('',*,*,#679,.T.);
#998=ORIENTED_EDGE('',*,*,#682,.T.);
#999=ORIENTED_EDGE('',*,*,#709,.T.);
#1000=ORIENTED_EDGE('',*,*,#712,.T.);
#1001=ORIENTED_EDGE('',*,*,#702,.T.);
#1002=ORIENTED_EDGE('',*,*,#706,.T.);
#1003=ORIENTED_EDGE('',*,*,#725,.T.);
#1004=ORIENTED_EDGE('',*,*,#722,.T.);
#1005=ORIENTED_EDGE('',*,*,#719,.T.);
#1006=ORIENTED_EDGE('',*,*,#716,.T.);
#1007=ORIENTED_EDGE('',*,*,#724,.F.);
#1008=ORIENTED_EDGE('',*,*,#714,.T.);
#1009=ORIENTED_EDGE('',*,*,#718,.T.);
#1010=ORIENTED_EDGE('',*,*,#721,.F.);
#1011=ORIENTED_EDGE('',*,*,#726,.F.);
#1012=ORIENTED_EDGE('',*,*,#727,.T.);
#1013=ORIENTED_EDGE('',*,*,#728,.F.);
#1014=ORIENTED_EDGE('',*,*,#727,.F.);
#1015=ORIENTED_EDGE('',*,*,#729,.F.);
#1016=ORIENTED_EDGE('',*,*,#730,.T.);
#1017=ORIENTED_EDGE('',*,*,#731,.F.);
#1018=ORIENTED_EDGE('',*,*,#730,.F.);
#1019=ORIENTED_EDGE('',*,*,#731,.T.);
#1020=ORIENTED_EDGE('',*,*,#728,.T.);
#1021=ORIENTED_EDGE('',*,*,#729,.T.);
#1022=ORIENTED_EDGE('',*,*,#726,.T.);
#1023=ORIENTED_EDGE('',*,*,#732,.F.);
#1024=ORIENTED_EDGE('',*,*,#733,.T.);
#1025=ORIENTED_EDGE('',*,*,#734,.F.);
#1026=ORIENTED_EDGE('',*,*,#733,.F.);
#1027=ORIENTED_EDGE('',*,*,#735,.F.);
#1028=ORIENTED_EDGE('',*,*,#736,.T.);
#1029=ORIENTED_EDGE('',*,*,#737,.F.);
#1030=ORIENTED_EDGE('',*,*,#736,.F.);
#1031=ORIENTED_EDGE('',*,*,#737,.T.);
#1032=ORIENTED_EDGE('',*,*,#734,.T.);
#1033=ORIENTED_EDGE('',*,*,#735,.T.);
#1034=ORIENTED_EDGE('',*,*,#732,.T.);
#1035=ORIENTED_EDGE('',*,*,#738,.F.);
#1036=ORIENTED_EDGE('',*,*,#739,.T.);
#1037=ORIENTED_EDGE('',*,*,#740,.F.);
#1038=ORIENTED_EDGE('',*,*,#739,.F.);
#1039=ORIENTED_EDGE('',*,*,#741,.F.);
#1040=ORIENTED_EDGE('',*,*,#742,.T.);
#1041=ORIENTED_EDGE('',*,*,#743,.F.);
#1042=ORIENTED_EDGE('',*,*,#742,.F.);
#1043=ORIENTED_EDGE('',*,*,#743,.T.);
#1044=ORIENTED_EDGE('',*,*,#740,.T.);
#1045=ORIENTED_EDGE('',*,*,#741,.T.);
#1046=ORIENTED_EDGE('',*,*,#738,.T.);
#1047=ORIENTED_EDGE('',*,*,#744,.F.);
#1048=ORIENTED_EDGE('',*,*,#745,.T.);
#1049=ORIENTED_EDGE('',*,*,#746,.T.);
#1050=ORIENTED_EDGE('',*,*,#745,.F.);
#1051=ORIENTED_EDGE('',*,*,#744,.T.);
#1052=ORIENTED_EDGE('',*,*,#746,.F.);
#1053=PLANE('',#1186);
#1054=PLANE('',#1187);
#1055=PLANE('',#1188);
#1056=PLANE('',#1189);
#1057=PLANE('',#1190);
#1058=PLANE('',#1191);
#1059=PLANE('',#1192);
#1060=PLANE('',#1193);
#1061=PLANE('',#1194);
#1062=PLANE('',#1195);
#1063=PLANE('',#1196);
#1064=PLANE('',#1197);
#1065=PLANE('',#1198);
#1066=PLANE('',#1199);
#1067=PLANE('',#1200);
#1068=PLANE('',#1201);
#1069=PLANE('',#1202);
#1070=PLANE('',#1203);
#1071=PLANE('',#1204);
#1072=PLANE('',#1205);
#1073=PLANE('',#1206);
#1074=PLANE('',#1207);
#1075=PLANE('',#1208);
#1076=PLANE('',#1209);
#1077=PLANE('',#1210);
#1078=PLANE('',#1211);
#1079=PLANE('',#1212);
#1080=PLANE('',#1213);
#1081=PLANE('',#1214);
#1082=PLANE('',#1215);
#1083=PLANE('',#1216);
#1084=PLANE('',#1217);
#1085=PLANE('',#1218);
#1086=PLANE('',#1219);
#1087=PLANE('',#1220);
#1088=PLANE('',#1221);
#1089=PLANE('',#1222);
#1090=PLANE('',#1223);
#1091=PLANE('',#1224);
#1092=PLANE('',#1225);
#1093=PLANE('',#1226);
#1094=PLANE('',#1227);
#1095=PLANE('',#1228);
#1096=PLANE('',#1229);
#1097=PLANE('',#1230);
#1098=PLANE('',#1231);
#1099=PLANE('',#1232);
#1100=PLANE('',#1233);
#1101=PLANE('',#1234);
#1102=PLANE('',#1235);
#1103=PLANE('',#1236);
#1104=PLANE('',#1243);
#1105=PLANE('',#1244);
#1106=PLANE('',#1251);
#1107=PLANE('',#1252);
#1108=PLANE('',#1259);
#1109=PLANE('',#1260);
#1110=PLANE('',#1264);
#1111=PLANE('',#1265);
#1112=ADVANCED_FACE('',(#65),#1053,.F.);
#1113=ADVANCED_FACE('',(#66),#1054,.F.);
#1114=ADVANCED_FACE('',(#67),#1055,.F.);
#1115=ADVANCED_FACE('',(#68),#1056,.F.);
#1116=ADVANCED_FACE('',(#69),#1057,.F.);
#1117=ADVANCED_FACE('',(#70),#1058,.F.);
#1118=ADVANCED_FACE('',(#71),#1059,.F.);
#1119=ADVANCED_FACE('',(#72),#1060,.F.);
#1120=ADVANCED_FACE('',(#73,#48),#1061,.T.);
#1121=ADVANCED_FACE('',(#74),#1062,.T.);
#1122=ADVANCED_FACE('',(#75),#1063,.T.);
#1123=ADVANCED_FACE('',(#76),#1064,.T.);
#1124=ADVANCED_FACE('',(#77),#1065,.T.);
#1125=ADVANCED_FACE('',(#78,#49),#1066,.T.);
#1126=ADVANCED_FACE('',(#79,#50),#1067,.T.);
#1127=ADVANCED_FACE('',(#80),#1068,.T.);
#1128=ADVANCED_FACE('',(#81,#51),#1069,.T.);
#1129=ADVANCED_FACE('',(#82,#52),#1070,.T.);
#1130=ADVANCED_FACE('',(#83),#1071,.T.);
#1131=ADVANCED_FACE('',(#84),#1072,.T.);
#1132=ADVANCED_FACE('',(#85),#1073,.T.);
#1133=ADVANCED_FACE('',(#86),#1074,.T.);
#1134=ADVANCED_FACE('',(#87),#1075,.T.);
#1135=ADVANCED_FACE('',(#88),#1076,.T.);
#1136=ADVANCED_FACE('',(#89),#1077,.T.);
#1137=ADVANCED_FACE('',(#90),#1078,.T.);
#1138=ADVANCED_FACE('',(#91),#1079,.T.);
#1139=ADVANCED_FACE('',(#92,#53),#1080,.T.);
#1140=ADVANCED_FACE('',(#93,#54),#1081,.F.);
#1141=ADVANCED_FACE('',(#94),#1082,.F.);
#1142=ADVANCED_FACE('',(#95),#1083,.F.);
#1143=ADVANCED_FACE('',(#96),#1084,.F.);
#1144=ADVANCED_FACE('',(#97),#1085,.F.);
#1145=ADVANCED_FACE('',(#98),#1086,.F.);
#1146=ADVANCED_FACE('',(#99),#1087,.F.);
#1147=ADVANCED_FACE('',(#100),#1088,.F.);
#1148=ADVANCED_FACE('',(#101),#1089,.F.);
#1149=ADVANCED_FACE('',(#102),#1090,.F.);
#1150=ADVANCED_FACE('',(#103),#1091,.F.);
#1151=ADVANCED_FACE('',(#104),#1092,.F.);
#1152=ADVANCED_FACE('',(#105),#1093,.F.);
#1153=ADVANCED_FACE('',(#106),#1094,.F.);
#1154=ADVANCED_FACE('',(#107),#1095,.F.);
#1155=ADVANCED_FACE('',(#108),#1096,.F.);
#1156=ADVANCED_FACE('',(#109),#1097,.F.);
#1157=ADVANCED_FACE('',(#110),#1098,.T.);
#1158=ADVANCED_FACE('',(#111,#55,#56),#1099,.T.);
#1159=ADVANCED_FACE('',(#112),#1100,.T.);
#1160=ADVANCED_FACE('',(#113,#57,#58),#1101,.T.);
#1161=ADVANCED_FACE('',(#114),#1102,.T.);
#1162=ADVANCED_FACE('',(#115),#1103,.F.);
#1163=ADVANCED_FACE('',(#116),#27,.F.);
#1164=ADVANCED_FACE('',(#117),#28,.T.);
#1165=ADVANCED_FACE('',(#118,#59),#1104,.T.);
#1166=ADVANCED_FACE('',(#119,#60),#1105,.F.);
#1167=ADVANCED_FACE('',(#120),#29,.F.);
#1168=ADVANCED_FACE('',(#121),#30,.T.);
#1169=ADVANCED_FACE('',(#122,#61),#1106,.T.);
#1170=ADVANCED_FACE('',(#123,#62),#1107,.F.);
#1171=ADVANCED_FACE('',(#124),#31,.F.);
#1172=ADVANCED_FACE('',(#125),#32,.T.);
#1173=ADVANCED_FACE('',(#126,#63),#1108,.T.);
#1174=ADVANCED_FACE('',(#127,#64),#1109,.F.);
#1175=ADVANCED_FACE('',(#128),#33,.T.);
#1176=ADVANCED_FACE('',(#129),#1110,.T.);
#1177=ADVANCED_FACE('',(#130),#1111,.F.);
#1178=CLOSED_SHELL('',(#1112,#1113,#1114,#1115,#1116,#1117,#1118,#1119,
#1120,#1121,#1122,#1123,#1124,#1125,#1126,#1127,#1128,#1129,#1130));
#1179=CLOSED_SHELL('',(#1131,#1132,#1133,#1134,#1135,#1136,#1137,#1138,
#1139,#1140));
#1180=CLOSED_SHELL('',(#1141,#1142,#1143,#1144,#1145,#1146,#1147,#1148,
#1149,#1150,#1151,#1152,#1153,#1154,#1155,#1156,#1157,#1158,#1159,#1160,
#1161,#1162));
#1181=CLOSED_SHELL('',(#1163,#1164,#1165,#1166));
#1182=CLOSED_SHELL('',(#1167,#1168,#1169,#1170));
#1183=CLOSED_SHELL('',(#1171,#1172,#1173,#1174));
#1184=CLOSED_SHELL('',(#1175,#1176,#1177));
#1185=AXIS2_PLACEMENT_3D('',#1567,#1266,#1267);
#1186=AXIS2_PLACEMENT_3D('',#1568,#1268,#1269);
#1187=AXIS2_PLACEMENT_3D('',#1577,#1274,#1275);
#1188=AXIS2_PLACEMENT_3D('',#1583,#1279,#1280);
#1189=AXIS2_PLACEMENT_3D('',#1589,#1284,#1285);
#1190=AXIS2_PLACEMENT_3D('',#1592,#1288,#1289);
#1191=AXIS2_PLACEMENT_3D('',#1601,#1294,#1295);
#1192=AXIS2_PLACEMENT_3D('',#1607,#1299,#1300);
#1193=AXIS2_PLACEMENT_3D('',#1613,#1304,#1305);
#1194=AXIS2_PLACEMENT_3D('',#1616,#1308,#1309);
#1195=AXIS2_PLACEMENT_3D('',#1633,#1318,#1319);
#1196=AXIS2_PLACEMENT_3D('',#1642,#1324,#1325);
#1197=AXIS2_PLACEMENT_3D('',#1645,#1328,#1329);
#1198=AXIS2_PLACEMENT_3D('',#1647,#1331,#1332);
#1199=AXIS2_PLACEMENT_3D('',#1656,#1337,#1338);
#1200=AXIS2_PLACEMENT_3D('',#1658,#1340,#1341);
#1201=AXIS2_PLACEMENT_3D('',#1659,#1342,#1343);
#1202=AXIS2_PLACEMENT_3D('',#1662,#1346,#1347);
#1203=AXIS2_PLACEMENT_3D('',#1664,#1349,#1350);
#1204=AXIS2_PLACEMENT_3D('',#1666,#1352,#1353);
#1205=AXIS2_PLACEMENT_3D('',#1667,#1354,#1355);
#1206=AXIS2_PLACEMENT_3D('',#1676,#1360,#1361);
#1207=AXIS2_PLACEMENT_3D('',#1682,#1365,#1366);
#1208=AXIS2_PLACEMENT_3D('',#1688,#1370,#1371);
#1209=AXIS2_PLACEMENT_3D('',#1691,#1374,#1375);
#1210=AXIS2_PLACEMENT_3D('',#1700,#1380,#1381);
#1211=AXIS2_PLACEMENT_3D('',#1706,#1385,#1386);
#1212=AXIS2_PLACEMENT_3D('',#1712,#1390,#1391);
#1213=AXIS2_PLACEMENT_3D('',#1715,#1394,#1395);
#1214=AXIS2_PLACEMENT_3D('',#1716,#1396,#1397);
#1215=AXIS2_PLACEMENT_3D('',#1717,#1398,#1399);
#1216=AXIS2_PLACEMENT_3D('',#1726,#1404,#1405);
#1217=AXIS2_PLACEMENT_3D('',#1732,#1409,#1410);
#1218=AXIS2_PLACEMENT_3D('',#1738,#1414,#1415);
#1219=AXIS2_PLACEMENT_3D('',#1744,#1419,#1420);
#1220=AXIS2_PLACEMENT_3D('',#1750,#1424,#1425);
#1221=AXIS2_PLACEMENT_3D('',#1756,#1429,#1430);
#1222=AXIS2_PLACEMENT_3D('',#1762,#1434,#1435);
#1223=AXIS2_PLACEMENT_3D('',#1768,#1439,#1440);
#1224=AXIS2_PLACEMENT_3D('',#1774,#1444,#1445);
#1225=AXIS2_PLACEMENT_3D('',#1780,#1449,#1450);
#1226=AXIS2_PLACEMENT_3D('',#1786,#1454,#1455);
#1227=AXIS2_PLACEMENT_3D('',#1789,#1458,#1459);
#1228=AXIS2_PLACEMENT_3D('',#1798,#1464,#1465);
#1229=AXIS2_PLACEMENT_3D('',#1804,#1469,#1470);
#1230=AXIS2_PLACEMENT_3D('',#1810,#1474,#1475);
#1231=AXIS2_PLACEMENT_3D('',#1813,#1478,#1479);
#1232=AXIS2_PLACEMENT_3D('',#1822,#1484,#1485);
#1233=AXIS2_PLACEMENT_3D('',#1828,#1489,#1490);
#1234=AXIS2_PLACEMENT_3D('',#1834,#1494,#1495);
#1235=AXIS2_PLACEMENT_3D('',#1837,#1498,#1499);
#1236=AXIS2_PLACEMENT_3D('',#1838,#1500,#1501);
#1237=AXIS2_PLACEMENT_3D('',#1839,#1502,#1503);
#1238=AXIS2_PLACEMENT_3D('',#1841,#1504,#1505);
#1239=AXIS2_PLACEMENT_3D('',#1844,#1507,#1508);
#1240=AXIS2_PLACEMENT_3D('',#1845,#1509,#1510);
#1241=AXIS2_PLACEMENT_3D('',#1847,#1511,#1512);
#1242=AXIS2_PLACEMENT_3D('',#1850,#1514,#1515);
#1243=AXIS2_PLACEMENT_3D('',#1851,#1516,#1517);
#1244=AXIS2_PLACEMENT_3D('',#1852,#1518,#1519);
#1245=AXIS2_PLACEMENT_3D('',#1853,#1520,#1521);
#1246=AXIS2_PLACEMENT_3D('',#1855,#1522,#1523);
#1247=AXIS2_PLACEMENT_3D('',#1858,#1525,#1526);
#1248=AXIS2_PLACEMENT_3D('',#1859,#1527,#1528);
#1249=AXIS2_PLACEMENT_3D('',#1861,#1529,#1530);
#1250=AXIS2_PLACEMENT_3D('',#1864,#1532,#1533);
#1251=AXIS2_PLACEMENT_3D('',#1865,#1534,#1535);
#1252=AXIS2_PLACEMENT_3D('',#1866,#1536,#1537);
#1253=AXIS2_PLACEMENT_3D('',#1867,#1538,#1539);
#1254=AXIS2_PLACEMENT_3D('',#1869,#1540,#1541);
#1255=AXIS2_PLACEMENT_3D('',#1872,#1543,#1544);
#1256=AXIS2_PLACEMENT_3D('',#1873,#1545,#1546);
#1257=AXIS2_PLACEMENT_3D('',#1875,#1547,#1548);
#1258=AXIS2_PLACEMENT_3D('',#1878,#1550,#1551);
#1259=AXIS2_PLACEMENT_3D('',#1879,#1552,#1553);
#1260=AXIS2_PLACEMENT_3D('',#1880,#1554,#1555);
#1261=AXIS2_PLACEMENT_3D('',#1881,#1556,#1557);
#1262=AXIS2_PLACEMENT_3D('',#1883,#1558,#1559);
#1263=AXIS2_PLACEMENT_3D('',#1886,#1561,#1562);
#1264=AXIS2_PLACEMENT_3D('',#1887,#1563,#1564);
#1265=AXIS2_PLACEMENT_3D('',#1888,#1565,#1566);
#1266=DIRECTION('axis',(0.,0.,1.));
#1267=DIRECTION('refdir',(1.,0.,0.));
#1268=DIRECTION('center_axis',(1.,0.,0.));
#1269=DIRECTION('ref_axis',(0.,0.,1.));
#1270=DIRECTION('',(0.,0.,-1.));
#1271=DIRECTION('',(0.,-1.,0.));
#1272=DIRECTION('',(0.,0.,1.));
#1273=DIRECTION('',(0.,-1.,0.));
#1274=DIRECTION('center_axis',(0.,0.,-1.));
#1275=DIRECTION('ref_axis',(1.,0.,0.));
#1276=DIRECTION('',(-1.,-7.71528258587435E-15,0.));
#1277=DIRECTION('',(1.,7.7079801181024E-15,0.));
#1278=DIRECTION('',(0.,-1.,0.));
#1279=DIRECTION('center_axis',(-1.,0.,0.));
#1280=DIRECTION('ref_axis',(0.,0.,-1.));
#1281=DIRECTION('',(0.,0.,1.));
#1282=DIRECTION('',(0.,0.,-1.));
#1283=DIRECTION('',(0.,-1.,0.));
#1284=DIRECTION('center_axis',(0.,0.,1.));
#1285=DIRECTION('ref_axis',(-1.,0.,0.));
#1286=DIRECTION('',(1.,7.71528258587435E-15,0.));
#1287=DIRECTION('',(-1.,-7.7079801181024E-15,0.));
#1288=DIRECTION('center_axis',(0.,-1.,0.));
#1289=DIRECTION('ref_axis',(0.,0.,1.));
#1290=DIRECTION('',(0.,0.,-1.));
#1291=DIRECTION('',(-1.,0.,0.));
#1292=DIRECTION('',(0.,0.,1.));
#1293=DIRECTION('',(-1.,0.,0.));
#1294=DIRECTION('center_axis',(0.,0.,-1.));
#1295=DIRECTION('ref_axis',(0.,-1.,0.));
#1296=DIRECTION('',(-7.61394670739163E-15,1.,0.));
#1297=DIRECTION('',(7.82142274235862E-15,-1.,0.));
#1298=DIRECTION('',(-1.,0.,0.));
#1299=DIRECTION('center_axis',(0.,1.,0.));
#1300=DIRECTION('ref_axis',(0.,0.,-1.));
#1301=DIRECTION('',(0.,0.,1.));
#1302=DIRECTION('',(0.,0.,-1.));
#1303=DIRECTION('',(-1.,0.,0.));
#1304=DIRECTION('center_axis',(0.,0.,1.));
#1305=DIRECTION('ref_axis',(0.,1.,0.));
#1306=DIRECTION('',(7.61394670739163E-15,-1.,0.));
#1307=DIRECTION('',(-7.82142274235862E-15,1.,0.));
#1308=DIRECTION('center_axis',(0.,0.,1.));
#1309=DIRECTION('ref_axis',(1.,0.,0.));
#1310=DIRECTION('',(7.59795352114837E-15,-1.,3.46944695195361E-18));
#1311=DIRECTION('',(1.,7.66885331547243E-15,-1.9547764721886E-33));
#1312=DIRECTION('',(-7.82142274235862E-15,1.,-3.46944695195361E-18));
#1313=DIRECTION('',(-1.,-7.7079801181024E-15,2.09052483831282E-33));
#1314=DIRECTION('',(-7.61394670739163E-15,1.,-3.46944695195361E-18));
#1315=DIRECTION('',(1.,7.71528258587435E-15,-2.11586036286595E-33));
#1316=DIRECTION('',(7.61394670739163E-15,-1.,3.46944695195361E-18));
#1317=DIRECTION('',(-1.,-7.69481764532826E-15,2.04485833726642E-33));
#1318=DIRECTION('center_axis',(-2.64127535230249E-32,3.46944695195361E-18,
1.));
#1319=DIRECTION('ref_axis',(7.61394670739163E-15,-1.,3.46944695195361E-18));
#1320=DIRECTION('',(-7.61394670739163E-15,1.,-3.46944695195361E-18));
#1321=DIRECTION('',(-1.,-7.69481764532826E-15,2.84008102398066E-34));
#1322=DIRECTION('',(7.61394670739163E-15,-1.,3.46944695195361E-18));
#1323=DIRECTION('',(1.,7.71528258587435E-15,-3.55010127997599E-34));
#1324=DIRECTION('center_axis',(-7.69481764532826E-15,1.,0.));
#1325=DIRECTION('ref_axis',(1.,7.69481764532826E-15,-2.04485833726642E-33));
#1326=DIRECTION('',(0.,0.,-1.));
#1327=DIRECTION('',(0.,0.,1.));
#1328=DIRECTION('center_axis',(1.,7.61394670739163E-15,0.));
#1329=DIRECTION('ref_axis',(7.61394670739163E-15,-1.,3.46944695195361E-18));
#1330=DIRECTION('',(0.,0.,1.));
#1331=DIRECTION('center_axis',(0.,0.,-1.));
#1332=DIRECTION('ref_axis',(-1.,0.,0.));
#1333=DIRECTION('',(-7.59795352114837E-15,1.,-3.46944695195361E-18));
#1334=DIRECTION('',(1.,7.7079801181024E-15,-2.09052483831282E-33));
#1335=DIRECTION('',(7.82142274235862E-15,-1.,3.46944695195361E-18));
#1336=DIRECTION('',(-1.,-7.66885331547243E-15,1.9547764721886E-33));
#1337=DIRECTION('center_axis',(7.71528258587435E-15,-1.,0.));
#1338=DIRECTION('ref_axis',(-1.,-7.71528258587435E-15,2.11586036286595E-33));
#1339=DIRECTION('',(0.,0.,1.));
#1340=DIRECTION('center_axis',(-1.,-7.61394670739163E-15,0.));
#1341=DIRECTION('ref_axis',(-7.61394670739163E-15,1.,-3.46944695195361E-18));
#1342=DIRECTION('center_axis',(7.66885331547243E-15,-1.,0.));
#1343=DIRECTION('ref_axis',(-1.,-7.66885331547243E-15,1.9547764721886E-33));
#1344=DIRECTION('',(0.,0.,1.));
#1345=DIRECTION('',(0.,0.,1.));
#1346=DIRECTION('center_axis',(1.,7.82142274235862E-15,0.));
#1347=DIRECTION('ref_axis',(7.82142274235862E-15,-1.,3.46944695195361E-18));
#1348=DIRECTION('',(0.,0.,1.));
#1349=DIRECTION('center_axis',(-7.7079801181024E-15,1.,0.));
#1350=DIRECTION('ref_axis',(1.,7.7079801181024E-15,-2.09052483831282E-33));
#1351=DIRECTION('',(0.,0.,-1.));
#1352=DIRECTION('center_axis',(-1.,-7.59795352114837E-15,0.));
#1353=DIRECTION('ref_axis',(-7.59795352114837E-15,1.,-3.46944695195361E-18));
#1354=DIRECTION('center_axis',(-7.69481764532826E-15,1.,0.));
#1355=DIRECTION('ref_axis',(-1.,-7.69481764532826E-15,2.04485833726642E-33));
#1356=DIRECTION('',(-1.,-7.69481764532826E-15,2.04485833726642E-33));
#1357=DIRECTION('',(0.,0.,1.));
#1358=DIRECTION('',(-1.,-7.69481764532826E-15,2.04485833726642E-33));
#1359=DIRECTION('',(0.,0.,1.));
#1360=DIRECTION('center_axis',(-1.,-7.61394670739163E-15,0.));
#1361=DIRECTION('ref_axis',(7.61394670739163E-15,-1.,3.46944695195361E-18));
#1362=DIRECTION('',(7.61394670739163E-15,-1.,3.46944695195361E-18));
#1363=DIRECTION('',(7.61394670739163E-15,-1.,3.46944695195361E-18));
#1364=DIRECTION('',(0.,0.,1.));
#1365=DIRECTION('center_axis',(7.71528258587435E-15,-1.,0.));
#1366=DIRECTION('ref_axis',(1.,7.71528258587435E-15,-2.11586036286595E-33));
#1367=DIRECTION('',(1.,7.71528258587435E-15,-2.11586036286595E-33));
#1368=DIRECTION('',(1.,7.71528258587435E-15,-2.11586036286595E-33));
#1369=DIRECTION('',(0.,0.,1.));
#1370=DIRECTION('center_axis',(1.,7.61394670739163E-15,0.));
#1371=DIRECTION('ref_axis',(-7.61394670739163E-15,1.,-3.46944695195361E-18));
#1372=DIRECTION('',(-7.61394670739163E-15,1.,-3.46944695195361E-18));
#1373=DIRECTION('',(-7.61394670739163E-15,1.,-3.46944695195361E-18));
#1374=DIRECTION('center_axis',(-7.7079801181024E-15,1.,0.));
#1375=DIRECTION('ref_axis',(-1.,-7.7079801181024E-15,2.09052483831282E-33));
#1376=DIRECTION('',(-1.,-7.7079801181024E-15,2.09052483831282E-33));
#1377=DIRECTION('',(0.,0.,1.));
#1378=DIRECTION('',(-1.,-7.7079801181024E-15,2.09052483831282E-33));
#1379=DIRECTION('',(0.,0.,1.));
#1380=DIRECTION('center_axis',(1.,7.82142274235862E-15,0.));
#1381=DIRECTION('ref_axis',(-7.82142274235862E-15,1.,-3.46944695195361E-18));
#1382=DIRECTION('',(-7.82142274235862E-15,1.,-3.46944695195361E-18));
#1383=DIRECTION('',(-7.82142274235862E-15,1.,-3.46944695195361E-18));
#1384=DIRECTION('',(0.,0.,1.));
#1385=DIRECTION('center_axis',(7.66885331547243E-15,-1.,0.));
#1386=DIRECTION('ref_axis',(1.,7.66885331547243E-15,-1.9547764721886E-33));
#1387=DIRECTION('',(1.,7.66885331547243E-15,-1.9547764721886E-33));
#1388=DIRECTION('',(1.,7.66885331547243E-15,-1.9547764721886E-33));
#1389=DIRECTION('',(0.,0.,1.));
#1390=DIRECTION('center_axis',(-1.,-7.59795352114837E-15,0.));
#1391=DIRECTION('ref_axis',(7.59795352114837E-15,-1.,3.46944695195361E-18));
#1392=DIRECTION('',(7.59795352114837E-15,-1.,3.46944695195361E-18));
#1393=DIRECTION('',(7.59795352114837E-15,-1.,3.46944695195361E-18));
#1394=DIRECTION('center_axis',(0.,0.,1.));
#1395=DIRECTION('ref_axis',(1.,0.,0.));
#1396=DIRECTION('center_axis',(0.,0.,1.));
#1397=DIRECTION('ref_axis',(1.,0.,0.));
#1398=DIRECTION('center_axis',(0.,-1.,0.));
#1399=DIRECTION('ref_axis',(-1.,0.,0.));
#1400=DIRECTION('',(1.,0.,2.64127535230249E-32));
#1401=DIRECTION('',(0.,0.,-1.));
#1402=DIRECTION('',(-1.,0.,-2.64127535230249E-32));
#1403=DIRECTION('',(0.,0.,-1.));
#1404=DIRECTION('center_axis',(1.,0.,0.));
#1405=DIRECTION('ref_axis',(0.,-1.,0.));
#1406=DIRECTION('',(0.,1.,-3.46944695195361E-18));
#1407=DIRECTION('',(0.,-1.,3.46944695195361E-18));
#1408=DIRECTION('',(0.,0.,-1.));
#1409=DIRECTION('center_axis',(0.,1.,0.));
#1410=DIRECTION('ref_axis',(1.,0.,0.));
#1411=DIRECTION('',(-1.,0.,-2.64127535230249E-32));
#1412=DIRECTION('',(1.,0.,2.64127535230249E-32));
#1413=DIRECTION('',(0.,0.,-1.));
#1414=DIRECTION('center_axis',(1.,0.,0.));
#1415=DIRECTION('ref_axis',(0.,-1.,0.));
#1416=DIRECTION('',(0.,1.,-3.46944695195361E-18));
#1417=DIRECTION('',(0.,-1.,3.46944695195361E-18));
#1418=DIRECTION('',(0.,0.,-1.));
#1419=DIRECTION('center_axis',(0.,1.,0.));
#1420=DIRECTION('ref_axis',(1.,0.,0.));
#1421=DIRECTION('',(-1.,0.,-2.64127535230249E-32));
#1422=DIRECTION('',(1.,0.,2.64127535230249E-32));
#1423=DIRECTION('',(0.,0.,-1.));
#1424=DIRECTION('center_axis',(-1.,0.,0.));
#1425=DIRECTION('ref_axis',(0.,1.,0.));
#1426=DIRECTION('',(0.,-1.,3.46944695195361E-18));
#1427=DIRECTION('',(0.,1.,-3.46944695195361E-18));
#1428=DIRECTION('',(0.,0.,-1.));
#1429=DIRECTION('center_axis',(0.,1.,0.));
#1430=DIRECTION('ref_axis',(1.,0.,0.));
#1431=DIRECTION('',(-1.,0.,-2.64127535230249E-32));
#1432=DIRECTION('',(1.,0.,2.64127535230249E-32));
#1433=DIRECTION('',(0.,0.,-1.));
#1434=DIRECTION('center_axis',(-1.,0.,0.));
#1435=DIRECTION('ref_axis',(0.,1.,0.));
#1436=DIRECTION('',(0.,-1.,3.46944695195361E-18));
#1437=DIRECTION('',(0.,1.,-3.46944695195361E-18));
#1438=DIRECTION('',(0.,0.,-1.));
#1439=DIRECTION('center_axis',(0.,-1.,0.));
#1440=DIRECTION('ref_axis',(-1.,0.,0.));
#1441=DIRECTION('',(1.,0.,2.64127535230249E-32));
#1442=DIRECTION('',(-1.,0.,-2.64127535230249E-32));
#1443=DIRECTION('',(0.,0.,-1.));
#1444=DIRECTION('center_axis',(-1.,0.,0.));
#1445=DIRECTION('ref_axis',(0.,1.,0.));
#1446=DIRECTION('',(0.,-1.,3.46944695195361E-18));
#1447=DIRECTION('',(0.,1.,-3.46944695195361E-18));
#1448=DIRECTION('',(0.,0.,-1.));
#1449=DIRECTION('center_axis',(0.,-1.,0.));
#1450=DIRECTION('ref_axis',(-1.,0.,0.));
#1451=DIRECTION('',(1.,0.,2.64127535230249E-32));
#1452=DIRECTION('',(-1.,0.,-2.64127535230249E-32));
#1453=DIRECTION('',(0.,0.,-1.));
#1454=DIRECTION('center_axis',(1.,0.,0.));
#1455=DIRECTION('ref_axis',(0.,-1.,0.));
#1456=DIRECTION('',(0.,1.,-3.46944695195361E-18));
#1457=DIRECTION('',(0.,-1.,3.46944695195361E-18));
#1458=DIRECTION('center_axis',(1.,0.,0.));
#1459=DIRECTION('ref_axis',(0.,-1.,0.));
#1460=DIRECTION('',(0.,1.,-3.46944695195361E-18));
#1461=DIRECTION('',(0.,0.,-1.));
#1462=DIRECTION('',(0.,-1.,3.46944695195361E-18));
#1463=DIRECTION('',(0.,0.,-1.));
#1464=DIRECTION('center_axis',(0.,1.,0.));
#1465=DIRECTION('ref_axis',(1.,0.,0.));
#1466=DIRECTION('',(-1.,0.,-2.64127535230249E-32));
#1467=DIRECTION('',(1.,0.,2.64127535230249E-32));
#1468=DIRECTION('',(0.,0.,-1.));
#1469=DIRECTION('center_axis',(-1.,0.,0.));
#1470=DIRECTION('ref_axis',(0.,1.,0.));
#1471=DIRECTION('',(0.,-1.,3.46944695195361E-18));
#1472=DIRECTION('',(0.,1.,-3.46944695195361E-18));
#1473=DIRECTION('',(0.,0.,-1.));
#1474=DIRECTION('center_axis',(0.,-1.,0.));
#1475=DIRECTION('ref_axis',(-1.,0.,0.));
#1476=DIRECTION('',(1.,0.,2.64127535230249E-32));
#1477=DIRECTION('',(-1.,0.,-2.64127535230249E-32));
#1478=DIRECTION('center_axis',(-7.61295788314393E-15,1.,0.));
#1479=DIRECTION('ref_axis',(0.,0.,-1.));
#1480=DIRECTION('',(0.,0.,1.));
#1481=DIRECTION('',(-1.,-7.61295788314393E-15,0.));
#1482=DIRECTION('',(0.,0.,-1.));
#1483=DIRECTION('',(-1.,-7.61295788314393E-15,0.));
#1484=DIRECTION('center_axis',(-2.64127535230249E-32,3.46944695195361E-18,
1.));
#1485=DIRECTION('ref_axis',(-7.61394670739163E-15,1.,-3.46944695195361E-18));
#1486=DIRECTION('',(7.61394670739163E-15,-1.,3.46944695195361E-18));
#1487=DIRECTION('',(-7.61394670739163E-15,1.,-3.46944695195361E-18));
#1488=DIRECTION('',(-1.,-7.61295788314393E-15,0.));
#1489=DIRECTION('center_axis',(7.61295788314393E-15,-1.,0.));
#1490=DIRECTION('ref_axis',(0.,0.,1.));
#1491=DIRECTION('',(0.,0.,1.));
#1492=DIRECTION('',(0.,0.,1.));
#1493=DIRECTION('',(-1.,-7.61295788314393E-15,0.));
#1494=DIRECTION('center_axis',(2.64127535230249E-32,-3.46944695195361E-18,
-1.));
#1495=DIRECTION('ref_axis',(7.61394670739163E-15,-1.,3.46944695195361E-18));
#1496=DIRECTION('',(7.61394670739163E-15,-1.,3.46944695195361E-18));
#1497=DIRECTION('',(7.61394670739163E-15,-1.,3.46944695195361E-18));
#1498=DIRECTION('center_axis',(-1.,-7.61295788314393E-15,0.));
#1499=DIRECTION('ref_axis',(0.,0.,1.));
#1500=DIRECTION('center_axis',(-1.,-7.61394670739163E-15,0.));
#1501=DIRECTION('ref_axis',(7.61394670739163E-15,-1.,3.46944695195361E-18));
#1502=DIRECTION('center_axis',(0.,0.,1.));
#1503=DIRECTION('ref_axis',(1.,-1.10440526730942E-29,0.));
#1504=DIRECTION('center_axis',(2.46519032881566E-32,-3.46944695195361E-18,
-1.));
#1505=DIRECTION('ref_axis',(1.,-1.10440526730942E-29,2.46519032881566E-32));
#1506=DIRECTION('',(0.,0.,-1.));
#1507=DIRECTION('center_axis',(-2.46519032881566E-32,3.46944695195361E-18,
1.));
#1508=DIRECTION('ref_axis',(1.,-1.10440526730942E-29,2.46519032881566E-32));
#1509=DIRECTION('center_axis',(0.,0.,1.));
#1510=DIRECTION('ref_axis',(1.,-1.10440526730942E-29,0.));
#1511=DIRECTION('center_axis',(-2.46519032881566E-32,3.46944695195361E-18,
1.));
#1512=DIRECTION('ref_axis',(1.,-1.10440526730942E-29,2.46519032881566E-32));
#1513=DIRECTION('',(0.,0.,-1.));
#1514=DIRECTION('center_axis',(2.46519032881566E-32,-3.46944695195361E-18,
-1.));
#1515=DIRECTION('ref_axis',(1.,-1.10440526730942E-29,2.46519032881566E-32));
#1516=DIRECTION('center_axis',(2.46519032881566E-32,-3.46944695195361E-18,
-1.));
#1517=DIRECTION('ref_axis',(1.,-1.10440526730942E-29,2.46519032881566E-32));
#1518=DIRECTION('center_axis',(2.46519032881566E-32,-3.46944695195361E-18,
-1.));
#1519=DIRECTION('ref_axis',(1.,-1.10440526730942E-29,2.46519032881566E-32));
#1520=DIRECTION('center_axis',(0.,0.,1.));
#1521=DIRECTION('ref_axis',(1.,-1.10440526730942E-29,0.));
#1522=DIRECTION('center_axis',(2.46519032881566E-32,-3.46944695195361E-18,
-1.));
#1523=DIRECTION('ref_axis',(1.,-1.10440526730942E-29,2.46519032881566E-32));
#1524=DIRECTION('',(0.,0.,-1.));
#1525=DIRECTION('center_axis',(-2.46519032881566E-32,3.46944695195361E-18,
1.));
#1526=DIRECTION('ref_axis',(1.,-1.10440526730942E-29,2.46519032881566E-32));
#1527=DIRECTION('center_axis',(0.,0.,1.));
#1528=DIRECTION('ref_axis',(1.,-1.10440526730942E-29,0.));
#1529=DIRECTION('center_axis',(-2.46519032881566E-32,3.46944695195361E-18,
1.));
#1530=DIRECTION('ref_axis',(1.,-1.10440526730942E-29,2.46519032881566E-32));
#1531=DIRECTION('',(0.,0.,-1.));
#1532=DIRECTION('center_axis',(2.46519032881566E-32,-3.46944695195361E-18,
-1.));
#1533=DIRECTION('ref_axis',(1.,-1.10440526730942E-29,2.46519032881566E-32));
#1534=DIRECTION('center_axis',(2.46519032881566E-32,-3.46944695195361E-18,
-1.));
#1535=DIRECTION('ref_axis',(1.,-1.10440526730942E-29,2.46519032881566E-32));
#1536=DIRECTION('center_axis',(2.46519032881566E-32,-3.46944695195361E-18,
-1.));
#1537=DIRECTION('ref_axis',(1.,-1.10440526730942E-29,2.46519032881566E-32));
#1538=DIRECTION('center_axis',(0.,0.,1.));
#1539=DIRECTION('ref_axis',(1.,-1.10440526730942E-29,0.));
#1540=DIRECTION('center_axis',(2.46519032881566E-32,-3.46944695195361E-18,
-1.));
#1541=DIRECTION('ref_axis',(1.,-1.10440526730942E-29,2.46519032881566E-32));
#1542=DIRECTION('',(0.,0.,-1.));
#1543=DIRECTION('center_axis',(-2.46519032881566E-32,3.46944695195361E-18,
1.));
#1544=DIRECTION('ref_axis',(1.,-1.10440526730942E-29,2.46519032881566E-32));
#1545=DIRECTION('center_axis',(0.,0.,1.));
#1546=DIRECTION('ref_axis',(1.,-1.10440526730942E-29,0.));
#1547=DIRECTION('center_axis',(-2.46519032881566E-32,3.46944695195361E-18,
1.));
#1548=DIRECTION('ref_axis',(1.,-1.10440526730942E-29,2.46519032881566E-32));
#1549=DIRECTION('',(0.,0.,-1.));
#1550=DIRECTION('center_axis',(2.46519032881566E-32,-3.46944695195361E-18,
-1.));
#1551=DIRECTION('ref_axis',(1.,-1.10440526730942E-29,2.46519032881566E-32));
#1552=DIRECTION('center_axis',(2.46519032881566E-32,-3.46944695195361E-18,
-1.));
#1553=DIRECTION('ref_axis',(1.,-1.10440526730942E-29,2.46519032881566E-32));
#1554=DIRECTION('center_axis',(2.46519032881566E-32,-3.46944695195361E-18,
-1.));
#1555=DIRECTION('ref_axis',(1.,-1.10440526730942E-29,2.46519032881566E-32));
#1556=DIRECTION('center_axis',(0.,0.,1.));
#1557=DIRECTION('ref_axis',(-1.,0.,0.));
#1558=DIRECTION('center_axis',(0.,0.,1.));
#1559=DIRECTION('ref_axis',(-1.,0.,0.));
#1560=DIRECTION('',(0.,0.,-1.));
#1561=DIRECTION('center_axis',(0.,0.,1.));
#1562=DIRECTION('ref_axis',(-1.,0.,0.));
#1563=DIRECTION('center_axis',(0.,0.,1.));
#1564=DIRECTION('ref_axis',(-1.,0.,0.));
#1565=DIRECTION('center_axis',(0.,0.,1.));
#1566=DIRECTION('ref_axis',(-1.,0.,0.));
#1567=CARTESIAN_POINT('',(0.,0.,0.));
#1568=CARTESIAN_POINT('Origin',(156.510388675998,15.7300000000003,-7.9538443302904));
#1569=CARTESIAN_POINT('',(156.510388675998,13.2300000000004,-3.49189911807335));
#1570=CARTESIAN_POINT('',(156.510388675998,13.2300000000004,-7.9538443302904));
#1571=CARTESIAN_POINT('',(156.510388675998,13.2300000000004,-3.2219221651452));
#1572=CARTESIAN_POINT('',(156.510388675998,15.7300000000003,-3.49189911807335));
#1573=CARTESIAN_POINT('',(156.510388675998,15.7300000000003,-3.49189911807335));
#1574=CARTESIAN_POINT('',(156.510388675998,15.7300000000003,-7.9538443302904));
#1575=CARTESIAN_POINT('',(156.510388675998,15.7300000000004,-3.2219221651452));
#1576=CARTESIAN_POINT('',(156.510388675998,15.7300000000003,-7.9538443302904));
#1577=CARTESIAN_POINT('Origin',(134.510519921317,15.7300000000003,-7.9538443302904));
#1578=CARTESIAN_POINT('',(134.510519921317,13.2300000000002,-7.9538443302904));
#1579=CARTESIAN_POINT('',(166.682939960658,13.2300000000004,-7.9538443302904));
#1580=CARTESIAN_POINT('',(134.510519921317,15.7300000000003,-7.9538443302904));
#1581=CARTESIAN_POINT('',(111.182939960658,15.73,-7.9538443302904));
#1582=CARTESIAN_POINT('',(134.510519921317,15.7300000000003,-7.9538443302904));
#1583=CARTESIAN_POINT('Origin',(134.510519921317,15.7300000000003,-3.49189911807335));
#1584=CARTESIAN_POINT('',(134.510519921317,13.2300000000002,-3.49189911807335));
#1585=CARTESIAN_POINT('',(134.510519921317,13.2300000000002,-0.990949559036675));
#1586=CARTESIAN_POINT('',(134.510519921317,15.7300000000003,-3.49189911807335));
#1587=CARTESIAN_POINT('',(134.510519921317,15.7300000000002,-0.990949559036675));
#1588=CARTESIAN_POINT('',(134.510519921317,15.7300000000003,-3.49189911807335));
#1589=CARTESIAN_POINT('Origin',(156.510388675998,15.7300000000003,-3.49189911807335));
#1590=CARTESIAN_POINT('',(177.682874337999,13.2300000000005,-3.49189911807335));
#1591=CARTESIAN_POINT('',(122.182874337999,15.7300000000001,-3.49189911807335));
#1592=CARTESIAN_POINT('Origin',(201.35536,-43.0000006407499,1.50736386467399));
#1593=CARTESIAN_POINT('',(198.85536,-43.0000006407499,5.00000007450581));
#1594=CARTESIAN_POINT('',(198.85536,-43.0000006407499,1.50736386467399));
#1595=CARTESIAN_POINT('',(198.85536,-43.0000006407499,1.50868193233699));
#1596=CARTESIAN_POINT('',(201.35536,-43.0000006407499,5.00000007450581));
#1597=CARTESIAN_POINT('',(201.35536,-43.0000006407499,5.00000007450581));
#1598=CARTESIAN_POINT('',(201.35536,-43.0000006407499,1.50736386467399));
#1599=CARTESIAN_POINT('',(201.35536,-43.0000006407499,1.50868193233699));
#1600=CARTESIAN_POINT('',(201.35536,-43.0000006407499,1.50736386467399));
#1601=CARTESIAN_POINT('Origin',(201.35536,-18.0814333904495,1.50736386467399));
#1602=CARTESIAN_POINT('',(198.85536,-18.0814333904495,1.50736386467399));
#1603=CARTESIAN_POINT('',(198.85536,-79.4157166952244,1.50736386467399));
#1604=CARTESIAN_POINT('',(201.35536,-18.0814333904495,1.50736386467399));
#1605=CARTESIAN_POINT('',(201.355359999999,-1.1757166952244,1.50736386467399));
#1606=CARTESIAN_POINT('',(201.35536,-18.0814333904495,1.50736386467399));
#1607=CARTESIAN_POINT('Origin',(201.35536,-18.0814333904495,5.00000007450581));
#1608=CARTESIAN_POINT('',(198.85536,-18.0814333904495,5.00000007450581));
#1609=CARTESIAN_POINT('',(198.85536,-18.0814333904495,3.2550000372529));
#1610=CARTESIAN_POINT('',(201.35536,-18.0814333904495,5.00000007450581));
#1611=CARTESIAN_POINT('',(201.35536,-18.0814333904495,3.2550000372529));
#1612=CARTESIAN_POINT('',(201.35536,-18.0814333904495,5.00000007450581));
#1613=CARTESIAN_POINT('Origin',(201.35536,-43.0000006407499,5.00000007450581));
#1614=CARTESIAN_POINT('',(198.85536,-91.8750003203747,5.00000007450581));
#1615=CARTESIAN_POINT('',(201.35536,-13.6350003203746,5.00000007450581));
#1616=CARTESIAN_POINT('Origin',(144.60536,-63.7599999999997,19.51));
#1617=CARTESIAN_POINT('',(87.8553599999993,15.7299999999998,19.51));
#1618=CARTESIAN_POINT('',(87.8553600000005,-143.25,19.51));
#1619=CARTESIAN_POINT('',(87.8553599999993,15.7299999999998,19.51));
#1620=CARTESIAN_POINT('',(201.355360000001,-143.249999999999,19.51));
#1621=CARTESIAN_POINT('',(87.8553600000005,-143.25,19.51));
#1622=CARTESIAN_POINT('',(201.355359999999,15.7300000000007,19.51));
#1623=CARTESIAN_POINT('',(201.355360000001,-143.249999999999,19.51));
#1624=CARTESIAN_POINT('',(201.355359999999,15.7300000000007,19.51));
#1625=CARTESIAN_POINT('',(90.3553600000005,-140.75,19.51));
#1626=CARTESIAN_POINT('',(90.3553599999993,13.2299999999999,19.51));
#1627=CARTESIAN_POINT('',(90.3553599999993,13.2299999999999,19.51));
#1628=CARTESIAN_POINT('',(198.855359999999,13.2300000000007,19.51));
#1629=CARTESIAN_POINT('',(198.855359999999,13.2300000000007,19.51));
#1630=CARTESIAN_POINT('',(198.855360000001,-140.749999999999,19.51));
#1631=CARTESIAN_POINT('',(198.855360000001,-140.749999999999,19.51));
#1632=CARTESIAN_POINT('',(90.3553600000005,-140.75,19.51));
#1633=CARTESIAN_POINT('Origin',(90.3553599999993,13.2299999999999,-11.49));
#1634=CARTESIAN_POINT('',(90.3553600000005,-140.75,-11.49));
#1635=CARTESIAN_POINT('',(90.3553599999993,13.2299999999999,-11.49));
#1636=CARTESIAN_POINT('',(90.3553599999993,13.2299999999999,-11.49));
#1637=CARTESIAN_POINT('',(198.85536,-140.749999999999,-11.49));
#1638=CARTESIAN_POINT('',(90.3553600000005,-140.75,-11.49));
#1639=CARTESIAN_POINT('',(198.855359999999,13.2300000000007,-11.49));
#1640=CARTESIAN_POINT('',(198.85536,-63.7599999999993,-11.49));
#1641=CARTESIAN_POINT('',(144.605359999999,13.2300000000003,-11.49));
#1642=CARTESIAN_POINT('Origin',(90.3553600000005,-140.75,1.51));
#1643=CARTESIAN_POINT('',(90.3553600000005,-140.75,1.51));
#1644=CARTESIAN_POINT('',(198.855360000001,-140.749999999999,1.51));
#1645=CARTESIAN_POINT('Origin',(90.3553599999993,13.2299999999999,1.51));
#1646=CARTESIAN_POINT('',(90.3553599999993,13.2299999999999,1.51));
#1647=CARTESIAN_POINT('Origin',(144.60536,-63.7599999999997,-18.49));
#1648=CARTESIAN_POINT('',(87.8553600000005,-143.25,-18.49));
#1649=CARTESIAN_POINT('',(87.8553599999993,15.7299999999998,-18.49));
#1650=CARTESIAN_POINT('',(87.8553599999993,15.7299999999998,-18.49));
#1651=CARTESIAN_POINT('',(201.355359999999,15.7300000000007,-18.49));
#1652=CARTESIAN_POINT('',(201.355359999999,15.7300000000007,-18.49));
#1653=CARTESIAN_POINT('',(201.355360000001,-143.249999999999,-18.49));
#1654=CARTESIAN_POINT('',(201.355360000001,-143.249999999999,-18.49));
#1655=CARTESIAN_POINT('',(87.8553600000005,-143.25,-18.49));
#1656=CARTESIAN_POINT('Origin',(198.855359999999,13.2300000000007,1.51));
#1657=CARTESIAN_POINT('',(198.855359999999,13.2300000000007,1.51));
#1658=CARTESIAN_POINT('Origin',(198.855360000001,-140.749999999999,1.51));
#1659=CARTESIAN_POINT('Origin',(201.355360000001,-143.249999999999,1.51));
#1660=CARTESIAN_POINT('',(87.8553600000005,-143.25,1.51));
#1661=CARTESIAN_POINT('',(201.355360000001,-143.249999999999,1.51));
#1662=CARTESIAN_POINT('Origin',(201.355359999999,15.7300000000007,1.51));
#1663=CARTESIAN_POINT('',(201.355359999999,15.7300000000007,1.51));
#1664=CARTESIAN_POINT('Origin',(87.8553599999993,15.7299999999998,1.51));
#1665=CARTESIAN_POINT('',(87.8553599999993,15.7299999999998,1.51));
#1666=CARTESIAN_POINT('Origin',(87.8553600000005,-143.25,1.51));
#1667=CARTESIAN_POINT('Origin',(198.855360000001,-140.749999999999,19.51));
#1668=CARTESIAN_POINT('',(198.855360000001,-140.749999999999,19.51));
#1669=CARTESIAN_POINT('',(90.3553600000005,-140.75,19.51));
#1670=CARTESIAN_POINT('',(90.3553600000005,-140.75,19.51));
#1671=CARTESIAN_POINT('',(90.3553600000005,-140.75,22.01));
#1672=CARTESIAN_POINT('',(90.3553600000005,-140.75,19.51));
#1673=CARTESIAN_POINT('',(198.855360000001,-140.749999999999,22.01));
#1674=CARTESIAN_POINT('',(90.3553600000005,-140.75,22.01));
#1675=CARTESIAN_POINT('',(198.855360000001,-140.749999999999,19.51));
#1676=CARTESIAN_POINT('Origin',(198.855359999999,13.2300000000007,19.51));
#1677=CARTESIAN_POINT('',(198.855359999999,13.2300000000007,19.51));
#1678=CARTESIAN_POINT('',(198.855360000001,-140.749999999999,19.51));
#1679=CARTESIAN_POINT('',(198.855359999999,13.2300000000007,22.01));
#1680=CARTESIAN_POINT('',(198.855360000001,-140.749999999999,22.01));
#1681=CARTESIAN_POINT('',(198.855359999999,13.2300000000007,19.51));
#1682=CARTESIAN_POINT('Origin',(90.3553599999993,13.2299999999999,19.51));
#1683=CARTESIAN_POINT('',(90.3553599999993,13.2299999999999,19.51));
#1684=CARTESIAN_POINT('',(198.855359999999,13.2300000000007,19.51));
#1685=CARTESIAN_POINT('',(90.3553599999993,13.2299999999999,22.01));
#1686=CARTESIAN_POINT('',(198.855359999999,13.2300000000007,22.01));
#1687=CARTESIAN_POINT('',(90.3553599999993,13.2299999999999,19.51));
#1688=CARTESIAN_POINT('Origin',(90.3553600000005,-140.75,19.51));
#1689=CARTESIAN_POINT('',(90.3553599999993,13.2299999999999,19.51));
#1690=CARTESIAN_POINT('',(90.3553599999993,13.2299999999999,22.01));
#1691=CARTESIAN_POINT('Origin',(201.355359999999,15.7300000000007,19.51));
#1692=CARTESIAN_POINT('',(201.355359999999,15.7300000000007,19.51));
#1693=CARTESIAN_POINT('',(87.8553599999993,15.7299999999998,19.51));
#1694=CARTESIAN_POINT('',(201.355359999999,15.7300000000007,19.51));
#1695=CARTESIAN_POINT('',(87.8553599999993,15.7299999999998,22.01));
#1696=CARTESIAN_POINT('',(87.8553599999993,15.7299999999998,19.51));
#1697=CARTESIAN_POINT('',(201.355359999999,15.7300000000007,22.01));
#1698=CARTESIAN_POINT('',(201.355359999999,15.7300000000007,22.01));
#1699=CARTESIAN_POINT('',(201.355359999999,15.7300000000007,19.51));
#1700=CARTESIAN_POINT('Origin',(201.355360000001,-143.249999999999,19.51));
#1701=CARTESIAN_POINT('',(201.355360000001,-143.249999999999,19.51));
#1702=CARTESIAN_POINT('',(201.355360000001,-143.249999999999,19.51));
#1703=CARTESIAN_POINT('',(201.355360000001,-143.249999999999,22.01));
#1704=CARTESIAN_POINT('',(201.355360000001,-143.249999999999,22.01));
#1705=CARTESIAN_POINT('',(201.355360000001,-143.249999999999,19.51));
#1706=CARTESIAN_POINT('Origin',(87.8553600000005,-143.25,19.51));
#1707=CARTESIAN_POINT('',(87.8553600000005,-143.25,19.51));
#1708=CARTESIAN_POINT('',(87.8553600000005,-143.25,19.51));
#1709=CARTESIAN_POINT('',(87.8553600000005,-143.25,22.01));
#1710=CARTESIAN_POINT('',(87.8553600000005,-143.25,22.01));
#1711=CARTESIAN_POINT('',(87.8553600000005,-143.25,19.51));
#1712=CARTESIAN_POINT('Origin',(87.8553599999993,15.7299999999998,19.51));
#1713=CARTESIAN_POINT('',(87.8553599999993,15.7299999999998,19.51));
#1714=CARTESIAN_POINT('',(87.8553599999993,15.7299999999998,22.01));
#1715=CARTESIAN_POINT('Origin',(144.60536,-63.7599999999997,22.01));
#1716=CARTESIAN_POINT('Origin',(144.60536,-63.7599999999997,19.51));
#1717=CARTESIAN_POINT('Origin',(160.000002384186,-126.000001877546,22.01));
#1718=CARTESIAN_POINT('',(152.000002264977,-126.000001877546,19.51));
#1719=CARTESIAN_POINT('',(160.000002384186,-126.000001877546,19.51));
#1720=CARTESIAN_POINT('',(179.427681192093,-126.000001877546,19.51));
#1721=CARTESIAN_POINT('',(152.000002264977,-126.000001877546,22.01));
#1722=CARTESIAN_POINT('',(152.000002264977,-126.000001877546,22.01));
#1723=CARTESIAN_POINT('',(160.000002384186,-126.000001877546,22.01));
#1724=CARTESIAN_POINT('',(179.427681192093,-126.000001877546,22.01));
#1725=CARTESIAN_POINT('',(160.000002384186,-126.000001877546,22.01));
#1726=CARTESIAN_POINT('Origin',(160.000002384186,-118.000001758337,22.01));
#1727=CARTESIAN_POINT('',(160.000002384186,-118.000001758337,19.51));
#1728=CARTESIAN_POINT('',(160.000002384186,-52.3850008791682,19.51));
#1729=CARTESIAN_POINT('',(160.000002384186,-118.000001758337,22.01));
#1730=CARTESIAN_POINT('',(160.000002384186,-129.375000879168,22.01));
#1731=CARTESIAN_POINT('',(160.000002384186,-118.000001758337,22.01));
#1732=CARTESIAN_POINT('Origin',(152.000002264977,-118.000001758337,22.01));
#1733=CARTESIAN_POINT('',(152.000002264977,-118.000001758337,19.51));
#1734=CARTESIAN_POINT('',(175.427681132488,-118.000001758337,19.51));
#1735=CARTESIAN_POINT('',(152.000002264977,-118.000001758337,22.01));
#1736=CARTESIAN_POINT('',(175.427681132489,-118.000001758337,22.01));
#1737=CARTESIAN_POINT('',(152.000002264977,-118.000001758337,22.01));
#1738=CARTESIAN_POINT('Origin',(152.000002264977,-113.000001683831,22.01));
#1739=CARTESIAN_POINT('',(152.000002264977,-113.000001683831,19.51));
#1740=CARTESIAN_POINT('',(152.000002264976,-49.8850008419153,19.51));
#1741=CARTESIAN_POINT('',(152.000002264977,-113.000001683831,22.01));
#1742=CARTESIAN_POINT('',(152.000002264977,-126.875000841915,22.01));
#1743=CARTESIAN_POINT('',(152.000002264977,-113.000001683831,22.01));
#1744=CARTESIAN_POINT('Origin',(140.000002086163,-113.000001683831,22.01));
#1745=CARTESIAN_POINT('',(140.000002086163,-113.000001683831,19.51));
#1746=CARTESIAN_POINT('',(169.427681043081,-113.000001683831,19.51));
#1747=CARTESIAN_POINT('',(140.000002086163,-113.000001683831,22.01));
#1748=CARTESIAN_POINT('',(169.427681043082,-113.000001683831,22.01));
#1749=CARTESIAN_POINT('',(140.000002086163,-113.000001683831,22.01));
#1750=CARTESIAN_POINT('Origin',(140.000002086163,-118.000001758337,22.01));
#1751=CARTESIAN_POINT('',(140.000002086163,-118.000001758337,19.51));
#1752=CARTESIAN_POINT('',(140.000002086163,-52.3850008791682,19.51));
#1753=CARTESIAN_POINT('',(140.000002086163,-118.000001758337,22.01));
#1754=CARTESIAN_POINT('',(140.000002086163,-129.375000879168,22.01));
#1755=CARTESIAN_POINT('',(140.000002086163,-118.000001758337,22.01));
#1756=CARTESIAN_POINT('Origin',(132.000001966953,-118.000001758337,22.01));
#1757=CARTESIAN_POINT('',(132.000001966953,-118.000001758337,19.51));
#1758=CARTESIAN_POINT('',(165.427680983476,-118.000001758337,19.51));
#1759=CARTESIAN_POINT('',(132.000001966953,-118.000001758337,22.01));
#1760=CARTESIAN_POINT('',(165.427680983477,-118.000001758337,22.01));
#1761=CARTESIAN_POINT('',(132.000001966953,-118.000001758337,22.01));
#1762=CARTESIAN_POINT('Origin',(132.000001966953,-126.000001877546,22.01));
#1763=CARTESIAN_POINT('',(132.000001966953,-126.000001877546,19.51));
#1764=CARTESIAN_POINT('',(132.000001966953,-56.3850009387728,19.51));
#1765=CARTESIAN_POINT('',(132.000001966953,-126.000001877546,22.01));
#1766=CARTESIAN_POINT('',(132.000001966953,-133.375000938773,22.01));
#1767=CARTESIAN_POINT('',(132.000001966953,-126.000001877546,22.01));
#1768=CARTESIAN_POINT('Origin',(141.000002101064,-126.000001877546,22.01));
#1769=CARTESIAN_POINT('',(141.000002101064,-126.000001877546,19.51));
#1770=CARTESIAN_POINT('',(169.927681050532,-126.000001877546,19.51));
#1771=CARTESIAN_POINT('',(141.000002101064,-126.000001877546,22.01));
#1772=CARTESIAN_POINT('',(169.927681050532,-126.000001877546,22.01));
#1773=CARTESIAN_POINT('',(141.000002101064,-126.000001877546,22.01));
#1774=CARTESIAN_POINT('Origin',(141.000002101064,-130.000001937151,22.01));
#1775=CARTESIAN_POINT('',(141.000002101064,-130.000001937151,19.51));
#1776=CARTESIAN_POINT('',(141.000002101064,-58.3850009685751,19.51));
#1777=CARTESIAN_POINT('',(141.000002101064,-130.000001937151,22.01));
#1778=CARTESIAN_POINT('',(141.000002101064,-135.375000968575,22.01));
#1779=CARTESIAN_POINT('',(141.000002101064,-130.000001937151,22.01));
#1780=CARTESIAN_POINT('Origin',(152.000002264977,-130.000001937151,22.01));
#1781=CARTESIAN_POINT('',(152.000002264977,-130.000001937151,19.51));
#1782=CARTESIAN_POINT('',(175.427681132488,-130.000001937151,19.51));
#1783=CARTESIAN_POINT('',(152.000002264977,-130.000001937151,22.01));
#1784=CARTESIAN_POINT('',(175.427681132489,-130.000001937151,22.01));
#1785=CARTESIAN_POINT('',(152.000002264977,-130.000001937151,22.01));
#1786=CARTESIAN_POINT('Origin',(152.000002264977,-126.000001877546,22.01));
#1787=CARTESIAN_POINT('',(152.000002264976,-56.3850009387728,19.51));
#1788=CARTESIAN_POINT('',(152.000002264977,-133.375000938773,22.01));
#1789=CARTESIAN_POINT('Origin',(184.856039543548,1.84015337890411,22.01));
#1790=CARTESIAN_POINT('',(184.856039543548,-102.460713534742,19.51));
#1791=CARTESIAN_POINT('',(184.856039543548,1.84015337890411,19.51));
#1792=CARTESIAN_POINT('',(184.856039543548,7.5350766894524,19.51));
#1793=CARTESIAN_POINT('',(184.856039543548,-102.460713534742,22.01));
#1794=CARTESIAN_POINT('',(184.856039543548,-102.460713534742,22.01));
#1795=CARTESIAN_POINT('',(184.856039543548,1.84015337890411,22.01));
#1796=CARTESIAN_POINT('',(184.856039543548,-69.4549233105476,22.01));
#1797=CARTESIAN_POINT('',(184.856039543548,1.84015337890411,22.01));
#1798=CARTESIAN_POINT('Origin',(105.474840254742,1.84015337890411,22.01));
#1799=CARTESIAN_POINT('',(105.474840254742,1.84015337890411,19.51));
#1800=CARTESIAN_POINT('',(152.165100127371,1.84015337890411,19.51));
#1801=CARTESIAN_POINT('',(105.474840254742,1.84015337890411,22.01));
#1802=CARTESIAN_POINT('',(152.165100127371,1.84015337890411,22.01));
#1803=CARTESIAN_POINT('',(105.474840254742,1.84015337890411,22.01));
#1804=CARTESIAN_POINT('Origin',(105.474840254742,-102.460713534742,22.01));
#1805=CARTESIAN_POINT('',(105.474840254742,-102.460713534742,19.51));
#1806=CARTESIAN_POINT('',(105.474840254742,-44.6153567673708,19.51));
#1807=CARTESIAN_POINT('',(105.474840254742,-102.460713534742,22.01));
#1808=CARTESIAN_POINT('',(105.474840254742,-121.605356767371,22.01));
#1809=CARTESIAN_POINT('',(105.474840254742,-102.460713534742,22.01));
#1810=CARTESIAN_POINT('Origin',(184.856039543548,-102.460713534742,22.01));
#1811=CARTESIAN_POINT('',(191.855699771774,-102.460713534742,19.51));
#1812=CARTESIAN_POINT('',(191.855699771774,-102.460713534742,22.01));
#1813=CARTESIAN_POINT('Origin',(198.855359999999,13.2300000000007,22.01));
#1814=CARTESIAN_POINT('',(198.855359999999,13.2300000000007,19.51));
#1815=CARTESIAN_POINT('',(198.855359999999,13.2300000000007,22.01));
#1816=CARTESIAN_POINT('',(198.855359999999,13.2300000000007,19.51));
#1817=CARTESIAN_POINT('',(90.3553599999993,13.2299999999999,19.51));
#1818=CARTESIAN_POINT('',(198.855359999999,13.2300000000007,19.51));
#1819=CARTESIAN_POINT('',(90.3553599999993,13.2299999999999,22.01));
#1820=CARTESIAN_POINT('',(90.3553599999993,13.2299999999999,19.51));
#1821=CARTESIAN_POINT('',(198.855359999999,13.2300000000007,22.01));
#1822=CARTESIAN_POINT('Origin',(198.855360000001,-140.749999999999,22.01));
#1823=CARTESIAN_POINT('',(198.855360000001,-140.749999999999,22.01));
#1824=CARTESIAN_POINT('',(198.855360000001,-140.749999999999,22.01));
#1825=CARTESIAN_POINT('',(90.3553600000005,-140.75,22.01));
#1826=CARTESIAN_POINT('',(90.3553600000005,-140.75,22.01));
#1827=CARTESIAN_POINT('',(198.855360000001,-140.749999999999,22.01));
#1828=CARTESIAN_POINT('Origin',(198.855360000001,-140.749999999999,19.51));
#1829=CARTESIAN_POINT('',(198.855360000001,-140.749999999999,19.51));
#1830=CARTESIAN_POINT('',(198.855360000001,-140.749999999999,19.51));
#1831=CARTESIAN_POINT('',(90.3553600000005,-140.75,19.51));
#1832=CARTESIAN_POINT('',(90.3553600000005,-140.75,19.51));
#1833=CARTESIAN_POINT('',(198.855360000001,-140.749999999999,19.51));
#1834=CARTESIAN_POINT('Origin',(198.855359999999,13.2300000000007,19.51));
#1835=CARTESIAN_POINT('',(198.855360000001,-140.749999999999,19.51));
#1836=CARTESIAN_POINT('',(90.3553600000005,-140.75,19.51));
#1837=CARTESIAN_POINT('Origin',(90.3553599999993,13.2299999999999,19.51));
#1838=CARTESIAN_POINT('Origin',(198.855359999999,13.2300000000007,19.51));
#1839=CARTESIAN_POINT('Origin',(95.8499999999993,7.72999999999993,-2.68188249386024E-17));
#1840=CARTESIAN_POINT('',(94.5999999999993,7.72999999999993,16.));
#1841=CARTESIAN_POINT('Origin',(95.8499999999993,7.72999999999993,16.));
#1842=CARTESIAN_POINT('',(94.5999999999993,7.72999999999993,-2.68188249386024E-17));
#1843=CARTESIAN_POINT('',(94.5999999999993,7.72999999999993,-2.68188249386024E-17));
#1844=CARTESIAN_POINT('Origin',(95.8499999999993,7.72999999999993,-2.68188249386024E-17));
#1845=CARTESIAN_POINT('Origin',(95.8499999999993,7.72999999999993,-2.68188249386024E-17));
#1846=CARTESIAN_POINT('',(93.8499999999993,7.72999999999993,16.));
#1847=CARTESIAN_POINT('Origin',(95.8499999999993,7.72999999999993,16.));
#1848=CARTESIAN_POINT('',(93.8499999999993,7.72999999999993,-2.68188249386024E-17));
#1849=CARTESIAN_POINT('',(93.8499999999993,7.72999999999993,-2.68188249386024E-17));
#1850=CARTESIAN_POINT('Origin',(95.8499999999993,7.72999999999993,-2.68188249386024E-17));
#1851=CARTESIAN_POINT('Origin',(95.8499999999993,7.72999999999993,-2.68188249386024E-17));
#1852=CARTESIAN_POINT('Origin',(95.8499999999993,7.72999999999993,16.));
#1853=CARTESIAN_POINT('Origin',(193.350000000001,-135.269999999999,4.69312089190764E-16));
#1854=CARTESIAN_POINT('',(192.100000000001,-135.269999999999,16.));
#1855=CARTESIAN_POINT('Origin',(193.350000000001,-135.269999999999,16.));
#1856=CARTESIAN_POINT('',(192.100000000001,-135.269999999999,4.69312089190764E-16));
#1857=CARTESIAN_POINT('',(192.100000000001,-135.269999999999,4.69312089190764E-16));
#1858=CARTESIAN_POINT('Origin',(193.350000000001,-135.269999999999,4.69312089190764E-16));
#1859=CARTESIAN_POINT('Origin',(193.350000000001,-135.269999999999,4.69312089190764E-16));
#1860=CARTESIAN_POINT('',(191.350000000001,-135.269999999999,16.));
#1861=CARTESIAN_POINT('Origin',(193.350000000001,-135.269999999999,16.));
#1862=CARTESIAN_POINT('',(191.350000000001,-135.269999999999,4.69312089190764E-16));
#1863=CARTESIAN_POINT('',(191.350000000001,-135.269999999999,4.69312089190764E-16));
#1864=CARTESIAN_POINT('Origin',(193.350000000001,-135.269999999999,4.69312089190764E-16));
#1865=CARTESIAN_POINT('Origin',(193.350000000001,-135.269999999999,4.69312089190764E-16));
#1866=CARTESIAN_POINT('Origin',(193.350000000001,-135.269999999999,16.));
#1867=CARTESIAN_POINT('Origin',(95.6000000000004,-134.77,4.67577365714788E-16));
#1868=CARTESIAN_POINT('',(94.3500000000004,-134.77,16.));
#1869=CARTESIAN_POINT('Origin',(95.6000000000004,-134.77,16.));
#1870=CARTESIAN_POINT('',(94.3500000000004,-134.77,4.67577365714788E-16));
#1871=CARTESIAN_POINT('',(94.3500000000004,-134.77,4.67577365714788E-16));
#1872=CARTESIAN_POINT('Origin',(95.6000000000004,-134.77,4.67577365714788E-16));
#1873=CARTESIAN_POINT('Origin',(95.6000000000004,-134.77,4.67577365714788E-16));
#1874=CARTESIAN_POINT('',(93.6000000000004,-134.77,16.));
#1875=CARTESIAN_POINT('Origin',(95.6000000000004,-134.77,16.));
#1876=CARTESIAN_POINT('',(93.6000000000004,-134.77,4.67577365714788E-16));
#1877=CARTESIAN_POINT('',(93.6000000000004,-134.77,4.67577365714788E-16));
#1878=CARTESIAN_POINT('Origin',(95.6000000000004,-134.77,4.67577365714788E-16));
#1879=CARTESIAN_POINT('Origin',(95.6000000000004,-134.77,4.67577365714788E-16));
#1880=CARTESIAN_POINT('Origin',(95.6000000000004,-134.77,16.));
#1881=CARTESIAN_POINT('Origin',(193.364332253069,7.47068220170093,8.88178419700125E-15));
#1882=CARTESIAN_POINT('',(195.364332253069,7.47068220170093,16.));
#1883=CARTESIAN_POINT('Origin',(193.364332253069,7.47068220170093,16.));
#1884=CARTESIAN_POINT('',(195.364332253069,7.47068220170093,8.88178419700125E-15));
#1885=CARTESIAN_POINT('',(195.364332253069,7.47068220170093,8.88178419700125E-15));
#1886=CARTESIAN_POINT('Origin',(193.364332253069,7.47068220170093,8.88178419700125E-15));
#1887=CARTESIAN_POINT('Origin',(193.364332253069,7.47068220170093,16.));
#1888=CARTESIAN_POINT('Origin',(193.364332253069,7.47068220170093,8.88178419700125E-15));
#1889=UNCERTAINTY_MEASURE_WITH_UNIT(LENGTH_MEASURE(0.01),#1893,
'DISTANCE_ACCURACY_VALUE',
'Maximum model space distance between geometric entities at asserted c
onnectivities');
#1890=UNCERTAINTY_MEASURE_WITH_UNIT(LENGTH_MEASURE(0.01),#1893,
'DISTANCE_ACCURACY_VALUE',
'Maximum model space distance between geometric entities at asserted c
onnectivities');
#1891=(
GEOMETRIC_REPRESENTATION_CONTEXT(3)
GLOBAL_UNCERTAINTY_ASSIGNED_CONTEXT((#1889))
GLOBAL_UNIT_ASSIGNED_CONTEXT((#1893,#1894,#1895))
REPRESENTATION_CONTEXT('','3D')
);
#1892=(
GEOMETRIC_REPRESENTATION_CONTEXT(3)
GLOBAL_UNCERTAINTY_ASSIGNED_CONTEXT((#1890))
GLOBAL_UNIT_ASSIGNED_CONTEXT((#1893,#1894,#1895))
REPRESENTATION_CONTEXT('','3D')
);
#1893=(
LENGTH_UNIT()
NAMED_UNIT(*)
SI_UNIT(.MILLI.,.METRE.)
);
#1894=(
NAMED_UNIT(*)
PLANE_ANGLE_UNIT()
SI_UNIT($,.RADIAN.)
);
#1895=(
NAMED_UNIT(*)
SI_UNIT($,.STERADIAN.)
SOLID_ANGLE_UNIT()
);
#1896=SHAPE_DEFINITION_REPRESENTATION(#1897,#1898);
#1897=PRODUCT_DEFINITION_SHAPE('',$,#1900);
#1898=SHAPE_REPRESENTATION('',(#1185),#1891);
#1899=PRODUCT_DEFINITION_CONTEXT('part definition',#1904,'design');
#1900=PRODUCT_DEFINITION('Libre 1','Libre_PCB (1)',#1901,#1899);
#1901=PRODUCT_DEFINITION_FORMATION('',$,#1906);
#1902=PRODUCT_RELATED_PRODUCT_CATEGORY('Libre_PCB (1)','Libre_PCB (1)',
(#1906));
#1903=APPLICATION_PROTOCOL_DEFINITION('international standard',
'automotive_design',2009,#1904);
#1904=APPLICATION_CONTEXT(
'Core Data for Automotive Mechanical Design Process');
#1905=PRODUCT_CONTEXT('part definition',#1904,'mechanical');
#1906=PRODUCT('Libre 1','Libre_PCB (1)','KiCad electronic assembly',(#1905));
#1907=PRESENTATION_STYLE_ASSIGNMENT((#1908));
#1908=SURFACE_STYLE_USAGE(.BOTH.,#1909);
#1909=SURFACE_SIDE_STYLE('',(#1910));
#1910=SURFACE_STYLE_FILL_AREA(#1911);
#1911=FILL_AREA_STYLE('Steel - Satin',(#1912));
#1912=FILL_AREA_STYLE_COLOUR('Steel - Satin',#1913);
#1913=COLOUR_RGB('Steel - Satin',0.627450980392157,0.627450980392157,0.627450980392157);
ENDSEC;
END-ISO-10303-21;
