ISO-10303-21;
HEADER;
/* Generated by software containing ST-Developer
 * from STEP Tools, Inc. (www.steptools.com) 
 */

FILE_DESCRIPTION(
/* description */ (''),
/* implementation_level */ '2;1');

FILE_NAME(
/* name */ 'Switch Case.step',
/* time_stamp */ '2026-09-16T11:48:15+05:30',
/* author */ (''),
/* organization */ (''),
/* preprocessor_version */ 'ST-DEVELOPER v20.2',
/* originating_system */ 'Autodesk Translation Framework v15.15.0.0',
/* authorisation */ '');

FILE_SCHEMA (('AUTOMOTIVE_DESIGN { 1 0 10303 214 3 1 1 }'));
ENDSEC;

DATA;
#10=MECHANICAL_DESIGN_GEOMETRIC_PRESENTATION_REPRESENTATION('',(#13),#507);
#11=SHAPE_REPRESENTATION_RELATIONSHIP('SRR','None',#514,#12);
#12=ADVANCED_BREP_SHAPE_REPRESENTATION('',(#14),#506);
#13=STYLED_ITEM('',(#523),#14);
#14=MANIFOLD_SOLID_BREP('Body3',#295);
#15=FACE_BOUND('',#115,.T.);
#16=FACE_BOUND('',#116,.T.);
#17=FACE_BOUND('',#117,.T.);
#18=FACE_BOUND('',#118,.T.);
#19=FACE_BOUND('',#119,.T.);
#20=CYLINDRICAL_SURFACE('',#325,0.325);
#21=CYLINDRICAL_SURFACE('',#327,0.325);
#22=CYLINDRICAL_SURFACE('',#329,1.25299638060751);
#23=CYLINDRICAL_SURFACE('',#331,0.325);
#24=CYLINDRICAL_SURFACE('',#333,0.325);
#25=LINE('',#443,#51);
#26=LINE('',#445,#52);
#27=LINE('',#447,#53);
#28=LINE('',#448,#54);
#29=LINE('',#452,#55);
#30=LINE('',#454,#56);
#31=LINE('',#456,#57);
#32=LINE('',#458,#58);
#33=LINE('',#460,#59);
#34=LINE('',#461,#60);
#35=LINE('',#463,#61);
#36=LINE('',#464,#62);
#37=LINE('',#466,#63);
#38=LINE('',#469,#64);
#39=LINE('',#471,#65);
#40=LINE('',#472,#66);
#41=LINE('',#475,#67);
#42=LINE('',#476,#68);
#43=LINE('',#479,#69);
#44=LINE('',#483,#70);
#45=LINE('',#487,#71);
#46=LINE('',#491,#72);
#47=LINE('',#495,#73);
#48=LINE('',#499,#74);
#49=LINE('',#500,#75);
#50=LINE('',#502,#76);
#51=VECTOR('',#362,10.);
#52=VECTOR('',#363,10.);
#53=VECTOR('',#364,10.);
#54=VECTOR('',#365,10.);
#55=VECTOR('',#368,10.);
#56=VECTOR('',#369,10.);
#57=VECTOR('',#370,10.);
#58=VECTOR('',#371,10.);
#59=VECTOR('',#372,10.);
#60=VECTOR('',#373,10.);
#61=VECTOR('',#376,10.);
#62=VECTOR('',#377,10.);
#63=VECTOR('',#380,10.);
#64=VECTOR('',#383,10.);
#65=VECTOR('',#384,10.);
#66=VECTOR('',#385,10.);
#67=VECTOR('',#388,10.);
#68=VECTOR('',#389,10.);
#69=VECTOR('',#392,0.325);
#70=VECTOR('',#397,0.325);
#71=VECTOR('',#402,1.25299638060751);
#72=VECTOR('',#407,0.325);
#73=VECTOR('',#412,0.325);
#74=VECTOR('',#417,10.);
#75=VECTOR('',#418,10.);
#76=VECTOR('',#421,10.);
#77=FACE_OUTER_BOUND('',#96,.T.);
#78=FACE_OUTER_BOUND('',#97,.T.);
#79=FACE_OUTER_BOUND('',#98,.T.);
#80=FACE_OUTER_BOUND('',#99,.T.);
#81=FACE_OUTER_BOUND('',#100,.T.);
#82=FACE_OUTER_BOUND('',#101,.T.);
#83=FACE_OUTER_BOUND('',#102,.T.);
#84=FACE_OUTER_BOUND('',#103,.T.);
#85=FACE_OUTER_BOUND('',#104,.T.);
#86=FACE_OUTER_BOUND('',#105,.T.);
#87=FACE_OUTER_BOUND('',#106,.T.);
#88=FACE_OUTER_BOUND('',#107,.T.);
#89=FACE_OUTER_BOUND('',#108,.T.);
#90=FACE_OUTER_BOUND('',#109,.T.);
#91=FACE_OUTER_BOUND('',#110,.T.);
#92=FACE_OUTER_BOUND('',#111,.T.);
#93=FACE_OUTER_BOUND('',#112,.T.);
#94=FACE_OUTER_BOUND('',#113,.T.);
#95=FACE_OUTER_BOUND('',#114,.T.);
#96=EDGE_LOOP('',(#190));
#97=EDGE_LOOP('',(#191));
#98=EDGE_LOOP('',(#192));
#99=EDGE_LOOP('',(#193));
#100=EDGE_LOOP('',(#194));
#101=EDGE_LOOP('',(#195,#196,#197,#198));
#102=EDGE_LOOP('',(#199,#200,#201,#202,#203,#204));
#103=EDGE_LOOP('',(#205,#206,#207,#208));
#104=EDGE_LOOP('',(#209,#210,#211,#212));
#105=EDGE_LOOP('',(#213,#214,#215,#216,#217,#218));
#106=EDGE_LOOP('',(#219,#220,#221,#222,#223,#224));
#107=EDGE_LOOP('',(#225,#226,#227,#228));
#108=EDGE_LOOP('',(#229,#230,#231,#232));
#109=EDGE_LOOP('',(#233,#234,#235,#236));
#110=EDGE_LOOP('',(#237,#238,#239,#240));
#111=EDGE_LOOP('',(#241,#242,#243,#244));
#112=EDGE_LOOP('',(#245,#246,#247,#248));
#113=EDGE_LOOP('',(#249,#250,#251,#252));
#114=EDGE_LOOP('',(#253,#254,#255,#256));
#115=EDGE_LOOP('',(#257));
#116=EDGE_LOOP('',(#258));
#117=EDGE_LOOP('',(#259));
#118=EDGE_LOOP('',(#260));
#119=EDGE_LOOP('',(#261));
#120=CIRCLE('',#310,0.325);
#121=CIRCLE('',#312,0.325);
#122=CIRCLE('',#314,1.25299638060751);
#123=CIRCLE('',#316,0.325);
#124=CIRCLE('',#318,0.325);
#125=CIRCLE('',#326,0.325);
#126=CIRCLE('',#328,0.325);
#127=CIRCLE('',#330,1.25299638060751);
#128=CIRCLE('',#332,0.325);
#129=CIRCLE('',#334,0.325);
#130=VERTEX_POINT('',#426);
#131=VERTEX_POINT('',#429);
#132=VERTEX_POINT('',#432);
#133=VERTEX_POINT('',#435);
#134=VERTEX_POINT('',#438);
#135=VERTEX_POINT('',#441);
#136=VERTEX_POINT('',#442);
#137=VERTEX_POINT('',#444);
#138=VERTEX_POINT('',#446);
#139=VERTEX_POINT('',#450);
#140=VERTEX_POINT('',#451);
#141=VERTEX_POINT('',#453);
#142=VERTEX_POINT('',#455);
#143=VERTEX_POINT('',#457);
#144=VERTEX_POINT('',#459);
#145=VERTEX_POINT('',#468);
#146=VERTEX_POINT('',#470);
#147=VERTEX_POINT('',#474);
#148=VERTEX_POINT('',#478);
#149=VERTEX_POINT('',#482);
#150=VERTEX_POINT('',#486);
#151=VERTEX_POINT('',#490);
#152=VERTEX_POINT('',#494);
#153=VERTEX_POINT('',#498);
#154=EDGE_CURVE('',#130,#130,#120,.T.);
#155=EDGE_CURVE('',#131,#131,#121,.T.);
#156=EDGE_CURVE('',#132,#132,#122,.T.);
#157=EDGE_CURVE('',#133,#133,#123,.T.);
#158=EDGE_CURVE('',#134,#134,#124,.T.);
#159=EDGE_CURVE('',#135,#136,#25,.T.);
#160=EDGE_CURVE('',#136,#137,#26,.T.);
#161=EDGE_CURVE('',#137,#138,#27,.T.);
#162=EDGE_CURVE('',#138,#135,#28,.T.);
#163=EDGE_CURVE('',#139,#140,#29,.T.);
#164=EDGE_CURVE('',#139,#141,#30,.T.);
#165=EDGE_CURVE('',#141,#142,#31,.T.);
#166=EDGE_CURVE('',#142,#143,#32,.T.);
#167=EDGE_CURVE('',#143,#144,#33,.T.);
#168=EDGE_CURVE('',#140,#144,#34,.T.);
#169=EDGE_CURVE('',#136,#142,#35,.T.);
#170=EDGE_CURVE('',#137,#141,#36,.T.);
#171=EDGE_CURVE('',#135,#143,#37,.T.);
#172=EDGE_CURVE('',#138,#145,#38,.T.);
#173=EDGE_CURVE('',#145,#146,#39,.T.);
#174=EDGE_CURVE('',#146,#144,#40,.T.);
#175=EDGE_CURVE('',#147,#139,#41,.T.);
#176=EDGE_CURVE('',#147,#145,#42,.T.);
#177=EDGE_CURVE('',#134,#148,#43,.T.);
#178=EDGE_CURVE('',#148,#148,#125,.T.);
#179=EDGE_CURVE('',#133,#149,#44,.T.);
#180=EDGE_CURVE('',#149,#149,#126,.T.);
#181=EDGE_CURVE('',#132,#150,#45,.T.);
#182=EDGE_CURVE('',#150,#150,#127,.T.);
#183=EDGE_CURVE('',#131,#151,#46,.T.);
#184=EDGE_CURVE('',#151,#151,#128,.T.);
#185=EDGE_CURVE('',#130,#152,#47,.T.);
#186=EDGE_CURVE('',#152,#152,#129,.T.);
#187=EDGE_CURVE('',#146,#153,#48,.T.);
#188=EDGE_CURVE('',#153,#140,#49,.T.);
#189=EDGE_CURVE('',#153,#147,#50,.T.);
#190=ORIENTED_EDGE('',*,*,#154,.F.);
#191=ORIENTED_EDGE('',*,*,#155,.F.);
#192=ORIENTED_EDGE('',*,*,#156,.F.);
#193=ORIENTED_EDGE('',*,*,#157,.F.);
#194=ORIENTED_EDGE('',*,*,#158,.F.);
#195=ORIENTED_EDGE('',*,*,#159,.T.);
#196=ORIENTED_EDGE('',*,*,#160,.T.);
#197=ORIENTED_EDGE('',*,*,#161,.T.);
#198=ORIENTED_EDGE('',*,*,#162,.T.);
#199=ORIENTED_EDGE('',*,*,#163,.F.);
#200=ORIENTED_EDGE('',*,*,#164,.T.);
#201=ORIENTED_EDGE('',*,*,#165,.T.);
#202=ORIENTED_EDGE('',*,*,#166,.T.);
#203=ORIENTED_EDGE('',*,*,#167,.T.);
#204=ORIENTED_EDGE('',*,*,#168,.F.);
#205=ORIENTED_EDGE('',*,*,#169,.T.);
#206=ORIENTED_EDGE('',*,*,#165,.F.);
#207=ORIENTED_EDGE('',*,*,#170,.F.);
#208=ORIENTED_EDGE('',*,*,#160,.F.);
#209=ORIENTED_EDGE('',*,*,#171,.T.);
#210=ORIENTED_EDGE('',*,*,#166,.F.);
#211=ORIENTED_EDGE('',*,*,#169,.F.);
#212=ORIENTED_EDGE('',*,*,#159,.F.);
#213=ORIENTED_EDGE('',*,*,#172,.T.);
#214=ORIENTED_EDGE('',*,*,#173,.T.);
#215=ORIENTED_EDGE('',*,*,#174,.T.);
#216=ORIENTED_EDGE('',*,*,#167,.F.);
#217=ORIENTED_EDGE('',*,*,#171,.F.);
#218=ORIENTED_EDGE('',*,*,#162,.F.);
#219=ORIENTED_EDGE('',*,*,#175,.F.);
#220=ORIENTED_EDGE('',*,*,#176,.T.);
#221=ORIENTED_EDGE('',*,*,#172,.F.);
#222=ORIENTED_EDGE('',*,*,#161,.F.);
#223=ORIENTED_EDGE('',*,*,#170,.T.);
#224=ORIENTED_EDGE('',*,*,#164,.F.);
#225=ORIENTED_EDGE('',*,*,#158,.T.);
#226=ORIENTED_EDGE('',*,*,#177,.T.);
#227=ORIENTED_EDGE('',*,*,#178,.T.);
#228=ORIENTED_EDGE('',*,*,#177,.F.);
#229=ORIENTED_EDGE('',*,*,#157,.T.);
#230=ORIENTED_EDGE('',*,*,#179,.T.);
#231=ORIENTED_EDGE('',*,*,#180,.T.);
#232=ORIENTED_EDGE('',*,*,#179,.F.);
#233=ORIENTED_EDGE('',*,*,#156,.T.);
#234=ORIENTED_EDGE('',*,*,#181,.T.);
#235=ORIENTED_EDGE('',*,*,#182,.T.);
#236=ORIENTED_EDGE('',*,*,#181,.F.);
#237=ORIENTED_EDGE('',*,*,#155,.T.);
#238=ORIENTED_EDGE('',*,*,#183,.T.);
#239=ORIENTED_EDGE('',*,*,#184,.T.);
#240=ORIENTED_EDGE('',*,*,#183,.F.);
#241=ORIENTED_EDGE('',*,*,#154,.T.);
#242=ORIENTED_EDGE('',*,*,#185,.T.);
#243=ORIENTED_EDGE('',*,*,#186,.T.);
#244=ORIENTED_EDGE('',*,*,#185,.F.);
#245=ORIENTED_EDGE('',*,*,#168,.T.);
#246=ORIENTED_EDGE('',*,*,#174,.F.);
#247=ORIENTED_EDGE('',*,*,#187,.T.);
#248=ORIENTED_EDGE('',*,*,#188,.T.);
#249=ORIENTED_EDGE('',*,*,#163,.T.);
#250=ORIENTED_EDGE('',*,*,#188,.F.);
#251=ORIENTED_EDGE('',*,*,#189,.T.);
#252=ORIENTED_EDGE('',*,*,#175,.T.);
#253=ORIENTED_EDGE('',*,*,#189,.F.);
#254=ORIENTED_EDGE('',*,*,#187,.F.);
#255=ORIENTED_EDGE('',*,*,#173,.F.);
#256=ORIENTED_EDGE('',*,*,#176,.F.);
#257=ORIENTED_EDGE('',*,*,#186,.F.);
#258=ORIENTED_EDGE('',*,*,#184,.F.);
#259=ORIENTED_EDGE('',*,*,#182,.F.);
#260=ORIENTED_EDGE('',*,*,#180,.F.);
#261=ORIENTED_EDGE('',*,*,#178,.F.);
#262=PLANE('',#309);
#263=PLANE('',#311);
#264=PLANE('',#313);
#265=PLANE('',#315);
#266=PLANE('',#317);
#267=PLANE('',#319);
#268=PLANE('',#320);
#269=PLANE('',#321);
#270=PLANE('',#322);
#271=PLANE('',#323);
#272=PLANE('',#324);
#273=PLANE('',#335);
#274=PLANE('',#336);
#275=PLANE('',#337);
#276=ADVANCED_FACE('',(#77),#262,.F.);
#277=ADVANCED_FACE('',(#78),#263,.F.);
#278=ADVANCED_FACE('',(#79),#264,.F.);
#279=ADVANCED_FACE('',(#80),#265,.F.);
#280=ADVANCED_FACE('',(#81),#266,.F.);
#281=ADVANCED_FACE('',(#82),#267,.T.);
#282=ADVANCED_FACE('',(#83),#268,.F.);
#283=ADVANCED_FACE('',(#84),#269,.F.);
#284=ADVANCED_FACE('',(#85),#270,.F.);
#285=ADVANCED_FACE('',(#86),#271,.T.);
#286=ADVANCED_FACE('',(#87),#272,.T.);
#287=ADVANCED_FACE('',(#88),#20,.F.);
#288=ADVANCED_FACE('',(#89),#21,.F.);
#289=ADVANCED_FACE('',(#90),#22,.F.);
#290=ADVANCED_FACE('',(#91),#23,.F.);
#291=ADVANCED_FACE('',(#92),#24,.F.);
#292=ADVANCED_FACE('',(#93),#273,.T.);
#293=ADVANCED_FACE('',(#94),#274,.T.);
#294=ADVANCED_FACE('',(#95,#15,#16,#17,#18,#19),#275,.F.);
#295=CLOSED_SHELL('',(#276,#277,#278,#279,#280,#281,#282,#283,#284,#285,
#286,#287,#288,#289,#290,#291,#292,#293,#294));
#296=DERIVED_UNIT_ELEMENT(#298,1.);
#297=DERIVED_UNIT_ELEMENT(#509,-3.);
#298=(
MASS_UNIT()
NAMED_UNIT(*)
SI_UNIT(.KILO.,.GRAM.)
);
#299=DERIVED_UNIT((#296,#297));
#300=MEASURE_REPRESENTATION_ITEM('density measure',
POSITIVE_RATIO_MEASURE(7850.),#299);
#301=PROPERTY_DEFINITION_REPRESENTATION(#306,#303);
#302=PROPERTY_DEFINITION_REPRESENTATION(#307,#304);
#303=REPRESENTATION('material name',(#305),#506);
#304=REPRESENTATION('density',(#300),#506);
#305=DESCRIPTIVE_REPRESENTATION_ITEM('Steel','Steel');
#306=PROPERTY_DEFINITION('material property','material name',#516);
#307=PROPERTY_DEFINITION('material property','density of part',#516);
#308=AXIS2_PLACEMENT_3D('',#424,#338,#339);
#309=AXIS2_PLACEMENT_3D('',#425,#340,#341);
#310=AXIS2_PLACEMENT_3D('',#427,#342,#343);
#311=AXIS2_PLACEMENT_3D('',#428,#344,#345);
#312=AXIS2_PLACEMENT_3D('',#430,#346,#347);
#313=AXIS2_PLACEMENT_3D('',#431,#348,#349);
#314=AXIS2_PLACEMENT_3D('',#433,#350,#351);
#315=AXIS2_PLACEMENT_3D('',#434,#352,#353);
#316=AXIS2_PLACEMENT_3D('',#436,#354,#355);
#317=AXIS2_PLACEMENT_3D('',#437,#356,#357);
#318=AXIS2_PLACEMENT_3D('',#439,#358,#359);
#319=AXIS2_PLACEMENT_3D('',#440,#360,#361);
#320=AXIS2_PLACEMENT_3D('',#449,#366,#367);
#321=AXIS2_PLACEMENT_3D('',#462,#374,#375);
#322=AXIS2_PLACEMENT_3D('',#465,#378,#379);
#323=AXIS2_PLACEMENT_3D('',#467,#381,#382);
#324=AXIS2_PLACEMENT_3D('',#473,#386,#387);
#325=AXIS2_PLACEMENT_3D('',#477,#390,#391);
#326=AXIS2_PLACEMENT_3D('',#480,#393,#394);
#327=AXIS2_PLACEMENT_3D('',#481,#395,#396);
#328=AXIS2_PLACEMENT_3D('',#484,#398,#399);
#329=AXIS2_PLACEMENT_3D('',#485,#400,#401);
#330=AXIS2_PLACEMENT_3D('',#488,#403,#404);
#331=AXIS2_PLACEMENT_3D('',#489,#405,#406);
#332=AXIS2_PLACEMENT_3D('',#492,#408,#409);
#333=AXIS2_PLACEMENT_3D('',#493,#410,#411);
#334=AXIS2_PLACEMENT_3D('',#496,#413,#414);
#335=AXIS2_PLACEMENT_3D('',#497,#415,#416);
#336=AXIS2_PLACEMENT_3D('',#501,#419,#420);
#337=AXIS2_PLACEMENT_3D('',#503,#422,#423);
#338=DIRECTION('axis',(0.,0.,1.));
#339=DIRECTION('refdir',(1.,0.,0.));
#340=DIRECTION('center_axis',(0.,0.,1.));
#341=DIRECTION('ref_axis',(0.,-1.,0.));
#342=DIRECTION('center_axis',(0.,0.,1.));
#343=DIRECTION('ref_axis',(-1.,0.,0.));
#344=DIRECTION('center_axis',(0.,0.,1.));
#345=DIRECTION('ref_axis',(0.,-1.,0.));
#346=DIRECTION('center_axis',(0.,0.,1.));
#347=DIRECTION('ref_axis',(-1.,0.,0.));
#348=DIRECTION('center_axis',(0.,0.,1.));
#349=DIRECTION('ref_axis',(0.,-1.,0.));
#350=DIRECTION('center_axis',(0.,0.,1.));
#351=DIRECTION('ref_axis',(-1.,0.,0.));
#352=DIRECTION('center_axis',(0.,0.,1.));
#353=DIRECTION('ref_axis',(0.,-1.,0.));
#354=DIRECTION('center_axis',(0.,0.,1.));
#355=DIRECTION('ref_axis',(-1.,0.,0.));
#356=DIRECTION('center_axis',(0.,0.,1.));
#357=DIRECTION('ref_axis',(0.,-1.,0.));
#358=DIRECTION('center_axis',(0.,0.,1.));
#359=DIRECTION('ref_axis',(-1.,0.,0.));
#360=DIRECTION('center_axis',(0.,0.,1.));
#361=DIRECTION('ref_axis',(0.,-1.,0.));
#362=DIRECTION('',(1.,0.,0.));
#363=DIRECTION('',(0.,1.,0.));
#364=DIRECTION('',(-1.,0.,0.));
#365=DIRECTION('',(0.,-1.,0.));
#366=DIRECTION('center_axis',(0.,0.,1.));
#367=DIRECTION('ref_axis',(0.,-1.,0.));
#368=DIRECTION('',(0.,-1.,0.));
#369=DIRECTION('',(1.,0.,0.));
#370=DIRECTION('',(0.,-1.,0.));
#371=DIRECTION('',(-1.,0.,0.));
#372=DIRECTION('',(0.,1.,0.));
#373=DIRECTION('',(-1.,0.,0.));
#374=DIRECTION('center_axis',(-1.,0.,0.));
#375=DIRECTION('ref_axis',(0.,0.,-1.));
#376=DIRECTION('',(0.,0.,-1.));
#377=DIRECTION('',(0.,0.,-1.));
#378=DIRECTION('center_axis',(0.,1.,0.));
#379=DIRECTION('ref_axis',(0.,0.,1.));
#380=DIRECTION('',(0.,0.,-1.));
#381=DIRECTION('center_axis',(-1.,0.,0.));
#382=DIRECTION('ref_axis',(0.,-1.,0.));
#383=DIRECTION('',(0.,0.,-1.));
#384=DIRECTION('',(0.,-1.,0.));
#385=DIRECTION('',(0.,0.,1.));
#386=DIRECTION('center_axis',(0.,1.,0.));
#387=DIRECTION('ref_axis',(-1.,0.,0.));
#388=DIRECTION('',(0.,0.,1.));
#389=DIRECTION('',(-1.,0.,0.));
#390=DIRECTION('center_axis',(0.,0.,1.));
#391=DIRECTION('ref_axis',(-1.,0.,0.));
#392=DIRECTION('',(0.,0.,-1.));
#393=DIRECTION('center_axis',(0.,0.,-1.));
#394=DIRECTION('ref_axis',(-1.,0.,0.));
#395=DIRECTION('center_axis',(0.,0.,1.));
#396=DIRECTION('ref_axis',(-1.,0.,0.));
#397=DIRECTION('',(0.,0.,-1.));
#398=DIRECTION('center_axis',(0.,0.,-1.));
#399=DIRECTION('ref_axis',(-1.,0.,0.));
#400=DIRECTION('center_axis',(0.,0.,1.));
#401=DIRECTION('ref_axis',(-1.,0.,0.));
#402=DIRECTION('',(0.,0.,-1.));
#403=DIRECTION('center_axis',(0.,0.,-1.));
#404=DIRECTION('ref_axis',(-1.,0.,0.));
#405=DIRECTION('center_axis',(0.,0.,1.));
#406=DIRECTION('ref_axis',(-1.,0.,0.));
#407=DIRECTION('',(0.,0.,-1.));
#408=DIRECTION('center_axis',(0.,0.,-1.));
#409=DIRECTION('ref_axis',(-1.,0.,0.));
#410=DIRECTION('center_axis',(0.,0.,1.));
#411=DIRECTION('ref_axis',(-1.,0.,0.));
#412=DIRECTION('',(0.,0.,-1.));
#413=DIRECTION('center_axis',(0.,0.,-1.));
#414=DIRECTION('ref_axis',(-1.,0.,0.));
#415=DIRECTION('center_axis',(0.,-1.,0.));
#416=DIRECTION('ref_axis',(1.,0.,0.));
#417=DIRECTION('',(1.,0.,0.));
#418=DIRECTION('',(0.,0.,1.));
#419=DIRECTION('center_axis',(1.,0.,0.));
#420=DIRECTION('ref_axis',(0.,1.,0.));
#421=DIRECTION('',(0.,1.,0.));
#422=DIRECTION('center_axis',(0.,0.,1.));
#423=DIRECTION('ref_axis',(-1.,0.,0.));
#424=CARTESIAN_POINT('',(0.,0.,0.));
#425=CARTESIAN_POINT('Origin',(1.6582933655418E-5,-0.000157287525381078,
26.108));
#426=CARTESIAN_POINT('',(-1.225,-1.55,26.108));
#427=CARTESIAN_POINT('Origin',(-1.55,-1.55,26.108));
#428=CARTESIAN_POINT('Origin',(1.6582933655418E-5,-0.000157287525381078,
26.108));
#429=CARTESIAN_POINT('',(1.875,1.55,26.108));
#430=CARTESIAN_POINT('Origin',(1.55,1.55,26.108));
#431=CARTESIAN_POINT('Origin',(1.6582933655418E-5,-0.000157287525381078,
26.108));
#432=CARTESIAN_POINT('',(1.25299638060751,1.53447800685421E-16,26.108));
#433=CARTESIAN_POINT('Origin',(0.,0.,26.108));
#434=CARTESIAN_POINT('Origin',(1.6582933655418E-5,-0.000157287525381078,
26.108));
#435=CARTESIAN_POINT('',(-1.225,1.55,26.108));
#436=CARTESIAN_POINT('Origin',(-1.55,1.55,26.108));
#437=CARTESIAN_POINT('Origin',(1.6582933655418E-5,-0.000157287525381078,
26.108));
#438=CARTESIAN_POINT('',(1.875,-1.55,26.108));
#439=CARTESIAN_POINT('Origin',(1.55,-1.55,26.108));
#440=CARTESIAN_POINT('Origin',(1.6582933655418E-5,-0.000157287525381078,
26.608));
#441=CARTESIAN_POINT('',(-2.04648341706634,-2.13315728752538,26.608));
#442=CARTESIAN_POINT('',(2.04651658293366,-2.13315728752538,26.608));
#443=CARTESIAN_POINT('',(1.6582933655418E-5,-2.13315728752538,26.608));
#444=CARTESIAN_POINT('',(2.04651658293366,2.13284271247462,26.608));
#445=CARTESIAN_POINT('',(2.04651658293366,-0.000157287525381078,26.608));
#446=CARTESIAN_POINT('',(-2.04648341706634,2.13284271247462,26.608));
#447=CARTESIAN_POINT('',(1.6582933655418E-5,2.13284271247462,26.608));
#448=CARTESIAN_POINT('',(-2.04648341706634,-0.000157287525381078,26.608));
#449=CARTESIAN_POINT('Origin',(1.6582933655418E-5,-0.000157287525381078,
26.108));
#450=CARTESIAN_POINT('',(2.04648341706635,2.13284271247462,26.108));
#451=CARTESIAN_POINT('',(2.04648341706635,-2.13284271247462,26.108));
#452=CARTESIAN_POINT('',(2.04648341706634,-1.06642135623731,26.108));
#453=CARTESIAN_POINT('',(2.04651658293366,2.13284271247462,26.108));
#454=CARTESIAN_POINT('',(1.6582933655418E-5,2.13284271247462,26.108));
#455=CARTESIAN_POINT('',(2.04651658293366,-2.13315728752538,26.108));
#456=CARTESIAN_POINT('',(2.04651658293366,-0.000157287525381078,26.108));
#457=CARTESIAN_POINT('',(-2.04648341706634,-2.13315728752538,26.108));
#458=CARTESIAN_POINT('',(1.6582933655418E-5,-2.13315728752538,26.108));
#459=CARTESIAN_POINT('',(-2.04648341706634,-2.13284271247462,26.108));
#460=CARTESIAN_POINT('',(-2.04648341706634,-0.000157287525381078,26.108));
#461=CARTESIAN_POINT('',(-1.02324170853317,-2.13284271247462,26.108));
#462=CARTESIAN_POINT('Origin',(2.04651658293366,-0.000157287525381078,26.358));
#463=CARTESIAN_POINT('',(2.04651658293366,-2.13315728752538,26.358));
#464=CARTESIAN_POINT('',(2.04651658293366,2.13284271247462,26.358));
#465=CARTESIAN_POINT('Origin',(1.6582933655418E-5,-2.13315728752538,26.358));
#466=CARTESIAN_POINT('',(-2.04648341706634,-2.13315728752538,26.358));
#467=CARTESIAN_POINT('Origin',(-2.04648341706634,2.13284271247462,3.));
#468=CARTESIAN_POINT('',(-2.04648341706634,2.13284271247462,3.));
#469=CARTESIAN_POINT('',(-2.04648341706634,2.13284271247462,26.358));
#470=CARTESIAN_POINT('',(-2.04648341706634,-2.13284271247462,3.));
#471=CARTESIAN_POINT('',(-2.04648341706634,2.13284271247462,3.));
#472=CARTESIAN_POINT('',(-2.04648341706634,-2.13284271247462,3.));
#473=CARTESIAN_POINT('Origin',(2.04648341706634,2.13284271247462,3.));
#474=CARTESIAN_POINT('',(2.04648341706634,2.13284271247462,3.));
#475=CARTESIAN_POINT('',(2.04648341706634,2.13284271247462,3.));
#476=CARTESIAN_POINT('',(2.04648341706634,2.13284271247462,3.));
#477=CARTESIAN_POINT('Origin',(1.55,-1.55,3.));
#478=CARTESIAN_POINT('',(1.875,-1.55,3.));
#479=CARTESIAN_POINT('',(1.875,-1.55,3.));
#480=CARTESIAN_POINT('Origin',(1.55,-1.55,3.));
#481=CARTESIAN_POINT('Origin',(-1.55,1.55,3.));
#482=CARTESIAN_POINT('',(-1.225,1.55,3.));
#483=CARTESIAN_POINT('',(-1.225,1.55,3.));
#484=CARTESIAN_POINT('Origin',(-1.55,1.55,3.));
#485=CARTESIAN_POINT('Origin',(0.,0.,3.));
#486=CARTESIAN_POINT('',(1.25299638060751,1.53447800685421E-16,3.));
#487=CARTESIAN_POINT('',(1.25299638060751,1.53447800685421E-16,3.));
#488=CARTESIAN_POINT('Origin',(0.,0.,3.));
#489=CARTESIAN_POINT('Origin',(1.55,1.55,3.));
#490=CARTESIAN_POINT('',(1.875,1.55,3.));
#491=CARTESIAN_POINT('',(1.875,1.55,3.));
#492=CARTESIAN_POINT('Origin',(1.55,1.55,3.));
#493=CARTESIAN_POINT('Origin',(-1.55,-1.55,3.));
#494=CARTESIAN_POINT('',(-1.225,-1.55,3.));
#495=CARTESIAN_POINT('',(-1.225,-1.55,3.));
#496=CARTESIAN_POINT('Origin',(-1.55,-1.55,3.));
#497=CARTESIAN_POINT('Origin',(-2.04648341706634,-2.13284271247462,3.));
#498=CARTESIAN_POINT('',(2.04648341706634,-2.13284271247462,3.));
#499=CARTESIAN_POINT('',(-2.04648341706634,-2.13284271247462,3.));
#500=CARTESIAN_POINT('',(2.04648341706634,-2.13284271247462,3.));
#501=CARTESIAN_POINT('Origin',(2.04648341706634,-2.13284271247462,3.));
#502=CARTESIAN_POINT('',(2.04648341706634,-2.13284271247462,3.));
#503=CARTESIAN_POINT('Origin',(0.,0.,3.));
#504=UNCERTAINTY_MEASURE_WITH_UNIT(LENGTH_MEASURE(0.01),#508,
'DISTANCE_ACCURACY_VALUE',
'Maximum model space distance between geometric entities at asserted c
onnectivities');
#505=UNCERTAINTY_MEASURE_WITH_UNIT(LENGTH_MEASURE(0.01),#508,
'DISTANCE_ACCURACY_VALUE',
'Maximum model space distance between geometric entities at asserted c
onnectivities');
#506=(
GEOMETRIC_REPRESENTATION_CONTEXT(3)
GLOBAL_UNCERTAINTY_ASSIGNED_CONTEXT((#504))
GLOBAL_UNIT_ASSIGNED_CONTEXT((#508,#510,#511))
REPRESENTATION_CONTEXT('','3D')
);
#507=(
GEOMETRIC_REPRESENTATION_CONTEXT(3)
GLOBAL_UNCERTAINTY_ASSIGNED_CONTEXT((#505))
GLOBAL_UNIT_ASSIGNED_CONTEXT((#508,#510,#511))
REPRESENTATION_CONTEXT('','3D')
);
#508=(
LENGTH_UNIT()
NAMED_UNIT(*)
SI_UNIT(.MILLI.,.METRE.)
);
#509=(
LENGTH_UNIT()
NAMED_UNIT(*)
SI_UNIT($,.METRE.)
);
#510=(
NAMED_UNIT(*)
PLANE_ANGLE_UNIT()
SI_UNIT($,.RADIAN.)
);
#511=(
NAMED_UNIT(*)
SI_UNIT($,.STERADIAN.)
SOLID_ANGLE_UNIT()
);
#512=SHAPE_DEFINITION_REPRESENTATION(#513,#514);
#513=PRODUCT_DEFINITION_SHAPE('',$,#516);
#514=SHAPE_REPRESENTATION('',(#308),#506);
#515=PRODUCT_DEFINITION_CONTEXT('part definition',#520,'design');
#516=PRODUCT_DEFINITION('SW_SPST_TL3305A','Switch Case',#517,#515);
#517=PRODUCT_DEFINITION_FORMATION('',$,#522);
#518=PRODUCT_RELATED_PRODUCT_CATEGORY('Switch Case','Switch Case',(#522));
#519=APPLICATION_PROTOCOL_DEFINITION('international standard',
'automotive_design',2009,#520);
#520=APPLICATION_CONTEXT(
'Core Data for Automotive Mechanical Design Process');
#521=PRODUCT_CONTEXT('part definition',#520,'mechanical');
#522=PRODUCT('SW_SPST_TL3305A','Switch Case',$,(#521));
#523=PRESENTATION_STYLE_ASSIGNMENT((#525));
#524=PRESENTATION_STYLE_ASSIGNMENT((#526));
#525=SURFACE_STYLE_USAGE(.BOTH.,#527);
#526=SURFACE_STYLE_USAGE(.BOTH.,#528);
#527=SURFACE_SIDE_STYLE('',(#529));
#528=SURFACE_SIDE_STYLE('',(#530));
#529=SURFACE_STYLE_FILL_AREA(#531);
#530=SURFACE_STYLE_FILL_AREA(#532);
#531=FILL_AREA_STYLE('Steel - Satin',(#533));
#532=FILL_AREA_STYLE('Opaque(38,37,37)',(#534));
#533=FILL_AREA_STYLE_COLOUR('Steel - Satin',#535);
#534=FILL_AREA_STYLE_COLOUR('Opaque(38,37,37)',#536);
#535=COLOUR_RGB('Steel - Satin',0.627450980392157,0.627450980392157,0.627450980392157);
#536=COLOUR_RGB('Opaque(38,37,37)',0.149019607843137,0.145098039215686,
0.145098039215686);
ENDSEC;
END-ISO-10303-21;
