M48
; DRILL file KiCad 10.0.5 date 2026-09-18T10:15:00
; FORMAT={-:-/ absolute / metric / decimal}
; #@! TF.CreationDate,2026-09-18T10:15:00+05:30
; #@! TF.GenerationSoftware,Kicad,Pcbnew,10.0.5
; #@! TF.FileFunction,Plated,1,2,PTH
FMAT,2
METRIC
; #@! TA.AperFunction,Plated,PTH,ViaDrill
T1C0.300
; #@! TA.AperFunction,Plated,PTH,ComponentDrill
T2C0.750
; #@! TA.AperFunction,Plated,PTH,ComponentDrill
T3C1.000
; #@! TA.AperFunction,Plated,PTH,ComponentDrill
T4C1.020
%
G90
G05
T1
X102.25Y-124.25
X102.25Y-125.75
X105.5Y-117.75
X108.684Y-124.434
X109.25Y-125.0
X111.325Y-123.75
X112.0Y-116.5
X122.25Y-133.5
X125.75Y-130.0
X126.0Y-117.5
X126.0Y-138.25
X126.25Y-97.5
X126.25Y-101.15
X126.25Y-119.0
X126.4Y-142.076
X126.5Y-133.5
X127.85Y-99.799
X128.25Y-102.0
X130.5Y-98.0
X134.25Y-118.0
X146.0Y-56.0
X157.25Y-158.575
X164.5Y-83.75
X169.25Y-116.5
X183.25Y-109.25
X185.25Y-76.5
X185.75Y-88.25
X187.5Y-89.525
X188.5Y-79.0
X190.007Y-80.25
X190.5Y-128.5
X190.787Y-85.429
X191.25Y-78.0
T2
X179.507Y-78.845
X181.507Y-78.845
T3
X108.25Y-70.25
X108.25Y-72.79
X108.25Y-75.33
X108.25Y-77.87
X108.25Y-80.41
X108.25Y-82.95
X108.25Y-85.49
X108.25Y-88.03
T4
X139.14Y-108.65
X139.14Y-111.19
X139.14Y-113.73
X139.14Y-116.27
X139.14Y-118.81
X139.14Y-121.35
X139.14Y-123.89
X139.14Y-126.43
X139.14Y-128.97
X139.14Y-131.51
X139.14Y-134.05
X139.14Y-136.59
X139.14Y-139.13
X139.14Y-141.67
X139.14Y-144.21
X139.14Y-146.75
X139.14Y-149.29
X139.14Y-151.83
X139.14Y-154.37
X139.14Y-156.91
X139.14Y-159.45
X139.14Y-161.99
X162.0Y-108.65
X162.0Y-111.19
X162.0Y-113.73
X162.0Y-116.27
X162.0Y-118.81
X162.0Y-121.35
X162.0Y-123.89
X162.0Y-126.43
X162.0Y-128.97
X162.0Y-131.51
X162.0Y-134.05
X162.0Y-136.59
X162.0Y-139.13
X162.0Y-141.67
X162.0Y-144.21
X162.0Y-146.75
X162.0Y-149.29
X162.0Y-151.83
X162.0Y-154.37
X162.0Y-156.91
X162.0Y-159.45
X162.0Y-161.99
M30
