%TF.GenerationSoftware,KiCad,Pcbnew,10.0.5*%
%TF.CreationDate,2026-09-18T10:15:03+05:30*%
%TF.ProjectId,Libre,4c696272-652e-46b6-9963-61645f706362,rev?*%
%TF.SameCoordinates,Original*%
%TF.FileFunction,Soldermask,Bot*%
%TF.FilePolarity,Negative*%
%FSLAX46Y46*%
G04 Gerber Fmt 4.6, Leading zero omitted, Abs format (unit mm)*
G04 Created by KiCad (PCBNEW 10.0.5) date 2026-09-18 10:15:03*
%MOMM*%
%LPD*%
G01*
G04 APERTURE LIST*
G04 Aperture macros list*
%AMRoundRect*
0 Rectangle with rounded corners*
0 $1 Rounding radius*
0 $2 $3 $4 $5 $6 $7 $8 $9 X,Y pos of 4 corners*
0 Add a 4 corners polygon primitive as box body*
4,1,4,$2,$3,$4,$5,$6,$7,$8,$9,$2,$3,0*
0 Add four circle primitives for the rounded corners*
1,1,$1+$1,$2,$3*
1,1,$1+$1,$4,$5*
1,1,$1+$1,$6,$7*
1,1,$1+$1,$8,$9*
0 Add four rect primitives between the rounded corners*
20,1,$1+$1,$2,$3,$4,$5,0*
20,1,$1+$1,$4,$5,$6,$7,0*
20,1,$1+$1,$6,$7,$8,$9,0*
20,1,$1+$1,$8,$9,$2,$3,0*%
G04 Aperture macros list end*
%ADD10C,2.500000*%
%ADD11C,0.900000*%
%ADD12RoundRect,0.225000X0.225000X0.250000X-0.225000X0.250000X-0.225000X-0.250000X0.225000X-0.250000X0*%
%ADD13RoundRect,0.200000X0.200000X0.275000X-0.200000X0.275000X-0.200000X-0.275000X0.200000X-0.275000X0*%
%ADD14RoundRect,0.150000X0.512500X0.150000X-0.512500X0.150000X-0.512500X-0.150000X0.512500X-0.150000X0*%
%ADD15C,1.734000*%
%ADD16RoundRect,0.102000X0.765000X0.765000X-0.765000X0.765000X-0.765000X-0.765000X0.765000X-0.765000X0*%
%ADD17RoundRect,0.250000X0.350000X0.625000X-0.350000X0.625000X-0.350000X-0.625000X0.350000X-0.625000X0*%
%ADD18O,1.200000X1.750000*%
%ADD19R,1.700000X1.700000*%
%ADD20C,1.700000*%
G04 APERTURE END LIST*
D10*
%TO.C,H4*%
X102750000Y-167500000D03*
%TD*%
%TO.C,H3*%
X200250000Y-167750000D03*
%TD*%
%TO.C,H2*%
X200500000Y-25250000D03*
%TD*%
%TO.C,H1*%
X102750000Y-24750000D03*
%TD*%
D11*
%TO.C,SW6*%
X102300000Y-133010000D03*
X102300000Y-139810000D03*
%TD*%
D12*
%TO.C,C1*%
X190157500Y-69045000D03*
X191707500Y-69045000D03*
%TD*%
%TO.C,C2*%
X190157500Y-71555000D03*
X191707500Y-71555000D03*
%TD*%
%TO.C,C5*%
X190157500Y-74065000D03*
X191707500Y-74065000D03*
%TD*%
D13*
%TO.C,R1*%
X190107500Y-76575000D03*
X191757500Y-76575000D03*
%TD*%
%TO.C,R2*%
X190107500Y-79085000D03*
X191757500Y-79085000D03*
%TD*%
%TO.C,R3*%
X190107500Y-81595000D03*
X191757500Y-81595000D03*
%TD*%
D14*
%TO.C,U3*%
X189225000Y-88925000D03*
X189225000Y-90825000D03*
X191500000Y-90825000D03*
X191500000Y-89875000D03*
X191500000Y-88925000D03*
%TD*%
%TO.C,U2*%
X189225000Y-84300000D03*
X189225000Y-86200000D03*
X191500000Y-86200000D03*
X191500000Y-85250000D03*
X191500000Y-84300000D03*
%TD*%
D15*
%TO.C,U1*%
X162000000Y-161990000D03*
X139140000Y-161990000D03*
X162000000Y-159450000D03*
X162000000Y-156910000D03*
X162000000Y-154370000D03*
X162000000Y-151830000D03*
X162000000Y-149290000D03*
X162000000Y-146750000D03*
X162000000Y-144210000D03*
X162000000Y-141670000D03*
X162000000Y-139130000D03*
X162000000Y-136590000D03*
X162000000Y-134050000D03*
X162000000Y-131510000D03*
X162000000Y-128970000D03*
X162000000Y-126430000D03*
X162000000Y-123890000D03*
X162000000Y-121350000D03*
X162000000Y-118810000D03*
X162000000Y-116270000D03*
X162000000Y-113730000D03*
X162000000Y-111190000D03*
D16*
X162000000Y-108650000D03*
D15*
X139140000Y-159450000D03*
X139140000Y-156910000D03*
X139140000Y-154370000D03*
X139140000Y-151830000D03*
X139140000Y-149290000D03*
X139140000Y-146750000D03*
X139140000Y-144210000D03*
X139140000Y-141670000D03*
X139140000Y-139130000D03*
X139140000Y-136590000D03*
X139140000Y-134050000D03*
X139140000Y-131510000D03*
X139140000Y-128970000D03*
X139140000Y-126430000D03*
X139140000Y-123890000D03*
X139140000Y-121350000D03*
X139140000Y-118810000D03*
X139140000Y-116270000D03*
X139140000Y-113730000D03*
X139140000Y-111190000D03*
X139140000Y-108650000D03*
%TD*%
D17*
%TO.C,J3*%
X181507500Y-78845000D03*
D18*
X179507500Y-78845000D03*
%TD*%
D19*
%TO.C,J1*%
X108250000Y-70250000D03*
D20*
X108250000Y-72790000D03*
X108250000Y-75330000D03*
X108250000Y-77870000D03*
X108250000Y-80410000D03*
X108250000Y-82950000D03*
X108250000Y-85490000D03*
X108250000Y-88030000D03*
%TD*%
M02*
