%TF.GenerationSoftware,KiCad,Pcbnew,10.0.5*%
%TF.CreationDate,2026-09-18T10:15:03+05:30*%
%TF.ProjectId,Libre,4c696272-652e-46b6-9963-61645f706362,rev?*%
%TF.SameCoordinates,Original*%
%TF.FileFunction,Soldermask,Top*%
%TF.FilePolarity,Negative*%
%FSLAX46Y46*%
G04 Gerber Fmt 4.6, Leading zero omitted, Abs format (unit mm)*
G04 Created by KiCad (PCBNEW 10.0.5) date 2026-09-18 10:15:03*
%MOMM*%
%LPD*%
G01*
G04 APERTURE LIST*
G04 Aperture macros list*
%AMRoundRect*
0 Rectangle with rounded corners*
0 $1 Rounding radius*
0 $2 $3 $4 $5 $6 $7 $8 $9 X,Y pos of 4 corners*
0 Add a 4 corners polygon primitive as box body*
4,1,4,$2,$3,$4,$5,$6,$7,$8,$9,$2,$3,0*
0 Add four circle primitives for the rounded corners*
1,1,$1+$1,$2,$3*
1,1,$1+$1,$4,$5*
1,1,$1+$1,$6,$7*
1,1,$1+$1,$8,$9*
0 Add four rect primitives between the rounded corners*
20,1,$1+$1,$2,$3,$4,$5,0*
20,1,$1+$1,$4,$5,$6,$7,0*
20,1,$1+$1,$6,$7,$8,$9,0*
20,1,$1+$1,$8,$9,$2,$3,0*%
G04 Aperture macros list end*
%ADD10C,2.500000*%
%ADD11RoundRect,0.250000X-0.250000X-0.475000X0.250000X-0.475000X0.250000X0.475000X-0.250000X0.475000X0*%
%ADD12C,0.900000*%
%ADD13RoundRect,0.250000X-1.000000X0.375000X-1.000000X-0.375000X1.000000X-0.375000X1.000000X0.375000X0*%
%ADD14R,1.100000X0.850000*%
%ADD15R,1.100000X0.750000*%
%ADD16R,1.000000X1.200000*%
%ADD17R,1.350000X1.550000*%
%ADD18R,1.350000X1.900000*%
%ADD19R,1.800000X1.170000*%
%ADD20C,1.734000*%
%ADD21RoundRect,0.102000X0.765000X0.765000X-0.765000X0.765000X-0.765000X-0.765000X0.765000X-0.765000X0*%
%ADD22R,1.600000X1.400000*%
%ADD23RoundRect,0.250000X0.350000X0.625000X-0.350000X0.625000X-0.350000X-0.625000X0.350000X-0.625000X0*%
%ADD24O,1.200000X1.750000*%
%ADD25R,1.700000X1.700000*%
%ADD26C,1.700000*%
G04 APERTURE END LIST*
D10*
%TO.C,H4*%
X102750000Y-167500000D03*
%TD*%
%TO.C,H3*%
X200250000Y-167750000D03*
%TD*%
%TO.C,H2*%
X200500000Y-25250000D03*
%TD*%
%TO.C,H1*%
X102750000Y-24750000D03*
%TD*%
D11*
%TO.C,C4*%
X123800000Y-144010000D03*
X125700000Y-144010000D03*
%TD*%
D12*
%TO.C,SW6*%
X102300000Y-133010000D03*
X102300000Y-139810000D03*
D13*
X105050000Y-133910000D03*
X105050000Y-136410000D03*
X105050000Y-138910000D03*
%TD*%
D14*
%TO.C,J2*%
X101100000Y-127615000D03*
X101100000Y-126515000D03*
X101100000Y-125415000D03*
X101100000Y-124315000D03*
X101100000Y-123215000D03*
X101100000Y-122115000D03*
X101100000Y-121015000D03*
D15*
X101100000Y-119965000D03*
D16*
X107250000Y-130250000D03*
X110950000Y-130250000D03*
D17*
X101225000Y-130075000D03*
D18*
X111925000Y-126750000D03*
X111925000Y-120780000D03*
D19*
X101450000Y-118755000D03*
%TD*%
D20*
%TO.C,U1*%
X162000000Y-161990000D03*
X139140000Y-161990000D03*
X162000000Y-159450000D03*
X162000000Y-156910000D03*
X162000000Y-154370000D03*
X162000000Y-151830000D03*
X162000000Y-149290000D03*
X162000000Y-146750000D03*
X162000000Y-144210000D03*
X162000000Y-141670000D03*
X162000000Y-139130000D03*
X162000000Y-136590000D03*
X162000000Y-134050000D03*
X162000000Y-131510000D03*
X162000000Y-128970000D03*
X162000000Y-126430000D03*
X162000000Y-123890000D03*
X162000000Y-121350000D03*
X162000000Y-118810000D03*
X162000000Y-116270000D03*
X162000000Y-113730000D03*
X162000000Y-111190000D03*
D21*
X162000000Y-108650000D03*
D20*
X139140000Y-159450000D03*
X139140000Y-156910000D03*
X139140000Y-154370000D03*
X139140000Y-151830000D03*
X139140000Y-149290000D03*
X139140000Y-146750000D03*
X139140000Y-144210000D03*
X139140000Y-141670000D03*
X139140000Y-139130000D03*
X139140000Y-136590000D03*
X139140000Y-134050000D03*
X139140000Y-131510000D03*
X139140000Y-128970000D03*
X139140000Y-126430000D03*
X139140000Y-123890000D03*
X139140000Y-121350000D03*
X139140000Y-118810000D03*
X139140000Y-116270000D03*
X139140000Y-113730000D03*
X139140000Y-111190000D03*
X139140000Y-108650000D03*
%TD*%
D22*
%TO.C,SW5*%
X146394640Y-36770000D03*
X153594640Y-36770000D03*
X146394640Y-39770000D03*
X153594640Y-39770000D03*
%TD*%
%TO.C,SW4*%
X155794640Y-36770000D03*
X162994640Y-36770000D03*
X155794640Y-39770000D03*
X162994640Y-39770000D03*
%TD*%
%TO.C,SW3*%
X136800000Y-36750000D03*
X144000000Y-36750000D03*
X136800000Y-39750000D03*
X144000000Y-39750000D03*
%TD*%
%TO.C,SW2*%
X146394640Y-42020000D03*
X153594640Y-42020000D03*
X146394640Y-45020000D03*
X153594640Y-45020000D03*
%TD*%
%TO.C,SW1*%
X146294640Y-31770000D03*
X153494640Y-31770000D03*
X146294640Y-34770000D03*
X153494640Y-34770000D03*
%TD*%
D23*
%TO.C,J3*%
X181507500Y-78845000D03*
D24*
X179507500Y-78845000D03*
%TD*%
D25*
%TO.C,J1*%
X108250000Y-70250000D03*
D26*
X108250000Y-72790000D03*
X108250000Y-75330000D03*
X108250000Y-77870000D03*
X108250000Y-80410000D03*
X108250000Y-82950000D03*
X108250000Y-85490000D03*
X108250000Y-88030000D03*
%TD*%
D11*
%TO.C,C3*%
X123800000Y-141000000D03*
X125700000Y-141000000D03*
%TD*%
M02*
