%TF.GenerationSoftware,KiCad,Pcbnew,10.0.5*%
%TF.CreationDate,2026-09-15T19:20:50+05:30*%
%TF.ProjectId,Libre,4c696272-652e-46b6-9963-61645f706362,rev?*%
%TF.SameCoordinates,Original*%
%TF.FileFunction,Soldermask,Bot*%
%TF.FilePolarity,Negative*%
%FSLAX46Y46*%
G04 Gerber Fmt 4.6, Leading zero omitted, Abs format (unit mm)*
G04 Created by KiCad (PCBNEW 10.0.5) date 2026-09-15 19:20:50*
%MOMM*%
%LPD*%
G01*
G04 APERTURE LIST*
G04 Aperture macros list*
%AMRoundRect*
0 Rectangle with rounded corners*
0 $1 Rounding radius*
0 $2 $3 $4 $5 $6 $7 $8 $9 X,Y pos of 4 corners*
0 Add a 4 corners polygon primitive as box body*
4,1,4,$2,$3,$4,$5,$6,$7,$8,$9,$2,$3,0*
0 Add four circle primitives for the rounded corners*
1,1,$1+$1,$2,$3*
1,1,$1+$1,$4,$5*
1,1,$1+$1,$6,$7*
1,1,$1+$1,$8,$9*
0 Add four rect primitives between the rounded corners*
20,1,$1+$1,$2,$3,$4,$5,0*
20,1,$1+$1,$4,$5,$6,$7,0*
20,1,$1+$1,$6,$7,$8,$9,0*
20,1,$1+$1,$8,$9,$2,$3,0*%
G04 Aperture macros list end*
%ADD10C,1.734000*%
%ADD11RoundRect,0.102000X0.765000X0.765000X-0.765000X0.765000X-0.765000X-0.765000X0.765000X-0.765000X0*%
%ADD12C,0.900000*%
%ADD13RoundRect,0.250000X-0.350000X-0.625000X0.350000X-0.625000X0.350000X0.625000X-0.350000X0.625000X0*%
%ADD14O,1.200000X1.750000*%
%ADD15R,1.700000X1.700000*%
%ADD16C,1.700000*%
G04 APERTURE END LIST*
D10*
%TO.C,U1*%
X106849500Y-84385000D03*
X106849500Y-86925000D03*
X106849500Y-89465000D03*
X106849500Y-92005000D03*
X106849500Y-94545000D03*
X106849500Y-97085000D03*
X106849500Y-99625000D03*
X106849500Y-102165000D03*
X106849500Y-104705000D03*
X106849500Y-107245000D03*
X106849500Y-109785000D03*
X106849500Y-112325000D03*
X106849500Y-114865000D03*
X106849500Y-117405000D03*
X106849500Y-119945000D03*
X106849500Y-122485000D03*
X106849500Y-125025000D03*
X106849500Y-127565000D03*
X106849500Y-130105000D03*
X106849500Y-132645000D03*
X106849500Y-135185000D03*
D11*
X129709500Y-84385000D03*
D10*
X129709500Y-86925000D03*
X129709500Y-89465000D03*
X129709500Y-92005000D03*
X129709500Y-94545000D03*
X129709500Y-97085000D03*
X129709500Y-99625000D03*
X129709500Y-102165000D03*
X129709500Y-104705000D03*
X129709500Y-107245000D03*
X129709500Y-109785000D03*
X129709500Y-112325000D03*
X129709500Y-114865000D03*
X129709500Y-117405000D03*
X129709500Y-119945000D03*
X129709500Y-122485000D03*
X129709500Y-125025000D03*
X129709500Y-127565000D03*
X129709500Y-130105000D03*
X129709500Y-132645000D03*
X129709500Y-135185000D03*
X106849500Y-137725000D03*
X129709500Y-137725000D03*
%TD*%
D12*
%TO.C,SW6*%
X142750000Y-79200000D03*
X142750000Y-86000000D03*
%TD*%
D13*
%TO.C,J3*%
X137500000Y-135050000D03*
D14*
X139500000Y-135050000D03*
%TD*%
D15*
%TO.C,J1*%
X141250000Y-108800000D03*
D16*
X141250000Y-111340000D03*
X141250000Y-113880000D03*
X141250000Y-116420000D03*
X141250000Y-118960000D03*
X141250000Y-121500000D03*
X141250000Y-124040000D03*
X141250000Y-126580000D03*
%TD*%
M02*
