%TF.GenerationSoftware,KiCad,Pcbnew,10.0.5*%
%TF.CreationDate,2026-09-15T19:20:50+05:30*%
%TF.ProjectId,Libre,4c696272-652e-46b6-9963-61645f706362,rev?*%
%TF.SameCoordinates,Original*%
%TF.FileFunction,Legend,Top*%
%TF.FilePolarity,Positive*%
%FSLAX46Y46*%
G04 Gerber Fmt 4.6, Leading zero omitted, Abs format (unit mm)*
G04 Created by KiCad (PCBNEW 10.0.5) date 2026-09-15 19:20:50*
%MOMM*%
%LPD*%
G01*
G04 APERTURE LIST*
%ADD10C,0.150000*%
%ADD11C,0.120000*%
G04 APERTURE END LIST*
D10*
X117666667Y-56207200D02*
X117809524Y-56254819D01*
X117809524Y-56254819D02*
X118047619Y-56254819D01*
X118047619Y-56254819D02*
X118142857Y-56207200D01*
X118142857Y-56207200D02*
X118190476Y-56159580D01*
X118190476Y-56159580D02*
X118238095Y-56064342D01*
X118238095Y-56064342D02*
X118238095Y-55969104D01*
X118238095Y-55969104D02*
X118190476Y-55873866D01*
X118190476Y-55873866D02*
X118142857Y-55826247D01*
X118142857Y-55826247D02*
X118047619Y-55778628D01*
X118047619Y-55778628D02*
X117857143Y-55731009D01*
X117857143Y-55731009D02*
X117761905Y-55683390D01*
X117761905Y-55683390D02*
X117714286Y-55635771D01*
X117714286Y-55635771D02*
X117666667Y-55540533D01*
X117666667Y-55540533D02*
X117666667Y-55445295D01*
X117666667Y-55445295D02*
X117714286Y-55350057D01*
X117714286Y-55350057D02*
X117761905Y-55302438D01*
X117761905Y-55302438D02*
X117857143Y-55254819D01*
X117857143Y-55254819D02*
X118095238Y-55254819D01*
X118095238Y-55254819D02*
X118238095Y-55302438D01*
X118571429Y-55254819D02*
X118809524Y-56254819D01*
X118809524Y-56254819D02*
X119000000Y-55540533D01*
X119000000Y-55540533D02*
X119190476Y-56254819D01*
X119190476Y-56254819D02*
X119428572Y-55254819D01*
X120333333Y-56254819D02*
X119761905Y-56254819D01*
X120047619Y-56254819D02*
X120047619Y-55254819D01*
X120047619Y-55254819D02*
X119952381Y-55397676D01*
X119952381Y-55397676D02*
X119857143Y-55492914D01*
X119857143Y-55492914D02*
X119761905Y-55540533D01*
X117766667Y-66207200D02*
X117909524Y-66254819D01*
X117909524Y-66254819D02*
X118147619Y-66254819D01*
X118147619Y-66254819D02*
X118242857Y-66207200D01*
X118242857Y-66207200D02*
X118290476Y-66159580D01*
X118290476Y-66159580D02*
X118338095Y-66064342D01*
X118338095Y-66064342D02*
X118338095Y-65969104D01*
X118338095Y-65969104D02*
X118290476Y-65873866D01*
X118290476Y-65873866D02*
X118242857Y-65826247D01*
X118242857Y-65826247D02*
X118147619Y-65778628D01*
X118147619Y-65778628D02*
X117957143Y-65731009D01*
X117957143Y-65731009D02*
X117861905Y-65683390D01*
X117861905Y-65683390D02*
X117814286Y-65635771D01*
X117814286Y-65635771D02*
X117766667Y-65540533D01*
X117766667Y-65540533D02*
X117766667Y-65445295D01*
X117766667Y-65445295D02*
X117814286Y-65350057D01*
X117814286Y-65350057D02*
X117861905Y-65302438D01*
X117861905Y-65302438D02*
X117957143Y-65254819D01*
X117957143Y-65254819D02*
X118195238Y-65254819D01*
X118195238Y-65254819D02*
X118338095Y-65302438D01*
X118671429Y-65254819D02*
X118909524Y-66254819D01*
X118909524Y-66254819D02*
X119100000Y-65540533D01*
X119100000Y-65540533D02*
X119290476Y-66254819D01*
X119290476Y-66254819D02*
X119528572Y-65254819D01*
X119861905Y-65350057D02*
X119909524Y-65302438D01*
X119909524Y-65302438D02*
X120004762Y-65254819D01*
X120004762Y-65254819D02*
X120242857Y-65254819D01*
X120242857Y-65254819D02*
X120338095Y-65302438D01*
X120338095Y-65302438D02*
X120385714Y-65350057D01*
X120385714Y-65350057D02*
X120433333Y-65445295D01*
X120433333Y-65445295D02*
X120433333Y-65540533D01*
X120433333Y-65540533D02*
X120385714Y-65683390D01*
X120385714Y-65683390D02*
X119814286Y-66254819D01*
X119814286Y-66254819D02*
X120433333Y-66254819D01*
X117666667Y-61207200D02*
X117809524Y-61254819D01*
X117809524Y-61254819D02*
X118047619Y-61254819D01*
X118047619Y-61254819D02*
X118142857Y-61207200D01*
X118142857Y-61207200D02*
X118190476Y-61159580D01*
X118190476Y-61159580D02*
X118238095Y-61064342D01*
X118238095Y-61064342D02*
X118238095Y-60969104D01*
X118238095Y-60969104D02*
X118190476Y-60873866D01*
X118190476Y-60873866D02*
X118142857Y-60826247D01*
X118142857Y-60826247D02*
X118047619Y-60778628D01*
X118047619Y-60778628D02*
X117857143Y-60731009D01*
X117857143Y-60731009D02*
X117761905Y-60683390D01*
X117761905Y-60683390D02*
X117714286Y-60635771D01*
X117714286Y-60635771D02*
X117666667Y-60540533D01*
X117666667Y-60540533D02*
X117666667Y-60445295D01*
X117666667Y-60445295D02*
X117714286Y-60350057D01*
X117714286Y-60350057D02*
X117761905Y-60302438D01*
X117761905Y-60302438D02*
X117857143Y-60254819D01*
X117857143Y-60254819D02*
X118095238Y-60254819D01*
X118095238Y-60254819D02*
X118238095Y-60302438D01*
X118571429Y-60254819D02*
X118809524Y-61254819D01*
X118809524Y-61254819D02*
X119000000Y-60540533D01*
X119000000Y-60540533D02*
X119190476Y-61254819D01*
X119190476Y-61254819D02*
X119428572Y-60254819D01*
X120285714Y-60254819D02*
X119809524Y-60254819D01*
X119809524Y-60254819D02*
X119761905Y-60731009D01*
X119761905Y-60731009D02*
X119809524Y-60683390D01*
X119809524Y-60683390D02*
X119904762Y-60635771D01*
X119904762Y-60635771D02*
X120142857Y-60635771D01*
X120142857Y-60635771D02*
X120238095Y-60683390D01*
X120238095Y-60683390D02*
X120285714Y-60731009D01*
X120285714Y-60731009D02*
X120333333Y-60826247D01*
X120333333Y-60826247D02*
X120333333Y-61064342D01*
X120333333Y-61064342D02*
X120285714Y-61159580D01*
X120285714Y-61159580D02*
X120238095Y-61207200D01*
X120238095Y-61207200D02*
X120142857Y-61254819D01*
X120142857Y-61254819D02*
X119904762Y-61254819D01*
X119904762Y-61254819D02*
X119809524Y-61207200D01*
X119809524Y-61207200D02*
X119761905Y-61159580D01*
X127266667Y-61207200D02*
X127409524Y-61254819D01*
X127409524Y-61254819D02*
X127647619Y-61254819D01*
X127647619Y-61254819D02*
X127742857Y-61207200D01*
X127742857Y-61207200D02*
X127790476Y-61159580D01*
X127790476Y-61159580D02*
X127838095Y-61064342D01*
X127838095Y-61064342D02*
X127838095Y-60969104D01*
X127838095Y-60969104D02*
X127790476Y-60873866D01*
X127790476Y-60873866D02*
X127742857Y-60826247D01*
X127742857Y-60826247D02*
X127647619Y-60778628D01*
X127647619Y-60778628D02*
X127457143Y-60731009D01*
X127457143Y-60731009D02*
X127361905Y-60683390D01*
X127361905Y-60683390D02*
X127314286Y-60635771D01*
X127314286Y-60635771D02*
X127266667Y-60540533D01*
X127266667Y-60540533D02*
X127266667Y-60445295D01*
X127266667Y-60445295D02*
X127314286Y-60350057D01*
X127314286Y-60350057D02*
X127361905Y-60302438D01*
X127361905Y-60302438D02*
X127457143Y-60254819D01*
X127457143Y-60254819D02*
X127695238Y-60254819D01*
X127695238Y-60254819D02*
X127838095Y-60302438D01*
X128171429Y-60254819D02*
X128409524Y-61254819D01*
X128409524Y-61254819D02*
X128600000Y-60540533D01*
X128600000Y-60540533D02*
X128790476Y-61254819D01*
X128790476Y-61254819D02*
X129028572Y-60254819D01*
X129838095Y-60588152D02*
X129838095Y-61254819D01*
X129600000Y-60207200D02*
X129361905Y-60921485D01*
X129361905Y-60921485D02*
X129980952Y-60921485D01*
X108166667Y-61207200D02*
X108309524Y-61254819D01*
X108309524Y-61254819D02*
X108547619Y-61254819D01*
X108547619Y-61254819D02*
X108642857Y-61207200D01*
X108642857Y-61207200D02*
X108690476Y-61159580D01*
X108690476Y-61159580D02*
X108738095Y-61064342D01*
X108738095Y-61064342D02*
X108738095Y-60969104D01*
X108738095Y-60969104D02*
X108690476Y-60873866D01*
X108690476Y-60873866D02*
X108642857Y-60826247D01*
X108642857Y-60826247D02*
X108547619Y-60778628D01*
X108547619Y-60778628D02*
X108357143Y-60731009D01*
X108357143Y-60731009D02*
X108261905Y-60683390D01*
X108261905Y-60683390D02*
X108214286Y-60635771D01*
X108214286Y-60635771D02*
X108166667Y-60540533D01*
X108166667Y-60540533D02*
X108166667Y-60445295D01*
X108166667Y-60445295D02*
X108214286Y-60350057D01*
X108214286Y-60350057D02*
X108261905Y-60302438D01*
X108261905Y-60302438D02*
X108357143Y-60254819D01*
X108357143Y-60254819D02*
X108595238Y-60254819D01*
X108595238Y-60254819D02*
X108738095Y-60302438D01*
X109071429Y-60254819D02*
X109309524Y-61254819D01*
X109309524Y-61254819D02*
X109500000Y-60540533D01*
X109500000Y-60540533D02*
X109690476Y-61254819D01*
X109690476Y-61254819D02*
X109928572Y-60254819D01*
X110214286Y-60254819D02*
X110833333Y-60254819D01*
X110833333Y-60254819D02*
X110500000Y-60635771D01*
X110500000Y-60635771D02*
X110642857Y-60635771D01*
X110642857Y-60635771D02*
X110738095Y-60683390D01*
X110738095Y-60683390D02*
X110785714Y-60731009D01*
X110785714Y-60731009D02*
X110833333Y-60826247D01*
X110833333Y-60826247D02*
X110833333Y-61064342D01*
X110833333Y-61064342D02*
X110785714Y-61159580D01*
X110785714Y-61159580D02*
X110738095Y-61207200D01*
X110738095Y-61207200D02*
X110642857Y-61254819D01*
X110642857Y-61254819D02*
X110357143Y-61254819D01*
X110357143Y-61254819D02*
X110261905Y-61207200D01*
X110261905Y-61207200D02*
X110214286Y-61159580D01*
X145134819Y-94833333D02*
X145849104Y-94833333D01*
X145849104Y-94833333D02*
X145991961Y-94880952D01*
X145991961Y-94880952D02*
X146087200Y-94976190D01*
X146087200Y-94976190D02*
X146134819Y-95119047D01*
X146134819Y-95119047D02*
X146134819Y-95214285D01*
X145230057Y-94404761D02*
X145182438Y-94357142D01*
X145182438Y-94357142D02*
X145134819Y-94261904D01*
X145134819Y-94261904D02*
X145134819Y-94023809D01*
X145134819Y-94023809D02*
X145182438Y-93928571D01*
X145182438Y-93928571D02*
X145230057Y-93880952D01*
X145230057Y-93880952D02*
X145325295Y-93833333D01*
X145325295Y-93833333D02*
X145420533Y-93833333D01*
X145420533Y-93833333D02*
X145563390Y-93880952D01*
X145563390Y-93880952D02*
X146134819Y-94452380D01*
X146134819Y-94452380D02*
X146134819Y-93833333D01*
X138357200Y-83933332D02*
X138404819Y-83790475D01*
X138404819Y-83790475D02*
X138404819Y-83552380D01*
X138404819Y-83552380D02*
X138357200Y-83457142D01*
X138357200Y-83457142D02*
X138309580Y-83409523D01*
X138309580Y-83409523D02*
X138214342Y-83361904D01*
X138214342Y-83361904D02*
X138119104Y-83361904D01*
X138119104Y-83361904D02*
X138023866Y-83409523D01*
X138023866Y-83409523D02*
X137976247Y-83457142D01*
X137976247Y-83457142D02*
X137928628Y-83552380D01*
X137928628Y-83552380D02*
X137881009Y-83742856D01*
X137881009Y-83742856D02*
X137833390Y-83838094D01*
X137833390Y-83838094D02*
X137785771Y-83885713D01*
X137785771Y-83885713D02*
X137690533Y-83933332D01*
X137690533Y-83933332D02*
X137595295Y-83933332D01*
X137595295Y-83933332D02*
X137500057Y-83885713D01*
X137500057Y-83885713D02*
X137452438Y-83838094D01*
X137452438Y-83838094D02*
X137404819Y-83742856D01*
X137404819Y-83742856D02*
X137404819Y-83504761D01*
X137404819Y-83504761D02*
X137452438Y-83361904D01*
X137404819Y-83028570D02*
X138404819Y-82790475D01*
X138404819Y-82790475D02*
X137690533Y-82599999D01*
X137690533Y-82599999D02*
X138404819Y-82409523D01*
X138404819Y-82409523D02*
X137404819Y-82171428D01*
X137404819Y-81361904D02*
X137404819Y-81552380D01*
X137404819Y-81552380D02*
X137452438Y-81647618D01*
X137452438Y-81647618D02*
X137500057Y-81695237D01*
X137500057Y-81695237D02*
X137642914Y-81790475D01*
X137642914Y-81790475D02*
X137833390Y-81838094D01*
X137833390Y-81838094D02*
X138214342Y-81838094D01*
X138214342Y-81838094D02*
X138309580Y-81790475D01*
X138309580Y-81790475D02*
X138357200Y-81742856D01*
X138357200Y-81742856D02*
X138404819Y-81647618D01*
X138404819Y-81647618D02*
X138404819Y-81457142D01*
X138404819Y-81457142D02*
X138357200Y-81361904D01*
X138357200Y-81361904D02*
X138309580Y-81314285D01*
X138309580Y-81314285D02*
X138214342Y-81266666D01*
X138214342Y-81266666D02*
X137976247Y-81266666D01*
X137976247Y-81266666D02*
X137881009Y-81314285D01*
X137881009Y-81314285D02*
X137833390Y-81361904D01*
X137833390Y-81361904D02*
X137785771Y-81457142D01*
X137785771Y-81457142D02*
X137785771Y-81647618D01*
X137785771Y-81647618D02*
X137833390Y-81742856D01*
X137833390Y-81742856D02*
X137881009Y-81790475D01*
X137881009Y-81790475D02*
X137976247Y-81838094D01*
X110225595Y-118254819D02*
X110225595Y-119064342D01*
X110225595Y-119064342D02*
X110273214Y-119159580D01*
X110273214Y-119159580D02*
X110320833Y-119207200D01*
X110320833Y-119207200D02*
X110416071Y-119254819D01*
X110416071Y-119254819D02*
X110606547Y-119254819D01*
X110606547Y-119254819D02*
X110701785Y-119207200D01*
X110701785Y-119207200D02*
X110749404Y-119159580D01*
X110749404Y-119159580D02*
X110797023Y-119064342D01*
X110797023Y-119064342D02*
X110797023Y-118254819D01*
X111177976Y-118254819D02*
X111797023Y-118254819D01*
X111797023Y-118254819D02*
X111463690Y-118635771D01*
X111463690Y-118635771D02*
X111606547Y-118635771D01*
X111606547Y-118635771D02*
X111701785Y-118683390D01*
X111701785Y-118683390D02*
X111749404Y-118731009D01*
X111749404Y-118731009D02*
X111797023Y-118826247D01*
X111797023Y-118826247D02*
X111797023Y-119064342D01*
X111797023Y-119064342D02*
X111749404Y-119159580D01*
X111749404Y-119159580D02*
X111701785Y-119207200D01*
X111701785Y-119207200D02*
X111606547Y-119254819D01*
X111606547Y-119254819D02*
X111320833Y-119254819D01*
X111320833Y-119254819D02*
X111225595Y-119207200D01*
X111225595Y-119207200D02*
X111177976Y-119159580D01*
X123725595Y-117804819D02*
X123725595Y-118614342D01*
X123725595Y-118614342D02*
X123773214Y-118709580D01*
X123773214Y-118709580D02*
X123820833Y-118757200D01*
X123820833Y-118757200D02*
X123916071Y-118804819D01*
X123916071Y-118804819D02*
X124106547Y-118804819D01*
X124106547Y-118804819D02*
X124201785Y-118757200D01*
X124201785Y-118757200D02*
X124249404Y-118709580D01*
X124249404Y-118709580D02*
X124297023Y-118614342D01*
X124297023Y-118614342D02*
X124297023Y-117804819D01*
X124725595Y-117900057D02*
X124773214Y-117852438D01*
X124773214Y-117852438D02*
X124868452Y-117804819D01*
X124868452Y-117804819D02*
X125106547Y-117804819D01*
X125106547Y-117804819D02*
X125201785Y-117852438D01*
X125201785Y-117852438D02*
X125249404Y-117900057D01*
X125249404Y-117900057D02*
X125297023Y-117995295D01*
X125297023Y-117995295D02*
X125297023Y-118090533D01*
X125297023Y-118090533D02*
X125249404Y-118233390D01*
X125249404Y-118233390D02*
X124677976Y-118804819D01*
X124677976Y-118804819D02*
X125297023Y-118804819D01*
X114008333Y-110524819D02*
X113675000Y-110048628D01*
X113436905Y-110524819D02*
X113436905Y-109524819D01*
X113436905Y-109524819D02*
X113817857Y-109524819D01*
X113817857Y-109524819D02*
X113913095Y-109572438D01*
X113913095Y-109572438D02*
X113960714Y-109620057D01*
X113960714Y-109620057D02*
X114008333Y-109715295D01*
X114008333Y-109715295D02*
X114008333Y-109858152D01*
X114008333Y-109858152D02*
X113960714Y-109953390D01*
X113960714Y-109953390D02*
X113913095Y-110001009D01*
X113913095Y-110001009D02*
X113817857Y-110048628D01*
X113817857Y-110048628D02*
X113436905Y-110048628D01*
X114341667Y-109524819D02*
X114960714Y-109524819D01*
X114960714Y-109524819D02*
X114627381Y-109905771D01*
X114627381Y-109905771D02*
X114770238Y-109905771D01*
X114770238Y-109905771D02*
X114865476Y-109953390D01*
X114865476Y-109953390D02*
X114913095Y-110001009D01*
X114913095Y-110001009D02*
X114960714Y-110096247D01*
X114960714Y-110096247D02*
X114960714Y-110334342D01*
X114960714Y-110334342D02*
X114913095Y-110429580D01*
X114913095Y-110429580D02*
X114865476Y-110477200D01*
X114865476Y-110477200D02*
X114770238Y-110524819D01*
X114770238Y-110524819D02*
X114484524Y-110524819D01*
X114484524Y-110524819D02*
X114389286Y-110477200D01*
X114389286Y-110477200D02*
X114341667Y-110429580D01*
X123008333Y-106274819D02*
X122675000Y-105798628D01*
X122436905Y-106274819D02*
X122436905Y-105274819D01*
X122436905Y-105274819D02*
X122817857Y-105274819D01*
X122817857Y-105274819D02*
X122913095Y-105322438D01*
X122913095Y-105322438D02*
X122960714Y-105370057D01*
X122960714Y-105370057D02*
X123008333Y-105465295D01*
X123008333Y-105465295D02*
X123008333Y-105608152D01*
X123008333Y-105608152D02*
X122960714Y-105703390D01*
X122960714Y-105703390D02*
X122913095Y-105751009D01*
X122913095Y-105751009D02*
X122817857Y-105798628D01*
X122817857Y-105798628D02*
X122436905Y-105798628D01*
X123389286Y-105370057D02*
X123436905Y-105322438D01*
X123436905Y-105322438D02*
X123532143Y-105274819D01*
X123532143Y-105274819D02*
X123770238Y-105274819D01*
X123770238Y-105274819D02*
X123865476Y-105322438D01*
X123865476Y-105322438D02*
X123913095Y-105370057D01*
X123913095Y-105370057D02*
X123960714Y-105465295D01*
X123960714Y-105465295D02*
X123960714Y-105560533D01*
X123960714Y-105560533D02*
X123913095Y-105703390D01*
X123913095Y-105703390D02*
X123341667Y-106274819D01*
X123341667Y-106274819D02*
X123960714Y-106274819D01*
X122508333Y-110524819D02*
X122175000Y-110048628D01*
X121936905Y-110524819D02*
X121936905Y-109524819D01*
X121936905Y-109524819D02*
X122317857Y-109524819D01*
X122317857Y-109524819D02*
X122413095Y-109572438D01*
X122413095Y-109572438D02*
X122460714Y-109620057D01*
X122460714Y-109620057D02*
X122508333Y-109715295D01*
X122508333Y-109715295D02*
X122508333Y-109858152D01*
X122508333Y-109858152D02*
X122460714Y-109953390D01*
X122460714Y-109953390D02*
X122413095Y-110001009D01*
X122413095Y-110001009D02*
X122317857Y-110048628D01*
X122317857Y-110048628D02*
X121936905Y-110048628D01*
X123460714Y-110524819D02*
X122889286Y-110524819D01*
X123175000Y-110524819D02*
X123175000Y-109524819D01*
X123175000Y-109524819D02*
X123079762Y-109667676D01*
X123079762Y-109667676D02*
X122984524Y-109762914D01*
X122984524Y-109762914D02*
X122889286Y-109810533D01*
X138166666Y-131954819D02*
X138166666Y-132669104D01*
X138166666Y-132669104D02*
X138119047Y-132811961D01*
X138119047Y-132811961D02*
X138023809Y-132907200D01*
X138023809Y-132907200D02*
X137880952Y-132954819D01*
X137880952Y-132954819D02*
X137785714Y-132954819D01*
X138547619Y-131954819D02*
X139166666Y-131954819D01*
X139166666Y-131954819D02*
X138833333Y-132335771D01*
X138833333Y-132335771D02*
X138976190Y-132335771D01*
X138976190Y-132335771D02*
X139071428Y-132383390D01*
X139071428Y-132383390D02*
X139119047Y-132431009D01*
X139119047Y-132431009D02*
X139166666Y-132526247D01*
X139166666Y-132526247D02*
X139166666Y-132764342D01*
X139166666Y-132764342D02*
X139119047Y-132859580D01*
X139119047Y-132859580D02*
X139071428Y-132907200D01*
X139071428Y-132907200D02*
X138976190Y-132954819D01*
X138976190Y-132954819D02*
X138690476Y-132954819D01*
X138690476Y-132954819D02*
X138595238Y-132907200D01*
X138595238Y-132907200D02*
X138547619Y-132859580D01*
X140916666Y-105874819D02*
X140916666Y-106589104D01*
X140916666Y-106589104D02*
X140869047Y-106731961D01*
X140869047Y-106731961D02*
X140773809Y-106827200D01*
X140773809Y-106827200D02*
X140630952Y-106874819D01*
X140630952Y-106874819D02*
X140535714Y-106874819D01*
X141916666Y-106874819D02*
X141345238Y-106874819D01*
X141630952Y-106874819D02*
X141630952Y-105874819D01*
X141630952Y-105874819D02*
X141535714Y-106017676D01*
X141535714Y-106017676D02*
X141440476Y-106112914D01*
X141440476Y-106112914D02*
X141345238Y-106160533D01*
X114208333Y-100679580D02*
X114160714Y-100727200D01*
X114160714Y-100727200D02*
X114017857Y-100774819D01*
X114017857Y-100774819D02*
X113922619Y-100774819D01*
X113922619Y-100774819D02*
X113779762Y-100727200D01*
X113779762Y-100727200D02*
X113684524Y-100631961D01*
X113684524Y-100631961D02*
X113636905Y-100536723D01*
X113636905Y-100536723D02*
X113589286Y-100346247D01*
X113589286Y-100346247D02*
X113589286Y-100203390D01*
X113589286Y-100203390D02*
X113636905Y-100012914D01*
X113636905Y-100012914D02*
X113684524Y-99917676D01*
X113684524Y-99917676D02*
X113779762Y-99822438D01*
X113779762Y-99822438D02*
X113922619Y-99774819D01*
X113922619Y-99774819D02*
X114017857Y-99774819D01*
X114017857Y-99774819D02*
X114160714Y-99822438D01*
X114160714Y-99822438D02*
X114208333Y-99870057D01*
X115113095Y-99774819D02*
X114636905Y-99774819D01*
X114636905Y-99774819D02*
X114589286Y-100251009D01*
X114589286Y-100251009D02*
X114636905Y-100203390D01*
X114636905Y-100203390D02*
X114732143Y-100155771D01*
X114732143Y-100155771D02*
X114970238Y-100155771D01*
X114970238Y-100155771D02*
X115065476Y-100203390D01*
X115065476Y-100203390D02*
X115113095Y-100251009D01*
X115113095Y-100251009D02*
X115160714Y-100346247D01*
X115160714Y-100346247D02*
X115160714Y-100584342D01*
X115160714Y-100584342D02*
X115113095Y-100679580D01*
X115113095Y-100679580D02*
X115065476Y-100727200D01*
X115065476Y-100727200D02*
X114970238Y-100774819D01*
X114970238Y-100774819D02*
X114732143Y-100774819D01*
X114732143Y-100774819D02*
X114636905Y-100727200D01*
X114636905Y-100727200D02*
X114589286Y-100679580D01*
X114133333Y-105429580D02*
X114085714Y-105477200D01*
X114085714Y-105477200D02*
X113942857Y-105524819D01*
X113942857Y-105524819D02*
X113847619Y-105524819D01*
X113847619Y-105524819D02*
X113704762Y-105477200D01*
X113704762Y-105477200D02*
X113609524Y-105381961D01*
X113609524Y-105381961D02*
X113561905Y-105286723D01*
X113561905Y-105286723D02*
X113514286Y-105096247D01*
X113514286Y-105096247D02*
X113514286Y-104953390D01*
X113514286Y-104953390D02*
X113561905Y-104762914D01*
X113561905Y-104762914D02*
X113609524Y-104667676D01*
X113609524Y-104667676D02*
X113704762Y-104572438D01*
X113704762Y-104572438D02*
X113847619Y-104524819D01*
X113847619Y-104524819D02*
X113942857Y-104524819D01*
X113942857Y-104524819D02*
X114085714Y-104572438D01*
X114085714Y-104572438D02*
X114133333Y-104620057D01*
X114990476Y-104858152D02*
X114990476Y-105524819D01*
X114752381Y-104477200D02*
X114514286Y-105191485D01*
X114514286Y-105191485D02*
X115133333Y-105191485D01*
X122433333Y-100429580D02*
X122385714Y-100477200D01*
X122385714Y-100477200D02*
X122242857Y-100524819D01*
X122242857Y-100524819D02*
X122147619Y-100524819D01*
X122147619Y-100524819D02*
X122004762Y-100477200D01*
X122004762Y-100477200D02*
X121909524Y-100381961D01*
X121909524Y-100381961D02*
X121861905Y-100286723D01*
X121861905Y-100286723D02*
X121814286Y-100096247D01*
X121814286Y-100096247D02*
X121814286Y-99953390D01*
X121814286Y-99953390D02*
X121861905Y-99762914D01*
X121861905Y-99762914D02*
X121909524Y-99667676D01*
X121909524Y-99667676D02*
X122004762Y-99572438D01*
X122004762Y-99572438D02*
X122147619Y-99524819D01*
X122147619Y-99524819D02*
X122242857Y-99524819D01*
X122242857Y-99524819D02*
X122385714Y-99572438D01*
X122385714Y-99572438D02*
X122433333Y-99620057D01*
X122766667Y-99524819D02*
X123385714Y-99524819D01*
X123385714Y-99524819D02*
X123052381Y-99905771D01*
X123052381Y-99905771D02*
X123195238Y-99905771D01*
X123195238Y-99905771D02*
X123290476Y-99953390D01*
X123290476Y-99953390D02*
X123338095Y-100001009D01*
X123338095Y-100001009D02*
X123385714Y-100096247D01*
X123385714Y-100096247D02*
X123385714Y-100334342D01*
X123385714Y-100334342D02*
X123338095Y-100429580D01*
X123338095Y-100429580D02*
X123290476Y-100477200D01*
X123290476Y-100477200D02*
X123195238Y-100524819D01*
X123195238Y-100524819D02*
X122909524Y-100524819D01*
X122909524Y-100524819D02*
X122814286Y-100477200D01*
X122814286Y-100477200D02*
X122766667Y-100429580D01*
X122208333Y-95179580D02*
X122160714Y-95227200D01*
X122160714Y-95227200D02*
X122017857Y-95274819D01*
X122017857Y-95274819D02*
X121922619Y-95274819D01*
X121922619Y-95274819D02*
X121779762Y-95227200D01*
X121779762Y-95227200D02*
X121684524Y-95131961D01*
X121684524Y-95131961D02*
X121636905Y-95036723D01*
X121636905Y-95036723D02*
X121589286Y-94846247D01*
X121589286Y-94846247D02*
X121589286Y-94703390D01*
X121589286Y-94703390D02*
X121636905Y-94512914D01*
X121636905Y-94512914D02*
X121684524Y-94417676D01*
X121684524Y-94417676D02*
X121779762Y-94322438D01*
X121779762Y-94322438D02*
X121922619Y-94274819D01*
X121922619Y-94274819D02*
X122017857Y-94274819D01*
X122017857Y-94274819D02*
X122160714Y-94322438D01*
X122160714Y-94322438D02*
X122208333Y-94370057D01*
X122589286Y-94370057D02*
X122636905Y-94322438D01*
X122636905Y-94322438D02*
X122732143Y-94274819D01*
X122732143Y-94274819D02*
X122970238Y-94274819D01*
X122970238Y-94274819D02*
X123065476Y-94322438D01*
X123065476Y-94322438D02*
X123113095Y-94370057D01*
X123113095Y-94370057D02*
X123160714Y-94465295D01*
X123160714Y-94465295D02*
X123160714Y-94560533D01*
X123160714Y-94560533D02*
X123113095Y-94703390D01*
X123113095Y-94703390D02*
X122541667Y-95274819D01*
X122541667Y-95274819D02*
X123160714Y-95274819D01*
X114208333Y-95929580D02*
X114160714Y-95977200D01*
X114160714Y-95977200D02*
X114017857Y-96024819D01*
X114017857Y-96024819D02*
X113922619Y-96024819D01*
X113922619Y-96024819D02*
X113779762Y-95977200D01*
X113779762Y-95977200D02*
X113684524Y-95881961D01*
X113684524Y-95881961D02*
X113636905Y-95786723D01*
X113636905Y-95786723D02*
X113589286Y-95596247D01*
X113589286Y-95596247D02*
X113589286Y-95453390D01*
X113589286Y-95453390D02*
X113636905Y-95262914D01*
X113636905Y-95262914D02*
X113684524Y-95167676D01*
X113684524Y-95167676D02*
X113779762Y-95072438D01*
X113779762Y-95072438D02*
X113922619Y-95024819D01*
X113922619Y-95024819D02*
X114017857Y-95024819D01*
X114017857Y-95024819D02*
X114160714Y-95072438D01*
X114160714Y-95072438D02*
X114208333Y-95120057D01*
X115160714Y-96024819D02*
X114589286Y-96024819D01*
X114875000Y-96024819D02*
X114875000Y-95024819D01*
X114875000Y-95024819D02*
X114779762Y-95167676D01*
X114779762Y-95167676D02*
X114684524Y-95262914D01*
X114684524Y-95262914D02*
X114589286Y-95310533D01*
%TO.C,SW1*%
D11*
X121370000Y-61370000D02*
X121370000Y-60970000D01*
X121370000Y-60030000D02*
X121370000Y-57970000D01*
X121370000Y-56630000D02*
X121370000Y-57030000D01*
X116630000Y-61370000D02*
X121370000Y-61370000D01*
X116630000Y-61370000D02*
X116630000Y-60970000D01*
X116630000Y-60030000D02*
X116630000Y-57970000D01*
X116630000Y-56630000D02*
X121370000Y-56630000D01*
X116630000Y-56630000D02*
X116630000Y-57030000D01*
%TO.C,SW2*%
X116730000Y-66630000D02*
X116730000Y-67030000D01*
X116730000Y-66630000D02*
X121470000Y-66630000D01*
X116730000Y-70030000D02*
X116730000Y-67970000D01*
X116730000Y-71370000D02*
X116730000Y-70970000D01*
X116730000Y-71370000D02*
X121470000Y-71370000D01*
X121470000Y-66630000D02*
X121470000Y-67030000D01*
X121470000Y-70030000D02*
X121470000Y-67970000D01*
X121470000Y-71370000D02*
X121470000Y-70970000D01*
%TO.C,SW5*%
X121370000Y-66370000D02*
X121370000Y-65970000D01*
X121370000Y-65030000D02*
X121370000Y-62970000D01*
X121370000Y-61630000D02*
X121370000Y-62030000D01*
X116630000Y-66370000D02*
X121370000Y-66370000D01*
X116630000Y-66370000D02*
X116630000Y-65970000D01*
X116630000Y-65030000D02*
X116630000Y-62970000D01*
X116630000Y-61630000D02*
X121370000Y-61630000D01*
X116630000Y-61630000D02*
X116630000Y-62030000D01*
%TO.C,SW4*%
X130970000Y-66370000D02*
X130970000Y-65970000D01*
X130970000Y-65030000D02*
X130970000Y-62970000D01*
X130970000Y-61630000D02*
X130970000Y-62030000D01*
X126230000Y-66370000D02*
X130970000Y-66370000D01*
X126230000Y-66370000D02*
X126230000Y-65970000D01*
X126230000Y-65030000D02*
X126230000Y-62970000D01*
X126230000Y-61630000D02*
X130970000Y-61630000D01*
X126230000Y-61630000D02*
X126230000Y-62030000D01*
%TO.C,SW3*%
X111870000Y-66370000D02*
X111870000Y-65970000D01*
X111870000Y-65030000D02*
X111870000Y-62970000D01*
X111870000Y-61630000D02*
X111870000Y-62030000D01*
X107130000Y-66370000D02*
X111870000Y-66370000D01*
X107130000Y-66370000D02*
X107130000Y-65970000D01*
X107130000Y-65030000D02*
X107130000Y-62970000D01*
X107130000Y-61630000D02*
X111870000Y-61630000D01*
X107130000Y-61630000D02*
X107130000Y-62030000D01*
%TO.C,J2*%
X132680000Y-100610000D02*
X142500000Y-100610000D01*
X132680000Y-99380000D02*
X132680000Y-100610000D01*
X132680000Y-93410000D02*
X132680000Y-97080000D01*
X144320000Y-89910000D02*
X144320000Y-90770000D01*
X132680000Y-88430000D02*
X132680000Y-91110000D01*
X133400000Y-88430000D02*
X132680000Y-88430000D01*
X137100000Y-88430000D02*
X134800000Y-88430000D01*
X142950000Y-88430000D02*
X138500000Y-88430000D01*
%TO.C,SW6*%
X140850000Y-78000000D02*
X143150000Y-78000000D01*
X140850000Y-79200000D02*
X140850000Y-78000000D01*
X140850000Y-81000000D02*
X140850000Y-81700000D01*
X140850000Y-83500000D02*
X140850000Y-84200000D01*
X143150000Y-87200000D02*
X140850000Y-87200000D01*
X140850000Y-87200000D02*
X140850000Y-86000000D01*
%TO.C,U3*%
X110077500Y-119640000D02*
X111897500Y-119640000D01*
X110077500Y-119690000D02*
X110077500Y-119640000D01*
X110077500Y-122760000D02*
X110077500Y-122710000D01*
X111897500Y-119640000D02*
X111897500Y-119690000D01*
X111897500Y-120810000D02*
X111897500Y-121590000D01*
X111897500Y-122710000D02*
X111897500Y-122760000D01*
X111897500Y-122760000D02*
X110077500Y-122760000D01*
X109537500Y-119690000D02*
X109297500Y-119360000D01*
X109777500Y-119360000D01*
X109537500Y-119690000D01*
G36*
X109537500Y-119690000D02*
G01*
X109297500Y-119360000D01*
X109777500Y-119360000D01*
X109537500Y-119690000D01*
G37*
%TO.C,U2*%
X123577500Y-119190000D02*
X125397500Y-119190000D01*
X123577500Y-119240000D02*
X123577500Y-119190000D01*
X123577500Y-122310000D02*
X123577500Y-122260000D01*
X125397500Y-119190000D02*
X125397500Y-119240000D01*
X125397500Y-120360000D02*
X125397500Y-121140000D01*
X125397500Y-122260000D02*
X125397500Y-122310000D01*
X125397500Y-122310000D02*
X123577500Y-122310000D01*
X123037500Y-119240000D02*
X122797500Y-118910000D01*
X123277500Y-118910000D01*
X123037500Y-119240000D01*
G36*
X123037500Y-119240000D02*
G01*
X122797500Y-118910000D01*
X123277500Y-118910000D01*
X123037500Y-119240000D01*
G37*
%TO.C,R3*%
X113937742Y-110977500D02*
X114412258Y-110977500D01*
X113937742Y-112022500D02*
X114412258Y-112022500D01*
%TO.C,R2*%
X122937742Y-106727500D02*
X123412258Y-106727500D01*
X122937742Y-107772500D02*
X123412258Y-107772500D01*
%TO.C,R1*%
X122437742Y-110977500D02*
X122912258Y-110977500D01*
X122437742Y-112022500D02*
X122912258Y-112022500D01*
%TO.C,J3*%
X135440000Y-133590000D02*
X135440000Y-141410000D01*
X135440000Y-135190000D02*
X136360000Y-135190000D01*
X135440000Y-141410000D02*
X141560000Y-141410000D01*
X136360000Y-133590000D02*
X135440000Y-133590000D01*
X136360000Y-135190000D02*
X136360000Y-133590000D01*
X136640000Y-135190000D02*
X136360000Y-135190000D01*
X136640000Y-135190000D02*
X136640000Y-133975000D01*
X136700000Y-139150000D02*
X136700000Y-141410000D01*
X137200000Y-139150000D02*
X137200000Y-141410000D01*
X138000000Y-137050000D02*
X139000000Y-137050000D01*
X138000000Y-141410000D02*
X138000000Y-137050000D01*
X139000000Y-137050000D02*
X139000000Y-141410000D01*
X140640000Y-133590000D02*
X140640000Y-135190000D01*
X140640000Y-135190000D02*
X140360000Y-135190000D01*
X141560000Y-133590000D02*
X140640000Y-133590000D01*
X141560000Y-135190000D02*
X140640000Y-135190000D01*
X141560000Y-141410000D02*
X141560000Y-133590000D01*
X136200000Y-137550000D02*
X137200000Y-137550000D01*
X137200000Y-139150000D01*
X136200000Y-139150000D01*
X136200000Y-137550000D01*
X139800000Y-137550000D02*
X140800000Y-137550000D01*
X140800000Y-139150000D01*
X139800000Y-139150000D01*
X139800000Y-137550000D01*
%TO.C,J1*%
X139870000Y-107420000D02*
X141250000Y-107420000D01*
X139870000Y-108800000D02*
X139870000Y-107420000D01*
X139870000Y-110070000D02*
X139870000Y-127960000D01*
X139870000Y-110070000D02*
X142630000Y-110070000D01*
X139870000Y-127960000D02*
X142630000Y-127960000D01*
X142630000Y-110070000D02*
X142630000Y-127960000D01*
%TO.C,C5*%
X114234420Y-101240000D02*
X114515580Y-101240000D01*
X114234420Y-102260000D02*
X114515580Y-102260000D01*
%TO.C,C4*%
X114038748Y-106015000D02*
X114561252Y-106015000D01*
X114038748Y-107485000D02*
X114561252Y-107485000D01*
%TO.C,C3*%
X122338748Y-101015000D02*
X122861252Y-101015000D01*
X122338748Y-102485000D02*
X122861252Y-102485000D01*
%TO.C,C2*%
X122234420Y-95740000D02*
X122515580Y-95740000D01*
X122234420Y-96760000D02*
X122515580Y-96760000D01*
%TO.C,C1*%
X114234420Y-96490000D02*
X114515580Y-96490000D01*
X114234420Y-97510000D02*
X114515580Y-97510000D01*
%TD*%
M02*
