%TF.GenerationSoftware,KiCad,Pcbnew,10.0.5*%
%TF.CreationDate,2026-09-15T19:20:50+05:30*%
%TF.ProjectId,Libre,4c696272-652e-46b6-9963-61645f706362,rev?*%
%TF.SameCoordinates,Original*%
%TF.FileFunction,Copper,L2,Bot*%
%TF.FilePolarity,Positive*%
%FSLAX46Y46*%
G04 Gerber Fmt 4.6, Leading zero omitted, Abs format (unit mm)*
G04 Created by KiCad (PCBNEW 10.0.5) date 2026-09-15 19:20:50*
%MOMM*%
%LPD*%
G01*
G04 APERTURE LIST*
G04 Aperture macros list*
%AMRoundRect*
0 Rectangle with rounded corners*
0 $1 Rounding radius*
0 $2 $3 $4 $5 $6 $7 $8 $9 X,Y pos of 4 corners*
0 Add a 4 corners polygon primitive as box body*
4,1,4,$2,$3,$4,$5,$6,$7,$8,$9,$2,$3,0*
0 Add four circle primitives for the rounded corners*
1,1,$1+$1,$2,$3*
1,1,$1+$1,$4,$5*
1,1,$1+$1,$6,$7*
1,1,$1+$1,$8,$9*
0 Add four rect primitives between the rounded corners*
20,1,$1+$1,$2,$3,$4,$5,0*
20,1,$1+$1,$4,$5,$6,$7,0*
20,1,$1+$1,$6,$7,$8,$9,0*
20,1,$1+$1,$8,$9,$2,$3,0*%
G04 Aperture macros list end*
%TA.AperFunction,ComponentPad*%
%ADD10C,1.530000*%
%TD*%
%TA.AperFunction,ComponentPad*%
%ADD11R,1.530000X1.530000*%
%TD*%
%TA.AperFunction,ComponentPad*%
%ADD12RoundRect,0.250000X-0.350000X-0.625000X0.350000X-0.625000X0.350000X0.625000X-0.350000X0.625000X0*%
%TD*%
%TA.AperFunction,ComponentPad*%
%ADD13O,1.200000X1.750000*%
%TD*%
%TA.AperFunction,ComponentPad*%
%ADD14R,1.700000X1.700000*%
%TD*%
%TA.AperFunction,ComponentPad*%
%ADD15C,1.700000*%
%TD*%
%TA.AperFunction,ViaPad*%
%ADD16C,0.600000*%
%TD*%
%TA.AperFunction,Conductor*%
%ADD17C,0.200000*%
%TD*%
G04 APERTURE END LIST*
D10*
%TO.P,U1,J3_1,GND_J3_1*%
%TO.N,GND*%
X106849500Y-84385000D03*
%TO.P,U1,J3_2,U0TXD/GPIO43_J3_2*%
%TO.N,unconnected-(U1-U0TXD{slash}GPIO43-PadJ3_2)*%
X106849500Y-86925000D03*
%TO.P,U1,J3_3,U0RXD/GPIO44_J3_3*%
%TO.N,unconnected-(U1-U0RXD{slash}GPIO44-PadJ3_3)*%
X106849500Y-89465000D03*
%TO.P,U1,J3_4,GPIO1_J3_4*%
%TO.N,Net-(U1-GPIO1)*%
X106849500Y-92005000D03*
%TO.P,U1,J3_5,GPIO2_J3_5*%
%TO.N,Net-(U1-GPIO2)*%
X106849500Y-94545000D03*
%TO.P,U1,J3_6,MTMS/GPIO42_J3_6*%
%TO.N,unconnected-(U1-MTMS{slash}GPIO42-PadJ3_6)*%
X106849500Y-97085000D03*
%TO.P,U1,J3_7,MTDI/GPIO41_J3_7*%
%TO.N,unconnected-(U1-MTDI{slash}GPIO41-PadJ3_7)*%
X106849500Y-99625000D03*
%TO.P,U1,J3_8,MTDO/GPIO40_J3_8*%
%TO.N,unconnected-(U1-MTDO{slash}GPIO40-PadJ3_8)*%
X106849500Y-102165000D03*
%TO.P,U1,J3_9,MTCK/GPIO39_J3_9*%
%TO.N,unconnected-(U1-MTCK{slash}GPIO39-PadJ3_9)*%
X106849500Y-104705000D03*
%TO.P,U1,J3_10,GPIO38_J3_10*%
%TO.N,unconnected-(U1-GPIO38-PadJ3_10)*%
X106849500Y-107245000D03*
%TO.P,U1,J3_11,GPIO37_J3_11*%
%TO.N,unconnected-(U1-GPIO37-PadJ3_11)*%
X106849500Y-109785000D03*
%TO.P,U1,J3_12,GPIO36_J3_12*%
%TO.N,unconnected-(U1-GPIO36-PadJ3_12)*%
X106849500Y-112325000D03*
%TO.P,U1,J3_13,GPIO35_J3_13*%
%TO.N,unconnected-(U1-GPIO35-PadJ3_13)*%
X106849500Y-114865000D03*
%TO.P,U1,J3_14,GPIO0_J3_14*%
%TO.N,unconnected-(U1-GPIO0-PadJ3_14)*%
X106849500Y-117405000D03*
%TO.P,U1,J3_15,GPIO45_J3_15*%
%TO.N,unconnected-(U1-GPIO45-PadJ3_15)*%
X106849500Y-119945000D03*
%TO.P,U1,J3_16,GPIO48_J3_16*%
%TO.N,unconnected-(U1-GPIO48-PadJ3_16)*%
X106849500Y-122485000D03*
%TO.P,U1,J3_17,GPIO47_J3_17*%
%TO.N,unconnected-(U1-GPIO47-PadJ3_17)*%
X106849500Y-125025000D03*
%TO.P,U1,J3_18,GPIO21_J3_18*%
%TO.N,unconnected-(U1-GPIO21-PadJ3_18)*%
X106849500Y-127565000D03*
%TO.P,U1,J3_19,USB_D+/GPIO20_J3_19*%
%TO.N,unconnected-(U1-USB_D+{slash}GPIO20-PadJ3_19)*%
X106849500Y-130105000D03*
%TO.P,U1,J3_20,USB_D-/GPIO19_J3_20*%
%TO.N,unconnected-(U1-USB_D-{slash}GPIO19-PadJ3_20)*%
X106849500Y-132645000D03*
%TO.P,U1,J3_21,GND_J3_21*%
%TO.N,GND*%
X106849500Y-135185000D03*
D11*
%TO.P,U1,J1_1,3V3_J1_1*%
%TO.N,+3V3*%
X129709500Y-84385000D03*
D10*
%TO.P,U1,J1_2,3V3_J1_2*%
X129709500Y-86925000D03*
%TO.P,U1,J1_3,RST_J1_3*%
%TO.N,unconnected-(U1-RST-PadJ1_3)*%
X129709500Y-89465000D03*
%TO.P,U1,J1_4,GPIO4_J1_4*%
%TO.N,Net-(U1-GPIO4)*%
X129709500Y-92005000D03*
%TO.P,U1,J1_5,GPIO5_J1_5*%
%TO.N,SD_CS*%
X129709500Y-94545000D03*
%TO.P,U1,J1_6,GPIO6_J1_6*%
%TO.N,SD_CLK*%
X129709500Y-97085000D03*
%TO.P,U1,J1_7,GPIO7_J1_7*%
%TO.N,BUSY*%
X129709500Y-99625000D03*
%TO.P,U1,J1_8,GPIO15_J1_8*%
%TO.N,Net-(U1-GPIO15)*%
X129709500Y-102165000D03*
%TO.P,U1,J1_9,GPIO16_J1_9*%
%TO.N,Net-(U1-GPIO16)*%
X129709500Y-104705000D03*
%TO.P,U1,J1_10,GPIO17_J1_10*%
%TO.N,Net-(U1-GPIO17)*%
X129709500Y-107245000D03*
%TO.P,U1,J1_11,GPIO18_J1_11*%
%TO.N,unconnected-(U1-GPIO18-PadJ1_11)*%
X129709500Y-109785000D03*
%TO.P,U1,J1_12,GPIO8_J1_12*%
%TO.N,RST*%
X129709500Y-112325000D03*
%TO.P,U1,J1_13,GPIO3_J1_13*%
%TO.N,unconnected-(U1-GPIO3-PadJ1_13)*%
X129709500Y-114865000D03*
%TO.P,U1,J1_14,GPIO46_J1_14*%
%TO.N,unconnected-(U1-GPIO46-PadJ1_14)*%
X129709500Y-117405000D03*
%TO.P,U1,J1_15,GPIO9_J1_15*%
%TO.N,DC*%
X129709500Y-119945000D03*
%TO.P,U1,J1_16,GPIO10_J1_16*%
%TO.N,CS*%
X129709500Y-122485000D03*
%TO.P,U1,J1_17,GPIO11_J1_17*%
%TO.N,CLK*%
X129709500Y-125025000D03*
%TO.P,U1,J1_18,GPIO12_J1_18*%
%TO.N,DIN*%
X129709500Y-127565000D03*
%TO.P,U1,J1_19,GPIO13_J1_19*%
%TO.N,SD_MOSI*%
X129709500Y-130105000D03*
%TO.P,U1,J1_20,GPIO14_J1_20*%
%TO.N,SD_MISO*%
X129709500Y-132645000D03*
%TO.P,U1,J1_21,5V0_J1_21*%
%TO.N,USB_5V*%
X129709500Y-135185000D03*
%TO.P,U1,J3_22,GND_J3_22*%
%TO.N,GND*%
X106849500Y-137725000D03*
%TO.P,U1,J1_22,GND_J1_22*%
X129709500Y-137725000D03*
%TD*%
D12*
%TO.P,J3,1,Pin_1_1*%
%TO.N,+BATT*%
X137500000Y-135050000D03*
D13*
%TO.P,J3,2,Pin_2_2*%
%TO.N,GND*%
X139500000Y-135050000D03*
%TD*%
D14*
%TO.P,J1,1,Pin_1_1*%
%TO.N,+3V3*%
X141250000Y-108800000D03*
D15*
%TO.P,J1,2,Pin_2_2*%
%TO.N,GND*%
X141250000Y-111340000D03*
%TO.P,J1,3,Pin_3_3*%
%TO.N,DIN*%
X141250000Y-113880000D03*
%TO.P,J1,4,Pin_4_4*%
%TO.N,CLK*%
X141250000Y-116420000D03*
%TO.P,J1,5,Pin_5_5*%
%TO.N,CS*%
X141250000Y-118960000D03*
%TO.P,J1,6,Pin_6_6*%
%TO.N,DC*%
X141250000Y-121500000D03*
%TO.P,J1,7,Pin_7_7*%
%TO.N,RST*%
X141250000Y-124040000D03*
%TO.P,J1,8,Pin_8_8*%
%TO.N,BUSY*%
X141250000Y-126580000D03*
%TD*%
D16*
%TO.N,Net-(U1-GPIO2)*%
X115249265Y-71500735D03*
%TO.N,Net-(U1-GPIO15)*%
X107250000Y-67750000D03*
%TO.N,GND*%
X136250000Y-66500000D03*
X124250000Y-68250000D03*
%TO.N,Net-(U1-GPIO15)*%
X112250000Y-70000000D03*
%TO.N,/SW_BATT+*%
X110000000Y-119500000D03*
X139250000Y-86000000D03*
%TO.N,GND*%
X134250000Y-92150000D03*
X141600000Y-91250000D03*
%TO.N,SD_MOSI*%
X143950000Y-93595000D03*
X131250000Y-129750000D03*
%TO.N,CLK*%
X132750000Y-114000000D03*
%TO.N,CS*%
X138250000Y-120000000D03*
%TO.N,DIN*%
X137674265Y-127575735D03*
%TO.N,+3V3*%
X139500000Y-98750000D03*
X140250000Y-106000000D03*
%TO.N,GND*%
X127000000Y-103000000D03*
X126250000Y-100250000D03*
%TO.N,USB_5V*%
X125750000Y-101000000D03*
X126887339Y-121901747D03*
%TO.N,Net-(U1-GPIO1)*%
X113200735Y-110549265D03*
%TO.N,GND*%
X116250000Y-97000000D03*
X111500000Y-99750000D03*
%TO.N,Net-(U1-GPIO1)*%
X124000000Y-105750000D03*
X115762583Y-101512583D03*
%TO.N,GND*%
X142628235Y-97500000D03*
X142549265Y-99299265D03*
%TO.N,SD_MISO*%
X134750000Y-106750000D03*
%TO.N,SD_CLK*%
X138250000Y-100250000D03*
%TO.N,SD_CS*%
X143018629Y-92750000D03*
%TO.N,+3V3*%
X131000000Y-92750000D03*
X141350000Y-95500000D03*
%TO.N,GND*%
X133250000Y-96000000D03*
X133226054Y-94226054D03*
%TO.N,+3V3*%
X140250000Y-98750000D03*
%TO.N,/SW_BATT+*%
X117750000Y-98375000D03*
X111412500Y-118500000D03*
%TO.N,Net-(U1-GPIO15)*%
X131976054Y-95476054D03*
%TD*%
%TO.N,GND*%
D17*
X124500000Y-68500000D02*
X124250000Y-68250000D01*
X136250000Y-66500000D02*
X134250000Y-68500000D01*
X134250000Y-68500000D02*
X124500000Y-68500000D01*
%TO.N,Net-(U1-GPIO2)*%
X115249265Y-71500735D02*
X113000000Y-73750000D01*
X113000000Y-73750000D02*
X105500000Y-73750000D01*
%TO.N,Net-(U1-GPIO15)*%
X107250000Y-67750000D02*
X109500000Y-70000000D01*
X109500000Y-70000000D02*
X112250000Y-70000000D01*
%TO.N,/SW_BATT+*%
X111000000Y-118500000D02*
X110000000Y-119500000D01*
X111412500Y-118500000D02*
X111000000Y-118500000D01*
X138500000Y-86000000D02*
X139250000Y-86000000D01*
X136100000Y-88400000D02*
X138500000Y-86000000D01*
X127725000Y-88400000D02*
X136100000Y-88400000D01*
X117750000Y-98375000D02*
X127725000Y-88400000D01*
%TO.N,GND*%
X136250000Y-92000000D02*
X134400000Y-92000000D01*
X137000000Y-91250000D02*
X136250000Y-92000000D01*
X134400000Y-92000000D02*
X134250000Y-92150000D01*
X141600000Y-91250000D02*
X137000000Y-91250000D01*
%TO.N,SD_MOSI*%
X144000000Y-93645000D02*
X143950000Y-93595000D01*
X144000000Y-95217245D02*
X144000000Y-93645000D01*
X140782887Y-98434358D02*
X144000000Y-95217245D01*
X140498529Y-98150000D02*
X140782887Y-98434358D01*
X140001471Y-98150000D02*
X140498529Y-98150000D01*
X139875000Y-98276471D02*
X140001471Y-98150000D01*
X138900000Y-98501471D02*
X139251471Y-98150000D01*
X134150000Y-105198529D02*
X138900000Y-100448529D01*
X139748529Y-98150000D02*
X139875000Y-98276471D01*
X134150000Y-126850000D02*
X134150000Y-105198529D01*
X131250000Y-129750000D02*
X134150000Y-126850000D01*
X138900000Y-100448529D02*
X138900000Y-98501471D01*
X139251471Y-98150000D02*
X139748529Y-98150000D01*
%TO.N,+3V3*%
X140500000Y-95500000D02*
X137750000Y-92750000D01*
X141350000Y-95500000D02*
X140500000Y-95500000D01*
X137750000Y-92750000D02*
X131000000Y-92750000D01*
%TO.N,CLK*%
X132750000Y-114000000D02*
X132750000Y-121984500D01*
X132750000Y-121984500D02*
X129709500Y-125025000D01*
%TO.N,CS*%
X128244500Y-123950000D02*
X129709500Y-122485000D01*
X128244500Y-133251823D02*
X128244500Y-123950000D01*
X129102676Y-134110000D02*
X128244500Y-133251823D01*
X131988529Y-134110000D02*
X129102676Y-134110000D01*
X138274265Y-127824264D02*
X131988529Y-134110000D01*
X138274265Y-120024265D02*
X138274265Y-127824264D01*
X138250000Y-120000000D02*
X138274265Y-120024265D01*
%TO.N,DIN*%
X128644500Y-133086138D02*
X128644500Y-128630000D01*
X131540000Y-133710000D02*
X129268362Y-133710000D01*
X137674265Y-127575735D02*
X131540000Y-133710000D01*
X129268362Y-133710000D02*
X128644500Y-133086138D01*
X128644500Y-128630000D02*
X129709500Y-127565000D01*
%TO.N,+3V3*%
X139500000Y-105250000D02*
X139500000Y-98750000D01*
X140250000Y-106000000D02*
X139500000Y-105250000D01*
%TO.N,GND*%
X127000000Y-101000000D02*
X127000000Y-103000000D01*
X126250000Y-100250000D02*
X127000000Y-101000000D01*
%TO.N,USB_5V*%
X128039000Y-120750086D02*
X126887339Y-121901747D01*
X128039000Y-119789000D02*
X128039000Y-120750086D01*
X125750000Y-117500000D02*
X128039000Y-119789000D01*
X125750000Y-101000000D02*
X125750000Y-117500000D01*
%TO.N,Net-(U1-GPIO1)*%
X113200735Y-110549265D02*
X118000000Y-105750000D01*
X118000000Y-105750000D02*
X120000000Y-105750000D01*
%TO.N,GND*%
X117000000Y-97250000D02*
X116750000Y-97000000D01*
X111500000Y-99750000D02*
X114500000Y-99750000D01*
X116750000Y-97000000D02*
X116250000Y-97000000D01*
X114500000Y-99750000D02*
X117000000Y-97250000D01*
%TO.N,Net-(U1-GPIO1)*%
X120000000Y-105750000D02*
X124000000Y-105750000D01*
X115762583Y-101512583D02*
X120000000Y-105750000D01*
%TO.N,GND*%
X142500000Y-97628235D02*
X142500000Y-99250000D01*
X142628235Y-97500000D02*
X142500000Y-97628235D01*
X142500000Y-99250000D02*
X142549265Y-99299265D01*
%TO.N,SD_MISO*%
X134750000Y-127604500D02*
X129709500Y-132645000D01*
X134750000Y-106750000D02*
X134750000Y-127604500D01*
%TO.N,+3V3*%
X140250000Y-100756470D02*
X141250000Y-101756470D01*
X141250000Y-101756470D02*
X141250000Y-108800000D01*
X140250000Y-98750000D02*
X140250000Y-100756470D01*
%TO.N,SD_CLK*%
X131727525Y-94876054D02*
X129709500Y-96894079D01*
X132224583Y-94876054D02*
X131727525Y-94876054D01*
X132576054Y-95227525D02*
X132224583Y-94876054D01*
X132576054Y-97826054D02*
X132576054Y-95227525D01*
X135000000Y-100250000D02*
X132576054Y-97826054D01*
X129709500Y-96894079D02*
X129709500Y-97085000D01*
X138250000Y-100250000D02*
X135000000Y-100250000D01*
%TO.N,SD_CS*%
X133476054Y-93626054D02*
X130628446Y-93626054D01*
X136851515Y-97001515D02*
X133476054Y-93626054D01*
X130628446Y-93626054D02*
X129709500Y-94545000D01*
X141650044Y-97001515D02*
X136851515Y-97001515D01*
X143018629Y-95632930D02*
X141650044Y-97001515D01*
X143018629Y-92750000D02*
X143018629Y-95632930D01*
%TO.N,GND*%
X133226054Y-94226054D02*
X133250000Y-94250000D01*
X133250000Y-94250000D02*
X133250000Y-96000000D01*
%TO.N,/SW_BATT+*%
X111412500Y-118500000D02*
X111412500Y-118587500D01*
%TO.N,Net-(U1-GPIO2)*%
X101850000Y-89545500D02*
X106849500Y-94545000D01*
X101850000Y-77400000D02*
X101850000Y-89545500D01*
X105500000Y-73750000D02*
X101850000Y-77400000D01*
%TO.N,Net-(U1-GPIO15)*%
X131976054Y-99898446D02*
X129709500Y-102165000D01*
X131976054Y-95476054D02*
X131976054Y-99898446D01*
%TD*%
M02*
