%TF.GenerationSoftware,KiCad,Pcbnew,10.0.5*%
%TF.CreationDate,2026-09-18T10:15:03+05:30*%
%TF.ProjectId,Libre,4c696272-652e-46b6-9963-61645f706362,rev?*%
%TF.SameCoordinates,Original*%
%TF.FileFunction,Legend,Top*%
%TF.FilePolarity,Positive*%
%FSLAX46Y46*%
G04 Gerber Fmt 4.6, Leading zero omitted, Abs format (unit mm)*
G04 Created by KiCad (PCBNEW 10.0.5) date 2026-09-18 10:15:03*
%MOMM*%
%LPD*%
G01*
G04 APERTURE LIST*
%ADD10C,0.150000*%
%ADD11C,0.120000*%
G04 APERTURE END LIST*
D10*
X101988095Y-164504819D02*
X101988095Y-163504819D01*
X101988095Y-163981009D02*
X102559523Y-163981009D01*
X102559523Y-164504819D02*
X102559523Y-163504819D01*
X103464285Y-163838152D02*
X103464285Y-164504819D01*
X103226190Y-163457200D02*
X102988095Y-164171485D01*
X102988095Y-164171485D02*
X103607142Y-164171485D01*
X199488095Y-164754819D02*
X199488095Y-163754819D01*
X199488095Y-164231009D02*
X200059523Y-164231009D01*
X200059523Y-164754819D02*
X200059523Y-163754819D01*
X200440476Y-163754819D02*
X201059523Y-163754819D01*
X201059523Y-163754819D02*
X200726190Y-164135771D01*
X200726190Y-164135771D02*
X200869047Y-164135771D01*
X200869047Y-164135771D02*
X200964285Y-164183390D01*
X200964285Y-164183390D02*
X201011904Y-164231009D01*
X201011904Y-164231009D02*
X201059523Y-164326247D01*
X201059523Y-164326247D02*
X201059523Y-164564342D01*
X201059523Y-164564342D02*
X201011904Y-164659580D01*
X201011904Y-164659580D02*
X200964285Y-164707200D01*
X200964285Y-164707200D02*
X200869047Y-164754819D01*
X200869047Y-164754819D02*
X200583333Y-164754819D01*
X200583333Y-164754819D02*
X200488095Y-164707200D01*
X200488095Y-164707200D02*
X200440476Y-164659580D01*
X199738095Y-22254819D02*
X199738095Y-21254819D01*
X199738095Y-21731009D02*
X200309523Y-21731009D01*
X200309523Y-22254819D02*
X200309523Y-21254819D01*
X200738095Y-21350057D02*
X200785714Y-21302438D01*
X200785714Y-21302438D02*
X200880952Y-21254819D01*
X200880952Y-21254819D02*
X201119047Y-21254819D01*
X201119047Y-21254819D02*
X201214285Y-21302438D01*
X201214285Y-21302438D02*
X201261904Y-21350057D01*
X201261904Y-21350057D02*
X201309523Y-21445295D01*
X201309523Y-21445295D02*
X201309523Y-21540533D01*
X201309523Y-21540533D02*
X201261904Y-21683390D01*
X201261904Y-21683390D02*
X200690476Y-22254819D01*
X200690476Y-22254819D02*
X201309523Y-22254819D01*
X101988095Y-21754819D02*
X101988095Y-20754819D01*
X101988095Y-21231009D02*
X102559523Y-21231009D01*
X102559523Y-21754819D02*
X102559523Y-20754819D01*
X103559523Y-21754819D02*
X102988095Y-21754819D01*
X103273809Y-21754819D02*
X103273809Y-20754819D01*
X103273809Y-20754819D02*
X103178571Y-20897676D01*
X103178571Y-20897676D02*
X103083333Y-20992914D01*
X103083333Y-20992914D02*
X102988095Y-21040533D01*
X124583333Y-142689580D02*
X124535714Y-142737200D01*
X124535714Y-142737200D02*
X124392857Y-142784819D01*
X124392857Y-142784819D02*
X124297619Y-142784819D01*
X124297619Y-142784819D02*
X124154762Y-142737200D01*
X124154762Y-142737200D02*
X124059524Y-142641961D01*
X124059524Y-142641961D02*
X124011905Y-142546723D01*
X124011905Y-142546723D02*
X123964286Y-142356247D01*
X123964286Y-142356247D02*
X123964286Y-142213390D01*
X123964286Y-142213390D02*
X124011905Y-142022914D01*
X124011905Y-142022914D02*
X124059524Y-141927676D01*
X124059524Y-141927676D02*
X124154762Y-141832438D01*
X124154762Y-141832438D02*
X124297619Y-141784819D01*
X124297619Y-141784819D02*
X124392857Y-141784819D01*
X124392857Y-141784819D02*
X124535714Y-141832438D01*
X124535714Y-141832438D02*
X124583333Y-141880057D01*
X125440476Y-142118152D02*
X125440476Y-142784819D01*
X125202381Y-141737200D02*
X124964286Y-142451485D01*
X124964286Y-142451485D02*
X125583333Y-142451485D01*
X107507200Y-137743332D02*
X107554819Y-137600475D01*
X107554819Y-137600475D02*
X107554819Y-137362380D01*
X107554819Y-137362380D02*
X107507200Y-137267142D01*
X107507200Y-137267142D02*
X107459580Y-137219523D01*
X107459580Y-137219523D02*
X107364342Y-137171904D01*
X107364342Y-137171904D02*
X107269104Y-137171904D01*
X107269104Y-137171904D02*
X107173866Y-137219523D01*
X107173866Y-137219523D02*
X107126247Y-137267142D01*
X107126247Y-137267142D02*
X107078628Y-137362380D01*
X107078628Y-137362380D02*
X107031009Y-137552856D01*
X107031009Y-137552856D02*
X106983390Y-137648094D01*
X106983390Y-137648094D02*
X106935771Y-137695713D01*
X106935771Y-137695713D02*
X106840533Y-137743332D01*
X106840533Y-137743332D02*
X106745295Y-137743332D01*
X106745295Y-137743332D02*
X106650057Y-137695713D01*
X106650057Y-137695713D02*
X106602438Y-137648094D01*
X106602438Y-137648094D02*
X106554819Y-137552856D01*
X106554819Y-137552856D02*
X106554819Y-137314761D01*
X106554819Y-137314761D02*
X106602438Y-137171904D01*
X106554819Y-136838570D02*
X107554819Y-136600475D01*
X107554819Y-136600475D02*
X106840533Y-136409999D01*
X106840533Y-136409999D02*
X107554819Y-136219523D01*
X107554819Y-136219523D02*
X106554819Y-135981428D01*
X106554819Y-135171904D02*
X106554819Y-135362380D01*
X106554819Y-135362380D02*
X106602438Y-135457618D01*
X106602438Y-135457618D02*
X106650057Y-135505237D01*
X106650057Y-135505237D02*
X106792914Y-135600475D01*
X106792914Y-135600475D02*
X106983390Y-135648094D01*
X106983390Y-135648094D02*
X107364342Y-135648094D01*
X107364342Y-135648094D02*
X107459580Y-135600475D01*
X107459580Y-135600475D02*
X107507200Y-135552856D01*
X107507200Y-135552856D02*
X107554819Y-135457618D01*
X107554819Y-135457618D02*
X107554819Y-135267142D01*
X107554819Y-135267142D02*
X107507200Y-135171904D01*
X107507200Y-135171904D02*
X107459580Y-135124285D01*
X107459580Y-135124285D02*
X107364342Y-135076666D01*
X107364342Y-135076666D02*
X107126247Y-135076666D01*
X107126247Y-135076666D02*
X107031009Y-135124285D01*
X107031009Y-135124285D02*
X106983390Y-135171904D01*
X106983390Y-135171904D02*
X106935771Y-135267142D01*
X106935771Y-135267142D02*
X106935771Y-135457618D01*
X106935771Y-135457618D02*
X106983390Y-135552856D01*
X106983390Y-135552856D02*
X107031009Y-135600475D01*
X107031009Y-135600475D02*
X107126247Y-135648094D01*
X98824819Y-124843333D02*
X99539104Y-124843333D01*
X99539104Y-124843333D02*
X99681961Y-124890952D01*
X99681961Y-124890952D02*
X99777200Y-124986190D01*
X99777200Y-124986190D02*
X99824819Y-125129047D01*
X99824819Y-125129047D02*
X99824819Y-125224285D01*
X98920057Y-124414761D02*
X98872438Y-124367142D01*
X98872438Y-124367142D02*
X98824819Y-124271904D01*
X98824819Y-124271904D02*
X98824819Y-124033809D01*
X98824819Y-124033809D02*
X98872438Y-123938571D01*
X98872438Y-123938571D02*
X98920057Y-123890952D01*
X98920057Y-123890952D02*
X99015295Y-123843333D01*
X99015295Y-123843333D02*
X99110533Y-123843333D01*
X99110533Y-123843333D02*
X99253390Y-123890952D01*
X99253390Y-123890952D02*
X99824819Y-124462380D01*
X99824819Y-124462380D02*
X99824819Y-123843333D01*
X148661307Y-35477200D02*
X148804164Y-35524819D01*
X148804164Y-35524819D02*
X149042259Y-35524819D01*
X149042259Y-35524819D02*
X149137497Y-35477200D01*
X149137497Y-35477200D02*
X149185116Y-35429580D01*
X149185116Y-35429580D02*
X149232735Y-35334342D01*
X149232735Y-35334342D02*
X149232735Y-35239104D01*
X149232735Y-35239104D02*
X149185116Y-35143866D01*
X149185116Y-35143866D02*
X149137497Y-35096247D01*
X149137497Y-35096247D02*
X149042259Y-35048628D01*
X149042259Y-35048628D02*
X148851783Y-35001009D01*
X148851783Y-35001009D02*
X148756545Y-34953390D01*
X148756545Y-34953390D02*
X148708926Y-34905771D01*
X148708926Y-34905771D02*
X148661307Y-34810533D01*
X148661307Y-34810533D02*
X148661307Y-34715295D01*
X148661307Y-34715295D02*
X148708926Y-34620057D01*
X148708926Y-34620057D02*
X148756545Y-34572438D01*
X148756545Y-34572438D02*
X148851783Y-34524819D01*
X148851783Y-34524819D02*
X149089878Y-34524819D01*
X149089878Y-34524819D02*
X149232735Y-34572438D01*
X149566069Y-34524819D02*
X149804164Y-35524819D01*
X149804164Y-35524819D02*
X149994640Y-34810533D01*
X149994640Y-34810533D02*
X150185116Y-35524819D01*
X150185116Y-35524819D02*
X150423212Y-34524819D01*
X151280354Y-34524819D02*
X150804164Y-34524819D01*
X150804164Y-34524819D02*
X150756545Y-35001009D01*
X150756545Y-35001009D02*
X150804164Y-34953390D01*
X150804164Y-34953390D02*
X150899402Y-34905771D01*
X150899402Y-34905771D02*
X151137497Y-34905771D01*
X151137497Y-34905771D02*
X151232735Y-34953390D01*
X151232735Y-34953390D02*
X151280354Y-35001009D01*
X151280354Y-35001009D02*
X151327973Y-35096247D01*
X151327973Y-35096247D02*
X151327973Y-35334342D01*
X151327973Y-35334342D02*
X151280354Y-35429580D01*
X151280354Y-35429580D02*
X151232735Y-35477200D01*
X151232735Y-35477200D02*
X151137497Y-35524819D01*
X151137497Y-35524819D02*
X150899402Y-35524819D01*
X150899402Y-35524819D02*
X150804164Y-35477200D01*
X150804164Y-35477200D02*
X150756545Y-35429580D01*
X158061307Y-35477200D02*
X158204164Y-35524819D01*
X158204164Y-35524819D02*
X158442259Y-35524819D01*
X158442259Y-35524819D02*
X158537497Y-35477200D01*
X158537497Y-35477200D02*
X158585116Y-35429580D01*
X158585116Y-35429580D02*
X158632735Y-35334342D01*
X158632735Y-35334342D02*
X158632735Y-35239104D01*
X158632735Y-35239104D02*
X158585116Y-35143866D01*
X158585116Y-35143866D02*
X158537497Y-35096247D01*
X158537497Y-35096247D02*
X158442259Y-35048628D01*
X158442259Y-35048628D02*
X158251783Y-35001009D01*
X158251783Y-35001009D02*
X158156545Y-34953390D01*
X158156545Y-34953390D02*
X158108926Y-34905771D01*
X158108926Y-34905771D02*
X158061307Y-34810533D01*
X158061307Y-34810533D02*
X158061307Y-34715295D01*
X158061307Y-34715295D02*
X158108926Y-34620057D01*
X158108926Y-34620057D02*
X158156545Y-34572438D01*
X158156545Y-34572438D02*
X158251783Y-34524819D01*
X158251783Y-34524819D02*
X158489878Y-34524819D01*
X158489878Y-34524819D02*
X158632735Y-34572438D01*
X158966069Y-34524819D02*
X159204164Y-35524819D01*
X159204164Y-35524819D02*
X159394640Y-34810533D01*
X159394640Y-34810533D02*
X159585116Y-35524819D01*
X159585116Y-35524819D02*
X159823212Y-34524819D01*
X160632735Y-34858152D02*
X160632735Y-35524819D01*
X160394640Y-34477200D02*
X160156545Y-35191485D01*
X160156545Y-35191485D02*
X160775592Y-35191485D01*
X139066667Y-35457200D02*
X139209524Y-35504819D01*
X139209524Y-35504819D02*
X139447619Y-35504819D01*
X139447619Y-35504819D02*
X139542857Y-35457200D01*
X139542857Y-35457200D02*
X139590476Y-35409580D01*
X139590476Y-35409580D02*
X139638095Y-35314342D01*
X139638095Y-35314342D02*
X139638095Y-35219104D01*
X139638095Y-35219104D02*
X139590476Y-35123866D01*
X139590476Y-35123866D02*
X139542857Y-35076247D01*
X139542857Y-35076247D02*
X139447619Y-35028628D01*
X139447619Y-35028628D02*
X139257143Y-34981009D01*
X139257143Y-34981009D02*
X139161905Y-34933390D01*
X139161905Y-34933390D02*
X139114286Y-34885771D01*
X139114286Y-34885771D02*
X139066667Y-34790533D01*
X139066667Y-34790533D02*
X139066667Y-34695295D01*
X139066667Y-34695295D02*
X139114286Y-34600057D01*
X139114286Y-34600057D02*
X139161905Y-34552438D01*
X139161905Y-34552438D02*
X139257143Y-34504819D01*
X139257143Y-34504819D02*
X139495238Y-34504819D01*
X139495238Y-34504819D02*
X139638095Y-34552438D01*
X139971429Y-34504819D02*
X140209524Y-35504819D01*
X140209524Y-35504819D02*
X140400000Y-34790533D01*
X140400000Y-34790533D02*
X140590476Y-35504819D01*
X140590476Y-35504819D02*
X140828572Y-34504819D01*
X141114286Y-34504819D02*
X141733333Y-34504819D01*
X141733333Y-34504819D02*
X141400000Y-34885771D01*
X141400000Y-34885771D02*
X141542857Y-34885771D01*
X141542857Y-34885771D02*
X141638095Y-34933390D01*
X141638095Y-34933390D02*
X141685714Y-34981009D01*
X141685714Y-34981009D02*
X141733333Y-35076247D01*
X141733333Y-35076247D02*
X141733333Y-35314342D01*
X141733333Y-35314342D02*
X141685714Y-35409580D01*
X141685714Y-35409580D02*
X141638095Y-35457200D01*
X141638095Y-35457200D02*
X141542857Y-35504819D01*
X141542857Y-35504819D02*
X141257143Y-35504819D01*
X141257143Y-35504819D02*
X141161905Y-35457200D01*
X141161905Y-35457200D02*
X141114286Y-35409580D01*
X148661307Y-40727200D02*
X148804164Y-40774819D01*
X148804164Y-40774819D02*
X149042259Y-40774819D01*
X149042259Y-40774819D02*
X149137497Y-40727200D01*
X149137497Y-40727200D02*
X149185116Y-40679580D01*
X149185116Y-40679580D02*
X149232735Y-40584342D01*
X149232735Y-40584342D02*
X149232735Y-40489104D01*
X149232735Y-40489104D02*
X149185116Y-40393866D01*
X149185116Y-40393866D02*
X149137497Y-40346247D01*
X149137497Y-40346247D02*
X149042259Y-40298628D01*
X149042259Y-40298628D02*
X148851783Y-40251009D01*
X148851783Y-40251009D02*
X148756545Y-40203390D01*
X148756545Y-40203390D02*
X148708926Y-40155771D01*
X148708926Y-40155771D02*
X148661307Y-40060533D01*
X148661307Y-40060533D02*
X148661307Y-39965295D01*
X148661307Y-39965295D02*
X148708926Y-39870057D01*
X148708926Y-39870057D02*
X148756545Y-39822438D01*
X148756545Y-39822438D02*
X148851783Y-39774819D01*
X148851783Y-39774819D02*
X149089878Y-39774819D01*
X149089878Y-39774819D02*
X149232735Y-39822438D01*
X149566069Y-39774819D02*
X149804164Y-40774819D01*
X149804164Y-40774819D02*
X149994640Y-40060533D01*
X149994640Y-40060533D02*
X150185116Y-40774819D01*
X150185116Y-40774819D02*
X150423212Y-39774819D01*
X150756545Y-39870057D02*
X150804164Y-39822438D01*
X150804164Y-39822438D02*
X150899402Y-39774819D01*
X150899402Y-39774819D02*
X151137497Y-39774819D01*
X151137497Y-39774819D02*
X151232735Y-39822438D01*
X151232735Y-39822438D02*
X151280354Y-39870057D01*
X151280354Y-39870057D02*
X151327973Y-39965295D01*
X151327973Y-39965295D02*
X151327973Y-40060533D01*
X151327973Y-40060533D02*
X151280354Y-40203390D01*
X151280354Y-40203390D02*
X150708926Y-40774819D01*
X150708926Y-40774819D02*
X151327973Y-40774819D01*
X148561307Y-30477200D02*
X148704164Y-30524819D01*
X148704164Y-30524819D02*
X148942259Y-30524819D01*
X148942259Y-30524819D02*
X149037497Y-30477200D01*
X149037497Y-30477200D02*
X149085116Y-30429580D01*
X149085116Y-30429580D02*
X149132735Y-30334342D01*
X149132735Y-30334342D02*
X149132735Y-30239104D01*
X149132735Y-30239104D02*
X149085116Y-30143866D01*
X149085116Y-30143866D02*
X149037497Y-30096247D01*
X149037497Y-30096247D02*
X148942259Y-30048628D01*
X148942259Y-30048628D02*
X148751783Y-30001009D01*
X148751783Y-30001009D02*
X148656545Y-29953390D01*
X148656545Y-29953390D02*
X148608926Y-29905771D01*
X148608926Y-29905771D02*
X148561307Y-29810533D01*
X148561307Y-29810533D02*
X148561307Y-29715295D01*
X148561307Y-29715295D02*
X148608926Y-29620057D01*
X148608926Y-29620057D02*
X148656545Y-29572438D01*
X148656545Y-29572438D02*
X148751783Y-29524819D01*
X148751783Y-29524819D02*
X148989878Y-29524819D01*
X148989878Y-29524819D02*
X149132735Y-29572438D01*
X149466069Y-29524819D02*
X149704164Y-30524819D01*
X149704164Y-30524819D02*
X149894640Y-29810533D01*
X149894640Y-29810533D02*
X150085116Y-30524819D01*
X150085116Y-30524819D02*
X150323212Y-29524819D01*
X151227973Y-30524819D02*
X150656545Y-30524819D01*
X150942259Y-30524819D02*
X150942259Y-29524819D01*
X150942259Y-29524819D02*
X150847021Y-29667676D01*
X150847021Y-29667676D02*
X150751783Y-29762914D01*
X150751783Y-29762914D02*
X150656545Y-29810533D01*
X107916666Y-67324819D02*
X107916666Y-68039104D01*
X107916666Y-68039104D02*
X107869047Y-68181961D01*
X107869047Y-68181961D02*
X107773809Y-68277200D01*
X107773809Y-68277200D02*
X107630952Y-68324819D01*
X107630952Y-68324819D02*
X107535714Y-68324819D01*
X108916666Y-68324819D02*
X108345238Y-68324819D01*
X108630952Y-68324819D02*
X108630952Y-67324819D01*
X108630952Y-67324819D02*
X108535714Y-67467676D01*
X108535714Y-67467676D02*
X108440476Y-67562914D01*
X108440476Y-67562914D02*
X108345238Y-67610533D01*
X124583333Y-139679580D02*
X124535714Y-139727200D01*
X124535714Y-139727200D02*
X124392857Y-139774819D01*
X124392857Y-139774819D02*
X124297619Y-139774819D01*
X124297619Y-139774819D02*
X124154762Y-139727200D01*
X124154762Y-139727200D02*
X124059524Y-139631961D01*
X124059524Y-139631961D02*
X124011905Y-139536723D01*
X124011905Y-139536723D02*
X123964286Y-139346247D01*
X123964286Y-139346247D02*
X123964286Y-139203390D01*
X123964286Y-139203390D02*
X124011905Y-139012914D01*
X124011905Y-139012914D02*
X124059524Y-138917676D01*
X124059524Y-138917676D02*
X124154762Y-138822438D01*
X124154762Y-138822438D02*
X124297619Y-138774819D01*
X124297619Y-138774819D02*
X124392857Y-138774819D01*
X124392857Y-138774819D02*
X124535714Y-138822438D01*
X124535714Y-138822438D02*
X124583333Y-138870057D01*
X124916667Y-138774819D02*
X125535714Y-138774819D01*
X125535714Y-138774819D02*
X125202381Y-139155771D01*
X125202381Y-139155771D02*
X125345238Y-139155771D01*
X125345238Y-139155771D02*
X125440476Y-139203390D01*
X125440476Y-139203390D02*
X125488095Y-139251009D01*
X125488095Y-139251009D02*
X125535714Y-139346247D01*
X125535714Y-139346247D02*
X125535714Y-139584342D01*
X125535714Y-139584342D02*
X125488095Y-139679580D01*
X125488095Y-139679580D02*
X125440476Y-139727200D01*
X125440476Y-139727200D02*
X125345238Y-139774819D01*
X125345238Y-139774819D02*
X125059524Y-139774819D01*
X125059524Y-139774819D02*
X124964286Y-139727200D01*
X124964286Y-139727200D02*
X124916667Y-139679580D01*
%TO.C,C4*%
D11*
X124488748Y-143275000D02*
X125011252Y-143275000D01*
X124488748Y-144745000D02*
X125011252Y-144745000D01*
%TO.C,SW6*%
X104200000Y-131810000D02*
X104200000Y-133010000D01*
X101900000Y-131810000D02*
X104200000Y-131810000D01*
X104200000Y-135510000D02*
X104200000Y-134810000D01*
X104200000Y-138010000D02*
X104200000Y-137310000D01*
X104200000Y-139810000D02*
X104200000Y-141010000D01*
X104200000Y-141010000D02*
X101900000Y-141010000D01*
%TO.C,J2*%
X102100000Y-130580000D02*
X106550000Y-130580000D01*
X107950000Y-130580000D02*
X110250000Y-130580000D01*
X111650000Y-130580000D02*
X112370000Y-130580000D01*
X112370000Y-130580000D02*
X112370000Y-127900000D01*
X100730000Y-129100000D02*
X100730000Y-128240000D01*
X112370000Y-125600000D02*
X112370000Y-121930000D01*
X112370000Y-119630000D02*
X112370000Y-118400000D01*
X112370000Y-118400000D02*
X102550000Y-118400000D01*
%TO.C,SW5*%
X147624640Y-35900000D02*
X147624640Y-36300000D01*
X147624640Y-35900000D02*
X152364640Y-35900000D01*
X147624640Y-39300000D02*
X147624640Y-37240000D01*
X147624640Y-40640000D02*
X147624640Y-40240000D01*
X147624640Y-40640000D02*
X152364640Y-40640000D01*
X152364640Y-35900000D02*
X152364640Y-36300000D01*
X152364640Y-39300000D02*
X152364640Y-37240000D01*
X152364640Y-40640000D02*
X152364640Y-40240000D01*
%TO.C,SW4*%
X157024640Y-35900000D02*
X157024640Y-36300000D01*
X157024640Y-35900000D02*
X161764640Y-35900000D01*
X157024640Y-39300000D02*
X157024640Y-37240000D01*
X157024640Y-40640000D02*
X157024640Y-40240000D01*
X157024640Y-40640000D02*
X161764640Y-40640000D01*
X161764640Y-35900000D02*
X161764640Y-36300000D01*
X161764640Y-39300000D02*
X161764640Y-37240000D01*
X161764640Y-40640000D02*
X161764640Y-40240000D01*
%TO.C,SW3*%
X138030000Y-35880000D02*
X138030000Y-36280000D01*
X138030000Y-35880000D02*
X142770000Y-35880000D01*
X138030000Y-39280000D02*
X138030000Y-37220000D01*
X138030000Y-40620000D02*
X138030000Y-40220000D01*
X138030000Y-40620000D02*
X142770000Y-40620000D01*
X142770000Y-35880000D02*
X142770000Y-36280000D01*
X142770000Y-39280000D02*
X142770000Y-37220000D01*
X142770000Y-40620000D02*
X142770000Y-40220000D01*
%TO.C,SW2*%
X147624640Y-41150000D02*
X147624640Y-41550000D01*
X147624640Y-41150000D02*
X152364640Y-41150000D01*
X147624640Y-44550000D02*
X147624640Y-42490000D01*
X147624640Y-45890000D02*
X147624640Y-45490000D01*
X147624640Y-45890000D02*
X152364640Y-45890000D01*
X152364640Y-41150000D02*
X152364640Y-41550000D01*
X152364640Y-44550000D02*
X152364640Y-42490000D01*
X152364640Y-45890000D02*
X152364640Y-45490000D01*
%TO.C,SW1*%
X147524640Y-30900000D02*
X147524640Y-31300000D01*
X147524640Y-30900000D02*
X152264640Y-30900000D01*
X147524640Y-34300000D02*
X147524640Y-32240000D01*
X147524640Y-35640000D02*
X147524640Y-35240000D01*
X147524640Y-35640000D02*
X152264640Y-35640000D01*
X152264640Y-30900000D02*
X152264640Y-31300000D01*
X152264640Y-34300000D02*
X152264640Y-32240000D01*
X152264640Y-35640000D02*
X152264640Y-35240000D01*
%TO.C,J1*%
X106870000Y-68870000D02*
X108250000Y-68870000D01*
X106870000Y-70250000D02*
X106870000Y-68870000D01*
X106870000Y-71520000D02*
X106870000Y-89410000D01*
X106870000Y-71520000D02*
X109630000Y-71520000D01*
X106870000Y-89410000D02*
X109630000Y-89410000D01*
X109630000Y-71520000D02*
X109630000Y-89410000D01*
%TO.C,C3*%
X124488748Y-140265000D02*
X125011252Y-140265000D01*
X124488748Y-141735000D02*
X125011252Y-141735000D01*
%TD*%
M02*
