%TF.GenerationSoftware,KiCad,Pcbnew,10.0.5*%
%TF.CreationDate,2026-09-18T10:15:03+05:30*%
%TF.ProjectId,Libre,4c696272-652e-46b6-9963-61645f706362,rev?*%
%TF.SameCoordinates,Original*%
%TF.FileFunction,Copper,L2,Bot*%
%TF.FilePolarity,Positive*%
%FSLAX46Y46*%
G04 Gerber Fmt 4.6, Leading zero omitted, Abs format (unit mm)*
G04 Created by KiCad (PCBNEW 10.0.5) date 2026-09-18 10:15:03*
%MOMM*%
%LPD*%
G01*
G04 APERTURE LIST*
G04 Aperture macros list*
%AMRoundRect*
0 Rectangle with rounded corners*
0 $1 Rounding radius*
0 $2 $3 $4 $5 $6 $7 $8 $9 X,Y pos of 4 corners*
0 Add a 4 corners polygon primitive as box body*
4,1,4,$2,$3,$4,$5,$6,$7,$8,$9,$2,$3,0*
0 Add four circle primitives for the rounded corners*
1,1,$1+$1,$2,$3*
1,1,$1+$1,$4,$5*
1,1,$1+$1,$6,$7*
1,1,$1+$1,$8,$9*
0 Add four rect primitives between the rounded corners*
20,1,$1+$1,$2,$3,$4,$5,0*
20,1,$1+$1,$4,$5,$6,$7,0*
20,1,$1+$1,$6,$7,$8,$9,0*
20,1,$1+$1,$8,$9,$2,$3,0*%
G04 Aperture macros list end*
%TA.AperFunction,SMDPad,CuDef*%
%ADD10RoundRect,0.225000X0.225000X0.250000X-0.225000X0.250000X-0.225000X-0.250000X0.225000X-0.250000X0*%
%TD*%
%TA.AperFunction,SMDPad,CuDef*%
%ADD11RoundRect,0.200000X0.200000X0.275000X-0.200000X0.275000X-0.200000X-0.275000X0.200000X-0.275000X0*%
%TD*%
%TA.AperFunction,SMDPad,CuDef*%
%ADD12RoundRect,0.150000X0.512500X0.150000X-0.512500X0.150000X-0.512500X-0.150000X0.512500X-0.150000X0*%
%TD*%
%TA.AperFunction,ComponentPad*%
%ADD13C,1.530000*%
%TD*%
%TA.AperFunction,ComponentPad*%
%ADD14R,1.530000X1.530000*%
%TD*%
%TA.AperFunction,ComponentPad*%
%ADD15RoundRect,0.250000X0.350000X0.625000X-0.350000X0.625000X-0.350000X-0.625000X0.350000X-0.625000X0*%
%TD*%
%TA.AperFunction,ComponentPad*%
%ADD16O,1.200000X1.750000*%
%TD*%
%TA.AperFunction,ComponentPad*%
%ADD17R,1.700000X1.700000*%
%TD*%
%TA.AperFunction,ComponentPad*%
%ADD18C,1.700000*%
%TD*%
%TA.AperFunction,ViaPad*%
%ADD19C,0.600000*%
%TD*%
%TA.AperFunction,Conductor*%
%ADD20C,0.200000*%
%TD*%
G04 APERTURE END LIST*
D10*
%TO.P,C1,2*%
%TO.N,GND*%
X190157500Y-69045000D03*
%TO.P,C1,1*%
%TO.N,/SW_BATT+*%
X191707500Y-69045000D03*
%TD*%
%TO.P,C2,2*%
%TO.N,GND*%
X190157500Y-71555000D03*
%TO.P,C2,1*%
%TO.N,+3V3*%
X191707500Y-71555000D03*
%TD*%
%TO.P,C5,2*%
%TO.N,Net-(U1-GPIO1)*%
X190157500Y-74065000D03*
%TO.P,C5,1*%
%TO.N,GND*%
X191707500Y-74065000D03*
%TD*%
D11*
%TO.P,R1,2*%
%TO.N,GND*%
X190107500Y-76575000D03*
%TO.P,R1,1*%
%TO.N,Net-(U2-PROG)*%
X191757500Y-76575000D03*
%TD*%
%TO.P,R2,2*%
%TO.N,Net-(U1-GPIO1)*%
X190107500Y-79085000D03*
%TO.P,R2,1*%
%TO.N,+BATT*%
X191757500Y-79085000D03*
%TD*%
%TO.P,R3,2*%
%TO.N,GND*%
X190107500Y-81595000D03*
%TO.P,R3,1*%
%TO.N,Net-(U1-GPIO1)*%
X191757500Y-81595000D03*
%TD*%
D12*
%TO.P,U3,5,VOUT_5*%
%TO.N,+3V3*%
X189225000Y-88925000D03*
%TO.P,U3,4,NC_4*%
%TO.N,unconnected-(U3-NC-Pad4)*%
X189225000Y-90825000D03*
%TO.P,U3,3,EN_3*%
%TO.N,/SW_BATT+*%
X191500000Y-90825000D03*
%TO.P,U3,2,GND_2*%
%TO.N,GND*%
X191500000Y-89875000D03*
%TO.P,U3,1,VIN_1*%
%TO.N,/SW_BATT+*%
X191500000Y-88925000D03*
%TD*%
%TO.P,U2,5,PROG_5*%
%TO.N,Net-(U2-PROG)*%
X189225000Y-84300000D03*
%TO.P,U2,4,V_{DD}_4*%
%TO.N,USB_5V*%
X189225000Y-86200000D03*
%TO.P,U2,3,V_{BAT}_3*%
%TO.N,+BATT*%
X191500000Y-86200000D03*
%TO.P,U2,2,V_{SS}_2*%
%TO.N,GND*%
X191500000Y-85250000D03*
%TO.P,U2,1,STAT_1*%
%TO.N,unconnected-(U2-STAT-Pad1)*%
X191500000Y-84300000D03*
%TD*%
D13*
%TO.P,U1,J1_22,GND_J1_22*%
%TO.N,GND*%
X162000000Y-161990000D03*
%TO.P,U1,J3_22,GND_J3_22*%
X139140000Y-161990000D03*
%TO.P,U1,J1_21,5V0_J1_21*%
%TO.N,USB_5V*%
X162000000Y-159450000D03*
%TO.P,U1,J1_20,GPIO14_J1_20*%
%TO.N,SD_MISO*%
X162000000Y-156910000D03*
%TO.P,U1,J1_19,GPIO13_J1_19*%
%TO.N,SD_MOSI*%
X162000000Y-154370000D03*
%TO.P,U1,J1_18,GPIO12_J1_18*%
%TO.N,DIN*%
X162000000Y-151830000D03*
%TO.P,U1,J1_17,GPIO11_J1_17*%
%TO.N,CLK*%
X162000000Y-149290000D03*
%TO.P,U1,J1_16,GPIO10_J1_16*%
%TO.N,CS*%
X162000000Y-146750000D03*
%TO.P,U1,J1_15,GPIO9_J1_15*%
%TO.N,DC*%
X162000000Y-144210000D03*
%TO.P,U1,J1_14,GPIO46_J1_14*%
%TO.N,unconnected-(U1-GPIO46-PadJ1_14)*%
X162000000Y-141670000D03*
%TO.P,U1,J1_13,GPIO3_J1_13*%
%TO.N,unconnected-(U1-GPIO3-PadJ1_13)*%
X162000000Y-139130000D03*
%TO.P,U1,J1_12,GPIO8_J1_12*%
%TO.N,RST*%
X162000000Y-136590000D03*
%TO.P,U1,J1_11,GPIO18_J1_11*%
%TO.N,unconnected-(U1-GPIO18-PadJ1_11)*%
X162000000Y-134050000D03*
%TO.P,U1,J1_10,GPIO17_J1_10*%
%TO.N,Net-(U1-GPIO17)*%
X162000000Y-131510000D03*
%TO.P,U1,J1_9,GPIO16_J1_9*%
%TO.N,Net-(U1-GPIO16)*%
X162000000Y-128970000D03*
%TO.P,U1,J1_8,GPIO15_J1_8*%
%TO.N,Net-(U1-GPIO15)*%
X162000000Y-126430000D03*
%TO.P,U1,J1_7,GPIO7_J1_7*%
%TO.N,BUSY*%
X162000000Y-123890000D03*
%TO.P,U1,J1_6,GPIO6_J1_6*%
%TO.N,SD_CLK*%
X162000000Y-121350000D03*
%TO.P,U1,J1_5,GPIO5_J1_5*%
%TO.N,SD_CS*%
X162000000Y-118810000D03*
%TO.P,U1,J1_4,GPIO4_J1_4*%
%TO.N,Net-(U1-GPIO4)*%
X162000000Y-116270000D03*
%TO.P,U1,J1_3,RST_J1_3*%
%TO.N,unconnected-(U1-RST-PadJ1_3)*%
X162000000Y-113730000D03*
%TO.P,U1,J1_2,3V3_J1_2*%
%TO.N,+3V3*%
X162000000Y-111190000D03*
D14*
%TO.P,U1,J1_1,3V3_J1_1*%
X162000000Y-108650000D03*
D13*
%TO.P,U1,J3_21,GND_J3_21*%
%TO.N,GND*%
X139140000Y-159450000D03*
%TO.P,U1,J3_20,USB_D-/GPIO19_J3_20*%
%TO.N,unconnected-(U1-USB_D-{slash}GPIO19-PadJ3_20)*%
X139140000Y-156910000D03*
%TO.P,U1,J3_19,USB_D+/GPIO20_J3_19*%
%TO.N,unconnected-(U1-USB_D+{slash}GPIO20-PadJ3_19)*%
X139140000Y-154370000D03*
%TO.P,U1,J3_18,GPIO21_J3_18*%
%TO.N,unconnected-(U1-GPIO21-PadJ3_18)*%
X139140000Y-151830000D03*
%TO.P,U1,J3_17,GPIO47_J3_17*%
%TO.N,unconnected-(U1-GPIO47-PadJ3_17)*%
X139140000Y-149290000D03*
%TO.P,U1,J3_16,GPIO48_J3_16*%
%TO.N,unconnected-(U1-GPIO48-PadJ3_16)*%
X139140000Y-146750000D03*
%TO.P,U1,J3_15,GPIO45_J3_15*%
%TO.N,unconnected-(U1-GPIO45-PadJ3_15)*%
X139140000Y-144210000D03*
%TO.P,U1,J3_14,GPIO0_J3_14*%
%TO.N,unconnected-(U1-GPIO0-PadJ3_14)*%
X139140000Y-141670000D03*
%TO.P,U1,J3_13,GPIO35_J3_13*%
%TO.N,unconnected-(U1-GPIO35-PadJ3_13)*%
X139140000Y-139130000D03*
%TO.P,U1,J3_12,GPIO36_J3_12*%
%TO.N,unconnected-(U1-GPIO36-PadJ3_12)*%
X139140000Y-136590000D03*
%TO.P,U1,J3_11,GPIO37_J3_11*%
%TO.N,unconnected-(U1-GPIO37-PadJ3_11)*%
X139140000Y-134050000D03*
%TO.P,U1,J3_10,GPIO38_J3_10*%
%TO.N,unconnected-(U1-GPIO38-PadJ3_10)*%
X139140000Y-131510000D03*
%TO.P,U1,J3_9,MTCK/GPIO39_J3_9*%
%TO.N,unconnected-(U1-MTCK{slash}GPIO39-PadJ3_9)*%
X139140000Y-128970000D03*
%TO.P,U1,J3_8,MTDO/GPIO40_J3_8*%
%TO.N,unconnected-(U1-MTDO{slash}GPIO40-PadJ3_8)*%
X139140000Y-126430000D03*
%TO.P,U1,J3_7,MTDI/GPIO41_J3_7*%
%TO.N,unconnected-(U1-MTDI{slash}GPIO41-PadJ3_7)*%
X139140000Y-123890000D03*
%TO.P,U1,J3_6,MTMS/GPIO42_J3_6*%
%TO.N,unconnected-(U1-MTMS{slash}GPIO42-PadJ3_6)*%
X139140000Y-121350000D03*
%TO.P,U1,J3_5,GPIO2_J3_5*%
%TO.N,Net-(U1-GPIO2)*%
X139140000Y-118810000D03*
%TO.P,U1,J3_4,GPIO1_J3_4*%
%TO.N,Net-(U1-GPIO1)*%
X139140000Y-116270000D03*
%TO.P,U1,J3_3,U0RXD/GPIO44_J3_3*%
%TO.N,unconnected-(U1-U0RXD{slash}GPIO44-PadJ3_3)*%
X139140000Y-113730000D03*
%TO.P,U1,J3_2,U0TXD/GPIO43_J3_2*%
%TO.N,unconnected-(U1-U0TXD{slash}GPIO43-PadJ3_2)*%
X139140000Y-111190000D03*
%TO.P,U1,J3_1,GND_J3_1*%
%TO.N,GND*%
X139140000Y-108650000D03*
%TD*%
D15*
%TO.P,J3,1,Pin_1_1*%
%TO.N,+BATT*%
X181507500Y-78845000D03*
D16*
%TO.P,J3,2,Pin_2_2*%
%TO.N,GND*%
X179507500Y-78845000D03*
%TD*%
D17*
%TO.P,J1,1,Pin_1_1*%
%TO.N,+3V3*%
X108250000Y-70250000D03*
D18*
%TO.P,J1,2,Pin_2_2*%
%TO.N,GND*%
X108250000Y-72790000D03*
%TO.P,J1,3,Pin_3_3*%
%TO.N,DIN*%
X108250000Y-75330000D03*
%TO.P,J1,4,Pin_4_4*%
%TO.N,CLK*%
X108250000Y-77870000D03*
%TO.P,J1,5,Pin_5_5*%
%TO.N,CS*%
X108250000Y-80410000D03*
%TO.P,J1,6,Pin_6_6*%
%TO.N,DC*%
X108250000Y-82950000D03*
%TO.P,J1,7,Pin_7_7*%
%TO.N,RST*%
X108250000Y-85490000D03*
%TO.P,J1,8,Pin_8_8*%
%TO.N,BUSY*%
X108250000Y-88030000D03*
%TD*%
D19*
%TO.N,CLK*%
X157250000Y-158575000D03*
X126250000Y-97500000D03*
%TO.N,DC*%
X126250000Y-101150000D03*
%TO.N,RST*%
X126000000Y-117500000D03*
%TO.N,BUSY*%
X127850000Y-99799265D03*
%TO.N,+3V3*%
X126250000Y-119000000D03*
%TO.N,SD_CLK*%
X125750000Y-130000000D03*
X122250000Y-133500000D03*
X108684313Y-124434313D03*
%TO.N,SD_CS*%
X109250000Y-125000000D03*
%TO.N,GND*%
X112000000Y-116500000D03*
X128250000Y-102000000D03*
%TO.N,USB_5V*%
X183250000Y-109250000D03*
X185750000Y-88250000D03*
%TO.N,GND*%
X190787500Y-85429135D03*
X187500000Y-89525000D03*
%TO.N,SD_MOSI*%
X102250000Y-125750000D03*
X126400001Y-142076337D03*
%TO.N,DIN*%
X126500000Y-133500000D03*
%TO.N,+3V3*%
X105500000Y-117750000D03*
X102250000Y-124250000D03*
%TO.N,GND*%
X130500000Y-98000000D03*
%TO.N,SD_MISO*%
X111325000Y-123750000D03*
%TO.N,GND*%
X126000000Y-138250000D03*
%TO.N,Net-(U1-GPIO1)*%
X190007500Y-80250000D03*
X188500000Y-79000000D03*
%TO.N,+BATT*%
X191250000Y-78000000D03*
X164500000Y-83750000D03*
%TO.N,/SW_BATT+*%
X190500000Y-128500000D03*
%TO.N,Net-(U1-GPIO4)*%
X169250000Y-116500000D03*
%TO.N,Net-(U1-GPIO2)*%
X134250000Y-118000000D03*
X146000000Y-56000000D03*
%TO.N,GND*%
X185250000Y-76500000D03*
%TD*%
%TO.N,CLK*%
D20*
X157250000Y-159250000D02*
X157250000Y-158575000D01*
X157500000Y-159500000D02*
X157250000Y-159250000D01*
X156485000Y-160515000D02*
X157500000Y-159500000D01*
X136166471Y-160515000D02*
X156485000Y-160515000D01*
X101650000Y-125998529D02*
X136166471Y-160515000D01*
X126250000Y-97500000D02*
X115630000Y-86880000D01*
X107773654Y-86880000D02*
X101650000Y-93003654D01*
X101650000Y-93003654D02*
X101650000Y-125998529D01*
X115630000Y-86880000D02*
X107773654Y-86880000D01*
%TO.N,DC*%
X163065000Y-145275000D02*
X162000000Y-144210000D01*
X163065000Y-157351138D02*
X163065000Y-145275000D01*
X162441138Y-157975000D02*
X163065000Y-157351138D01*
X127600000Y-146876138D02*
X138698862Y-157975000D01*
X120117609Y-137281824D02*
X127600000Y-137281824D01*
X108084313Y-125248528D02*
X120117609Y-137281824D01*
X108084313Y-119315687D02*
X108084313Y-125248528D01*
X126250000Y-101150000D02*
X108084313Y-119315687D01*
X127600000Y-137281824D02*
X127600000Y-146876138D01*
X138698862Y-157975000D02*
X162441138Y-157975000D01*
%TO.N,RST*%
X169850000Y-128740000D02*
X162000000Y-136590000D01*
X169850000Y-116251471D02*
X169850000Y-128740000D01*
X163723529Y-110125000D02*
X169850000Y-116251471D01*
X147830000Y-110125000D02*
X163723529Y-110125000D01*
X142750000Y-115205000D02*
X147830000Y-110125000D01*
X135303862Y-118600000D02*
X138698862Y-115205000D01*
X127100000Y-118600000D02*
X135303862Y-118600000D01*
X126000000Y-117500000D02*
X127100000Y-118600000D01*
X138698862Y-115205000D02*
X142750000Y-115205000D01*
%TO.N,BUSY*%
X119720000Y-99500000D02*
X108250000Y-88030000D01*
X127550735Y-99500000D02*
X119720000Y-99500000D01*
X127850000Y-99799265D02*
X127550735Y-99500000D01*
%TO.N,+3V3*%
X155855000Y-117335000D02*
X162000000Y-111190000D01*
X139108862Y-117335000D02*
X155855000Y-117335000D01*
X137443862Y-119000000D02*
X139108862Y-117335000D01*
X126250000Y-119000000D02*
X137443862Y-119000000D01*
%TO.N,SD_CLK*%
X160525000Y-122825000D02*
X162000000Y-121350000D01*
X132925000Y-122825000D02*
X160525000Y-122825000D01*
X125750000Y-130000000D02*
X132925000Y-122825000D01*
X115901471Y-132500000D02*
X121500000Y-132500000D01*
X108650000Y-125248529D02*
X115901471Y-132500000D01*
X108684313Y-124434313D02*
X108650000Y-124468626D01*
X121500000Y-132750000D02*
X122250000Y-133500000D01*
X108650000Y-124468626D02*
X108650000Y-125248529D01*
X121500000Y-132500000D02*
X121500000Y-132750000D01*
%TO.N,SD_CS*%
X160935000Y-119875000D02*
X162000000Y-118810000D01*
X114351471Y-119875000D02*
X160935000Y-119875000D01*
X109250000Y-124976471D02*
X114351471Y-119875000D01*
X109250000Y-125000000D02*
X109250000Y-124976471D01*
%TO.N,GND*%
X126500000Y-103750000D02*
X126500000Y-116500000D01*
X126500000Y-116500000D02*
X112000000Y-116500000D01*
X128250000Y-102000000D02*
X126500000Y-103750000D01*
%TO.N,USB_5V*%
X183250000Y-138200000D02*
X162000000Y-159450000D01*
X183250000Y-109250000D02*
X183250000Y-138200000D01*
X187800000Y-86200000D02*
X185750000Y-88250000D01*
X189225000Y-86200000D02*
X187800000Y-86200000D01*
%TO.N,GND*%
X190787500Y-85429135D02*
X191320865Y-85429135D01*
X191320865Y-85429135D02*
X191500000Y-85250000D01*
X187850000Y-89875000D02*
X187500000Y-89525000D01*
X191500000Y-89875000D02*
X187850000Y-89875000D01*
X190187500Y-81675000D02*
X190107500Y-81595000D01*
X190187500Y-84599999D02*
X190187500Y-81675000D01*
X190837501Y-85250000D02*
X190187500Y-84599999D01*
X191500000Y-85250000D02*
X190837501Y-85250000D01*
%TO.N,Net-(U2-PROG)*%
X192203186Y-86896814D02*
X193350000Y-85750000D01*
X193350000Y-85750000D02*
X193350000Y-78167500D01*
X193350000Y-78167500D02*
X191757500Y-76575000D01*
X190893762Y-86896814D02*
X192203186Y-86896814D01*
X190187500Y-86190552D02*
X190893762Y-86896814D01*
X190187500Y-85262500D02*
X190187500Y-86190552D01*
X189225000Y-84300000D02*
X190187500Y-85262500D01*
%TO.N,+3V3*%
X193750000Y-86109314D02*
X193750000Y-73597500D01*
X191534314Y-88325000D02*
X193750000Y-86109314D01*
X190537500Y-88584448D02*
X190796948Y-88325000D01*
X190796948Y-88325000D02*
X191534314Y-88325000D01*
X190537500Y-88925000D02*
X190537500Y-88584448D01*
X189225000Y-88925000D02*
X190537500Y-88925000D01*
X193750000Y-73597500D02*
X191707500Y-71555000D01*
%TO.N,+BATT*%
X191853052Y-86200000D02*
X191500000Y-86200000D01*
X192900000Y-80227500D02*
X192900000Y-85153052D01*
X191757500Y-79085000D02*
X192900000Y-80227500D01*
X192900000Y-85153052D02*
X191853052Y-86200000D01*
%TO.N,SD_MOSI*%
X118576337Y-142076337D02*
X102250000Y-125750000D01*
X126400001Y-142076337D02*
X118576337Y-142076337D01*
%TO.N,DIN*%
X160830000Y-153000000D02*
X162000000Y-151830000D01*
X138503862Y-153000000D02*
X160830000Y-153000000D01*
X138075000Y-152571138D02*
X138503862Y-153000000D01*
X138075000Y-145075000D02*
X138075000Y-152571138D01*
X126500000Y-133500000D02*
X138075000Y-145075000D01*
%TO.N,+3V3*%
X105500000Y-121000000D02*
X102250000Y-124250000D01*
X105500000Y-117750000D02*
X105500000Y-121000000D01*
%TO.N,GND*%
X130500000Y-95040000D02*
X108250000Y-72790000D01*
X130500000Y-98000000D02*
X130500000Y-95040000D01*
%TO.N,SD_MISO*%
X160935000Y-155845000D02*
X162000000Y-156910000D01*
X137595000Y-155845000D02*
X160935000Y-155845000D01*
X114633862Y-123750000D02*
X128000000Y-137116138D01*
X128000000Y-146250000D02*
X137595000Y-155845000D01*
X128000000Y-137116138D02*
X128000000Y-146250000D01*
X111325000Y-123750000D02*
X114633862Y-123750000D01*
%TO.N,GND*%
X127000000Y-147310000D02*
X139140000Y-159450000D01*
X127000000Y-139250000D02*
X127000000Y-147310000D01*
X126000000Y-138250000D02*
X127000000Y-139250000D01*
%TO.N,Net-(U1-GPIO1)*%
X190107500Y-79085000D02*
X190107500Y-79945000D01*
X190107500Y-79945000D02*
X191757500Y-81595000D01*
X190007500Y-79185000D02*
X190107500Y-79085000D01*
X190007500Y-80250000D02*
X190007500Y-79185000D01*
X190157500Y-74065000D02*
X188500000Y-75722500D01*
X188500000Y-75722500D02*
X188500000Y-79000000D01*
%TO.N,+BATT*%
X191250000Y-78577500D02*
X191757500Y-79085000D01*
X191250000Y-78000000D02*
X191250000Y-78577500D01*
X164500000Y-83750000D02*
X176602500Y-83750000D01*
X176602500Y-83750000D02*
X181507500Y-78845000D01*
%TO.N,+3V3*%
X189225000Y-88925000D02*
X181725000Y-88925000D01*
X181725000Y-88925000D02*
X162000000Y-108650000D01*
%TO.N,/SW_BATT+*%
X194250000Y-86175000D02*
X194250000Y-71587500D01*
X194250000Y-71587500D02*
X191707500Y-69045000D01*
X191500000Y-88925000D02*
X194250000Y-86175000D01*
X191853052Y-88925000D02*
X191500000Y-88925000D01*
X192462500Y-89534448D02*
X191853052Y-88925000D01*
X192162499Y-90825000D02*
X192462500Y-90524999D01*
X191500000Y-90825000D02*
X192162499Y-90825000D01*
X192462500Y-90524999D02*
X192462500Y-89534448D01*
X190500000Y-91825000D02*
X191500000Y-90825000D01*
X190500000Y-128500000D02*
X190500000Y-91825000D01*
%TO.N,Net-(U1-GPIO4)*%
X169020000Y-116270000D02*
X162000000Y-116270000D01*
X169250000Y-116500000D02*
X169020000Y-116270000D01*
%TO.N,Net-(U1-GPIO2)*%
X146000000Y-56000000D02*
X134250000Y-67750000D01*
X134250000Y-67750000D02*
X134250000Y-118000000D01*
%TO.N,GND*%
X189407500Y-77275000D02*
X189407500Y-80895000D01*
X190107500Y-76575000D02*
X189407500Y-77275000D01*
X189407500Y-80895000D02*
X190107500Y-81595000D01*
X191707500Y-74065000D02*
X191707500Y-74975000D01*
X191707500Y-74975000D02*
X190107500Y-76575000D01*
X190157500Y-72515000D02*
X191707500Y-74065000D01*
X190157500Y-71555000D02*
X190157500Y-72515000D01*
X185250000Y-76500000D02*
X190157500Y-71592500D01*
X190157500Y-71592500D02*
X190157500Y-69045000D01*
%TD*%
M02*
