%TF.GenerationSoftware,KiCad,Pcbnew,10.0.5*%
%TF.CreationDate,2026-09-15T19:20:50+05:30*%
%TF.ProjectId,Libre,4c696272-652e-46b6-9963-61645f706362,rev?*%
%TF.SameCoordinates,Original*%
%TF.FileFunction,Soldermask,Top*%
%TF.FilePolarity,Negative*%
%FSLAX46Y46*%
G04 Gerber Fmt 4.6, Leading zero omitted, Abs format (unit mm)*
G04 Created by KiCad (PCBNEW 10.0.5) date 2026-09-15 19:20:50*
%MOMM*%
%LPD*%
G01*
G04 APERTURE LIST*
G04 Aperture macros list*
%AMRoundRect*
0 Rectangle with rounded corners*
0 $1 Rounding radius*
0 $2 $3 $4 $5 $6 $7 $8 $9 X,Y pos of 4 corners*
0 Add a 4 corners polygon primitive as box body*
4,1,4,$2,$3,$4,$5,$6,$7,$8,$9,$2,$3,0*
0 Add four circle primitives for the rounded corners*
1,1,$1+$1,$2,$3*
1,1,$1+$1,$4,$5*
1,1,$1+$1,$6,$7*
1,1,$1+$1,$8,$9*
0 Add four rect primitives between the rounded corners*
20,1,$1+$1,$2,$3,$4,$5,0*
20,1,$1+$1,$4,$5,$6,$7,0*
20,1,$1+$1,$6,$7,$8,$9,0*
20,1,$1+$1,$8,$9,$2,$3,0*%
G04 Aperture macros list end*
%ADD10R,1.600000X1.400000*%
%ADD11C,1.734000*%
%ADD12RoundRect,0.102000X0.765000X0.765000X-0.765000X0.765000X-0.765000X-0.765000X0.765000X-0.765000X0*%
%ADD13R,1.800000X1.170000*%
%ADD14R,1.350000X1.900000*%
%ADD15R,1.350000X1.550000*%
%ADD16R,1.000000X1.200000*%
%ADD17R,1.100000X0.750000*%
%ADD18R,1.100000X0.850000*%
%ADD19RoundRect,0.250000X1.000000X-0.375000X1.000000X0.375000X-1.000000X0.375000X-1.000000X-0.375000X0*%
%ADD20C,0.900000*%
%ADD21RoundRect,0.150000X-0.512500X-0.150000X0.512500X-0.150000X0.512500X0.150000X-0.512500X0.150000X0*%
%ADD22RoundRect,0.200000X-0.200000X-0.275000X0.200000X-0.275000X0.200000X0.275000X-0.200000X0.275000X0*%
%ADD23RoundRect,0.250000X-0.350000X-0.625000X0.350000X-0.625000X0.350000X0.625000X-0.350000X0.625000X0*%
%ADD24O,1.200000X1.750000*%
%ADD25R,1.700000X1.700000*%
%ADD26C,1.700000*%
%ADD27RoundRect,0.225000X-0.225000X-0.250000X0.225000X-0.250000X0.225000X0.250000X-0.225000X0.250000X0*%
%ADD28RoundRect,0.250000X-0.250000X-0.475000X0.250000X-0.475000X0.250000X0.475000X-0.250000X0.475000X0*%
G04 APERTURE END LIST*
D10*
%TO.C,SW1*%
X122600000Y-60500000D03*
X115400000Y-60500000D03*
X122600000Y-57500000D03*
X115400000Y-57500000D03*
%TD*%
D11*
%TO.C,U1*%
X106849500Y-84385000D03*
X106849500Y-86925000D03*
X106849500Y-89465000D03*
X106849500Y-92005000D03*
X106849500Y-94545000D03*
X106849500Y-97085000D03*
X106849500Y-99625000D03*
X106849500Y-102165000D03*
X106849500Y-104705000D03*
X106849500Y-107245000D03*
X106849500Y-109785000D03*
X106849500Y-112325000D03*
X106849500Y-114865000D03*
X106849500Y-117405000D03*
X106849500Y-119945000D03*
X106849500Y-122485000D03*
X106849500Y-125025000D03*
X106849500Y-127565000D03*
X106849500Y-130105000D03*
X106849500Y-132645000D03*
X106849500Y-135185000D03*
D12*
X129709500Y-84385000D03*
D11*
X129709500Y-86925000D03*
X129709500Y-89465000D03*
X129709500Y-92005000D03*
X129709500Y-94545000D03*
X129709500Y-97085000D03*
X129709500Y-99625000D03*
X129709500Y-102165000D03*
X129709500Y-104705000D03*
X129709500Y-107245000D03*
X129709500Y-109785000D03*
X129709500Y-112325000D03*
X129709500Y-114865000D03*
X129709500Y-117405000D03*
X129709500Y-119945000D03*
X129709500Y-122485000D03*
X129709500Y-125025000D03*
X129709500Y-127565000D03*
X129709500Y-130105000D03*
X129709500Y-132645000D03*
X129709500Y-135185000D03*
X106849500Y-137725000D03*
X129709500Y-137725000D03*
%TD*%
D10*
%TO.C,SW2*%
X115500000Y-67500000D03*
X122700000Y-67500000D03*
X115500000Y-70500000D03*
X122700000Y-70500000D03*
%TD*%
%TO.C,SW5*%
X122600000Y-65500000D03*
X115400000Y-65500000D03*
X122600000Y-62500000D03*
X115400000Y-62500000D03*
%TD*%
%TO.C,SW4*%
X132200000Y-65500000D03*
X125000000Y-65500000D03*
X132200000Y-62500000D03*
X125000000Y-62500000D03*
%TD*%
%TO.C,SW3*%
X113100000Y-65500000D03*
X105900000Y-65500000D03*
X113100000Y-62500000D03*
X105900000Y-62500000D03*
%TD*%
D13*
%TO.C,J2*%
X143600000Y-100255000D03*
D14*
X133125000Y-98230000D03*
X133125000Y-92260000D03*
D15*
X143825000Y-88935000D03*
D16*
X134100000Y-88760000D03*
X137800000Y-88760000D03*
D17*
X143950000Y-99045000D03*
D18*
X143950000Y-97995000D03*
X143950000Y-96895000D03*
X143950000Y-95795000D03*
X143950000Y-94695000D03*
X143950000Y-93595000D03*
X143950000Y-92495000D03*
X143950000Y-91395000D03*
%TD*%
D19*
%TO.C,SW6*%
X140000000Y-80100000D03*
X140000000Y-82600000D03*
X140000000Y-85100000D03*
D20*
X142750000Y-79200000D03*
X142750000Y-86000000D03*
%TD*%
D21*
%TO.C,U3*%
X109850000Y-120250000D03*
X109850000Y-121200000D03*
X109850000Y-122150000D03*
X112125000Y-122150000D03*
X112125000Y-120250000D03*
%TD*%
%TO.C,U2*%
X123350000Y-119800000D03*
X123350000Y-120750000D03*
X123350000Y-121700000D03*
X125625000Y-121700000D03*
X125625000Y-119800000D03*
%TD*%
D22*
%TO.C,R3*%
X113350000Y-111500000D03*
X115000000Y-111500000D03*
%TD*%
%TO.C,R2*%
X122350000Y-107250000D03*
X124000000Y-107250000D03*
%TD*%
%TO.C,R1*%
X121850000Y-111500000D03*
X123500000Y-111500000D03*
%TD*%
D23*
%TO.C,J3*%
X137500000Y-135050000D03*
D24*
X139500000Y-135050000D03*
%TD*%
D25*
%TO.C,J1*%
X141250000Y-108800000D03*
D26*
X141250000Y-111340000D03*
X141250000Y-113880000D03*
X141250000Y-116420000D03*
X141250000Y-118960000D03*
X141250000Y-121500000D03*
X141250000Y-124040000D03*
X141250000Y-126580000D03*
%TD*%
D27*
%TO.C,C5*%
X113600000Y-101750000D03*
X115150000Y-101750000D03*
%TD*%
D28*
%TO.C,C4*%
X113350000Y-106750000D03*
X115250000Y-106750000D03*
%TD*%
%TO.C,C3*%
X121650000Y-101750000D03*
X123550000Y-101750000D03*
%TD*%
D27*
%TO.C,C2*%
X121600000Y-96250000D03*
X123150000Y-96250000D03*
%TD*%
%TO.C,C1*%
X113600000Y-97000000D03*
X115150000Y-97000000D03*
%TD*%
M02*
