M48
; DRILL file KiCad 10.0.5 date 2026-09-15T19:20:45
; FORMAT={-:-/ absolute / metric / decimal}
; #@! TF.CreationDate,2026-09-15T19:20:45+05:30
; #@! TF.GenerationSoftware,Kicad,Pcbnew,10.0.5
; #@! TF.FileFunction,Plated,1,2,PTH
FMAT,2
METRIC
; #@! TA.AperFunction,Plated,PTH,ViaDrill
T1C0.300
; #@! TA.AperFunction,Plated,PTH,ComponentDrill
T2C0.750
; #@! TA.AperFunction,Plated,PTH,ComponentDrill
T3C1.000
; #@! TA.AperFunction,Plated,PTH,ComponentDrill
T4C1.020
%
G90
G05
T1
X107.25Y-67.75
X110.0Y-119.5
X111.412Y-118.5
X111.5Y-99.75
X112.25Y-70.0
X113.201Y-110.549
X115.249Y-71.501
X115.763Y-101.513
X116.25Y-97.0
X117.75Y-98.375
X124.0Y-105.75
X124.25Y-68.25
X125.75Y-101.0
X126.25Y-100.25
X126.887Y-121.902
X127.0Y-103.0
X131.0Y-92.75
X131.25Y-129.75
X131.976Y-95.476
X132.75Y-114.0
X133.226Y-94.226
X133.25Y-96.0
X134.25Y-92.15
X134.75Y-106.75
X136.25Y-66.5
X137.674Y-127.576
X138.25Y-100.25
X138.25Y-120.0
X139.25Y-86.0
X139.5Y-98.75
X140.25Y-98.75
X140.25Y-106.0
X141.35Y-95.5
X141.6Y-91.25
X142.549Y-99.299
X142.628Y-97.5
X143.019Y-92.75
X143.95Y-93.595
T2
X137.5Y-135.05
X139.5Y-135.05
T3
X141.25Y-108.8
X141.25Y-111.34
X141.25Y-113.88
X141.25Y-116.42
X141.25Y-118.96
X141.25Y-121.5
X141.25Y-124.04
X141.25Y-126.58
T4
X106.849Y-84.385
X106.849Y-86.925
X106.849Y-89.465
X106.849Y-92.005
X106.849Y-94.545
X106.849Y-97.085
X106.849Y-99.625
X106.849Y-102.165
X106.849Y-104.705
X106.849Y-107.245
X106.849Y-109.785
X106.849Y-112.325
X106.849Y-114.865
X106.849Y-117.405
X106.849Y-119.945
X106.849Y-122.485
X106.849Y-125.025
X106.849Y-127.565
X106.849Y-130.105
X106.849Y-132.645
X106.849Y-135.185
X106.849Y-137.725
X129.709Y-84.385
X129.709Y-86.925
X129.709Y-89.465
X129.709Y-92.005
X129.709Y-94.545
X129.709Y-97.085
X129.709Y-99.625
X129.709Y-102.165
X129.709Y-104.705
X129.709Y-107.245
X129.709Y-109.785
X129.709Y-112.325
X129.709Y-114.865
X129.709Y-117.405
X129.709Y-119.945
X129.709Y-122.485
X129.709Y-125.025
X129.709Y-127.565
X129.709Y-130.105
X129.709Y-132.645
X129.709Y-135.185
X129.709Y-137.725
M30
