%TF.GenerationSoftware,KiCad,Pcbnew,10.0.5*%
%TF.CreationDate,2026-09-15T19:20:50+05:30*%
%TF.ProjectId,Libre,4c696272-652e-46b6-9963-61645f706362,rev?*%
%TF.SameCoordinates,Original*%
%TF.FileFunction,Legend,Bot*%
%TF.FilePolarity,Positive*%
%FSLAX46Y46*%
G04 Gerber Fmt 4.6, Leading zero omitted, Abs format (unit mm)*
G04 Created by KiCad (PCBNEW 10.0.5) date 2026-09-15 19:20:50*
%MOMM*%
%LPD*%
G01*
G04 APERTURE LIST*
%ADD10C,0.150000*%
%ADD11C,0.200000*%
%ADD12C,0.127000*%
G04 APERTURE END LIST*
D10*
X128816404Y-74204819D02*
X128816404Y-75014342D01*
X128816404Y-75014342D02*
X128768785Y-75109580D01*
X128768785Y-75109580D02*
X128721166Y-75157200D01*
X128721166Y-75157200D02*
X128625928Y-75204819D01*
X128625928Y-75204819D02*
X128435452Y-75204819D01*
X128435452Y-75204819D02*
X128340214Y-75157200D01*
X128340214Y-75157200D02*
X128292595Y-75109580D01*
X128292595Y-75109580D02*
X128244976Y-75014342D01*
X128244976Y-75014342D02*
X128244976Y-74204819D01*
X127244976Y-75204819D02*
X127816404Y-75204819D01*
X127530690Y-75204819D02*
X127530690Y-74204819D01*
X127530690Y-74204819D02*
X127625928Y-74347676D01*
X127625928Y-74347676D02*
X127721166Y-74442914D01*
X127721166Y-74442914D02*
X127816404Y-74490533D01*
%TO.C,U1*%
D11*
X132095500Y-84383000D02*
G75*
G02*
X131895500Y-84383000I-100000J0D01*
G01*
X131895500Y-84383000D02*
G75*
G02*
X132095500Y-84383000I100000J0D01*
G01*
D12*
X105579500Y-145725000D02*
X130979500Y-145725000D01*
X105579500Y-82985000D02*
X105579500Y-145725000D01*
X130979500Y-82985000D02*
X105579500Y-82985000D01*
X130979500Y-145725000D02*
X130979500Y-82985000D01*
%TD*%
M02*
